<svg xmlns="http://www.w3.org/2000/svg" width="19" height="16" viewBox="0 0 19 16" fill="none">
<path d="M15.1 4.8V3.2H13.5V1.6H15.1V0H16.7V1.6H18.3V3.2H16.7V4.8H15.1ZM2.30001 16C1.86001 16 1.48335 15.8433 1.17001 15.53C0.856679 15.2167 0.700012 14.84 0.700012 14.4V4.8C0.700012 4.36 0.856679 3.98333 1.17001 3.67C1.48335 3.35667 1.86001 3.2 2.30001 3.2H4.82001L6.30001 1.6H11.1V3.2H7.00001L5.54001 4.8H2.30001V14.4H15.1V7.2H16.7V14.4C16.7 14.84 16.5433 15.2167 16.23 15.53C15.9167 15.8433 15.54 16 15.1 16H2.30001ZM8.70001 13.2C9.70001 13.2 10.55 12.85 11.25 12.15C11.95 11.45 12.3 10.6 12.3 9.6C12.3 8.6 11.95 7.75 11.25 7.05C10.55 6.35 9.70001 6 8.70001 6C7.70001 6 6.85001 6.35 6.15001 7.05C5.45001 7.75 5.10001 8.6 5.10001 9.6C5.10001 10.6 5.45001 11.45 6.15001 12.15C6.85001 12.85 7.70001 13.2 8.70001 13.2ZM8.70001 11.6C8.14001 11.6 7.66668 11.4067 7.28001 11.02C6.89335 10.6333 6.70001 10.16 6.70001 9.6C6.70001 9.04 6.89335 8.56667 7.28001 8.18C7.66668 7.79333 8.14001 7.6 8.70001 7.6C9.26001 7.6 9.73335 7.79333 10.12 8.18C10.5067 8.56667 10.7 9.04 10.7 9.6C10.7 10.16 10.5067 10.6333 10.12 11.02C9.73335 11.4067 9.26001 11.6 8.70001 11.6Z" fill="#FFAE02"/>
</svg>