<svg width="31" height="30" viewBox="0 0 31 30" fill="none" xmlns="http://www.w3.org/2000/svg">
<rect x="0.846924" width="30" height="30" rx="15" fill="url(#paint0_linear_1184_6493)"/>
<g clip-path="url(#clip0_1184_6493)">
<path d="M21.3978 9.08789H10.2841V19.189H21.3978V9.08789Z" fill="white"/>
<path fill-rule="evenodd" clip-rule="evenodd" d="M24.8409 15.0002C24.8409 19.9642 20.8142 23.9883 15.8469 23.9883C10.8797 23.9883 6.85291 19.9642 6.85291 15.0002C6.85291 10.0363 10.8797 6.01221 15.8469 6.01221C20.8142 6.01221 24.8409 10.0363 24.8409 15.0002ZM13.2983 18.577H11.5528C11.186 18.577 11.0048 18.577 10.8944 18.5064C10.775 18.4291 10.7021 18.301 10.6933 18.1597C10.6867 18.0295 10.7773 17.8704 10.9584 17.5525L15.2683 9.9609C15.4516 9.63852 15.5444 9.47734 15.6615 9.41772C15.7875 9.3537 15.9377 9.3537 16.0637 9.41772C16.1808 9.47734 16.2736 9.63852 16.457 9.9609L17.343 11.5065L17.3475 11.5144C17.5456 11.8602 17.646 12.0356 17.6899 12.2197C17.7384 12.4206 17.7384 12.6326 17.6899 12.8335C17.6457 13.019 17.5462 13.1956 17.3452 13.5467L15.0813 17.5459L15.0755 17.5561C14.8761 17.9048 14.775 18.0815 14.635 18.2149C14.4826 18.3606 14.2992 18.4666 14.0981 18.5263C13.9147 18.577 13.7092 18.577 13.2983 18.577ZM17.7062 18.577H20.2073C20.5763 18.577 20.7619 18.577 20.8724 18.5043C20.9917 18.4269 21.0668 18.2966 21.0735 18.1554C21.0799 18.0294 20.9912 17.8765 20.8176 17.577C20.8116 17.5669 20.8056 17.5565 20.7995 17.5459L19.5467 15.4042L19.5324 15.38C19.3564 15.0825 19.2675 14.9323 19.1534 14.8742C19.0275 14.8102 18.8794 14.8102 18.7535 14.8742C18.6386 14.9339 18.5458 15.0906 18.3624 15.4064L17.1141 17.5481L17.1098 17.5555C16.927 17.8707 16.8357 18.0283 16.8423 18.1575C16.8511 18.2989 16.924 18.4291 17.0433 18.5064C17.1516 18.577 17.3372 18.577 17.7062 18.577Z" fill="#E84142"/>
</g>
<defs>
<linearGradient id="paint0_linear_1184_6493" x1="15.8469" y1="0" x2="15.8469" y2="30" gradientUnits="userSpaceOnUse">
<stop stop-color="#272727"/>
<stop offset="1"/>
</linearGradient>
<clipPath id="clip0_1184_6493">
<rect width="18" height="18" fill="white" transform="translate(6.84692 6)"/>
</clipPath>
</defs>
</svg>
