<svg width="16" height="18" viewBox="0 0 16 18" fill="none" xmlns="http://www.w3.org/2000/svg">
<path d="M2.16667 17.3334C1.70833 17.3334 1.31597 17.1702 0.989583 16.8438C0.663194 16.5174 0.5 16.1251 0.5 15.6667V4.00008C0.5 3.54175 0.663194 3.14939 0.989583 2.823C1.31597 2.49661 1.70833 2.33341 2.16667 2.33341H3V0.666748H4.66667V2.33341H11.3333V0.666748H13V2.33341H13.8333C14.2917 2.33341 14.684 2.49661 15.0104 2.823C15.3368 3.14939 15.5 3.54175 15.5 4.00008V15.6667C15.5 16.1251 15.3368 16.5174 15.0104 16.8438C14.684 17.1702 14.2917 17.3334 13.8333 17.3334H2.16667ZM2.16667 15.6667H13.8333V7.33341H2.16667V15.6667ZM2.16667 5.66675H13.8333V4.00008H2.16667V5.66675ZM8 10.6667C7.76389 10.6667 7.56597 10.5869 7.40625 10.4272C7.24653 10.2674 7.16667 10.0695 7.16667 9.83341C7.16667 9.5973 7.24653 9.39939 7.40625 9.23967C7.56597 9.07994 7.76389 9.00008 8 9.00008C8.23611 9.00008 8.43403 9.07994 8.59375 9.23967C8.75347 9.39939 8.83333 9.5973 8.83333 9.83341C8.83333 10.0695 8.75347 10.2674 8.59375 10.4272C8.43403 10.5869 8.23611 10.6667 8 10.6667ZM4.66667 10.6667C4.43056 10.6667 4.23264 10.5869 4.07292 10.4272C3.91319 10.2674 3.83333 10.0695 3.83333 9.83341C3.83333 9.5973 3.91319 9.39939 4.07292 9.23967C4.23264 9.07994 4.43056 9.00008 4.66667 9.00008C4.90278 9.00008 5.10069 9.07994 5.26042 9.23967C5.42014 9.39939 5.5 9.5973 5.5 9.83341C5.5 10.0695 5.42014 10.2674 5.26042 10.4272C5.10069 10.5869 4.90278 10.6667 4.66667 10.6667ZM11.3333 10.6667C11.0972 10.6667 10.8993 10.5869 10.7396 10.4272C10.5799 10.2674 10.5 10.0695 10.5 9.83341C10.5 9.5973 10.5799 9.39939 10.7396 9.23967C10.8993 9.07994 11.0972 9.00008 11.3333 9.00008C11.5694 9.00008 11.7674 9.07994 11.9271 9.23967C12.0868 9.39939 12.1667 9.5973 12.1667 9.83341C12.1667 10.0695 12.0868 10.2674 11.9271 10.4272C11.7674 10.5869 11.5694 10.6667 11.3333 10.6667ZM8 14.0001C7.76389 14.0001 7.56597 13.9202 7.40625 13.7605C7.24653 13.6008 7.16667 13.4029 7.16667 13.1667C7.16667 12.9306 7.24653 12.7327 7.40625 12.573C7.56597 12.4133 7.76389 12.3334 8 12.3334C8.23611 12.3334 8.43403 12.4133 8.59375 12.573C8.75347 12.7327 8.83333 12.9306 8.83333 13.1667C8.83333 13.4029 8.75347 13.6008 8.59375 13.7605C8.43403 13.9202 8.23611 14.0001 8 14.0001ZM4.66667 14.0001C4.43056 14.0001 4.23264 13.9202 4.07292 13.7605C3.91319 13.6008 3.83333 13.4029 3.83333 13.1667C3.83333 12.9306 3.91319 12.7327 4.07292 12.573C4.23264 12.4133 4.43056 12.3334 4.66667 12.3334C4.90278 12.3334 5.10069 12.4133 5.26042 12.573C5.42014 12.7327 5.5 12.9306 5.5 13.1667C5.5 13.4029 5.42014 13.6008 5.26042 13.7605C5.10069 13.9202 4.90278 14.0001 4.66667 14.0001ZM11.3333 14.0001C11.0972 14.0001 10.8993 13.9202 10.7396 13.7605C10.5799 13.6008 10.5 13.4029 10.5 13.1667C10.5 12.9306 10.5799 12.7327 10.7396 12.573C10.8993 12.4133 11.0972 12.3334 11.3333 12.3334C11.5694 12.3334 11.7674 12.4133 11.9271 12.573C12.0868 12.7327 12.1667 12.9306 12.1667 13.1667C12.1667 13.4029 12.0868 13.6008 11.9271 13.7605C11.7674 13.9202 11.5694 14.0001 11.3333 14.0001Z" fill="#4040B8"/>
</svg>
