<svg width="27" height="21" viewBox="0 0 27 21" fill="none" xmlns="http://www.w3.org/2000/svg">
<path d="M22.8138 2.02638C21.1517 1.25158 19.3522 0.68923 17.4777 0.364315C17.4612 0.36379 17.4449 0.366874 17.4298 0.373351C17.4147 0.379829 17.4011 0.389542 17.3902 0.401806C17.1652 0.814198 16.9028 1.35156 16.7279 1.76395C14.7396 1.46403 12.7177 1.46403 10.7294 1.76395C10.5545 1.33906 10.292 0.814198 10.0546 0.401806C10.0421 0.376812 10.0046 0.364315 9.96713 0.364315C8.09262 0.68923 6.30559 1.25158 4.63103 2.02638C4.61853 2.02638 4.60603 2.03888 4.59354 2.05137C1.19443 7.13754 0.257172 12.0862 0.719551 16.985C0.719551 17.01 0.732048 17.035 0.757041 17.0474C3.00645 18.697 5.16839 19.6968 7.30533 20.3591C7.34282 20.3716 7.38031 20.3591 7.3928 20.3341C7.89267 19.6468 8.34256 18.922 8.72995 18.1597C8.75495 18.1097 8.72995 18.0597 8.67997 18.0472C7.96765 17.7723 7.29283 17.4473 6.6305 17.0724C6.58052 17.0474 6.58052 16.9725 6.61801 16.935C6.75547 16.835 6.89294 16.7225 7.0304 16.6226C7.05539 16.5976 7.09288 16.5976 7.11788 16.6101C11.4168 18.572 16.053 18.572 20.3019 16.6101C20.3269 16.5976 20.3644 16.5976 20.3894 16.6226C20.5269 16.735 20.6643 16.835 20.8018 16.9475C20.8518 16.985 20.8518 17.0599 20.7893 17.0849C20.1395 17.4723 19.4521 17.7848 18.7398 18.0597C18.6898 18.0722 18.6774 18.1347 18.6898 18.1722C19.0897 18.9345 19.5396 19.6593 20.027 20.3466C20.0645 20.3591 20.102 20.3716 20.1395 20.3591C22.2889 19.6968 24.4508 18.697 26.7002 17.0474C26.7252 17.035 26.7377 17.01 26.7377 16.985C27.2876 11.3239 25.8255 6.41273 22.8638 2.05137C22.8513 2.03888 22.8388 2.02638 22.8138 2.02638ZM9.37979 13.9982C8.09262 13.9982 7.0179 12.8111 7.0179 11.3489C7.0179 9.88682 8.06763 8.69963 9.37979 8.69963C10.7044 8.69963 11.7542 9.89932 11.7417 11.3489C11.7417 12.8111 10.6919 13.9982 9.37979 13.9982ZM18.09 13.9982C16.8028 13.9982 15.7281 12.8111 15.7281 11.3489C15.7281 9.88682 16.7778 8.69963 18.09 8.69963C19.4147 8.69963 20.4644 9.89932 20.4519 11.3489C20.4519 12.8111 19.4147 13.9982 18.09 13.9982Z" fill="white"/>
</svg>
