<svg width="19" height="30" viewBox="0 0 19 30" fill="none" xmlns="http://www.w3.org/2000/svg">
<path fill-rule="evenodd" clip-rule="evenodd" d="M1.12984 29.9514C1.3867 30.0221 1.65903 30.0153 1.91195 29.9318C2.16488 29.8482 2.38691 29.6918 2.54962 29.4824C2.71234 29.2731 2.80834 29.0204 2.82533 28.7567C2.84233 28.493 2.77955 28.2302 2.64504 28.0021C2.51052 27.7739 2.31038 27.5907 2.07023 27.476C1.83009 27.3612 1.56085 27.3201 1.29699 27.3579C1.03313 27.3957 0.786646 27.5106 0.589077 27.688C0.391507 27.8655 0.251843 28.0973 0.187957 28.3539C0.0961357 28.6931 0.143701 29.0547 0.320236 29.3593C0.496771 29.6639 0.787889 29.8867 1.12984 29.979V29.9514Z" fill="url(#paint0_radial_234_3333)"/>
<path style="mix-blend-mode:screen" fill-rule="evenodd" clip-rule="evenodd" d="M1.03214 29.737C1.22744 29.7943 1.43552 29.7927 1.62988 29.7323C1.82423 29.6719 1.99605 29.5556 2.12344 29.3981C2.25083 29.2405 2.32802 29.049 2.34518 28.8478C2.36233 28.6467 2.31867 28.445 2.21976 28.2685C2.12084 28.092 1.97116 27.9487 1.78978 27.8569C1.60841 27.7651 1.40355 27.7288 1.20132 27.7528C0.999093 27.7768 0.808651 27.8599 0.654266 27.9916C0.499881 28.1233 0.388546 28.2976 0.334448 28.4922C0.263094 28.7489 0.296209 29.0231 0.426675 29.2559C0.55714 29.4887 0.77454 29.6614 1.03214 29.737Z" fill="url(#paint1_radial_234_3333)"/>
<path style="mix-blend-mode:screen" fill-rule="evenodd" clip-rule="evenodd" d="M0.52973 29.239C0.600754 29.4039 0.733556 29.5349 0.900148 29.6046C1.06674 29.6742 1.25411 29.6771 1.42277 29.6125C1.56251 29.4988 1.65225 29.3357 1.67308 29.1577C1.6939 28.9796 1.64418 28.8005 1.5344 28.6581C1.46209 28.4946 1.32875 28.3651 1.16229 28.2967C0.995829 28.2284 0.80916 28.2266 0.64136 28.2916C0.50145 28.4032 0.41032 28.5639 0.386929 28.7404C0.363538 28.9168 0.409687 29.0954 0.515776 29.239H0.52973Z" fill="url(#paint2_radial_234_3333)"/>
<path style="mix-blend-mode:screen" opacity="0.5" fill-rule="evenodd" clip-rule="evenodd" d="M1.78563 29.8615C2.04243 29.7849 2.26685 29.627 2.42461 29.412C2.58236 29.197 2.66476 28.9368 2.65922 28.671C2.65369 28.4052 2.56051 28.1485 2.39394 27.9401C2.22737 27.7318 1.99657 27.5832 1.73679 27.5171C1.5621 27.4793 1.38123 27.4793 1.20654 27.5171C1.30799 27.5173 1.40893 27.5313 1.50655 27.5586C1.83292 27.6461 2.11096 27.8583 2.27968 28.1487C2.44841 28.4391 2.49404 28.784 2.40657 29.1077C2.36095 29.2725 2.28251 29.4265 2.17586 29.5607C2.06921 29.695 1.93652 29.8066 1.78563 29.8892V29.8615Z" fill="url(#paint3_radial_234_3333)"/>
<path d="M2.36464 27.1508C2.58417 27.2688 2.79005 27.4103 2.97861 27.5726C3.21582 27.7801 3.29955 28.0222 3.17396 28.2642C3.04838 28.5062 2.79721 28.527 2.47627 28.4302C2.23344 28.3507 1.99962 28.2464 1.77858 28.119C1.5736 27.9853 1.38202 27.8325 1.20647 27.6625C0.96926 27.4482 0.885537 27.213 1.01112 26.971C1.13671 26.7289 1.38787 26.7082 1.70881 26.805C1.95168 26.8873 2.18546 26.9938 2.4065 27.1231L2.36464 27.1508Z" fill="url(#paint4_linear_234_3333)"/>
<path style="mix-blend-mode:multiply" fill-rule="evenodd" clip-rule="evenodd" d="M2.97865 27.5725C2.79008 27.4102 2.58421 27.2687 2.36468 27.1507C2.14363 27.0214 1.90986 26.9148 1.66699 26.8325C1.56332 26.8 1.45466 26.786 1.34605 26.791C1.3169 26.7927 1.28869 26.8018 1.26421 26.8176C1.23974 26.8334 1.21985 26.8552 1.20651 26.8809C1.19306 26.9066 1.18604 26.935 1.18604 26.9639C1.18604 26.9928 1.19306 27.0213 1.20651 27.0469C1.25822 27.1434 1.32671 27.23 1.40884 27.3028C1.59959 27.4591 1.80255 27.6002 2.01583 27.7247C2.23853 27.8489 2.47203 27.953 2.71352 28.0359C2.81677 28.0707 2.92543 28.0871 3.03446 28.0843C3.06359 28.0796 3.09127 28.0685 3.11544 28.0517C3.1396 28.035 3.15962 28.013 3.174 27.9874C3.18595 27.9614 3.19213 27.9331 3.19213 27.9045C3.19213 27.8758 3.18595 27.8475 3.174 27.8215C3.12378 27.7261 3.05501 27.6415 2.97167 27.5725H2.97865Z" fill="url(#paint5_linear_234_3333)"/>
<path style="mix-blend-mode:screen" fill-rule="evenodd" clip-rule="evenodd" d="M1.15069 27.123C1.13245 27.1252 1.11511 27.1321 1.10042 27.143C1.08572 27.1539 1.07418 27.1685 1.06697 27.1852C0.899521 27.6071 2.23211 28.354 2.61584 28.0981C2.10778 27.9276 1.65004 27.6354 1.28325 27.2475C1.24139 27.1922 1.18557 27.1161 1.15069 27.123Z" fill="url(#paint6_radial_234_3333)"/>
<path fill-rule="evenodd" clip-rule="evenodd" d="M3.62756 22.5312C3.62756 22.7387 4.02525 23.0914 4.53456 23.3818C4.87992 23.631 5.30096 23.7555 5.72761 23.7345C5.81134 23.7345 5.81134 23.6446 5.83924 23.5962C6.00587 23.2405 6.21178 22.9042 6.45321 22.5934C6.01174 22.621 5.57457 22.4937 5.2183 22.2338C4.68805 21.9295 4.3113 21.5423 4.27642 21.3486H4.32525C4.17313 21.7105 3.98375 22.0558 3.76012 22.3791C3.76012 22.4206 3.6764 22.4482 3.69036 22.5381L3.62756 22.5312Z" fill="url(#paint7_linear_234_3333)"/>
<path fill-rule="evenodd" clip-rule="evenodd" d="M3.02745 23.6724C3.06233 23.8799 3.41815 24.2187 3.90654 24.5023C4.2456 24.7415 4.65595 24.8609 5.07168 24.8411C5.1554 24.8066 5.1554 24.7512 5.17633 24.7028C5.33973 24.3607 5.53847 24.0362 5.76937 23.7346C5.34063 23.755 4.9176 23.6307 4.56934 23.382C4.05305 23.0915 3.69025 22.7388 3.65537 22.5244H3.62746C3.48642 22.8717 3.30868 23.2032 3.09722 23.5133C3.09722 23.5618 3.01349 23.5894 3.02745 23.6724Z" fill="url(#paint8_linear_234_3333)"/>
<path fill-rule="evenodd" clip-rule="evenodd" d="M2.42749 24.7785C2.42749 24.9791 2.79727 25.311 3.27867 25.5807C3.60667 25.815 4.00514 25.932 4.40893 25.9127C4.48568 25.9127 4.48568 25.8297 4.50661 25.7813C4.66684 25.4469 4.86086 25.1295 5.08569 24.8339C4.66742 24.8568 4.2538 24.7373 3.91357 24.495C3.41821 24.2115 3.06239 23.8657 3.03448 23.6582C2.89046 23.9989 2.71038 24.3234 2.49726 24.6264C2.49726 24.6679 2.42051 24.6955 2.43447 24.7785H2.42749Z" fill="url(#paint9_linear_234_3333)"/>
<path fill-rule="evenodd" clip-rule="evenodd" d="M1.84142 25.8507C1.84142 26.0444 2.20422 26.3694 2.66469 26.6322C2.98081 26.8644 3.36683 26.9838 3.76007 26.9711C3.83681 26.9711 3.83681 26.895 3.85774 26.8466C4.01045 26.5234 4.19756 26.2174 4.4159 25.9337C4.00765 25.9541 3.60515 25.8317 3.27866 25.5879C2.79725 25.3113 2.45539 24.9794 2.4205 24.7788C2.28169 25.1092 2.10867 25.4244 1.90421 25.7193C1.90421 25.7608 1.82746 25.7885 1.84142 25.8646V25.8507Z" fill="url(#paint10_linear_234_3333)"/>
<path fill-rule="evenodd" clip-rule="evenodd" d="M1.27625 26.8951C1.27625 27.0818 1.62509 27.393 2.07859 27.6489C2.38368 27.8687 2.7554 27.9785 3.1321 27.9601C3.20885 27.9601 3.20885 27.884 3.22978 27.8356C3.37934 27.5289 3.56179 27.2391 3.77398 26.9712C3.38012 26.9978 2.9895 26.8851 2.67163 26.653C2.21115 26.3833 1.87626 26.0652 1.84835 25.8716C1.7101 26.1886 1.5419 26.4919 1.34601 26.7775C1.31113 26.819 1.26927 26.8467 1.28322 26.9228L1.27625 26.8951Z" fill="url(#paint11_linear_234_3333)"/>
<path style="mix-blend-mode:multiply" opacity="0.25" fill-rule="evenodd" clip-rule="evenodd" d="M3.27164 23.6171C3.4581 23.3415 3.62368 23.0525 3.767 22.7526C3.70507 22.6869 3.65755 22.6092 3.62746 22.5244C3.48642 22.8717 3.30868 23.2032 3.09722 23.5133C3.09722 23.5618 3.01349 23.5894 3.02745 23.6724C3.06233 23.8799 3.41815 24.2187 3.90654 24.5023H3.95538C3.52978 24.2533 3.25769 23.9421 3.20187 23.7485C3.20187 23.6655 3.23675 23.6378 3.27164 23.5963V23.6171Z" fill="url(#paint12_linear_234_3333)"/>
<path style="mix-blend-mode:multiply" opacity="0.25" fill-rule="evenodd" clip-rule="evenodd" d="M2.53911 24.9933C2.48501 24.9281 2.44467 24.8529 2.4205 24.772C2.28169 25.1023 2.10867 25.4175 1.90421 25.7125C1.90421 25.754 1.82746 25.7817 1.84142 25.8577C1.84142 26.0514 2.20422 26.3764 2.66469 26.6392H2.71353C2.30887 26.3971 2.01584 26.1136 2.01584 25.9476C2.01584 25.8716 2.01584 25.8439 2.07863 25.8024C2.25599 25.5455 2.41231 25.2749 2.54608 24.9933H2.53911Z" fill="url(#paint13_linear_234_3333)"/>
<path style="mix-blend-mode:multiply" opacity="0.25" fill-rule="evenodd" clip-rule="evenodd" d="M4.32519 21.3418C4.17307 21.7036 3.98369 22.0489 3.76006 22.3722C3.76006 22.4137 3.67634 22.4414 3.69029 22.5313C3.69029 22.7388 4.08797 23.0915 4.59729 23.3819H4.63915C4.1996 23.1191 3.88564 22.801 3.86471 22.6004C3.86471 22.5175 3.86471 22.4898 3.93448 22.4414C4.1287 22.1608 4.29906 21.8647 4.4438 21.5562C4.39244 21.4944 4.35231 21.4242 4.32519 21.3487V21.3418Z" fill="url(#paint14_linear_234_3333)"/>
<path style="mix-blend-mode:multiply" opacity="0.25" fill-rule="evenodd" clip-rule="evenodd" d="M3.13912 23.8863C3.08397 23.8229 3.04561 23.7468 3.02749 23.665C2.88347 24.0057 2.70339 24.3302 2.49027 24.6332C2.49027 24.6747 2.41352 24.7024 2.42748 24.7854C2.42748 24.9859 2.79725 25.3179 3.27866 25.5876H3.3275C2.90888 25.3386 2.62981 25.0412 2.59492 24.8545C2.59492 24.7715 2.59492 24.7508 2.66469 24.7024C2.84699 24.4376 3.00573 24.1576 3.13912 23.8656V23.8863Z" fill="url(#paint15_linear_234_3333)"/>
<path style="mix-blend-mode:multiply" opacity="0.25" fill-rule="evenodd" clip-rule="evenodd" d="M1.95307 26.065C1.89846 26.0038 1.86009 25.9301 1.84144 25.8506C1.70319 26.1676 1.53499 26.4709 1.33911 26.7565C1.30422 26.798 1.26236 26.8257 1.27631 26.9018C1.27631 27.0885 1.62516 27.3997 2.07866 27.6556H2.12052C1.72981 27.4204 1.45771 27.1438 1.42283 26.964C1.38794 26.7842 1.42283 26.8603 1.48562 26.8188C1.65693 26.5703 1.80855 26.309 1.93912 26.0373L1.95307 26.065Z" fill="url(#paint16_linear_234_3333)"/>
<path style="mix-blend-mode:multiply" opacity="0.35" fill-rule="evenodd" clip-rule="evenodd" d="M5.37176 23.513C5.05104 23.57 4.72055 23.5006 4.45081 23.3194L4.56244 23.3816C4.9078 23.6308 5.32883 23.7553 5.75549 23.7343C5.83921 23.7343 5.83921 23.6444 5.86712 23.596C6.03374 23.2403 6.23966 22.904 6.48109 22.5932C6.30872 22.6316 6.12868 22.6171 5.96479 22.5518C5.79149 22.8172 5.63311 23.092 5.49036 23.3747C5.49036 23.4231 5.49036 23.4785 5.38571 23.513H5.37176Z" fill="url(#paint17_linear_234_3333)"/>
<path style="mix-blend-mode:multiply" opacity="0.35" fill-rule="evenodd" clip-rule="evenodd" d="M5.26018 23.6929C5.08575 23.9468 4.92955 24.2125 4.79272 24.4882C4.77988 24.5453 4.74477 24.595 4.69505 24.6265C4.38328 24.6797 4.06286 24.6103 3.802 24.4328L3.90666 24.502C4.24571 24.7413 4.65607 24.8606 5.0718 24.8409C5.15552 24.8063 5.15552 24.751 5.17645 24.7026C5.33984 24.3604 5.53859 24.0359 5.76949 23.7344C5.60155 23.7694 5.42692 23.755 5.26715 23.6929H5.26018Z" fill="url(#paint18_linear_234_3333)"/>
<path style="mix-blend-mode:multiply" opacity="0.35" fill-rule="evenodd" clip-rule="evenodd" d="M4.50666 25.7814C4.66689 25.447 4.86091 25.1296 5.08574 24.834C4.91778 24.8686 4.74327 24.8542 4.58341 24.7925C4.41762 25.0491 4.26623 25.3146 4.12991 25.5878C4.12991 25.6362 4.12991 25.6846 4.03223 25.7192C3.73348 25.7716 3.42587 25.7071 3.17407 25.5394L3.27873 25.5878C3.60672 25.822 4.00519 25.9391 4.40898 25.9197C4.48573 25.9197 4.48573 25.8367 4.50666 25.7883V25.7814Z" fill="url(#paint19_linear_234_3333)"/>
<path style="mix-blend-mode:multiply" opacity="0.35" fill-rule="evenodd" clip-rule="evenodd" d="M3.92056 25.8716C3.75866 26.1076 3.6141 26.3549 3.48799 26.6116C3.48799 26.66 3.48799 26.7084 3.39729 26.743C3.10615 26.7955 2.80581 26.7335 2.56006 26.5701L2.66471 26.6323C2.98083 26.8645 3.36685 26.9839 3.76009 26.9712C3.83683 26.9712 3.83683 26.8951 3.85776 26.8467C4.01047 26.5236 4.19758 26.2175 4.41592 25.9338C4.25259 25.9686 4.0825 25.9541 3.92753 25.8923L3.92056 25.8716Z" fill="url(#paint20_linear_234_3333)"/>
<path style="mix-blend-mode:multiply" opacity="0.35" fill-rule="evenodd" clip-rule="evenodd" d="M3.22984 27.8356C3.37941 27.529 3.56186 27.2391 3.77404 26.9712C3.61302 27.0058 3.4452 26.9914 3.29263 26.9297C3.13564 27.1507 2.99347 27.3817 2.86704 27.6213C2.86704 27.6627 2.86704 27.7112 2.78332 27.7457C2.50207 27.7944 2.21269 27.735 1.974 27.5798L2.08563 27.642C2.39072 27.8618 2.76244 27.9716 3.13914 27.9532C3.21589 27.9532 3.21589 27.8771 3.23682 27.8287L3.22984 27.8356Z" fill="url(#paint21_linear_234_3333)"/>
<path fill-rule="evenodd" clip-rule="evenodd" d="M5.62987 21.5492C6.25081 21.9019 6.66245 22.3445 6.55082 22.5312C6.43919 22.7179 5.85313 22.5865 5.23218 22.2338C4.61124 21.8811 4.1996 21.4385 4.32518 21.2518C4.45077 21.0651 5.02287 21.1965 5.64382 21.5492H5.62987Z" fill="#808080"/>
<path style="mix-blend-mode:screen" opacity="0.5" fill-rule="evenodd" clip-rule="evenodd" d="M4.60432 23.1464C4.70217 22.8297 4.88841 22.5468 5.14154 22.3304C5.19654 22.3047 5.2555 22.2884 5.31596 22.282L5.23224 22.2336C4.95461 22.085 4.70261 21.8936 4.48571 21.6665C4.50947 21.7214 4.52362 21.7798 4.52757 21.8394C4.45756 22.2103 4.27784 22.5521 4.01128 22.8214C3.98713 22.8321 3.96098 22.8376 3.93453 22.8376C3.90809 22.8376 3.88194 22.8321 3.85779 22.8214C4.06386 23.0287 4.29881 23.2057 4.55548 23.347H4.61129C4.57599 23.2605 4.57599 23.1638 4.61129 23.0773L4.60432 23.1464Z" fill="url(#paint22_linear_234_3333)"/>
<path style="mix-blend-mode:screen" opacity="0.5" fill-rule="evenodd" clip-rule="evenodd" d="M4.56245 23.3818C4.3047 23.2337 4.06974 23.0497 3.86476 22.8354C3.88607 22.8863 3.90016 22.9398 3.90662 22.9945C3.83642 23.3523 3.66175 23.6817 3.40428 23.9419C3.37736 23.9559 3.34744 23.9632 3.31707 23.9632C3.2867 23.9632 3.25678 23.9559 3.22986 23.9419C3.43512 24.154 3.67009 24.3357 3.92755 24.4814H3.99732C3.97735 24.4355 3.96705 24.3861 3.96705 24.3361C3.96705 24.2862 3.97735 24.2368 3.99732 24.1909C4.09075 23.887 4.26988 23.6158 4.51361 23.4094C4.5634 23.3831 4.61791 23.3666 4.67408 23.361H4.61826L4.56245 23.3818Z" fill="url(#paint23_linear_234_3333)"/>
<path style="mix-blend-mode:screen" opacity="0.5" fill-rule="evenodd" clip-rule="evenodd" d="M3.90666 24.5021C3.64788 24.3499 3.41285 24.1612 3.20897 23.9419C3.23667 24.0031 3.2532 24.0686 3.2578 24.1355C3.19338 24.4808 3.02564 24.7989 2.7764 25.0484C2.75438 25.0619 2.72901 25.069 2.70314 25.069C2.67727 25.069 2.6519 25.0619 2.62988 25.0484C2.83601 25.2499 3.07113 25.42 3.32757 25.5532H3.37641C3.34364 25.4687 3.34364 25.375 3.37641 25.2904C3.46965 24.9977 3.64365 24.7365 3.87875 24.5366C3.93588 24.5101 3.99728 24.4937 4.06015 24.4882H3.99038L3.90666 24.5021Z" fill="url(#paint24_linear_234_3333)"/>
<path style="mix-blend-mode:screen" opacity="0.5" fill-rule="evenodd" clip-rule="evenodd" d="M3.27864 25.5877C3.01993 25.4467 2.78462 25.2671 2.58095 25.0552C2.59054 25.1031 2.59054 25.1525 2.58095 25.2004C2.51777 25.5467 2.35271 25.8667 2.10652 26.1202C2.08784 26.1284 2.06764 26.1326 2.04722 26.1326C2.02679 26.1326 2.00659 26.1284 1.98792 26.1202C2.17714 26.3134 2.39329 26.4787 2.62979 26.6112C2.60085 26.5354 2.60085 26.4518 2.62979 26.3761C2.72288 26.0812 2.89679 25.8179 3.13213 25.6153C3.17649 25.5952 3.22345 25.5812 3.27167 25.5738L3.27864 25.5877Z" fill="url(#paint25_linear_234_3333)"/>
<path style="mix-blend-mode:screen" opacity="0.5" fill-rule="evenodd" clip-rule="evenodd" d="M2.66476 26.6321C2.42826 26.4996 2.21211 26.3343 2.02288 26.1411V26.2518C1.95718 26.5856 1.79474 26.8932 1.55543 27.137C1.53367 27.1474 1.50982 27.1528 1.48566 27.1528C1.4615 27.1528 1.43765 27.1474 1.41589 27.137C1.60412 27.3294 1.82051 27.4925 2.05777 27.6211H2.10661C2.07402 27.5412 2.07402 27.4519 2.10661 27.3721C2.19499 27.0863 2.36454 26.8318 2.59499 26.639C2.62964 26.6192 2.66736 26.6052 2.70662 26.5975L2.66476 26.6321Z" fill="url(#paint26_linear_234_3333)"/>
<path fill-rule="evenodd" clip-rule="evenodd" d="M5.17635 22.3307C5.51029 22.596 5.92093 22.7486 6.34847 22.7664C6.38872 22.7059 6.43301 22.6482 6.48103 22.5935C6.03481 22.625 5.59191 22.4975 5.23217 22.2339C4.69494 21.9296 4.31819 21.5424 4.29028 21.3418V21.3833C4.29028 21.6115 4.68099 21.9988 5.1903 22.3307H5.17635Z" fill="#666666"/>
<g style="mix-blend-mode:multiply" opacity="0.35">
<path fill-rule="evenodd" clip-rule="evenodd" d="M5.7625 23.7346C5.33376 23.755 4.91073 23.6307 4.56247 23.382C4.04618 23.0915 3.68338 22.7388 3.64849 22.5244H3.62756C3.62756 22.7388 4.00432 23.1192 4.49968 23.4373C4.82368 23.6945 5.22215 23.8423 5.63691 23.8591C5.67538 23.8014 5.71732 23.7459 5.7625 23.6932V23.7346Z" fill="#4A2121"/>
</g>
<g style="mix-blend-mode:multiply" opacity="0.35">
<path fill-rule="evenodd" clip-rule="evenodd" d="M5.07868 24.8407C4.6604 24.8637 4.24678 24.7441 3.90656 24.5018C3.4112 24.2183 3.05537 23.8725 3.02747 23.665V23.7065C3.02747 23.9209 3.39724 24.2805 3.87167 24.5917C4.19246 24.8415 4.58708 24.98 4.99495 24.9859L5.09961 24.8407H5.07868Z" fill="#4A2121"/>
</g>
<g style="mix-blend-mode:multiply" opacity="0.35">
<path fill-rule="evenodd" clip-rule="evenodd" d="M4.40895 25.913C4.00559 25.9377 3.60608 25.8228 3.27869 25.5879C2.79729 25.3113 2.45542 24.9794 2.42053 24.7788V24.8203C2.42053 25.0209 2.77635 25.3736 3.24381 25.6778C3.55262 25.9193 3.93202 26.0552 4.32523 26.0651C4.35907 26.012 4.39635 25.9612 4.43686 25.913H4.40895Z" fill="#4A2121"/>
</g>
<g style="mix-blend-mode:multiply" opacity="0.35">
<path fill-rule="evenodd" clip-rule="evenodd" d="M2.66471 26.6321C2.20423 26.3623 1.86934 26.0442 1.84143 25.8506V25.8921C1.84143 26.0926 2.19028 26.4384 2.6368 26.7289C2.92002 26.9531 3.26581 27.0859 3.62752 27.1092C3.67292 27.0597 3.72188 27.0134 3.77403 26.9709C3.38018 26.9976 2.98956 26.8848 2.67168 26.6528L2.66471 26.6321Z" fill="#4A2121"/>
</g>
<path fill-rule="evenodd" clip-rule="evenodd" d="M5.2741 22.1646C4.90339 21.6416 4.40702 21.2186 3.82988 20.9336C3.27054 20.6264 2.83459 20.1381 2.59497 19.5505L3.07638 18.6238C3.30677 18.5792 3.54368 18.5792 3.77407 18.6238C4.22859 19.6364 4.98604 20.4862 5.94389 21.0581C6.9217 21.5939 8.04223 21.8185 9.15326 21.7012C9.30184 21.8675 9.41778 22.0598 9.49513 22.2683L8.93 23.1466C8.28982 23.2565 7.63101 23.1415 7.06717 22.8215C6.53251 22.4665 5.91542 22.2523 5.2741 22.1991V22.1646Z" fill="url(#paint27_linear_234_3333)"/>
<path fill-rule="evenodd" clip-rule="evenodd" d="M5.02285 22.5448C4.5815 21.9603 4.00799 21.4866 3.34839 21.1617C2.70664 20.8059 2.19956 20.2523 1.90417 19.5849C2.23811 19.2081 2.62597 18.8819 3.05536 18.6167C3.34174 19.1432 3.70105 19.6274 4.12283 20.0552C4.63228 20.5148 5.18881 20.9204 5.78334 21.2654C6.3785 21.619 7.00998 21.9088 7.6671 22.1298C8.2559 22.2709 8.86219 22.3268 9.46714 22.2958C9.4534 22.7876 9.36641 23.2746 9.209 23.7412C8.4799 23.8168 7.74567 23.6567 7.11592 23.2847C6.48682 22.878 5.76963 22.6245 5.02285 22.5448Z" fill="url(#paint28_linear_234_3333)"/>
<path fill-rule="evenodd" clip-rule="evenodd" d="M5.02295 22.545C5.76972 22.6247 6.48691 22.8783 7.11602 23.285C7.74577 23.657 8.48 23.8171 9.20909 23.7414C9.37161 23.2664 9.46099 22.7698 9.47422 22.2684C8.8683 22.3092 8.25962 22.2626 7.6672 22.1301C7.01178 21.9223 6.38036 21.6465 5.78343 21.3071C5.55319 21.6806 5.27412 22.1301 5.02295 22.545Z" fill="url(#paint29_linear_234_3333)"/>
<path style="mix-blend-mode:screen" fill-rule="evenodd" clip-rule="evenodd" d="M2.30884 19.1909C2.38082 19.1328 2.46379 19.0895 2.55288 19.0635C2.64197 19.0376 2.73539 19.0295 2.82766 19.0399C2.91993 19.0502 3.0092 19.0786 3.09023 19.1236C3.17126 19.1685 3.24243 19.229 3.29956 19.3016C3.7391 19.7718 3.99725 20.4012 4.52749 20.8092C4.72982 20.9613 4.96704 21.0651 5.17635 21.2103C5.24116 21.2487 5.29767 21.2994 5.34261 21.3596C5.38756 21.4197 5.42005 21.4881 5.43821 21.5607C5.45637 21.6334 5.45984 21.7088 5.44843 21.7828C5.43701 21.8568 5.41093 21.9278 5.3717 21.9918L5.78334 21.3002C5.18718 20.9444 4.63059 20.5271 4.12283 20.0554C3.70685 19.6199 3.35457 19.1287 3.0763 18.5962C2.80096 18.7631 2.54377 18.9578 2.30884 19.1771V19.1909Z" fill="url(#paint30_radial_234_3333)"/>
<path style="mix-blend-mode:multiply" opacity="0.3" fill-rule="evenodd" clip-rule="evenodd" d="M6.0346 22.4965C5.89506 22.4412 5.7625 22.379 5.74855 22.2614C5.74855 22.2614 5.74855 22.2614 5.74855 22.2199C5.74855 21.6805 6.55787 21.7911 6.8509 21.8603L7.26254 21.964C6.75561 21.7691 6.26361 21.538 5.79041 21.2725L5.37877 21.964L5.28109 22.1369L5.02295 22.5449C5.76972 22.6246 6.48691 22.8782 7.11602 23.2849C7.3384 23.4116 7.57192 23.5181 7.81371 23.603C7.11602 23.2434 6.62066 22.7386 6.02065 22.4965H6.0346Z" fill="url(#paint31_linear_234_3333)"/>
<path style="mix-blend-mode:multiply" opacity="0.5" fill-rule="evenodd" clip-rule="evenodd" d="M3.46708 18.9559C3.46708 18.7899 3.75313 18.8521 3.84383 18.9559C3.88687 18.9939 3.92655 19.0356 3.96244 19.0804C3.88569 18.9421 3.80894 18.7968 3.74615 18.6516C3.51576 18.607 3.27885 18.607 3.04846 18.6516C3.33971 19.1663 3.70127 19.6388 4.12291 20.0555C4.30971 20.2338 4.50779 20.4001 4.71594 20.5534C4.25547 20.1799 3.45312 19.3639 3.46708 18.9559Z" fill="url(#paint32_linear_234_3333)"/>
<path style="mix-blend-mode:screen" fill-rule="evenodd" clip-rule="evenodd" d="M8.97185 22.1299C9.11139 22.04 8.92302 21.8325 8.81139 21.791C8.75742 21.7707 8.70121 21.7568 8.64394 21.7495C8.80441 21.7495 8.96488 21.7495 9.12535 21.7495C9.27392 21.9158 9.38986 22.1081 9.46722 22.3166C8.86125 22.3408 8.25494 22.2779 7.66717 22.1299C7.42937 22.0566 7.19637 21.9688 6.96948 21.8671C7.53461 22.0745 8.64394 22.3581 8.99976 22.1368L8.97185 22.1299Z" fill="url(#paint33_radial_234_3333)"/>
<path fill-rule="evenodd" clip-rule="evenodd" d="M4.3252 19.9793L7.33922 14.8963L7.66016 14.9378L7.59039 14.4744L12.4114 6.36238L12.9277 6.71508L12.6975 5.94053L12.7882 5.7953C14.972 2.07469 16.5139 0.421853 18.1813 0C18.6418 1.64592 17.993 3.78285 15.8371 7.55878L12.7742 12.9115L12.4742 12.7732L12.6138 13.1812L7.6462 21.8741C7.03796 21.6714 6.4495 21.4145 5.88802 21.1065C5.33443 20.7774 4.81143 20.4001 4.3252 19.9793Z" fill="url(#paint34_linear_234_3333)"/>
<path fill-rule="evenodd" clip-rule="evenodd" d="M18.1814 0L16.9395 2.13001V2.51729L16.7232 2.48271L5.88806 21.1065C6.44953 21.4145 7.038 21.6714 7.64624 21.8741L12.6138 13.1812L12.4743 12.7732L12.7743 12.9115L15.8371 7.55878C17.993 3.78285 18.6279 1.64592 18.1814 0Z" fill="url(#paint35_linear_234_3333)"/>
<path style="mix-blend-mode:screen" opacity="0.5" fill-rule="evenodd" clip-rule="evenodd" d="M4.64613 20.242L8.76251 13.3264L12.7463 6.61134L12.4114 6.38313L7.59736 14.4952L7.66713 14.9585L7.3462 14.917L4.3252 19.9793C4.4159 20.0622 4.52055 20.1521 4.63916 20.242H4.64613ZM12.837 6.41079L13.0952 5.96819C13.5835 5.15214 14.0859 4.34301 14.6301 3.56846C15.0355 2.98167 15.4832 2.42466 15.9697 1.9018C16.4941 1.30441 17.1475 0.831684 17.8813 0.518672L18.1813 0C16.5139 0.421853 14.972 2.07469 12.7533 5.7953L12.6975 5.94053L12.8719 6.43845L12.837 6.41079Z" fill="url(#paint36_radial_234_3333)"/>
<path style="mix-blend-mode:screen" opacity="0.3" fill-rule="evenodd" clip-rule="evenodd" d="M7.26245 21.7427L11.3021 14.7372L15.4882 7.35823C15.9627 6.53527 16.4162 5.69848 16.8138 4.84786C17.1173 4.20533 17.3738 3.54203 17.5813 2.86307C17.8434 2.11061 17.9386 1.31094 17.8604 0.518672L18.1813 0C18.6418 1.64592 17.9929 3.78285 15.8371 7.55878L12.7742 12.9115L12.4742 12.7732L12.6137 13.1812L7.64618 21.8741L7.26245 21.7427Z" fill="url(#paint37_linear_234_3333)"/>
<path fill-rule="evenodd" clip-rule="evenodd" d="M16.3744 3.84493C16.4262 3.75873 16.4413 3.65565 16.4165 3.55838C16.3916 3.46111 16.3288 3.37761 16.2418 3.32626C16.1548 3.2749 16.0508 3.25989 15.9527 3.28454C15.8546 3.30918 15.7703 3.37145 15.7185 3.45766L12.565 8.87259L12.4882 9.39818L12.2092 9.48808L5.56714 20.9058L5.88808 21.1063L6.22297 21.2792L16.3744 3.84493Z" fill="url(#paint38_linear_234_3333)"/>
<path style="mix-blend-mode:screen" opacity="0.5" fill-rule="evenodd" clip-rule="evenodd" d="M16.1162 3.54779L5.88806 21.1066L6.22295 21.2795L10.1579 14.5229H10.4649L10.5068 13.9489L16.3744 3.84516C16.3993 3.80253 16.4154 3.75542 16.4219 3.70656C16.4284 3.6577 16.4251 3.60806 16.4121 3.56049C16.3991 3.51291 16.3768 3.46836 16.3463 3.42938C16.3159 3.39041 16.278 3.35779 16.2348 3.33341L16.186 3.29883C16.1999 3.38412 16.1852 3.47159 16.1441 3.54779H16.1162Z" fill="url(#paint39_linear_234_3333)"/>
<defs>
<radialGradient id="paint0_radial_234_3333" cx="0" cy="0" r="1" gradientUnits="userSpaceOnUse" gradientTransform="translate(0.878252 29.5926) rotate(14.879) scale(1.83463 1.82065)">
<stop stop-color="#A15F00"/>
<stop offset="0.33" stop-color="#8F4A04"/>
<stop offset="0.58" stop-color="#853F06"/>
<stop offset="0.69" stop-color="#7F3C05"/>
<stop offset="0.84" stop-color="#6E3403"/>
<stop offset="1" stop-color="#522800"/>
</radialGradient>
<radialGradient id="paint1_radial_234_3333" cx="0" cy="0" r="1" gradientUnits="userSpaceOnUse" gradientTransform="translate(0.321611 30.0415) rotate(14.879) scale(2.23376 2.21674)">
<stop stop-color="#B18654"/>
<stop offset="1" stop-color="#000505"/>
</radialGradient>
<radialGradient id="paint2_radial_234_3333" cx="0" cy="0" r="1" gradientUnits="userSpaceOnUse" gradientTransform="translate(-0.258381 30.3619) rotate(14.879) scale(2.20575 2.18895)">
<stop stop-color="#B18654"/>
<stop offset="1" stop-color="#000505"/>
</radialGradient>
<radialGradient id="paint3_radial_234_3333" cx="0" cy="0" r="1" gradientUnits="userSpaceOnUse" gradientTransform="translate(1.39994 29.5947) rotate(14.879) scale(2.11472 2.09861)">
<stop stop-color="#B18654"/>
<stop offset="1" stop-color="#000505"/>
</radialGradient>
<linearGradient id="paint4_linear_234_3333" x1="1.01112" y1="26.9986" x2="3.16438" y2="28.253" gradientUnits="userSpaceOnUse">
<stop stop-color="#855226"/>
<stop offset="0.31" stop-color="#BA7A1E"/>
<stop offset="1" stop-color="#3B2008"/>
</linearGradient>
<linearGradient id="paint5_linear_234_3333" x1="-0.014447" y1="26.1686" x2="3.68083" y2="28.32" gradientUnits="userSpaceOnUse">
<stop stop-color="white"/>
<stop offset="0.4" stop-color="#C3C7E6"/>
<stop offset="1" stop-color="#616DBE"/>
</linearGradient>
<radialGradient id="paint6_radial_234_3333" cx="0" cy="0" r="1" gradientUnits="userSpaceOnUse" gradientTransform="translate(1.15069 26.9639) scale(2.72797 2.70401)">
<stop stop-color="#B18654"/>
<stop offset="1" stop-color="#000505"/>
</radialGradient>
<linearGradient id="paint7_linear_234_3333" x1="3.87873" y1="22.0471" x2="6.05281" y2="23.3155" gradientUnits="userSpaceOnUse">
<stop stop-color="#611412"/>
<stop offset="0.31" stop-color="#8A4835"/>
<stop offset="1" stop-color="#450E0E"/>
</linearGradient>
<linearGradient id="paint8_linear_234_3333" x1="3.25071" y1="23.2021" x2="5.36225" y2="24.4355" gradientUnits="userSpaceOnUse">
<stop stop-color="#611412"/>
<stop offset="0.31" stop-color="#8A4835"/>
<stop offset="1" stop-color="#450E0E"/>
</linearGradient>
<linearGradient id="paint9_linear_234_3333" x1="2.6368" y1="24.329" x2="4.68589" y2="25.5203" gradientUnits="userSpaceOnUse">
<stop stop-color="#611412"/>
<stop offset="0.31" stop-color="#8A4835"/>
<stop offset="1" stop-color="#450E0E"/>
</linearGradient>
<linearGradient id="paint10_linear_234_3333" x1="2.04375" y1="25.415" x2="4.03031" y2="26.5713" gradientUnits="userSpaceOnUse">
<stop stop-color="#611412"/>
<stop offset="0.31" stop-color="#8A4835"/>
<stop offset="1" stop-color="#450E0E"/>
</linearGradient>
<linearGradient id="paint11_linear_234_3333" x1="1.4716" y1="26.4663" x2="3.39563" y2="27.5875" gradientUnits="userSpaceOnUse">
<stop stop-color="#611412"/>
<stop offset="0.31" stop-color="#8A4835"/>
<stop offset="1" stop-color="#450E0E"/>
</linearGradient>
<linearGradient id="paint12_linear_234_3333" x1="3.25071" y1="23.2021" x2="4.35511" y2="23.8468" gradientUnits="userSpaceOnUse">
<stop stop-color="#616DBE"/>
<stop offset="0.6" stop-color="#C3C7E6"/>
<stop offset="1" stop-color="white"/>
</linearGradient>
<linearGradient id="paint13_linear_234_3333" x1="2.04375" y1="25.4151" x2="3.0857" y2="26.0178" gradientUnits="userSpaceOnUse">
<stop stop-color="#616DBE"/>
<stop offset="0.6" stop-color="#C3C7E6"/>
<stop offset="1" stop-color="white"/>
</linearGradient>
<linearGradient id="paint14_linear_234_3333" x1="3.87867" y1="22.0472" x2="5.01079" y2="22.7129" gradientUnits="userSpaceOnUse">
<stop stop-color="#616DBE"/>
<stop offset="0.6" stop-color="#C3C7E6"/>
<stop offset="1" stop-color="white"/>
</linearGradient>
<linearGradient id="paint15_linear_234_3333" x1="2.63678" y1="24.3289" x2="3.70646" y2="24.9526" gradientUnits="userSpaceOnUse">
<stop stop-color="#616DBE"/>
<stop offset="0.6" stop-color="#C3C7E6"/>
<stop offset="1" stop-color="white"/>
</linearGradient>
<linearGradient id="paint16_linear_234_3333" x1="1.47167" y1="26.4661" x2="2.47881" y2="27.0547" gradientUnits="userSpaceOnUse">
<stop stop-color="#616DBE"/>
<stop offset="0.6" stop-color="#C3C7E6"/>
<stop offset="1" stop-color="white"/>
</linearGradient>
<linearGradient id="paint17_linear_234_3333" x1="4.86244" y1="22.614" x2="6.05718" y2="23.3078" gradientUnits="userSpaceOnUse">
<stop stop-color="white"/>
<stop offset="0.4" stop-color="#C3C7E6"/>
<stop offset="1" stop-color="#616DBE"/>
</linearGradient>
<linearGradient id="paint18_linear_234_3333" x1="4.19969" y1="23.7482" x2="5.36661" y2="24.4279" gradientUnits="userSpaceOnUse">
<stop stop-color="white"/>
<stop offset="0.4" stop-color="#C3C7E6"/>
<stop offset="1" stop-color="#616DBE"/>
</linearGradient>
<linearGradient id="paint19_linear_234_3333" x1="3.5578" y1="24.8547" x2="4.69001" y2="25.5134" gradientUnits="userSpaceOnUse">
<stop stop-color="white"/>
<stop offset="0.4" stop-color="#C3C7E6"/>
<stop offset="1" stop-color="#616DBE"/>
</linearGradient>
<linearGradient id="paint20_linear_234_3333" x1="2.93681" y1="25.9269" x2="4.0343" y2="26.5646" gradientUnits="userSpaceOnUse">
<stop stop-color="white"/>
<stop offset="0.4" stop-color="#C3C7E6"/>
<stop offset="1" stop-color="#616DBE"/>
</linearGradient>
<linearGradient id="paint21_linear_234_3333" x1="2.32982" y1="26.9643" x2="3.39958" y2="27.581" gradientUnits="userSpaceOnUse">
<stop stop-color="white"/>
<stop offset="0.4" stop-color="#C3C7E6"/>
<stop offset="1" stop-color="#616DBE"/>
</linearGradient>
<linearGradient id="paint22_linear_234_3333" x1="4.12291" y1="22.2958" x2="5.01199" y2="22.8144" gradientUnits="userSpaceOnUse">
<stop stop-color="#AB665D"/>
<stop offset="1" stop-color="#2B2321"/>
</linearGradient>
<linearGradient id="paint23_linear_234_3333" x1="3.48103" y1="23.444" x2="4.32847" y2="23.9346" gradientUnits="userSpaceOnUse">
<stop stop-color="#AB665D"/>
<stop offset="1" stop-color="#2B2321"/>
</linearGradient>
<linearGradient id="paint24_linear_234_3333" x1="2.83919" y1="24.5366" x2="3.70054" y2="25.0342" gradientUnits="userSpaceOnUse">
<stop stop-color="#AB665D"/>
<stop offset="1" stop-color="#2B2321"/>
</linearGradient>
<linearGradient id="paint25_linear_234_3333" x1="2.24606" y1="25.6223" x2="3.05179" y2="26.0918" gradientUnits="userSpaceOnUse">
<stop stop-color="#AB665D"/>
<stop offset="1" stop-color="#2B2321"/>
</linearGradient>
<linearGradient id="paint26_linear_234_3333" x1="1.69497" y1="26.6944" x2="2.44517" y2="27.1288" gradientUnits="userSpaceOnUse">
<stop stop-color="#AB665D"/>
<stop offset="1" stop-color="#2B2321"/>
</linearGradient>
<linearGradient id="paint27_linear_234_3333" x1="2.65776" y1="19.3361" x2="9.02028" y2="23.0431" gradientUnits="userSpaceOnUse">
<stop stop-color="#6E3B0F"/>
<stop offset="1" stop-color="#BA7A1E"/>
</linearGradient>
<linearGradient id="paint28_linear_234_3333" x1="2.02278" y1="19.412" x2="5.81532" y2="21.6194" gradientUnits="userSpaceOnUse">
<stop stop-color="#A14D03"/>
<stop offset="1" stop-color="#E8A849"/>
</linearGradient>
<linearGradient id="paint29_linear_234_3333" x1="5.65785" y1="21.4939" x2="9.28369" y2="23.6031" gradientUnits="userSpaceOnUse">
<stop stop-color="#6E3B0F"/>
<stop offset="1" stop-color="#BA7A1E"/>
</linearGradient>
<radialGradient id="paint30_radial_234_3333" cx="0" cy="0" r="1" gradientUnits="userSpaceOnUse" gradientTransform="translate(5.76241 21.7635) scale(4.47917 4.43983)">
<stop stop-color="#B18654"/>
<stop offset="1" stop-color="#000505"/>
</radialGradient>
<linearGradient id="paint31_linear_234_3333" x1="5.44854" y1="21.8534" x2="7.98381" y2="23.332" gradientUnits="userSpaceOnUse">
<stop stop-color="#616DBE"/>
<stop offset="0.6" stop-color="#C3C7E6"/>
<stop offset="1" stop-color="white"/>
</linearGradient>
<linearGradient id="paint32_linear_234_3333" x1="2.93683" y1="18.8591" x2="5.01373" y2="20.0644" gradientUnits="userSpaceOnUse">
<stop stop-color="#616DBE"/>
<stop offset="0.6" stop-color="#C3C7E6"/>
<stop offset="1" stop-color="white"/>
</linearGradient>
<radialGradient id="paint33_radial_234_3333" cx="0" cy="0" r="1" gradientUnits="userSpaceOnUse" gradientTransform="translate(9.72536 22.7799) scale(3.25124 3.22268)">
<stop stop-color="#B18654"/>
<stop offset="1" stop-color="#000505"/>
</radialGradient>
<linearGradient id="paint34_linear_234_3333" x1="10.3742" y1="9.60581" x2="12.083" y2="10.5939" gradientUnits="userSpaceOnUse">
<stop stop-color="#7388AB"/>
<stop offset="1" stop-color="#DCFBFF"/>
</linearGradient>
<linearGradient id="paint35_linear_234_3333" x1="12.0347" y1="10.5533" x2="13.6879" y2="11.5133" gradientUnits="userSpaceOnUse">
<stop stop-color="#89A5C4"/>
<stop offset="1" stop-color="#575E91"/>
</linearGradient>
<radialGradient id="paint36_radial_234_3333" cx="0" cy="0" r="1" gradientUnits="userSpaceOnUse" gradientTransform="translate(3.25075 3.20194) scale(22.3401 22.1438)">
<stop stop-color="#F0FFFF"/>
<stop offset="0.11" stop-color="#ECFAFB"/>
<stop offset="0.24" stop-color="#DFEDEF"/>
<stop offset="0.37" stop-color="#C9D6DB"/>
<stop offset="0.51" stop-color="#ABB7BE"/>
<stop offset="0.65" stop-color="#848E9A"/>
<stop offset="0.79" stop-color="#545C6D"/>
<stop offset="0.93" stop-color="#1D233A"/>
<stop offset="1" stop-color="#00051F"/>
</radialGradient>
<linearGradient id="paint37_linear_234_3333" x1="12.0695" y1="10.4979" x2="13.7157" y2="11.458" gradientUnits="userSpaceOnUse">
<stop offset="0.45" stop-color="#F0FFFF"/>
<stop offset="0.51" stop-color="#ECFAFB"/>
<stop offset="0.58" stop-color="#DFEDEF"/>
<stop offset="0.66" stop-color="#C9D6DB"/>
<stop offset="0.73" stop-color="#ABB7BE"/>
<stop offset="0.81" stop-color="#848E9A"/>
<stop offset="0.88" stop-color="#545C6D"/>
<stop offset="0.96" stop-color="#1D233A"/>
<stop offset="1" stop-color="#00051F"/>
</linearGradient>
<linearGradient id="paint38_linear_234_3333" x1="10.737" y1="12.033" x2="11.39" y2="12.4115" gradientUnits="userSpaceOnUse">
<stop stop-color="#545F85"/>
<stop offset="1" stop-color="#ADCAEB"/>
</linearGradient>
<linearGradient id="paint39_linear_234_3333" x1="10.9882" y1="12.1785" x2="11.6064" y2="12.5359" gradientUnits="userSpaceOnUse">
<stop/>
<stop offset="1" stop-color="#F0FFFF"/>
</linearGradient>
</defs>
</svg>
