<svg width="14" height="14" viewBox="0 0 14 14" fill="none" xmlns="http://www.w3.org/2000/svg">
<path d="M6.33398 10.333H7.66732V6.33301H6.33398V10.333ZM7.00065 4.99967C7.18954 4.99967 7.34787 4.93579 7.47565 4.80801C7.60343 4.68023 7.66732 4.5219 7.66732 4.33301C7.66732 4.14412 7.60343 3.98579 7.47565 3.85801C7.34787 3.73023 7.18954 3.66634 7.00065 3.66634C6.81176 3.66634 6.65343 3.73023 6.52565 3.85801C6.39787 3.98579 6.33398 4.14412 6.33398 4.33301C6.33398 4.5219 6.39787 4.68023 6.52565 4.80801C6.65343 4.93579 6.81176 4.99967 7.00065 4.99967ZM7.00065 13.6663C6.07843 13.6663 5.21176 13.4913 4.40065 13.1413C3.58954 12.7913 2.88398 12.3163 2.28398 11.7163C1.68398 11.1163 1.20898 10.4108 0.858984 9.59968C0.508984 8.78856 0.333984 7.9219 0.333984 6.99967C0.333984 6.07745 0.508984 5.21079 0.858984 4.39967C1.20898 3.58856 1.68398 2.88301 2.28398 2.28301C2.88398 1.68301 3.58954 1.20801 4.40065 0.858008C5.21176 0.508008 6.07843 0.333008 7.00065 0.333008C7.92287 0.333008 8.78954 0.508008 9.60065 0.858008C10.4118 1.20801 11.1173 1.68301 11.7173 2.28301C12.3173 2.88301 12.7923 3.58856 13.1423 4.39967C13.4923 5.21079 13.6673 6.07745 13.6673 6.99967C13.6673 7.9219 13.4923 8.78856 13.1423 9.59968C12.7923 10.4108 12.3173 11.1163 11.7173 11.7163C11.1173 12.3163 10.4118 12.7913 9.60065 13.1413C8.78954 13.4913 7.92287 13.6663 7.00065 13.6663Z" fill="#A8A8A8"/>
</svg>
