<svg width="145" height="38" viewBox="0 0 145 38" fill="none" xmlns="http://www.w3.org/2000/svg">
<rect width="145" height="38" rx="8" fill="#4183BD"/>
<g clip-path="url(#clip0_245_4267)">
<path d="M115.372 19.0933C114.791 18.7045 114.151 18.4281 113.545 18.0826C113.152 17.858 112.734 17.6593 112.393 17.3742C111.812 16.8905 111.932 15.9403 112.538 15.5256C113.409 14.9382 114.851 15.2664 115.004 16.4672C115.004 16.4931 115.03 16.5104 115.056 16.5104H116.37C116.404 16.5104 116.43 16.4845 116.421 16.4499C116.353 15.6206 116.037 14.9295 115.457 14.489C114.902 14.0657 114.271 13.8411 113.596 13.8411C110.122 13.8411 109.806 17.5643 111.675 18.7391C111.889 18.8773 113.724 19.8103 114.373 20.2163C115.021 20.6223 115.226 21.3652 114.945 21.9526C114.688 22.4882 114.023 22.8597 113.357 22.8165C112.631 22.7733 112.068 22.3759 111.872 21.7539C111.838 21.6417 111.821 21.4257 111.821 21.3307C111.821 21.3047 111.795 21.2788 111.769 21.2788H110.344C110.319 21.2788 110.293 21.3047 110.293 21.3307C110.293 22.3759 110.549 22.9547 111.249 23.4817C111.906 23.9827 112.623 24.19 113.366 24.19C115.312 24.19 116.319 23.0756 116.523 21.9181C116.703 20.7864 116.37 19.7671 115.372 19.0933Z" fill="white"/>
<path d="M53.485 14.0312H52.8535H52.1621C52.1365 14.0312 52.1194 14.0485 52.1109 14.0658L50.9417 17.9704C50.9246 18.0223 50.8563 18.0223 50.8393 17.9704L49.67 14.0658C49.6614 14.0399 49.6443 14.0312 49.6187 14.0312H48.9275H48.2958H47.4424C47.4167 14.0312 47.3911 14.0572 47.3911 14.0831V24.0519C47.3911 24.0778 47.4167 24.1037 47.4424 24.1037H48.8677C48.8933 24.1037 48.9189 24.0778 48.9189 24.0519V16.4759C48.9189 16.4155 49.0043 16.4069 49.0213 16.4587L50.1991 20.3892L50.2844 20.6656C50.293 20.6915 50.3101 20.7002 50.3357 20.7002H51.4282C51.4537 20.7002 51.4708 20.6829 51.4793 20.6656L51.5647 20.3892L52.7425 16.4587C52.7596 16.3982 52.8449 16.4155 52.8449 16.4759V24.0519C52.8449 24.0778 52.8706 24.1037 52.8961 24.1037H54.3215C54.3471 24.1037 54.3727 24.0778 54.3727 24.0519V14.0831C54.3727 14.0572 54.3471 14.0312 54.3215 14.0312H53.485Z" fill="white"/>
<path d="M93.5476 14.0312C93.522 14.0312 93.5049 14.0485 93.4963 14.0658L92.3276 17.9704C92.3105 18.0223 92.2422 18.0223 92.2251 17.9704L91.0557 14.0658C91.0471 14.0399 91.03 14.0312 91.0044 14.0312H88.8364C88.8108 14.0312 88.7852 14.0572 88.7852 14.0831V24.0519C88.7852 24.0778 88.8108 24.1037 88.8364 24.1037H90.262C90.2877 24.1037 90.3133 24.0778 90.3133 24.0519V16.4759C90.3133 16.4155 90.3987 16.4069 90.4158 16.4587L91.5931 20.3892L91.6785 20.6656C91.687 20.6915 91.7041 20.7002 91.7297 20.7002H92.8223C92.8479 20.7002 92.865 20.6829 92.8735 20.6656L92.9589 20.3892L94.1369 16.4587C94.154 16.3982 94.2394 16.4155 94.2394 16.4759V24.0519C94.2394 24.0778 94.265 24.1037 94.2906 24.1037H95.7156C95.7412 24.1037 95.7668 24.0778 95.7668 24.0519V14.0831C95.7668 14.0572 95.7412 14.0312 95.7156 14.0312H93.5476Z" fill="white"/>
<path d="M75.1636 14.0312H72.5092H71.0839H68.4296C68.404 14.0312 68.3784 14.0572 68.3784 14.0831V15.327C68.3784 15.3529 68.404 15.3789 68.4296 15.3789H71.0327V24.0519C71.0327 24.0778 71.0583 24.1037 71.0839 24.1037H72.5092C72.5348 24.1037 72.5605 24.0778 72.5605 24.0519V15.3789H75.1636C75.1892 15.3789 75.2148 15.3529 75.2148 15.327V14.0831C75.2148 14.0572 75.1978 14.0312 75.1636 14.0312Z" fill="white"/>
<path d="M83.5707 24.1036H84.8676C84.9017 24.1036 84.9273 24.0691 84.9188 24.0345L82.239 14.0311C82.2305 14.0052 82.2134 13.9966 82.1878 13.9966H81.6929H80.8223H80.3273C80.3016 13.9966 80.2846 14.0139 80.276 14.0311L77.5961 24.0345C77.5875 24.0691 77.6132 24.1036 77.6473 24.1036H78.9446C78.9702 24.1036 78.9873 24.0863 78.9958 24.0691L79.7725 21.1579C79.781 21.132 79.7981 21.1233 79.8237 21.1233H82.6917C82.7173 21.1233 82.7344 21.1406 82.7429 21.1579L83.5194 24.0691C83.528 24.0863 83.5536 24.1036 83.5707 24.1036ZM80.1651 19.698L81.2064 15.802C81.2234 15.7502 81.2917 15.7502 81.3088 15.802L82.35 19.698C82.3586 19.7325 82.3329 19.7671 82.2988 19.7671H80.2163C80.1821 19.7671 80.1566 19.7325 80.1651 19.698Z" fill="white"/>
<path d="M105.693 24.1036H106.99C107.024 24.1036 107.05 24.0691 107.041 24.0345L104.361 14.0311C104.353 14.0052 104.336 13.9966 104.31 13.9966H103.815H102.945H102.45C102.424 13.9966 102.407 14.0139 102.398 14.0311L99.7186 24.0345C99.71 24.0691 99.7357 24.1036 99.7698 24.1036H101.067C101.093 24.1036 101.11 24.0863 101.119 24.0691L101.895 21.1579C101.904 21.132 101.921 21.1233 101.946 21.1233H104.814C104.84 21.1233 104.857 21.1406 104.865 21.1579L105.642 24.0691C105.65 24.0863 105.668 24.1036 105.693 24.1036ZM102.287 19.698L103.329 15.802C103.346 15.7502 103.414 15.7502 103.431 15.802L104.472 19.698C104.481 19.7325 104.455 19.7671 104.421 19.7671H102.339C102.304 19.7671 102.279 19.7325 102.287 19.698Z" fill="white"/>
<path d="M60.1593 22.6265V19.5339C60.1593 19.508 60.1849 19.4821 60.2106 19.4821H64.0085C64.0342 19.4821 64.0598 19.4561 64.0598 19.4302V18.1863C64.0598 18.1604 64.0342 18.1345 64.0085 18.1345H60.2106C60.1849 18.1345 60.1593 18.1085 60.1593 18.0826V15.4393C60.1593 15.4133 60.1849 15.3874 60.2106 15.3874H64.5292C64.5548 15.3874 64.5805 15.3615 64.5805 15.3356V14.0916C64.5805 14.0657 64.5548 14.0398 64.5292 14.0398H60.1593H58.6828C58.6572 14.0398 58.6316 14.0657 58.6316 14.0916V15.3874V18.1431V19.4907V22.6869V24.0518C58.6316 24.0777 58.6572 24.1037 58.6828 24.1037H60.1593H64.7084C64.734 24.1037 64.7597 24.0777 64.7597 24.0518V22.7388C64.7597 22.7129 64.734 22.6869 64.7084 22.6869H60.202C60.1764 22.6783 60.1593 22.661 60.1593 22.6265Z" fill="white"/>
<path d="M128.396 24.0173L123.462 18.8601C123.445 18.8428 123.445 18.8083 123.462 18.791L127.901 14.1262C127.935 14.0916 127.909 14.0398 127.867 14.0398H126.049C126.032 14.0398 126.023 14.0484 126.015 14.0571L122.251 18.0135C122.217 18.0481 122.165 18.0221 122.165 17.9789V14.0916C122.165 14.0657 122.14 14.0398 122.114 14.0398H120.689C120.663 14.0398 120.637 14.0657 120.637 14.0916V24.0605C120.637 24.0864 120.663 24.1123 120.689 24.1123H122.114C122.14 24.1123 122.165 24.0864 122.165 24.0605V19.6721C122.165 19.6289 122.225 19.603 122.251 19.6375L126.518 24.095C126.526 24.1037 126.544 24.1123 126.552 24.1123H128.37C128.404 24.1037 128.43 24.0432 128.396 24.0173Z" fill="white"/>
<path d="M37.6528 8.66675L29.024 15.1456L30.6286 11.3274L37.6528 8.66675Z" fill="#E17726" stroke="#E17726" stroke-width="0.25" stroke-linecap="round" stroke-linejoin="round"/>
<path d="M17.7495 8.66675L26.3014 15.2061L24.7737 11.3274L17.7495 8.66675Z" fill="#E27625" stroke="#E27625" stroke-width="0.25" stroke-linecap="round" stroke-linejoin="round"/>
<path d="M34.5459 23.689L32.2501 27.248L37.1662 28.6216L38.5744 23.7668L34.5459 23.689Z" fill="#E27625" stroke="#E27625" stroke-width="0.25" stroke-linecap="round" stroke-linejoin="round"/>
<path d="M16.8361 23.7668L18.2358 28.6216L23.1434 27.248L20.856 23.689L16.8361 23.7668Z" fill="#E27625" stroke="#E27625" stroke-width="0.25" stroke-linecap="round" stroke-linejoin="round"/>
<path d="M22.8788 17.6765L21.5132 19.767L26.3781 19.9916L26.216 14.679L22.8788 17.6765Z" fill="#E27625" stroke="#E27625" stroke-width="0.25" stroke-linecap="round" stroke-linejoin="round"/>
<path d="M32.5232 17.6767L29.1349 14.6187L29.0239 19.9918L33.8888 19.7672L32.5232 17.6767Z" fill="#E27625" stroke="#E27625" stroke-width="0.25" stroke-linecap="round" stroke-linejoin="round"/>
<path d="M23.1435 27.248L26.088 25.8054L23.5532 23.8013L23.1435 27.248Z" fill="#E27625" stroke="#E27625" stroke-width="0.25" stroke-linecap="round" stroke-linejoin="round"/>
<path d="M29.3142 25.8054L32.2502 27.248L31.849 23.8013L29.3142 25.8054Z" fill="#E27625" stroke="#E27625" stroke-width="0.25" stroke-linecap="round" stroke-linejoin="round"/>
<path d="M32.2502 27.248L29.3142 25.8054L29.5532 27.7404L29.5275 28.5611L32.2502 27.248Z" fill="#D5BFB2" stroke="#D5BFB2" stroke-width="0.25" stroke-linecap="round" stroke-linejoin="round"/>
<path d="M23.1435 27.248L25.8747 28.5611L25.8576 27.7404L26.088 25.8054L23.1435 27.248Z" fill="#D5BFB2" stroke="#D5BFB2" stroke-width="0.25" stroke-linecap="round" stroke-linejoin="round"/>
<path d="M25.9258 22.5229L23.4848 21.7973L25.2088 20.9939L25.9258 22.5229Z" fill="#233447" stroke="#233447" stroke-width="0.25" stroke-linecap="round" stroke-linejoin="round"/>
<path d="M29.4764 22.5229L30.1933 20.9939L31.9259 21.7973L29.4764 22.5229Z" fill="#233447" stroke="#233447" stroke-width="0.25" stroke-linecap="round" stroke-linejoin="round"/>
<path d="M23.1434 27.248L23.5702 23.689L20.8561 23.7668L23.1434 27.248Z" fill="#CC6228" stroke="#CC6228" stroke-width="0.25" stroke-linecap="round" stroke-linejoin="round"/>
<path d="M31.8319 23.689L32.2501 27.248L34.546 23.7668L31.8319 23.689Z" fill="#CC6228" stroke="#CC6228" stroke-width="0.25" stroke-linecap="round" stroke-linejoin="round"/>
<path d="M33.8888 19.7671L29.0239 19.9917L29.4763 22.5228L30.1932 20.9938L31.9258 21.7972L33.8888 19.7671Z" fill="#CC6228" stroke="#CC6228" stroke-width="0.25" stroke-linecap="round" stroke-linejoin="round"/>
<path d="M23.4848 21.7972L25.2088 20.9938L25.9258 22.5228L26.3781 19.9917L21.5132 19.7671L23.4848 21.7972Z" fill="#CC6228" stroke="#CC6228" stroke-width="0.25" stroke-linecap="round" stroke-linejoin="round"/>
<path d="M21.5134 19.7671L23.5533 23.8013L23.485 21.7972L21.5134 19.7671Z" fill="#E27525" stroke="#E27525" stroke-width="0.25" stroke-linecap="round" stroke-linejoin="round"/>
<path d="M31.9259 21.7972L31.8491 23.8013L33.889 19.7671L31.9259 21.7972Z" fill="#E27525" stroke="#E27525" stroke-width="0.25" stroke-linecap="round" stroke-linejoin="round"/>
<path d="M26.3784 19.9917L25.926 22.5228L26.4979 25.5117L26.6259 21.5726L26.3784 19.9917Z" fill="#E27525" stroke="#E27525" stroke-width="0.25" stroke-linecap="round" stroke-linejoin="round"/>
<path d="M29.024 19.9917L28.785 21.564L28.9045 25.5117L29.4764 22.5228L29.024 19.9917Z" fill="#E27525" stroke="#E27525" stroke-width="0.25" stroke-linecap="round" stroke-linejoin="round"/>
<path d="M29.4764 22.5228L28.9045 25.5117L29.3142 25.8054L31.8491 23.8013L31.9259 21.7971L29.4764 22.5228Z" fill="#F5841F" stroke="#F5841F" stroke-width="0.25" stroke-linecap="round" stroke-linejoin="round"/>
<path d="M23.4848 21.7971L23.5531 23.8013L26.0879 25.8054L26.4976 25.5117L25.9258 22.5228L23.4848 21.7971Z" fill="#F5841F" stroke="#F5841F" stroke-width="0.25" stroke-linecap="round" stroke-linejoin="round"/>
<path d="M29.5276 28.5611L29.5532 27.7404L29.3313 27.5504H26.071L25.8576 27.7404L25.8747 28.5611L23.1435 27.248L24.0994 28.0428L26.0368 29.399H29.3569L31.3028 28.0428L32.2502 27.248L29.5276 28.5611Z" fill="#C0AC9D" stroke="#C0AC9D" stroke-width="0.25" stroke-linecap="round" stroke-linejoin="round"/>
<path d="M29.3142 25.8054L28.9045 25.5117H26.4976L26.088 25.8054L25.8575 27.7405L26.0709 27.5504H29.3312L29.5532 27.7405L29.3142 25.8054Z" fill="#161616" stroke="#161616" stroke-width="0.25" stroke-linecap="round" stroke-linejoin="round"/>
<path d="M38.0197 15.5689L38.7452 11.9926L37.6528 8.66675L29.3142 14.9297L32.5233 17.6767L37.0553 19.0157L38.0539 17.8322L37.6187 17.5125L38.3099 16.8733L37.7808 16.4587L38.4721 15.9231L38.0197 15.5689Z" fill="#763E1A" stroke="#763E1A" stroke-width="0.25" stroke-linecap="round" stroke-linejoin="round"/>
<path d="M16.657 11.9926L17.391 15.5689L16.9216 15.9231L17.6214 16.4587L17.0923 16.8733L17.7836 17.5125L17.3483 17.8322L18.3469 19.0157L22.8789 17.6767L26.088 14.9297L17.7494 8.66675L16.657 11.9926Z" fill="#763E1A" stroke="#763E1A" stroke-width="0.25" stroke-linecap="round" stroke-linejoin="round"/>
<path d="M37.0554 19.0154L32.5234 17.6765L33.889 19.767L31.8491 23.8012L34.5461 23.7666H38.5746L37.0554 19.0154Z" fill="#F5841F" stroke="#F5841F" stroke-width="0.25" stroke-linecap="round" stroke-linejoin="round"/>
<path d="M22.8788 17.6765L18.3468 19.0154L16.8361 23.7666H20.8561L23.553 23.8012L21.5132 19.767L22.8788 17.6765Z" fill="#F5841F" stroke="#F5841F" stroke-width="0.25" stroke-linecap="round" stroke-linejoin="round"/>
<path d="M29.024 19.9918L29.3142 14.9296L30.6285 11.3274H24.7736L26.088 14.9296L26.3782 19.9918L26.4891 21.5813L26.4977 25.5118H28.9045L28.913 21.5813L29.024 19.9918Z" fill="#F5841F" stroke="#F5841F" stroke-width="0.25" stroke-linecap="round" stroke-linejoin="round"/>
</g>
<defs>
<clipPath id="clip0_245_4267">
<rect width="113" height="22" fill="white" transform="translate(16 8)"/>
</clipPath>
</defs>
</svg>
