<svg width="50" height="50" viewBox="0 0 50 50" fill="none" xmlns="http://www.w3.org/2000/svg">
<circle cx="25" cy="25" r="25" fill="black"/>
<path d="M18.8257 25.0137H13.334C13.334 27.6451 14.2207 30.0763 15.6794 32.0213C16.9379 31.6495 18.2822 31.3634 19.7409 31.1346C19.1689 29.3327 18.8257 27.2447 18.8257 25.0137Z" fill="white" stroke="#1E1E1E" stroke-width="0.715063"/>
<path d="M19.7683 18.8642C18.3382 18.664 16.9652 18.3494 15.7067 17.9775C14.2194 19.9225 13.3613 22.3537 13.3613 24.9852H18.853C18.8244 22.7542 19.1676 20.6662 19.7683 18.8642Z" fill="white" stroke="#1E1E1E" stroke-width="0.715063"/>
<path d="M31.0403 25.0145H36.532C36.532 22.383 35.6453 19.9518 34.1866 18.0068C32.928 18.3787 31.5837 18.6647 30.125 18.8935C30.6971 20.6669 31.0403 22.7549 31.0403 25.0145Z" fill="white" stroke="#1E1E1E" stroke-width="0.715063"/>
<path d="M30.125 31.1346C31.5551 31.3348 32.928 31.6495 34.1866 32.0213C35.6739 30.0763 36.532 27.6451 36.532 25.0137H31.0403C31.0403 27.2447 30.6971 29.3327 30.125 31.1346Z" fill="white" stroke="#1E1E1E" stroke-width="0.715063"/>
<path d="M24.9471 25.0137H18.8262C18.8262 27.2733 19.1694 29.3613 19.7415 31.1346C21.3718 30.9058 23.1165 30.7628 24.9185 30.7628V25.0137H24.9471Z" fill="white" stroke="#1E1E1E" stroke-width="0.715063"/>
<path d="M24.9458 19.2371C23.1439 19.2371 21.3991 19.0941 19.7688 18.8652C19.1967 20.6386 18.8535 22.7552 18.8535 24.9862H24.9458V19.2371Z" fill="white" stroke="#1E1E1E" stroke-width="0.715063"/>
<path d="M24.9473 30.7628C26.7492 30.7628 28.494 30.9058 30.1243 31.1346C30.6964 29.3613 31.0396 27.2733 31.0396 25.0137H24.9473V30.7628Z" fill="white" stroke="#1E1E1E" stroke-width="0.715063"/>
<path d="M24.9473 25.0145H31.0396C31.0396 22.7549 30.6964 20.6669 30.1243 18.8936C28.494 19.1224 26.7492 19.2654 24.9473 19.2654V25.0145Z" fill="white" stroke="#1E1E1E" stroke-width="0.715063"/>
<path d="M24.9476 13.4014C21.1721 13.4014 17.8256 15.2033 15.709 17.9778C16.9675 18.3496 18.3118 18.6356 19.7705 18.8644C20.8288 15.6038 22.7452 13.4014 24.9476 13.4014Z" fill="white" stroke="#1E1E1E" stroke-width="0.715063"/>
<path d="M24.9473 13.4014C27.1211 13.4014 29.0374 15.5752 30.1243 18.8644C31.5544 18.6642 32.9274 18.3496 34.1859 17.9778C32.0407 15.2033 28.6942 13.4014 24.9473 13.4014Z" fill="white" stroke="#1E1E1E" stroke-width="0.715063"/>
<path d="M24.9446 13.4014C22.7708 13.4014 20.8545 15.5752 19.7676 18.8644C21.3979 19.0933 23.1427 19.2363 24.9446 19.2363V13.4014Z" fill="white" stroke="#1E1E1E" stroke-width="0.715063"/>
<path d="M30.1243 18.8644C29.0374 15.6038 27.1211 13.4014 24.9473 13.4014V19.2363C26.7492 19.2363 28.4654 19.1219 30.1243 18.8644Z" fill="white" stroke="#1E1E1E" stroke-width="0.715063"/>
<path d="M24.9476 36.5978C22.7738 36.5978 20.8574 34.4241 19.7705 31.1348C18.3404 31.335 16.9675 31.6496 15.709 32.0214C17.8256 34.7959 21.1721 36.5978 24.9476 36.5978Z" fill="white" stroke="#1E1E1E" stroke-width="0.715063"/>
<path d="M24.9473 36.5978C28.7228 36.5978 32.0693 34.7959 34.1859 32.0214C32.9274 31.6496 31.583 31.3636 30.1243 31.1348C29.0374 34.3955 27.1211 36.5978 24.9473 36.5978Z" fill="white" stroke="#1E1E1E" stroke-width="0.715063"/>
<path d="M19.7676 31.1345C20.8545 34.4238 22.7708 36.5976 24.9446 36.5976V30.7627C23.1427 30.7627 21.3979 30.8771 19.7676 31.1345Z" fill="white" stroke="#1E1E1E" stroke-width="0.715063"/>
<path d="M30.1243 31.1345C28.494 30.9057 26.7492 30.7627 24.9473 30.7627V36.5976C27.1211 36.5976 29.0374 34.3952 30.1243 31.1345Z" fill="white" stroke="#1E1E1E" stroke-width="0.715063"/>
<path d="M25.9997 19.1942C25.9997 19.7376 25.5706 20.1667 25.0272 20.1667C24.4837 20.1667 24.0547 19.7376 24.0547 19.1942C24.0547 18.6507 24.4837 18.2217 25.0272 18.2217C25.542 18.2217 25.9997 18.6507 25.9997 19.1942Z" fill="white" stroke="#1E1E1E" stroke-width="0.715063"/>
<path d="M20.7672 18.7938C20.7672 19.3372 20.3382 19.7663 19.7948 19.7663C19.2513 19.7663 18.8223 19.3372 18.8223 18.7938C18.8223 18.2503 19.2513 17.8213 19.7948 17.8213C20.3382 17.8213 20.7672 18.2503 20.7672 18.7938Z" fill="white" stroke="#1E1E1E" stroke-width="0.715063"/>
<path d="M16.7067 17.9071C16.7067 18.4505 16.2777 18.8795 15.7342 18.8795C15.1908 18.8795 14.7617 18.4505 14.7617 17.9071C14.7617 17.3636 15.1908 16.9346 15.7342 16.9346C16.2777 16.9346 16.7067 17.3636 16.7067 17.9071Z" fill="white" stroke="#1E1E1E" stroke-width="0.715063"/>
<path d="M14.4176 24.9142C14.4176 25.4576 13.9886 25.8867 13.4451 25.8867C12.9017 25.8867 12.4727 25.4576 12.4727 24.9142C12.4727 24.3707 12.9017 23.9417 13.4451 23.9417C13.9886 23.9131 14.4176 24.3707 14.4176 24.9142Z" fill="white" stroke="#1E1E1E" stroke-width="0.715063"/>
<path d="M32.0075 24.9142C32.0075 25.4576 31.5784 25.8867 31.035 25.8867C30.4915 25.8867 30.0625 25.4576 30.0625 24.9142C30.0625 24.3707 30.4915 23.9417 31.035 23.9417C31.5784 23.9131 32.0075 24.3707 32.0075 24.9142Z" fill="white" stroke="#1E1E1E" stroke-width="0.715063"/>
<path d="M37.529 24.9142C37.529 25.4576 37.0999 25.8867 36.5565 25.8867C36.013 25.8867 35.584 25.4576 35.584 24.9142C35.584 24.3707 36.013 23.9417 36.5565 23.9417C37.0999 23.9131 37.529 24.3707 37.529 24.9142Z" fill="white" stroke="#1E1E1E" stroke-width="0.715063"/>
<path d="M19.8512 24.9142C19.8512 25.4576 19.4222 25.8867 18.8787 25.8867C18.3353 25.8867 17.9062 25.4576 17.9062 24.9142C17.9062 24.3707 18.3353 23.9417 18.8787 23.9417C19.4222 23.9131 19.8512 24.3707 19.8512 24.9142Z" fill="white" stroke="#1E1E1E" stroke-width="0.715063"/>
<path d="M20.7946 31.035C20.7946 31.5784 20.3655 32.0075 19.8221 32.0075C19.2786 32.0075 18.8496 31.5784 18.8496 31.035C18.8496 30.4915 19.2786 30.0625 19.8221 30.0625C20.3655 30.0625 20.7946 30.4915 20.7946 31.035Z" fill="white" stroke="#1E1E1E" stroke-width="0.715063"/>
<path d="M16.734 31.9237C16.734 32.4671 16.305 32.8961 15.7615 32.8961C15.2181 32.8961 14.7891 32.4671 14.7891 31.9237C14.7891 31.3802 15.2181 30.9512 15.7615 30.9512C16.305 30.9512 16.734 31.3802 16.734 31.9237Z" fill="white" stroke="#1E1E1E" stroke-width="0.715063"/>
<path d="M31.1227 31.0643C31.1227 31.6077 30.6937 32.0368 30.1502 32.0368C29.6068 32.0368 29.1777 31.6077 29.1777 31.0643C29.1777 30.5208 29.6068 30.0918 30.1502 30.0918C30.6937 30.0918 31.1227 30.5208 31.1227 31.0643Z" fill="white" stroke="#1E1E1E" stroke-width="0.715063"/>
<path d="M35.2125 31.951C35.2125 32.4944 34.7835 32.9235 34.2401 32.9235C33.6966 32.9235 33.2676 32.4944 33.2676 31.951C33.2676 31.4076 33.6966 30.9785 34.2401 30.9785C34.7549 30.9785 35.2125 31.4362 35.2125 31.951Z" fill="white" stroke="#1E1E1E" stroke-width="0.715063"/>
<path d="M31.0915 18.8514C31.0915 19.3948 30.6624 19.8239 30.119 19.8239C29.5755 19.8239 29.1465 19.3948 29.1465 18.8514C29.1465 18.3079 29.5755 17.8789 30.119 17.8789C30.6338 17.8789 31.0915 18.3079 31.0915 18.8514Z" fill="white" stroke="#1E1E1E" stroke-width="0.715063"/>
<path d="M35.154 17.964C35.154 18.5074 34.7249 18.9365 34.1815 18.9365C33.638 18.9365 33.209 18.5074 33.209 17.964C33.209 17.4205 33.638 16.9915 34.1815 16.9915C34.7249 16.9629 35.154 17.4205 35.154 17.964Z" fill="white" stroke="#1E1E1E" stroke-width="0.715063"/>
<path d="M25.9997 25.0008C25.9997 25.5443 25.5706 25.9733 25.0272 25.9733C24.4837 25.9733 24.0547 25.5443 24.0547 25.0008C24.0547 24.4574 24.4837 24.0283 25.0272 24.0283C25.542 24.0283 25.9997 24.4574 25.9997 25.0008Z" fill="white" stroke="#1E1E1E" stroke-width="0.715063"/>
<path d="M25.9997 30.8068C25.9997 31.3502 25.5706 31.7792 25.0272 31.7792C24.4837 31.7792 24.0547 31.3502 24.0547 30.8068C24.0547 30.2633 24.4837 29.8343 25.0272 29.8343C25.542 29.8057 25.9997 30.2633 25.9997 30.8068Z" fill="white" stroke="#1E1E1E" stroke-width="0.715063"/>
<path d="M25.9997 36.5272C25.9997 37.0706 25.5706 37.4997 25.0272 37.4997C24.4837 37.4997 24.0547 37.0706 24.0547 36.5272C24.0547 35.9837 24.4837 35.5547 25.0272 35.5547C25.542 35.5547 25.9997 35.9837 25.9997 36.5272Z" fill="white" stroke="#1E1E1E" stroke-width="0.715063"/>
<path d="M25.9997 13.4738C25.9997 14.0172 25.5706 14.4462 25.0272 14.4462C24.4837 14.4462 24.0547 14.0172 24.0547 13.4738C24.0547 12.9303 24.4837 12.5013 25.0272 12.5013C25.542 12.4727 25.9997 12.9303 25.9997 13.4738Z" fill="white" stroke="#1E1E1E" stroke-width="0.715063"/>
</svg>
