<svg width="50" height="50" viewBox="0 0 50 50" fill="none" xmlns="http://www.w3.org/2000/svg">
<circle cx="25" cy="25" r="25" fill="black"/>
<path d="M12.5013 16.8828C13.0827 16.8828 13.5299 16.4356 13.5299 15.8542V13.5286C13.5299 12.9472 13.0827 12.5 12.5013 12.5C11.9199 12.5 11.4727 12.9472 11.4727 13.5286V15.8542C11.4727 16.4356 11.9199 16.8828 12.5013 16.8828Z" stroke="white" stroke-width="1.11808"/>
<path d="M15.4081 17.151V12.6787H14.5137" stroke="white" stroke-width="1.11808"/>
<path d="M18.2708 16.8828C18.8522 16.8828 19.2995 16.4356 19.2995 15.8542V13.5286C19.2995 12.9472 18.8522 12.5 18.2708 12.5C17.6894 12.5 17.2422 12.9472 17.2422 13.5286V15.8542C17.2422 16.4356 17.6894 16.8828 18.2708 16.8828Z" stroke="white" stroke-width="1.11808"/>
<path d="M21.1757 17.151V12.6787H20.2812" stroke="white" stroke-width="1.11808"/>
<path d="M24.0384 16.8828C24.6198 16.8828 25.067 16.4356 25.067 15.8542V13.5286C25.067 12.9472 24.6198 12.5 24.0384 12.5C23.457 12.5 23.0098 12.9472 23.0098 13.5286V15.8542C23.0098 16.4356 23.457 16.8828 24.0384 16.8828Z" stroke="white" stroke-width="1.11808"/>
<path d="M26.9472 17.151V12.6787H26.0527" stroke="white" stroke-width="1.11808"/>
<path d="M29.8509 16.8828C30.4323 16.8828 30.8795 16.4356 30.8795 15.8542V13.5286C30.8795 12.9472 30.4323 12.5 29.8509 12.5C29.2695 12.5 28.8223 12.9472 28.8223 13.5286V15.8542C28.8223 16.4356 29.2695 16.8828 29.8509 16.8828Z" stroke="white" stroke-width="1.11808"/>
<path d="M32.7597 17.151V12.6787H31.8652" stroke="white" stroke-width="1.11808"/>
<path d="M35.6243 16.8828C36.2057 16.8828 36.653 16.4356 36.653 15.8542V13.5286C36.653 12.9472 36.2057 12.5 35.6243 12.5C35.0429 12.5 34.5957 12.9472 34.5957 13.5286V15.8542C34.5957 16.4356 35.0429 16.8828 35.6243 16.8828Z" stroke="white" stroke-width="1.11808"/>
<path d="M38.5273 17.151V12.6787H37.6328" stroke="white" stroke-width="1.11808"/>
<path d="M12.5013 23.6807C13.0827 23.6807 13.5299 23.2335 13.5299 22.6521V20.3265C13.5299 19.7451 13.0827 19.2979 12.5013 19.2979C11.9199 19.2979 11.4727 19.7451 11.4727 20.3265V22.6521C11.4727 23.2335 11.9199 23.6807 12.5013 23.6807Z" stroke="white" stroke-width="1.11808"/>
<path d="M15.4081 23.9488V19.4766H14.5137" stroke="white" stroke-width="1.11808"/>
<path d="M18.2708 23.6807C18.8522 23.6807 19.2995 23.2335 19.2995 22.6521V20.3265C19.2995 19.7451 18.8522 19.2979 18.2708 19.2979C17.6894 19.2979 17.2422 19.7451 17.2422 20.3265V22.6521C17.2422 23.2335 17.6894 23.6807 18.2708 23.6807Z" stroke="white" stroke-width="1.11808"/>
<path d="M22.1146 23.6807C22.696 23.6807 23.1432 23.2335 23.1432 22.6521V20.3265C23.1432 19.7451 22.696 19.2979 22.1146 19.2979C21.5332 19.2979 21.0859 19.7451 21.0859 20.3265V22.6521C21.0859 23.2335 21.5332 23.6807 22.1146 23.6807Z" stroke="white" stroke-width="1.11808"/>
<path d="M25.9622 23.6807C26.5436 23.6807 26.9909 23.2335 26.9909 22.6521V20.3265C26.9909 19.7451 26.5436 19.2979 25.9622 19.2979C25.3808 19.2979 24.9336 19.7451 24.9336 20.3265V22.6521C24.9336 23.2335 25.3808 23.6807 25.9622 23.6807Z" stroke="white" stroke-width="1.11808"/>
<path d="M29.8509 23.6807C30.4323 23.6807 30.8795 23.2335 30.8795 22.6521V20.3265C30.8795 19.7451 30.4323 19.2979 29.8509 19.2979C29.2695 19.2979 28.8223 19.7451 28.8223 20.3265V22.6521C28.8223 23.2335 29.2695 23.6807 29.8509 23.6807Z" stroke="white" stroke-width="1.11808"/>
<path d="M38.5273 23.9488V19.4766H37.6328" stroke="white" stroke-width="1.11808"/>
<path d="M35.8456 23.9488V19.4766H34.9512" stroke="white" stroke-width="1.11808"/>
<path d="M33.162 23.9488V19.4766H32.2676" stroke="white" stroke-width="1.11808"/>
<path d="M12.5013 30.4336C13.0827 30.4336 13.5299 29.9864 13.5299 29.405V27.0794C13.5299 26.498 13.0827 26.0508 12.5013 26.0508C11.9199 26.0508 11.4727 26.498 11.4727 27.0794V29.405C11.4727 29.9864 11.9199 30.4336 12.5013 30.4336Z" stroke="white" stroke-width="1.11808"/>
<path d="M15.4081 30.7018V26.2295H14.5137" stroke="white" stroke-width="1.11808"/>
<path d="M18.2708 30.4336C18.8522 30.4336 19.2995 29.9864 19.2995 29.405V27.0794C19.2995 26.498 18.8522 26.0508 18.2708 26.0508C17.6894 26.0508 17.2422 26.498 17.2422 27.0794V29.405C17.2422 29.9864 17.6894 30.4336 18.2708 30.4336Z" stroke="white" stroke-width="1.11808"/>
<path d="M21.1757 30.7018V26.2295H20.2812" stroke="white" stroke-width="1.11808"/>
<path d="M24.0384 30.4336C24.6198 30.4336 25.067 29.9864 25.067 29.405V27.0794C25.067 26.498 24.6198 26.0508 24.0384 26.0508C23.457 26.0508 23.0098 26.498 23.0098 27.0794V29.405C23.0098 29.9864 23.457 30.4336 24.0384 30.4336Z" stroke="white" stroke-width="1.11808"/>
<path d="M26.9472 30.7018V26.2295H26.0527" stroke="white" stroke-width="1.11808"/>
<path d="M29.8509 30.4336C30.4323 30.4336 30.8795 29.9864 30.8795 29.405V27.0794C30.8795 26.498 30.4323 26.0508 29.8509 26.0508C29.2695 26.0508 28.8223 26.498 28.8223 27.0794V29.405C28.8223 29.9864 29.2695 30.4336 29.8509 30.4336Z" stroke="white" stroke-width="1.11808"/>
<path d="M32.7597 30.7018V26.2295H31.8652" stroke="white" stroke-width="1.11808"/>
<path d="M35.6243 30.4336C36.2057 30.4336 36.653 29.9864 36.653 29.405V27.0794C36.653 26.498 36.2057 26.0508 35.6243 26.0508C35.0429 26.0508 34.5957 26.498 34.5957 27.0794V29.405C34.5957 29.9864 35.0429 30.4336 35.6243 30.4336Z" stroke="white" stroke-width="1.11808"/>
<path d="M38.5273 30.7018V26.2295H37.6328" stroke="white" stroke-width="1.11808"/>
<path d="M12.5013 37.2315C13.0827 37.2315 13.5299 36.7842 13.5299 36.2028V33.8773C13.5299 33.2959 13.0827 32.8486 12.5013 32.8486C11.9199 32.8486 11.4727 33.2959 11.4727 33.8773V36.2028C11.4727 36.7842 11.9199 37.2315 12.5013 37.2315Z" stroke="white" stroke-width="1.11808"/>
<path d="M15.4081 37.4996V33.0273H14.5137" stroke="white" stroke-width="1.11808"/>
<path d="M18.2708 37.2315C18.8522 37.2315 19.2995 36.7842 19.2995 36.2028V33.8773C19.2995 33.2959 18.8522 32.8486 18.2708 32.8486C17.6894 32.8486 17.2422 33.2959 17.2422 33.8773V36.2028C17.2422 36.7842 17.6894 37.2315 18.2708 37.2315Z" stroke="white" stroke-width="1.11808"/>
<path d="M22.1146 37.2315C22.696 37.2315 23.1432 36.7842 23.1432 36.2028V33.8773C23.1432 33.2959 22.696 32.8486 22.1146 32.8486C21.5332 32.8486 21.0859 33.2959 21.0859 33.8773V36.2028C21.0859 36.7842 21.5332 37.2315 22.1146 37.2315Z" stroke="white" stroke-width="1.11808"/>
<path d="M25.9622 37.2315C26.5436 37.2315 26.9909 36.7842 26.9909 36.2028V33.8773C26.9909 33.2959 26.5436 32.8486 25.9622 32.8486C25.3808 32.8486 24.9336 33.2959 24.9336 33.8773V36.2028C24.9336 36.7842 25.3808 37.2315 25.9622 37.2315Z" stroke="white" stroke-width="1.11808"/>
<path d="M29.8509 37.2315C30.4323 37.2315 30.8795 36.7842 30.8795 36.2028V33.8773C30.8795 33.2959 30.4323 32.8486 29.8509 32.8486C29.2695 32.8486 28.8223 33.2959 28.8223 33.8773V36.2028C28.8223 36.7842 29.2695 37.2315 29.8509 37.2315Z" stroke="white" stroke-width="1.11808"/>
<path d="M38.5273 37.4996V33.0273H37.6328" stroke="white" stroke-width="1.11808"/>
<path d="M35.8456 37.4996V33.0273H34.9512" stroke="white" stroke-width="1.11808"/>
<path d="M33.162 37.4996V33.0273H32.2676" stroke="white" stroke-width="1.11808"/>
</svg>
