<svg width="31" height="30" viewBox="0 0 31 30" fill="none" xmlns="http://www.w3.org/2000/svg">
<rect x="0.13916" width="30" height="30" rx="15" fill="url(#paint0_linear_299_147)"/>
<circle cx="15.1392" cy="15" r="9" fill="#8247E5"/>
<g clip-path="url(#clip0_299_147)">
<path d="M17.9648 12.9471C17.7598 12.8217 17.4961 12.8217 17.2617 12.9471L15.6211 13.9814L14.5078 14.6396L12.8965 15.674C12.6914 15.7993 12.4277 15.7993 12.1934 15.674L10.9336 14.859C10.7285 14.7337 10.582 14.4829 10.582 14.2008V12.6337C10.582 12.3829 10.6992 12.1322 10.9336 11.9755L12.1934 11.1919C12.3984 11.0665 12.6621 11.0665 12.8965 11.1919L14.1562 12.0068C14.3613 12.1322 14.5078 12.3829 14.5078 12.665V13.6993L15.6211 13.0098V11.9441C15.6211 11.6934 15.5039 11.4426 15.2695 11.2859L12.9258 9.81278C12.7207 9.68741 12.457 9.68741 12.2227 9.81278L9.82031 11.3173C9.58594 11.4426 9.46875 11.6934 9.46875 11.9441V14.8904C9.46875 15.1411 9.58594 15.3919 9.82031 15.5486L12.1934 17.0217C12.3984 17.1471 12.6621 17.1471 12.8965 17.0217L14.5078 16.0187L15.6211 15.3292L17.2324 14.3262C17.4375 14.2008 17.7012 14.2008 17.9355 14.3262L19.1953 15.1098C19.4004 15.2352 19.5469 15.4859 19.5469 15.768V17.3352C19.5469 17.5859 19.4297 17.8367 19.1953 17.9934L17.9648 18.777C17.7598 18.9023 17.4961 18.9023 17.2617 18.777L16.002 17.9934C15.7969 17.868 15.6504 17.6173 15.6504 17.3352V16.3322L14.5371 17.0217V18.0561C14.5371 18.3068 14.6543 18.5576 14.8887 18.7143L17.2617 20.1874C17.4668 20.3128 17.7305 20.3128 17.9648 20.1874L20.3379 18.7143C20.543 18.5889 20.6895 18.3382 20.6895 18.0561V15.0785C20.6895 14.8277 20.5723 14.577 20.3379 14.4202L17.9648 12.9471Z" fill="white"/>
</g>
<defs>
<linearGradient id="paint0_linear_299_147" x1="15.1392" y1="0" x2="15.1392" y2="30" gradientUnits="userSpaceOnUse">
<stop stop-color="#272727"/>
<stop offset="1"/>
</linearGradient>
<clipPath id="clip0_299_147">
<rect width="11.25" height="10.5" fill="white" transform="translate(9.46875 9.75)"/>
</clipPath>
</defs>
</svg>
