<svg xmlns="http://www.w3.org/2000/svg" width="32" height="32" viewBox="0 0 32 32" fill="none">
  <mask id="mask0_708_1909" style="mask-type:alpha" maskUnits="userSpaceOnUse" x="0" y="0" width="32" height="32">
    <rect width="32" height="32" fill="#D9D9D9"/>
  </mask>
  <g mask="url(#mask0_708_1909)">
    <path d="M15.9333 24C16.4 24 16.7944 23.8389 17.1167 23.5167C17.4389 23.1944 17.6 22.8 17.6 22.3333C17.6 21.8667 17.4389 21.4722 17.1167 21.15C16.7944 20.8278 16.4 20.6667 15.9333 20.6667C15.4667 20.6667 15.0722 20.8278 14.75 21.15C14.4278 21.4722 14.2667 21.8667 14.2667 22.3333C14.2667 22.8 14.4278 23.1944 14.75 23.5167C15.0722 23.8389 15.4667 24 15.9333 24ZM14.7333 18.8667H17.2C17.2 18.1333 17.2833 17.5556 17.45 17.1333C17.6167 16.7111 18.0889 16.1333 18.8667 15.4C19.4444 14.8222 19.9 14.2722 20.2333 13.75C20.5667 13.2278 20.7333 12.6 20.7333 11.8667C20.7333 10.6222 20.2778 9.66666 19.3667 9C18.4556 8.33333 17.3778 8 16.1333 8C14.8667 8 13.8389 8.33333 13.05 9C12.2611 9.66666 11.7111 10.4667 11.4 11.4L13.6 12.2667C13.7111 11.8667 13.9611 11.4333 14.35 10.9667C14.7389 10.5 15.3333 10.2667 16.1333 10.2667C16.8444 10.2667 17.3778 10.4611 17.7333 10.85C18.0889 11.2389 18.2667 11.6667 18.2667 12.1333C18.2667 12.5778 18.1333 12.9944 17.8667 13.3833C17.6 13.7722 17.2667 14.1333 16.8667 14.4667C15.8889 15.3333 15.2889 15.9889 15.0667 16.4333C14.8444 16.8778 14.7333 17.6889 14.7333 18.8667ZM16 29.3333C14.1556 29.3333 12.4222 28.9833 10.8 28.2833C9.17777 27.5833 7.76666 26.6333 6.56666 25.4333C5.36666 24.2333 4.41666 22.8222 3.71666 21.2C3.01666 19.5778 2.66666 17.8444 2.66666 16C2.66666 14.1556 3.01666 12.4222 3.71666 10.8C4.41666 9.17777 5.36666 7.76666 6.56666 6.56666C7.76666 5.36666 9.17777 4.41666 10.8 3.71666C12.4222 3.01666 14.1556 2.66666 16 2.66666C17.8444 2.66666 19.5778 3.01666 21.2 3.71666C22.8222 4.41666 24.2333 5.36666 25.4333 6.56666C26.6333 7.76666 27.5833 9.17777 28.2833 10.8C28.9833 12.4222 29.3333 14.1556 29.3333 16C29.3333 17.8444 28.9833 19.5778 28.2833 21.2C27.5833 22.8222 26.6333 24.2333 25.4333 25.4333C24.2333 26.6333 22.8222 27.5833 21.2 28.2833C19.5778 28.9833 17.8444 29.3333 16 29.3333Z" fill="white"/>
  </g>
</svg>