<svg width="59" height="56" viewBox="0 0 59 56" fill="none" xmlns="http://www.w3.org/2000/svg">
<path d="M0 55.5885L12.5938 20.3802L35.4115 42.9271L0 55.5885ZM6.83854 48.75L28.099 41.1667L14.3542 27.3542L6.83854 48.75ZM32.2969 30.875L29.9948 28.5729L46.2448 12.3229C47.6892 10.8785 49.5174 10.145 51.7292 10.1224C53.941 10.0998 55.7691 10.8108 57.2135 12.2552L58.3646 13.4062L56.0625 15.7083L54.776 14.4219C53.9184 13.5642 52.9253 13.1241 51.7969 13.1016C50.6684 13.079 49.6528 13.5191 48.75 14.4219L32.2969 30.875ZM21.5313 20.3802L19.2292 18.0781L21.2604 16.0469C22.2986 15.0087 22.7839 13.8238 22.7161 12.4922C22.6484 11.1606 22.1632 10.0434 21.2604 9.14062L19.3646 7.24479L21.6667 4.94271L23.4271 6.70312C25.0069 8.28299 25.7856 10.2578 25.763 12.6276C25.7405 14.9974 24.9392 16.9722 23.3594 18.5521L21.5313 20.3802ZM27.0156 25.5937L24.7135 23.2917L35.0052 13C35.8628 12.1424 36.2804 11.0477 36.2578 9.71615C36.2352 8.38455 35.7951 7.28993 34.9375 6.43229L30.8073 2.30208L33.1094 0L37.375 4.26562C38.7743 5.71007 39.4965 7.52691 39.5417 9.71615C39.5868 11.9054 38.8872 13.7222 37.4427 15.1667L27.0156 25.5937ZM37.7135 36.3594L35.4115 34.0573L38.5938 30.875C40.1736 29.2951 42.0694 28.4826 44.2813 28.4375C46.4931 28.3924 48.3889 29.1597 49.9688 30.7396L53.4219 34.1927L51.1198 36.4948L47.599 32.974C46.5608 31.9358 45.4774 31.4167 44.349 31.4167C43.2205 31.4167 42.1372 31.9358 41.099 32.974L37.7135 36.3594Z" fill="#FFAA29"/>
</svg>
