<svg width="65" height="65" viewBox="0 0 65 65" fill="none" xmlns="http://www.w3.org/2000/svg">
<path d="M32.5 65C28.0042 65 23.7792 64.1469 19.825 62.4406C15.8708 60.7344 12.4312 58.4188 9.50625 55.4938C6.58125 52.5688 4.26563 49.1292 2.55938 45.175C0.853125 41.2208 0 36.9958 0 32.5C0 28.0042 0.853125 23.7792 2.55938 19.825C4.26563 15.8708 6.58125 12.4312 9.50625 9.50625C12.4312 6.58125 15.8708 4.26563 19.825 2.55938C23.7792 0.853125 28.0042 0 32.5 0C36.0208 0 39.3521 0.514583 42.4937 1.54375C45.6354 2.57292 48.5333 4.00833 51.1875 5.85L46.475 10.6438C44.4167 9.34375 42.2229 8.32813 39.8938 7.59688C37.5646 6.86563 35.1 6.5 32.5 6.5C25.2958 6.5 19.1615 9.03229 14.0969 14.0969C9.03229 19.1615 6.5 25.2958 6.5 32.5C6.5 39.7042 9.03229 45.8385 14.0969 50.9031C19.1615 55.9677 25.2958 58.5 32.5 58.5C39.7042 58.5 45.8385 55.9677 50.9031 50.9031C55.9677 45.8385 58.5 39.7042 58.5 32.5C58.5 31.525 58.4458 30.55 58.3375 29.575C58.2292 28.6 58.0667 27.6521 57.85 26.7313L63.1313 21.45C63.7271 23.1833 64.1875 24.9708 64.5125 26.8125C64.8375 28.6542 65 30.55 65 32.5C65 36.9958 64.1469 41.2208 62.4406 45.175C60.7344 49.1292 58.4188 52.5688 55.4938 55.4938C52.5688 58.4188 49.1292 60.7344 45.175 62.4406C41.2208 64.1469 36.9958 65 32.5 65ZM27.95 47.45L14.1375 33.6375L18.6875 29.0875L27.95 38.35L60.45 5.76875L65 10.3187L27.95 47.45Z" fill="#FFAA29"/>
</svg>
