<svg width="31" height="30" viewBox="0 0 31 30" fill="none" xmlns="http://www.w3.org/2000/svg">
<rect x="0.139038" width="30" height="30" rx="15" fill="url(#paint0_linear_299_218)"/>
<g clip-path="url(#clip0_299_218)">
<g clip-path="url(#clip1_299_218)">
<path fill-rule="evenodd" clip-rule="evenodd" d="M9.43505 7.57367L6.15302 14.1778C6.14053 14.2024 6.13657 14.2301 6.14173 14.257C6.14688 14.2839 6.16087 14.3084 6.18166 14.3272L15.0456 22.4639C15.0708 22.4871 15.1043 22.5 15.1392 22.5C15.1741 22.5 15.2077 22.4871 15.2328 22.4639L24.0968 14.3277C24.1176 14.3089 24.1316 14.2844 24.1367 14.2575C24.1419 14.2306 24.1379 14.2029 24.1254 14.1783L20.8434 7.57418C20.8328 7.552 20.8158 7.53321 20.7943 7.52006C20.7729 7.50691 20.748 7.49995 20.7225 7.50001H9.55702C9.53144 7.4997 9.50631 7.5065 9.48467 7.51957C9.46303 7.53264 9.44579 7.55143 9.43505 7.57367Z" fill="#50AF95"/>
<path fill-rule="evenodd" clip-rule="evenodd" d="M16.2779 14.8562C16.2142 14.8608 15.8855 14.8796 15.1521 14.8796C14.5687 14.8796 14.1546 14.8628 14.0093 14.8562C11.7549 14.7612 10.0723 14.3853 10.0723 13.9352C10.0723 13.4851 11.7549 13.1097 14.0093 13.0131V14.4818C14.1567 14.492 14.5788 14.5158 15.1621 14.5158C15.8621 14.5158 16.2127 14.4879 16.2758 14.4823V13.0142C18.5253 13.1102 20.2042 13.4861 20.2042 13.9352C20.2042 14.3843 18.5258 14.7602 16.2758 14.8557L16.2779 14.8562ZM16.2779 12.8623V11.548H19.4173V9.54395H10.8699V11.548H14.0087V12.8618C11.4574 12.974 9.53882 13.4582 9.53882 14.0383C9.53882 14.6185 11.4574 15.1021 14.0087 15.2149V19.4263H16.2773V15.2133C18.8228 15.1011 20.7382 14.6174 20.7382 14.0378C20.7382 13.4582 18.8244 12.9745 16.2773 12.8618L16.2779 12.8623Z" fill="white"/>
</g>
</g>
<defs>
<linearGradient id="paint0_linear_299_218" x1="15.139" y1="0" x2="15.139" y2="30" gradientUnits="userSpaceOnUse">
<stop stop-color="#272727"/>
<stop offset="1"/>
</linearGradient>
<clipPath id="clip0_299_218">
<rect width="18" height="18" fill="white" transform="translate(6.13904 6)"/>
</clipPath>
<clipPath id="clip1_299_218">
<rect width="18" height="15" fill="white" transform="translate(6.13904 7.5)"/>
</clipPath>
</defs>
</svg>
