<svg width="19" height="30" viewBox="0 0 19 30" fill="none" xmlns="http://www.w3.org/2000/svg">
<path fill-rule="evenodd" clip-rule="evenodd" d="M5.3917 14.974C4.19232 15.0702 1.7673 15.079 0.532904 15.0177C0.467299 15.0145 0.403484 14.9952 0.347025 14.9617C0.290565 14.9281 0.243175 14.8813 0.208984 14.8252C0.521992 15.3391 0.882507 15.8226 1.2858 16.2692C1.57996 16.6593 1.91774 17.0146 2.29258 17.3281C2.82661 17.3281 3.58825 17.3719 4.37617 17.3719C4.70884 16.5492 5.05902 15.7441 5.40045 14.974H5.3917Z" fill="url(#paint0_radial_234_3309)"/>
<path fill-rule="evenodd" clip-rule="evenodd" d="M16.7727 0.875336C15.083 3.57079 12.9644 6.76507 11.126 9.45177C12.089 9.40801 13.3409 9.38175 14.4965 9.373C15.8797 7.30766 17.3155 5.11979 18.5236 3.18572C18.5511 3.12217 18.5652 3.05367 18.5652 2.98444C18.5652 2.91521 18.5511 2.84671 18.5236 2.78315C17.9789 1.93386 17.364 1.13175 16.6851 0.385254H16.7727C16.8253 0.456134 16.8537 0.542045 16.8537 0.630295C16.8537 0.718545 16.8253 0.804455 16.7727 0.875336Z" fill="url(#paint1_radial_234_3309)"/>
<path fill-rule="evenodd" clip-rule="evenodd" d="M16.9215 10.1171C12.6197 15.6928 8.00747 21.0221 3.10675 26.0798C2.4414 26.7624 1.35583 27.8301 1.07568 27.6725C1.18074 27.8651 2.56396 29.7116 2.8266 29.9742C3.05422 30.1054 4.19232 29.099 4.85766 28.3902C9.75816 23.3322 14.3703 18.003 18.6724 12.4275C18.7077 12.36 18.7261 12.2849 18.7261 12.2087C18.7261 12.1325 18.7077 12.0575 18.6724 11.9899C18.6724 11.9024 18.6724 11.9374 18.6724 11.9112C18.471 11.5961 17.2892 10.0208 16.9215 9.64453C16.9637 9.7097 16.9861 9.78568 16.9861 9.86332C16.9861 9.94095 16.9637 10.0169 16.9215 10.0821V10.1171Z" fill="url(#paint2_radial_234_3309)"/>
<path style="mix-blend-mode:multiply" opacity="0.5" fill-rule="evenodd" clip-rule="evenodd" d="M16.6677 1.0154C17.1248 1.37588 17.4658 1.86284 17.6482 2.41563C17.8845 4.20968 16.1599 6.57257 15.2144 7.89404C15.0082 8.26538 14.7302 8.59201 14.3965 8.85493C14.0629 9.11786 13.6802 9.31183 13.2709 9.42555H14.4615C15.8447 7.36021 17.2805 5.17234 18.4886 3.23827C18.5161 3.17471 18.5302 3.10621 18.5302 3.03698C18.5302 2.96775 18.5161 2.89925 18.4886 2.8357C17.9604 1.97045 17.3569 1.1534 16.6852 0.394043H16.7727C16.8233 0.464107 16.8505 0.548311 16.8505 0.634708C16.8505 0.721105 16.8233 0.805309 16.7727 0.875373L16.7027 0.980391L16.6677 1.0154Z" fill="url(#paint3_radial_234_3309)"/>
<path style="mix-blend-mode:multiply" opacity="0.5" fill-rule="evenodd" clip-rule="evenodd" d="M18.6724 11.9112C18.5236 11.6399 17.6482 10.4497 17.1404 9.87207C18.0859 11.8499 18.0859 12.5588 16.799 14.2478C15.2056 16.3919 13.5685 18.501 11.8526 20.5401C10.2768 22.4129 8.63969 24.2245 6.93255 25.9573C6.15574 26.7356 5.31206 27.4443 4.41123 28.0751C4.02034 28.3955 3.54373 28.5937 3.04086 28.6451C2.53799 28.6965 2.03112 28.5987 1.5835 28.3639C2.03873 28.9765 2.62529 29.7466 2.78287 29.9042C3.01049 30.0354 4.14859 29.029 4.81394 28.3201C9.72737 23.2861 14.3541 17.9802 18.6724 12.4275C18.7077 12.36 18.7262 12.2849 18.7262 12.2087C18.7262 12.1325 18.7077 12.0575 18.6724 11.9899C18.6724 11.9024 18.6724 11.9374 18.6724 11.9112Z" fill="url(#paint4_radial_234_3309)"/>
<path style="mix-blend-mode:screen" fill-rule="evenodd" clip-rule="evenodd" d="M4.05228 29.1778C3.85092 29.2828 3.60579 29.3441 3.48323 29.2478C3.03981 28.7747 2.63301 28.2686 2.26634 27.7338C2.26634 27.7338 2.26634 27.69 2.26634 27.6638C2.20897 27.5451 2.17917 27.4149 2.17917 27.2831C2.17917 27.1513 2.20897 27.0211 2.26634 26.9024C1.74107 27.3662 1.2333 27.7776 1.08447 27.6725C1.18953 27.8651 2.57275 29.7116 2.83539 29.9742C2.98422 30.0617 3.527 29.6504 4.06103 29.169L4.05228 29.1778ZM16.4225 10.8522C16.4944 10.8055 16.5767 10.777 16.6622 10.7694C16.7477 10.7618 16.8337 10.7752 16.9128 10.8085L16.9653 10.8522C17.4018 11.336 17.8027 11.8507 18.1647 12.3925C18.2149 12.5008 18.2408 12.6188 18.2408 12.7382C18.2408 12.8576 18.2149 12.9755 18.1647 13.0839L18.6637 12.4275C18.699 12.36 18.7174 12.2849 18.7174 12.2087C18.7174 12.1325 18.699 12.0575 18.6637 11.9899C18.6637 11.9024 18.6637 11.9374 18.6637 11.9112C18.4623 11.5961 17.2805 10.0208 16.9128 9.64453C16.955 9.7097 16.9774 9.78568 16.9774 9.86332C16.9774 9.94095 16.955 10.0169 16.9128 10.0821L16.3437 10.8172L16.2999 10.8697L16.4137 10.8172L16.4225 10.8522Z" fill="url(#paint5_radial_234_3309)"/>
<path fill-rule="evenodd" clip-rule="evenodd" d="M7.59791 0.306527C10.5342 -0.0863141 13.5088 -0.10102 16.4488 0.262769C16.5188 0.27368 16.5851 0.301771 16.6416 0.344533C16.6981 0.387294 16.7432 0.443392 16.7727 0.50781C16.8012 0.564881 16.8161 0.627799 16.8161 0.691591C16.8161 0.755383 16.8012 0.818301 16.7727 0.875372C15.0831 3.57082 12.9645 6.7651 11.126 9.4518C12.7631 9.37304 15.2582 9.34678 16.6326 9.39929C16.7109 9.40094 16.7871 9.42488 16.8522 9.46828C16.9173 9.51168 16.9687 9.57276 17.0003 9.64433C17.0425 9.7095 17.065 9.78548 17.065 9.86312C17.065 9.94076 17.0425 10.0167 17.0003 10.0819C12.6741 15.6716 8.03552 21.0127 3.10681 26.0796C2.44146 26.7622 1.35589 27.8299 1.07574 27.6723C0.795596 27.5148 1.18955 26.3159 1.33838 25.7033C2.46186 22.045 3.81569 18.4614 5.39175 14.974C4.19237 15.0702 1.76735 15.079 0.532958 15.0177C0.467353 15.0145 0.403539 14.9952 0.347079 14.9617C0.29062 14.9281 0.243229 14.8813 0.209039 14.8252C0.167788 14.7745 0.139789 14.7144 0.127563 14.6503C0.115337 14.5861 0.119268 14.5199 0.139002 14.4576C1.98604 9.6314 4.31176 5.00214 7.08139 0.639082C7.20416 0.46573 7.38924 0.346565 7.59791 0.306527Z" fill="url(#paint6_radial_234_3309)"/>
<path style="mix-blend-mode:multiply" fill-rule="evenodd" clip-rule="evenodd" d="M16.0723 7.00146C14.8817 8.06914 12.5705 8.75176 12.0802 8.05164C11.7475 8.55047 11.4149 9.0318 11.0909 9.50438C12.0539 9.46062 13.3059 9.43437 14.4615 9.42562C15.0218 8.61173 15.5383 7.79785 16.0723 7.00146Z" fill="url(#paint7_radial_234_3309)"/>
<path style="mix-blend-mode:multiply" fill-rule="evenodd" clip-rule="evenodd" d="M3.68461 15.0441C4.33245 15.5517 3.33443 17.1357 2.02124 17.1095C2.1438 17.2407 2.24886 17.3283 2.29263 17.3283C2.82666 17.3283 3.58831 17.372 4.37622 17.372C4.7089 16.5494 5.05908 15.7442 5.40051 14.9741C4.95403 14.9741 4.34121 15.0354 3.64959 15.0441H3.68461Z" fill="url(#paint8_radial_234_3309)"/>
<path style="mix-blend-mode:screen" fill-rule="evenodd" clip-rule="evenodd" d="M7.75553 2.28436C9.84587 1.97954 11.9658 1.93251 14.0676 2.14433C14.3443 2.17048 14.6081 2.27355 14.8292 2.44188C15.2494 2.79194 14.9693 3.56207 14.6016 4.23593C15.3458 3.08949 16.0724 1.96055 16.7727 0.875372C16.8073 0.813894 16.8254 0.744583 16.8254 0.674088C16.8254 0.603593 16.8073 0.534282 16.7727 0.472805C16.7389 0.414925 16.692 0.365774 16.6358 0.329298C16.5795 0.292823 16.5155 0.270037 16.4488 0.262769C13.5088 -0.10102 10.5342 -0.0863141 7.59794 0.306527C7.38928 0.346565 7.20419 0.46573 7.08142 0.639082C5.78519 2.60468 4.61555 4.65083 3.57959 6.7651C4.51633 5.2511 6.38981 2.50314 7.75553 2.28436Z" fill="url(#paint9_radial_234_3309)"/>
<path style="mix-blend-mode:screen" fill-rule="evenodd" clip-rule="evenodd" d="M16.5976 9.43408C16.1599 9.43408 15.5908 9.43408 14.978 9.43408C16.011 9.76664 16.011 10.5193 15.1793 11.6044C12.9557 14.4924 7.02883 21.7036 4.12231 23.8565C2.65154 24.9329 2.17003 24.2503 2.11751 23.2964C1.74981 24.3291 1.47842 25.1955 1.33835 25.7643C1.19828 26.3331 0.865601 27.5146 1.04069 27.7071C1.18952 27.7859 1.69729 27.4008 2.22256 26.937C2.52022 26.6657 2.82663 26.3682 3.09802 26.1144C7.77295 21.2864 12.183 16.209 16.3087 10.9043L16.9215 10.1167C16.9637 10.0515 16.9862 9.97555 16.9862 9.89791C16.9862 9.82027 16.9637 9.74429 16.9215 9.67912C16.8865 9.61667 16.8357 9.56445 16.7743 9.52761C16.7129 9.49077 16.6429 9.4706 16.5713 9.46909L16.5976 9.43408Z" fill="url(#paint10_radial_234_3309)"/>
<path style="mix-blend-mode:screen" fill-rule="evenodd" clip-rule="evenodd" d="M8.01817 0.551766C7.79272 0.600245 7.58602 0.712669 7.42285 0.87557C5.9871 2.31956 2.51153 9.11944 2.00377 10.9222C2.00377 11.0448 1.92498 11.2548 2.00377 11.3423C2.08256 11.4298 2.35395 11.1585 2.43274 11.036C3.71091 9.01443 4.85776 6.91408 6.11842 4.90999C6.77502 3.85982 7.52791 2.69587 8.25454 1.75072C8.80835 1.23206 9.50819 0.896018 10.2593 0.788055C11.2136 0.525511 10.8284 0.289222 10.1368 0.315476C9.42565 0.34103 8.71744 0.420016 8.01817 0.551766Z" fill="url(#paint11_linear_234_3309)"/>
<path style="mix-blend-mode:screen" fill-rule="evenodd" clip-rule="evenodd" d="M16.1249 9.55664C14.5666 9.55664 12.9907 9.55664 11.4324 9.6179C10.6708 9.6179 11.2573 10.4318 11.7913 10.493C13.243 10.5314 14.6913 10.3363 16.0811 9.91545C16.2124 9.91545 16.405 9.81918 16.4225 9.68791C16.44 9.55664 16.2299 9.58289 16.1249 9.58289V9.55664Z" fill="url(#paint12_linear_234_3309)"/>
<path style="mix-blend-mode:screen" opacity="0.5" fill-rule="evenodd" clip-rule="evenodd" d="M2.76542 26.4557C2.66911 28.1622 6.59117 25.0117 7.48414 24.189C10.5045 21.4236 14.1114 17.5817 16.1599 13.9936C16.8691 12.7509 16.9566 11.1581 15.9148 11.4382C11.9315 16.5025 7.6886 21.3573 3.20314 25.9831L3.10684 26.0794L2.76542 26.4557Z" fill="url(#paint13_radial_234_3309)"/>
<path style="mix-blend-mode:screen" fill-rule="evenodd" clip-rule="evenodd" d="M8.20201 3.62313C7.7798 3.91747 7.41982 4.29219 7.1427 4.72582C5.6982 7.18498 4.4638 9.76666 3.14186 12.2958C2.87047 12.8209 2.56406 13.8273 3.54457 13.9148C4.70018 14.0199 5.85578 13.9148 7.0464 13.9148C5.69133 16.5028 4.52396 19.1847 3.55333 21.9399C3.3082 22.8151 3.99981 22.8151 4.54259 22.2987C7.06391 19.9534 11.52 15.1225 13.2709 12.0508C13.7437 11.2457 12.947 10.8606 12.2816 10.8343C11.3186 10.8343 10.3469 10.8343 9.38388 10.8343C10.5045 9.00528 11.6863 7.21123 12.7544 5.35592C12.9092 5.08686 13.0075 4.78908 13.0433 4.48077C13.0683 4.26906 13.0406 4.05444 12.9627 3.85598C12.8848 3.65752 12.7591 3.48134 12.5968 3.34309C12.0978 2.87926 10.7321 2.86176 9.60274 3.08054C9.1088 3.15236 8.63495 3.32514 8.21076 3.58813L8.20201 3.62313Z" fill="url(#paint14_radial_234_3309)"/>
<defs>
<radialGradient id="paint0_radial_234_3309" cx="0" cy="0" r="1" gradientUnits="userSpaceOnUse" gradientTransform="translate(-1.28805 13.4512) scale(7.72154 7.71879)">
<stop stop-color="#FCAC00"/>
<stop offset="1" stop-color="#FF7300"/>
</radialGradient>
<radialGradient id="paint1_radial_234_3309" cx="0" cy="0" r="1" gradientUnits="userSpaceOnUse" gradientTransform="translate(13.9187 2.41559) scale(18.9099 18.9032)">
<stop stop-color="#FCAC00"/>
<stop offset="1" stop-color="#FF7300"/>
</radialGradient>
<radialGradient id="paint2_radial_234_3309" cx="0" cy="0" r="1" gradientUnits="userSpaceOnUse" gradientTransform="translate(17.0528 24.5745) scale(35.5436 35.5309)">
<stop stop-color="#FCAC00"/>
<stop offset="1" stop-color="#FF7300"/>
</radialGradient>
<radialGradient id="paint3_radial_234_3309" cx="0" cy="0" r="1" gradientUnits="userSpaceOnUse" gradientTransform="translate(15.906 4.9098) scale(3.70319 3.70187)">
<stop stop-color="white"/>
<stop offset="0.1" stop-color="#FFFDF9"/>
<stop offset="0.22" stop-color="#FEF6E9"/>
<stop offset="0.36" stop-color="#FDEACF"/>
<stop offset="0.51" stop-color="#FBDBAA"/>
<stop offset="0.67" stop-color="#F9C67A"/>
<stop offset="0.84" stop-color="#F6AE41"/>
<stop offset="1" stop-color="#F39200"/>
</radialGradient>
<radialGradient id="paint4_radial_234_3309" cx="0" cy="0" r="1" gradientUnits="userSpaceOnUse" gradientTransform="translate(2.22258 11.8411) scale(19.7941 19.787)">
<stop stop-color="white"/>
<stop offset="0.1" stop-color="#FFFDF9"/>
<stop offset="0.22" stop-color="#FEF6E9"/>
<stop offset="0.36" stop-color="#FDEACF"/>
<stop offset="0.51" stop-color="#FBDBAA"/>
<stop offset="0.67" stop-color="#F9C67A"/>
<stop offset="0.84" stop-color="#F6AE41"/>
<stop offset="1" stop-color="#F39200"/>
</radialGradient>
<radialGradient id="paint5_radial_234_3309" cx="0" cy="0" r="1" gradientUnits="userSpaceOnUse" gradientTransform="translate(10.8108 20.3476) scale(12.7554 12.7509)">
<stop offset="0.58"/>
<stop offset="0.74" stop-color="#020201"/>
<stop offset="0.79" stop-color="#090805"/>
<stop offset="0.83" stop-color="#14130B"/>
<stop offset="0.87" stop-color="#252315"/>
<stop offset="0.89" stop-color="#3B3721"/>
<stop offset="0.92" stop-color="#575131"/>
<stop offset="0.94" stop-color="#776F43"/>
<stop offset="0.96" stop-color="#9D9258"/>
<stop offset="0.98" stop-color="#C8BB70"/>
<stop offset="1" stop-color="#FFEE8F"/>
</radialGradient>
<radialGradient id="paint6_radial_234_3309" cx="0" cy="0" r="1" gradientUnits="userSpaceOnUse" gradientTransform="translate(6.48608 0.315278) scale(27.4894 27.4796)">
<stop stop-color="#FCF800"/>
<stop offset="1" stop-color="#FC9700"/>
</radialGradient>
<radialGradient id="paint7_radial_234_3309" cx="0" cy="0" r="1" gradientUnits="userSpaceOnUse" gradientTransform="translate(10.4694 5.25117) scale(7.2488 7.24621)">
<stop stop-color="white"/>
<stop offset="0.1" stop-color="#FFFDF9"/>
<stop offset="0.22" stop-color="#FFF7E9"/>
<stop offset="0.36" stop-color="#FFECCF"/>
<stop offset="0.51" stop-color="#FFDEAA"/>
<stop offset="0.67" stop-color="#FFCC7A"/>
<stop offset="0.84" stop-color="#FFB641"/>
<stop offset="1" stop-color="#FF9D00"/>
</radialGradient>
<radialGradient id="paint8_radial_234_3309" cx="0" cy="0" r="1" gradientUnits="userSpaceOnUse" gradientTransform="translate(2.05626 15.0879) scale(6.95989 6.95741)">
<stop stop-color="white"/>
<stop offset="0.1" stop-color="#FFFDF9"/>
<stop offset="0.22" stop-color="#FFF7E9"/>
<stop offset="0.36" stop-color="#FFECCF"/>
<stop offset="0.51" stop-color="#FFDEAA"/>
<stop offset="0.67" stop-color="#FFCC7A"/>
<stop offset="0.84" stop-color="#FFB641"/>
<stop offset="1" stop-color="#FF9D00"/>
</radialGradient>
<radialGradient id="paint9_radial_234_3309" cx="0" cy="0" r="1" gradientUnits="userSpaceOnUse" gradientTransform="translate(13.9188 6.36254) scale(14.5851 14.5799)">
<stop/>
<stop offset="0.08" stop-color="#232112"/>
<stop offset="0.22" stop-color="#5C582E"/>
<stop offset="0.36" stop-color="#8E8747"/>
<stop offset="0.5" stop-color="#B7AE5C"/>
<stop offset="0.64" stop-color="#D6CC6C"/>
<stop offset="0.77" stop-color="#EDE277"/>
<stop offset="0.89" stop-color="#FAEF7E"/>
<stop offset="1" stop-color="#FFF380"/>
</radialGradient>
<radialGradient id="paint10_radial_234_3309" cx="0" cy="0" r="1" gradientUnits="userSpaceOnUse" gradientTransform="translate(21.3951 36.4586) scale(29.3279 29.3174)">
<stop stop-color="#FFD000"/>
<stop offset="0.11" stop-color="#FACC00"/>
<stop offset="0.23" stop-color="#EDC100"/>
<stop offset="0.36" stop-color="#D6AF00"/>
<stop offset="0.5" stop-color="#B79500"/>
<stop offset="0.64" stop-color="#8E7400"/>
<stop offset="0.78" stop-color="#5C4B00"/>
<stop offset="0.92" stop-color="#231C00"/>
<stop offset="1"/>
</radialGradient>
<linearGradient id="paint11_linear_234_3309" x1="9.63777" y1="-0.760953" x2="1.42182" y2="14.9241" gradientUnits="userSpaceOnUse">
<stop stop-color="#FFFACF"/>
<stop offset="1"/>
</linearGradient>
<linearGradient id="paint12_linear_234_3309" x1="11.0647" y1="10.0117" x2="16.4225" y2="10.0117" gradientUnits="userSpaceOnUse">
<stop stop-color="#FFFACF"/>
<stop offset="1"/>
</linearGradient>
<radialGradient id="paint13_radial_234_3309" cx="0" cy="0" r="1" gradientUnits="userSpaceOnUse" gradientTransform="translate(0.524241 6.37107) scale(21.44 21.4323)">
<stop stop-color="#00FFFF"/>
<stop offset="0.11" stop-color="#00FAFA"/>
<stop offset="0.23" stop-color="#00EDED"/>
<stop offset="0.36" stop-color="#00D6D6"/>
<stop offset="0.5" stop-color="#00B7B7"/>
<stop offset="0.64" stop-color="#008E8E"/>
<stop offset="0.78" stop-color="#005C5C"/>
<stop offset="0.92" stop-color="#002323"/>
<stop offset="1"/>
</radialGradient>
<radialGradient id="paint14_radial_234_3309" cx="0" cy="0" r="1" gradientUnits="userSpaceOnUse" gradientTransform="translate(-3.92309 3.57062) scale(20.2669 20.2596)">
<stop stop-color="#FFF261"/>
<stop offset="0.11" stop-color="#FAEE5F"/>
<stop offset="0.23" stop-color="#EDE15A"/>
<stop offset="0.36" stop-color="#D6CB52"/>
<stop offset="0.5" stop-color="#B7AD46"/>
<stop offset="0.64" stop-color="#8E8736"/>
<stop offset="0.78" stop-color="#5C5823"/>
<stop offset="0.92" stop-color="#23210D"/>
<stop offset="1"/>
</radialGradient>
</defs>
</svg>
