<svg width="50" height="50" viewBox="0 0 50 50" fill="none" xmlns="http://www.w3.org/2000/svg">
<circle cx="25" cy="25" r="25" fill="black"/>
<g clip-path="url(#clip0_250_16533)">
<path d="M22.8323 24.8753C27.5732 24.8753 31.432 23.3593 31.432 21.485C31.432 19.6107 27.5732 18.0947 22.8323 18.0947C18.0915 18.0947 14.2051 19.6107 14.2051 21.485C14.2051 23.3593 18.0639 24.8753 22.8323 24.8753Z" fill="white" stroke="black" stroke-width="0.689081"/>
<path d="M22.8341 24.8757C18.0932 24.8757 14.2344 23.3597 14.2344 21.4854V25.4545V25.7577C14.2344 27.632 18.0932 29.148 22.8341 29.148C27.5749 29.148 31.4337 27.632 31.4337 25.7577V25.4545V21.4854C31.4337 23.3597 27.5749 24.8757 22.8341 24.8757Z" fill="white" stroke="black" stroke-width="0.689081"/>
<path d="M22.8341 33.1169C18.0932 33.1169 14.2344 31.6009 14.2344 29.7266V33.7508C14.2344 35.6251 18.0932 37.1411 22.8341 37.1411C27.5749 37.1411 31.4337 35.6251 31.4337 33.7508V29.7266C31.4337 31.6009 27.5749 33.1169 22.8341 33.1169Z" fill="white" stroke="black" stroke-width="0.689081"/>
<path d="M22.8341 29.1481C18.0932 29.1481 14.2344 27.6321 14.2344 25.7578V29.4789V29.7269C14.2344 31.6013 18.0932 33.1172 22.8341 33.1172C27.5749 33.1172 31.4337 31.6013 31.4337 29.7269V29.4789V25.7578C31.4337 27.6321 27.5749 29.1481 22.8341 29.1481Z" fill="white" stroke="black" stroke-width="0.689081"/>
<path d="M32.0949 12.8301H23.1094V16.3582H32.0949V12.8301Z" fill="white" stroke="black" stroke-width="0.689081"/>
<path d="M35.7884 19.335H23.1094V22.2842H35.7884V19.335Z" fill="white" stroke="black" stroke-width="0.689081"/>
<path d="M35.7884 12.8301H32.0949V16.3858H23.1094V19.335H35.7884V12.8301Z" fill="white" stroke="black" stroke-width="0.689081"/>
<path d="M27.3828 12.5547V16.2206" stroke="black" stroke-width="0.689081"/>
<path d="M28.127 19.4736V21.9819" stroke="black" stroke-width="0.689081"/>
</g>
<defs>
<clipPath id="clip0_250_16533">
<rect width="22.2434" height="25" fill="white" transform="translate(13.877 12.5)"/>
</clipPath>
</defs>
</svg>
