<svg width="26" height="21" viewBox="0 0 26 21" fill="none" xmlns="http://www.w3.org/2000/svg">
<path d="M25.6098 2.7172C24.7039 3.12896 23.7275 3.39955 22.7157 3.52896C23.751 2.90543 24.551 1.9172 24.9275 0.728964C23.951 1.3172 22.8686 1.72896 21.7275 1.96426C20.798 0.952493 19.4922 0.364258 18.0098 0.364258C15.2451 0.364258 12.9863 2.62308 12.9863 5.41132C12.9863 5.81132 13.0333 6.19955 13.1157 6.56426C8.92746 6.35249 5.19805 4.34073 2.71569 1.29367C2.2804 2.03485 2.03334 2.90543 2.03334 3.82308C2.03334 5.57602 2.91569 7.12896 4.2804 8.01132C3.44511 8.01132 2.66864 7.77602 1.98628 7.42308V7.45838C1.98628 9.90543 3.72746 11.9525 6.03334 12.4113C5.29302 12.6139 4.51581 12.6421 3.76275 12.4937C4.08229 13.4966 4.70809 14.3742 5.55218 15.003C6.39628 15.6318 7.41622 15.9804 8.46864 15.9996C6.68467 17.4118 4.47334 18.1752 2.19805 18.1643C1.79805 18.1643 1.39805 18.1407 0.998047 18.0937C3.23334 19.529 5.89216 20.3643 8.73922 20.3643C18.0098 20.3643 23.1039 12.6701 23.1039 5.99955C23.1039 5.77602 23.1039 5.56426 23.0922 5.34073C24.0804 4.63485 24.9275 3.74073 25.6098 2.7172Z" fill="white"/>
</svg>
