<svg width="30" height="21" viewBox="0 0 30 21" fill="none" xmlns="http://www.w3.org/2000/svg">
<path d="M12.2801 14.65L19.6944 10.3643L12.2801 6.07854V14.65ZM28.7944 3.46426C28.9801 4.13569 29.1087 5.03569 29.1944 6.17854C29.2944 7.3214 29.3373 8.30712 29.3373 9.16426L29.423 10.3643C29.423 13.4928 29.1944 15.7928 28.7944 17.2643C28.4373 18.55 27.6087 19.3785 26.323 19.7357C25.6516 19.9214 24.423 20.05 22.5373 20.1357C20.6801 20.2357 18.9801 20.2785 17.4087 20.2785L15.1373 20.3643C9.15156 20.3643 5.42299 20.1357 3.95156 19.7357C2.66585 19.3785 1.83728 18.55 1.48013 17.2643C1.29442 16.5928 1.16585 15.6928 1.08013 14.55C0.980134 13.4071 0.937277 12.4214 0.937277 11.5643L0.851562 10.3643C0.851562 7.23569 1.08013 4.93569 1.48013 3.46426C1.83728 2.17854 2.66585 1.34997 3.95156 0.992829C4.62299 0.807115 5.85156 0.678543 7.73728 0.592829C9.59442 0.492829 11.2944 0.449972 12.8658 0.449972L15.1373 0.364258C21.123 0.364258 24.8516 0.592829 26.323 0.992829C27.6087 1.34997 28.4373 2.17854 28.7944 3.46426Z" fill="white"/>
</svg>
