<svg width="24" height="24" viewBox="0 0 24 24" fill="none" xmlns="http://www.w3.org/2000/svg">
<path d="M11.1144 4.00024H6.95312V19.9985H11.1144V4.00024Z" fill="#72CAFA"/>
<path d="M12.0057 4.00002C9.21673 3.99264 6.94929 6.24279 6.94189 9.02413C6.94189 9.35612 6.97149 9.68811 7.03807 10.0127C7.43755 12.012 9.00589 13.5761 11.0107 13.9745C13.0155 14.3729 15.0647 13.5281 16.204 11.835C17.7538 9.52581 17.1361 6.40141 14.8206 4.85581C14.5432 4.67138 14.2472 4.51276 13.9402 4.38734C13.3262 4.13281 12.6678 4.00002 12.0057 4.00002ZM12.0057 9.80615C11.5803 9.80615 11.2326 9.4631 11.2326 9.0352C11.2326 8.61099 11.5766 8.26425 12.0057 8.26425C12.2646 8.26425 12.5051 8.39335 12.6493 8.6073C12.886 8.96142 12.7899 9.44097 12.4348 9.67705C12.3053 9.76189 12.1574 9.80615 12.0057 9.80615Z" fill="#E7348F"/>
<path d="M12.0057 9.92433C9.21673 9.91696 6.94929 12.1671 6.94189 14.9521C6.94189 15.2841 6.97149 15.6161 7.03807 15.9407C7.43755 17.94 9.00589 19.5041 11.0107 19.9025C13.0155 20.3009 15.0647 19.4561 16.204 17.763C17.7538 15.4538 17.1361 12.3294 14.8206 10.7838C14.5432 10.5994 14.2472 10.4408 13.9402 10.3153C13.3262 10.0571 12.6678 9.92433 12.0057 9.92433ZM12.0057 15.7305C11.8541 15.7305 11.7024 15.6862 11.5766 15.6014C11.4509 15.5165 11.351 15.3985 11.2918 15.2546C11.1291 14.8636 11.314 14.4136 11.7061 14.2476C11.7542 14.2291 11.8023 14.2107 11.8541 14.2033C12.272 14.1222 12.6789 14.3951 12.7603 14.812C12.8084 15.0628 12.7307 15.321 12.5494 15.5018C12.4089 15.6493 12.2128 15.7305 12.0057 15.7305Z" fill="#EA6F2E"/>
<path d="M7.91846 11.9974C8.86908 10.6953 10.3893 9.92432 12.0021 9.92432C13.6185 9.92432 15.135 10.6953 16.0857 11.9974C15.135 13.2995 13.6148 14.0705 12.0021 14.0705C10.3893 14.0705 8.86908 13.3032 7.91846 11.9974Z" fill="#E73D2D"/>
<path d="M11.1144 13.993C9.9492 13.7791 8.89871 13.1668 8.14043 12.263C6.57949 10.3965 6.57949 7.68155 8.14043 5.81502C8.89871 4.90759 9.9492 4.29525 11.1144 4.0813V13.993Z" fill="#2E0E96"/>
<path d="M11.1144 19.9173C9.9492 19.7034 8.89871 19.091 8.14043 18.1873C6.57949 16.3208 6.57949 13.6058 8.14043 11.7393C8.89871 10.8356 9.9492 10.2232 11.1144 10.0093V19.9173Z" fill="#396E2D"/>
<path d="M11.1143 10.0017C9.83076 10.2304 8.68779 10.946 7.92212 11.9973C8.68779 13.0486 9.83446 13.7643 11.1143 13.993V10.0017Z" fill="#7BC96E"/>
</svg>
