<svg width="24" height="24" viewBox="0 0 24 24" fill="none" xmlns="http://www.w3.org/2000/svg">
<path fill-rule="evenodd" clip-rule="evenodd" d="M16.6675 4H7.33312C5.49184 4 4 5.60512 4 7.58528V16.4147C4 18.3949 5.49184 20 7.33248 20H16.6675C18.5082 20 20 18.3949 20 16.4147V7.58528C20 5.60512 18.5082 4 16.6675 4Z" fill="#0052FF"/>
<path fill-rule="evenodd" clip-rule="evenodd" d="M12.0001 6.31738C8.8615 6.31738 6.3175 8.86138 6.3175 11.9999C6.3175 15.1385 8.8615 17.6825 12.0001 17.6825C15.1386 17.6825 17.6826 15.1385 17.6826 11.9999C17.6826 8.86138 15.1386 6.31738 12.0001 6.31738Z" fill="white"/>
<path fill-rule="evenodd" clip-rule="evenodd" d="M13.3998 10.1838H10.601C10.3706 10.1838 10.1844 10.3848 10.1844 10.6318V13.3678C10.1844 13.6155 10.3713 13.8158 10.601 13.8158H13.3998C13.6302 13.8158 13.8164 13.6149 13.8164 13.3678V10.6318C13.8164 10.3848 13.6295 10.1838 13.3998 10.1838Z" fill="#0052FF"/>
</svg>
