<svg width="24" height="24" viewBox="0 0 24 24" fill="none" xmlns="http://www.w3.org/2000/svg">
<path d="M19.77 4L13.0356 9.00168L14.281 6.05075L19.77 4Z" fill="#E2761B" stroke="#E2761B" stroke-width="0.0502197" stroke-linecap="round" stroke-linejoin="round"/>
<path d="M4.22335 4L10.9035 9.04905L9.7191 6.05075L4.22335 4ZM17.3468 15.5939L15.5533 18.3417L19.3908 19.3976L20.494 15.6548L17.3468 15.5939ZM3.5127 15.6548L4.60914 19.3976L8.44669 18.3417L6.65312 15.5939L3.5127 15.6548Z" fill="#E4761B" stroke="#E4761B" stroke-width="0.0502197" stroke-linecap="round" stroke-linejoin="round"/>
<path d="M8.23026 10.9508L7.16089 12.5684L10.9714 12.7376L10.836 8.64284L8.23026 10.9508ZM15.7632 10.9508L13.1236 8.59546L13.0357 12.7376L16.8394 12.5684L15.7632 10.9508ZM8.44684 18.3416L10.7345 17.2249L8.75818 15.6817L8.44684 18.3416ZM13.259 17.2249L15.5534 18.3416L15.2353 15.6817L13.259 17.2249Z" fill="#E4761B" stroke="#E4761B" stroke-width="0.0502197" stroke-linecap="round" stroke-linejoin="round"/>
<path d="M15.5533 18.3418L13.2589 17.2251L13.4417 18.7209L13.4214 19.3503L15.5533 18.3418ZM8.44678 18.3418L10.5787 19.3503L10.5652 18.7209L10.7344 17.2251L8.44678 18.3418Z" fill="#D7C1B3" stroke="#D7C1B3" stroke-width="0.0502197" stroke-linecap="round" stroke-linejoin="round"/>
<path d="M10.6125 14.694L8.70386 14.1323L10.0507 13.5164L10.6125 14.694ZM13.3807 14.694L13.9424 13.5164L15.296 14.1323L13.3807 14.694Z" fill="#233447" stroke="#233447" stroke-width="0.0502197" stroke-linecap="round" stroke-linejoin="round"/>
<path d="M8.44688 18.3418L8.77176 15.594L6.65332 15.6549L8.44688 18.3418ZM15.2286 15.594L15.5535 18.3418L17.347 15.6549L15.2286 15.594ZM16.8394 12.5686L13.0357 12.7378L13.3876 14.6938L13.9494 13.5161L15.303 14.132L16.8394 12.5686ZM8.70407 14.132L10.0577 13.5161L10.6127 14.6938L10.9714 12.7378L7.16093 12.5686L8.70407 14.132Z" fill="#CD6116" stroke="#CD6116" stroke-width="0.0502197" stroke-linecap="round" stroke-linejoin="round"/>
<path d="M7.16089 12.5686L8.75818 15.682L8.70403 14.132L7.16089 12.5686ZM15.303 14.132L15.2353 15.682L16.8394 12.5686L15.303 14.132ZM10.9714 12.7378L10.6127 14.6938L11.0594 17.0018L11.1609 13.9628L10.9714 12.7378ZM13.0357 12.7378L12.8529 13.9561L12.9341 17.0018L13.3876 14.6938L13.0357 12.7378Z" fill="#E4751F" stroke="#E4751F" stroke-width="0.0502197" stroke-linecap="round" stroke-linejoin="round"/>
<path d="M13.3874 14.6938L12.934 17.0018L13.2588 17.2251L15.2351 15.682L15.3028 14.1321L13.3874 14.6938ZM8.70386 14.1321L8.758 15.682L10.7343 17.2251L11.0592 17.0018L10.6125 14.6938L8.70386 14.1321Z" fill="#F6851B" stroke="#F6851B" stroke-width="0.0502197" stroke-linecap="round" stroke-linejoin="round"/>
<path d="M13.4214 19.3503L13.4417 18.7208L13.2725 18.5719H10.7209L10.5652 18.7208L10.5787 19.3503L8.44678 18.3418L9.19128 18.9509L10.7006 20H13.2928L14.8089 18.9509L15.5533 18.3418L13.4214 19.3503Z" fill="#C0AD9E" stroke="#C0AD9E" stroke-width="0.0502197" stroke-linecap="round" stroke-linejoin="round"/>
<path d="M13.2589 17.2251L12.934 17.0017H11.0593L10.7344 17.2251L10.5652 18.7208L10.7209 18.5719H13.2725L13.4417 18.7208L13.2589 17.2251Z" fill="#161616" stroke="#161616" stroke-width="0.0502197" stroke-linecap="round" stroke-linejoin="round"/>
<path d="M20.0541 9.32655L20.6294 6.56514L19.7699 4L13.2589 8.83247L15.7631 10.9509L19.3029 11.9864L20.088 11.0727L19.7496 10.8291L20.291 10.335L19.8714 10.0101L20.4128 9.59727L20.0541 9.32655ZM3.37061 6.56514L3.9459 9.32655L3.58042 9.59727L4.12187 10.0101L3.70901 10.335L4.25047 10.8291L3.91206 11.0727L4.6904 11.9864L8.23015 10.9509L10.7344 8.83247L4.22339 4L3.37061 6.56514Z" fill="#763D16" stroke="#763D16" stroke-width="0.0502197" stroke-linecap="round" stroke-linejoin="round"/>
<path d="M19.3028 11.9865L15.7631 10.9509L16.8392 12.5685L15.2352 15.6819L17.3468 15.6548H20.494L19.3028 11.9865ZM8.23011 10.9509L4.69036 11.9865L3.5127 15.6548H6.65312L8.75802 15.6819L7.16074 12.5685L8.23011 10.9509ZM13.0355 12.7377L13.2589 8.8325L14.2876 6.05078H9.7191L10.7343 8.8325L10.9712 12.7377L11.0524 13.9695L11.0592 17.0017H12.934L12.9475 13.9695L13.0355 12.7377Z" fill="#F6851B" stroke="#F6851B" stroke-width="0.0502197" stroke-linecap="round" stroke-linejoin="round"/>
</svg>
