<svg width="24" height="24" viewBox="0 0 24 24" fill="none" xmlns="http://www.w3.org/2000/svg">
<mask id="mask0_6778_68622" style="mask-type:luminance" maskUnits="userSpaceOnUse" x="4" y="4" width="16" height="16">
<path d="M4 4H20V20H4V4Z" fill="white"/>
</mask>
<g mask="url(#mask0_6778_68622)">
<path d="M12 19.98C16.4073 19.98 19.98 16.4073 19.98 12C19.98 7.59279 16.4073 4.02002 12 4.02002C7.59279 4.02002 4.02002 7.59279 4.02002 12C4.02002 16.4073 7.59279 19.98 12 19.98Z" fill="#3396FF" stroke="#66B1FF" stroke-width="0.06"/>
<path d="M8.90072 9.95866C10.6124 8.2895 13.3876 8.2895 15.0992 9.95866L15.3052 10.1595C15.3908 10.243 15.3908 10.3783 15.3052 10.4617L14.6005 11.1489C14.5577 11.1907 14.4884 11.1907 14.4456 11.1489L14.1621 10.8725C12.968 9.70806 11.032 9.70806 9.83784 10.8725L9.53424 11.1685C9.49144 11.2103 9.42208 11.2103 9.37928 11.1685L8.6746 10.4813C8.589 10.3979 8.589 10.2626 8.6746 10.1791L8.90072 9.95866ZM16.5566 11.3798L17.1838 11.9914C17.2694 12.0749 17.2694 12.2102 17.1838 12.2936L14.3558 15.0514C14.2702 15.1349 14.1314 15.1349 14.0458 15.0514L12.0387 13.0941C12.0173 13.0733 11.9826 13.0733 11.9612 13.0941L9.95412 15.0514C9.86856 15.1349 9.7298 15.1349 9.6442 15.0514L6.81614 12.2936C6.73056 12.2101 6.73056 12.0748 6.81614 11.9914L7.44332 11.3798C7.52891 11.2963 7.66766 11.2963 7.75325 11.3798L9.7604 13.3371C9.7818 13.3579 9.81648 13.3579 9.83788 13.3371L11.845 11.3798C11.9305 11.2963 12.0693 11.2963 12.1549 11.3798L14.162 13.3371C14.1834 13.3579 14.2181 13.3579 14.2395 13.3371L16.2467 11.3798C16.3322 11.2963 16.471 11.2963 16.5566 11.3798Z" fill="white"/>
</g>
</svg>
