<svg width="14" height="14" viewBox="0 0 14 14" fill="none" xmlns="http://www.w3.org/2000/svg">
<g clip-path="url(#clip0_1614_162)">
<path fill-rule="evenodd" clip-rule="evenodd" d="M2.56367 1.22393L0.010983 6.36047C0.00126924 6.37957 -0.00180897 6.40115 0.00219847 6.42206C0.00620592 6.44296 0.0170888 6.46208 0.0332556 6.47663L6.92746 12.8052C6.94704 12.8232 6.97313 12.8333 7.00026 12.8333C7.02739 12.8333 7.05347 12.8232 7.07306 12.8052L13.9673 6.47703C13.9834 6.46248 13.9943 6.44335 13.9983 6.42245C14.0023 6.40155 13.9992 6.37997 13.9895 6.36086L11.4368 1.22432C11.4286 1.20707 11.4154 1.19246 11.3987 1.18223C11.382 1.172 11.3626 1.16658 11.3428 1.16663H2.65854C2.63864 1.1664 2.6191 1.17168 2.60227 1.18185C2.58543 1.19201 2.57203 1.20663 2.56367 1.22393Z" fill="#50AF95"/>
<path fill-rule="evenodd" clip-rule="evenodd" d="M7.88554 6.88798C7.83604 6.89154 7.58032 6.90616 7.00989 6.90616C6.55619 6.90616 6.23406 6.89312 6.12105 6.88798C4.3677 6.81409 3.05897 6.52171 3.05897 6.17163C3.05897 5.82156 4.3677 5.52956 6.12105 5.45449V6.59678C6.23571 6.60468 6.56403 6.62325 7.01773 6.62325C7.56217 6.62325 7.8348 6.60152 7.88389 6.59717V5.45528C9.63352 5.52996 10.9394 5.82235 10.9394 6.17163C10.9394 6.52092 9.63394 6.8133 7.88389 6.88759L7.88554 6.88798ZM7.88554 5.33714V4.31497H10.3273V2.75623H3.67931V4.31497H6.12064V5.33675C4.13631 5.42407 2.64404 5.80061 2.64404 6.25184C2.64404 6.70307 4.13631 7.07922 6.12064 7.16693V10.4425H7.88512V7.16575C9.86491 7.07843 11.3547 6.70228 11.3547 6.25144C11.3547 5.80061 9.86615 5.42446 7.88512 5.33675L7.88554 5.33714Z" fill="white"/>
</g>
<defs>
<clipPath id="clip0_1614_162">
<rect width="14" height="11.6667" fill="white" transform="translate(0 1.16663)"/>
</clipPath>
</defs>
</svg>
