<svg width="477" height="76" viewBox="0 0 477 76" fill="none" xmlns="http://www.w3.org/2000/svg">
<mask id="mask0_1758_3069" style="mask-type:alpha" maskUnits="userSpaceOnUse" x="27" y="3" width="24" height="25">
<rect x="27" y="3.82" width="24" height="24" fill="#D9D9D9"/>
</mask>
<g mask="url(#mask0_1758_3069)">
<g filter="url(#filter0_ddd_1758_3069)">
<path d="M36.5 14.82L35.55 16.87L33.5 17.82L35.55 18.77L36.5 20.82L37.45 18.77L39.5 17.82L37.45 16.87L36.5 14.82ZM42.5 14.82L41.85 16.17L40.5 16.82L41.85 17.47L42.5 18.82L43.15 17.47L44.5 16.82L43.15 16.17L42.5 14.82ZM31 7.82L33 11.82H36L34 7.82H36L38 11.82H41L39 7.82H41L43 11.82H46L44 7.82H47C47.55 7.82 48.0208 8.01583 48.4125 8.4075C48.8042 8.79917 49 9.27 49 9.82V21.82C49 22.37 48.8042 22.8408 48.4125 23.2325C48.0208 23.6242 47.55 23.82 47 23.82H31C30.45 23.82 29.9792 23.6242 29.5875 23.2325C29.1958 22.8408 29 22.37 29 21.82V9.82C29 9.27 29.1958 8.79917 29.5875 8.4075C29.9792 8.01583 30.45 7.82 31 7.82ZM31 13.82V21.82H47V13.82H31Z" fill="#48FF5B"/>
</g>
</g>
<g filter="url(#filter1_ddd_1758_3069)">
<path d="M20.5743 46.05C20.4156 46.1527 20.1869 46.2787 19.8882 46.428C19.5989 46.568 19.2536 46.6893 18.8522 46.792C18.4603 46.8947 18.0309 46.9413 17.5643 46.932C16.7709 46.9227 16.0616 46.7827 15.4363 46.512C14.8109 46.2413 14.2743 45.8727 13.8263 45.406C13.3876 44.93 13.0516 44.3887 12.8183 43.782C12.5849 43.166 12.4683 42.5127 12.4683 41.822C12.4683 41.0567 12.5896 40.3567 12.8323 39.722C13.0843 39.078 13.4343 38.5227 13.8823 38.056C14.3303 37.58 14.8576 37.2113 15.4643 36.95C16.0803 36.6887 16.7523 36.558 17.4803 36.558C18.0963 36.558 18.6563 36.642 19.1603 36.81C19.6643 36.978 20.0889 37.1693 20.4343 37.384L19.8463 38.756C19.5756 38.5693 19.2396 38.392 18.8383 38.224C18.4463 38.056 18.0076 37.972 17.5223 37.972C16.8876 37.972 16.2996 38.14 15.7583 38.476C15.2263 38.812 14.7969 39.2647 14.4703 39.834C14.1529 40.4033 13.9943 41.0427 13.9943 41.752C13.9943 42.4707 14.1389 43.1147 14.4283 43.684C14.7269 44.2533 15.1469 44.7013 15.6883 45.028C16.2296 45.3547 16.8643 45.518 17.5923 45.518C18.1149 45.518 18.5723 45.4387 18.9643 45.28C19.3656 45.1213 19.6923 44.9393 19.9443 44.734L20.5743 46.05ZM23.743 40.968L23.883 42.648L23.827 42.424C23.9856 42.0693 24.205 41.766 24.485 41.514C24.7743 41.262 25.073 41.0707 25.381 40.94C25.6983 40.8 25.9643 40.73 26.179 40.73L26.109 42.13C25.6703 42.102 25.283 42.186 24.947 42.382C24.6203 42.578 24.3636 42.8393 24.177 43.166C23.9903 43.4927 23.897 43.8427 23.897 44.216V46.82H22.483V40.968H23.743ZM30.3129 46.96C29.6409 46.96 29.0622 46.8293 28.5769 46.568C28.0916 46.2973 27.7182 45.9287 27.4569 45.462C27.1956 44.986 27.0649 44.4493 27.0649 43.852C27.0649 43.2733 27.2096 42.7507 27.4989 42.284C27.7976 41.808 28.1942 41.43 28.6889 41.15C29.1836 40.87 29.7342 40.73 30.3409 40.73C31.1249 40.73 31.7736 40.9587 32.2869 41.416C32.8096 41.864 33.1596 42.4987 33.3369 43.32L28.5629 44.972L28.2269 44.16L32.0629 42.76L31.7689 42.956C31.6569 42.6573 31.4796 42.4007 31.2369 42.186C30.9942 41.962 30.6629 41.85 30.2429 41.85C29.7202 41.85 29.2909 42.032 28.9549 42.396C28.6282 42.7507 28.4649 43.208 28.4649 43.768C28.4649 44.3653 28.6422 44.846 28.9969 45.21C29.3516 45.574 29.7996 45.756 30.3409 45.756C30.5929 45.756 30.8356 45.714 31.0689 45.63C31.3022 45.5367 31.5216 45.4153 31.7269 45.266L32.3709 46.316C32.0722 46.512 31.7409 46.6707 31.3769 46.792C31.0222 46.904 30.6676 46.96 30.3129 46.96ZM37.3744 46.96C36.8237 46.96 36.3244 46.8433 35.8764 46.61C35.4284 46.3767 35.0737 46.036 34.8124 45.588C34.551 45.1307 34.4204 44.566 34.4204 43.894C34.4204 43.2407 34.5557 42.6807 34.8264 42.214C35.1064 41.738 35.4704 41.374 35.9184 41.122C36.3757 40.8607 36.8704 40.73 37.4024 40.73C37.9624 40.73 38.4244 40.8467 38.7884 41.08C39.1524 41.3133 39.4324 41.5933 39.6284 41.92L39.5444 42.144L39.6844 40.968H40.9864V46.82H39.5724V45.336L39.7124 45.686C39.675 45.7607 39.5957 45.868 39.4744 46.008C39.353 46.148 39.1944 46.2927 38.9984 46.442C38.8024 46.582 38.5644 46.7033 38.2844 46.806C38.0137 46.9087 37.7104 46.96 37.3744 46.96ZM37.7524 45.798C38.219 45.798 38.611 45.6767 38.9284 45.434C39.255 45.182 39.4697 44.8413 39.5724 44.412V43.208C39.4604 42.8253 39.2317 42.508 38.8864 42.256C38.5504 42.004 38.1584 41.878 37.7104 41.878C37.3744 41.878 37.0664 41.962 36.7864 42.13C36.5064 42.2887 36.2824 42.5173 36.1144 42.816C35.9464 43.1053 35.8624 43.4413 35.8624 43.824C35.8624 44.1973 35.9464 44.5333 36.1144 44.832C36.2917 45.1307 36.525 45.3687 36.8144 45.546C37.1037 45.714 37.4164 45.798 37.7524 45.798ZM43.7558 38.406H45.1838V40.982H46.7518V42.088H45.1838V46.82H43.7558V42.088H42.7198V40.982H43.7558V38.406ZM48.3091 40.968H49.7231V46.82H48.3091V40.968ZM48.2391 38.868C48.2391 38.6533 48.3231 38.4713 48.4911 38.322C48.6685 38.1727 48.8598 38.098 49.0651 38.098C49.2705 38.098 49.4571 38.1727 49.6251 38.322C49.7931 38.4713 49.8771 38.6533 49.8771 38.868C49.8771 39.1013 49.7931 39.288 49.6251 39.428C49.4571 39.568 49.2705 39.638 49.0651 39.638C48.8598 39.638 48.6685 39.568 48.4911 39.428C48.3231 39.288 48.2391 39.1013 48.2391 38.868ZM51.4282 43.838C51.4282 43.25 51.5682 42.7227 51.8482 42.256C52.1282 41.78 52.5155 41.4067 53.0102 41.136C53.5048 40.8653 54.0695 40.73 54.7042 40.73C55.3482 40.73 55.9082 40.8653 56.3842 41.136C56.8695 41.4067 57.2428 41.78 57.5042 42.256C57.7748 42.7227 57.9102 43.25 57.9102 43.838C57.9102 44.426 57.7748 44.958 57.5042 45.434C57.2335 45.9007 56.8555 46.274 56.3702 46.554C55.8942 46.8247 55.3295 46.96 54.6762 46.96C54.0602 46.96 53.5048 46.834 53.0102 46.582C52.5248 46.33 52.1375 45.9707 51.8482 45.504C51.5682 45.028 51.4282 44.4727 51.4282 43.838ZM52.8562 43.852C52.8562 44.216 52.9355 44.5473 53.0942 44.846C53.2528 45.1353 53.4675 45.3687 53.7382 45.546C54.0182 45.714 54.3262 45.798 54.6622 45.798C55.1942 45.798 55.6282 45.6113 55.9642 45.238C56.3095 44.8647 56.4822 44.4027 56.4822 43.852C56.4822 43.3013 56.3095 42.8393 55.9642 42.466C55.6282 42.0833 55.1942 41.892 54.6622 41.892C54.3168 41.892 54.0088 41.9807 53.7382 42.158C53.4675 42.3353 53.2528 42.5733 53.0942 42.872C52.9355 43.1707 52.8562 43.4973 52.8562 43.852ZM60.8898 40.968L61.0158 42.326L60.9598 42.13C61.1464 41.71 61.4451 41.374 61.8558 41.122C62.2758 40.87 62.7658 40.744 63.3258 40.744C63.8764 40.744 64.3291 40.9073 64.6838 41.234C65.0384 41.5513 65.2204 41.9713 65.2298 42.494V46.82H63.8158V42.984C63.8064 42.6853 63.7178 42.4427 63.5498 42.256C63.3818 42.06 63.1204 41.9573 62.7658 41.948C62.2711 41.948 61.8558 42.1533 61.5198 42.564C61.1931 42.9747 61.0298 43.502 61.0298 44.146V46.82H59.6158V40.968H60.8898ZM13.3076 64.05C13.149 64.1527 12.9203 64.2787 12.6216 64.428C12.3323 64.568 11.987 64.6893 11.5856 64.792C11.1936 64.8947 10.7643 64.9413 10.2976 64.932C9.50432 64.9227 8.79498 64.7827 8.16965 64.512C7.54432 64.2413 7.00765 63.8727 6.55965 63.406C6.12098 62.93 5.78498 62.3887 5.55165 61.782C5.31832 61.166 5.20165 60.5127 5.20165 59.822C5.20165 59.0567 5.32298 58.3567 5.56565 57.722C5.81765 57.078 6.16765 56.5227 6.61565 56.056C7.06365 55.58 7.59098 55.2113 8.19765 54.95C8.81365 54.6887 9.48565 54.558 10.2136 54.558C10.8296 54.558 11.3896 54.642 11.8936 54.81C12.3976 54.978 12.8223 55.1693 13.1676 55.384L12.5796 56.756C12.309 56.5693 11.973 56.392 11.5716 56.224C11.1796 56.056 10.741 55.972 10.2556 55.972C9.62098 55.972 9.03298 56.14 8.49165 56.476C7.95965 56.812 7.53032 57.2647 7.20365 57.834C6.88632 58.4033 6.72765 59.0427 6.72765 59.752C6.72765 60.4707 6.87232 61.1147 7.16165 61.684C7.46032 62.2533 7.88032 62.7013 8.42165 63.028C8.96298 63.3547 9.59765 63.518 10.3256 63.518C10.8483 63.518 11.3056 63.4387 11.6976 63.28C12.099 63.1213 12.4256 62.9393 12.6776 62.734L13.3076 64.05ZM14.7124 61.838C14.7124 61.25 14.8524 60.7227 15.1324 60.256C15.4124 59.78 15.7997 59.4067 16.2944 59.136C16.789 58.8653 17.3537 58.73 17.9884 58.73C18.6324 58.73 19.1924 58.8653 19.6684 59.136C20.1537 59.4067 20.527 59.78 20.7884 60.256C21.059 60.7227 21.1944 61.25 21.1944 61.838C21.1944 62.426 21.059 62.958 20.7884 63.434C20.5177 63.9007 20.1397 64.274 19.6544 64.554C19.1784 64.8247 18.6137 64.96 17.9604 64.96C17.3444 64.96 16.789 64.834 16.2944 64.582C15.809 64.33 15.4217 63.9707 15.1324 63.504C14.8524 63.028 14.7124 62.4727 14.7124 61.838ZM16.1404 61.852C16.1404 62.216 16.2197 62.5473 16.3784 62.846C16.537 63.1353 16.7517 63.3687 17.0224 63.546C17.3024 63.714 17.6104 63.798 17.9464 63.798C18.4784 63.798 18.9124 63.6113 19.2484 63.238C19.5937 62.8647 19.7664 62.4027 19.7664 61.852C19.7664 61.3013 19.5937 60.8393 19.2484 60.466C18.9124 60.0833 18.4784 59.892 17.9464 59.892C17.601 59.892 17.293 59.9807 17.0224 60.158C16.7517 60.3353 16.537 60.5733 16.3784 60.872C16.2197 61.1707 16.1404 61.4973 16.1404 61.852ZM24.1739 58.968L24.2999 60.242L24.2299 60.13C24.4446 59.6913 24.7479 59.3507 25.1399 59.108C25.5413 58.856 25.9986 58.73 26.5119 58.73C26.9973 58.73 27.4033 58.842 27.7299 59.066C28.0566 59.29 28.2573 59.6073 28.3319 60.018L28.2619 60.074C28.4953 59.654 28.8079 59.3273 29.1999 59.094C29.5919 58.8513 30.0026 58.73 30.4319 58.73C31.0106 58.73 31.4679 58.8933 31.8039 59.22C32.1399 59.5373 32.3126 59.9573 32.3219 60.48V64.82H30.9219V61.012C30.9126 60.7133 30.8426 60.466 30.7119 60.27C30.5906 60.074 30.3666 59.9667 30.0399 59.948C29.7039 59.948 29.4053 60.0507 29.1439 60.256C28.8919 60.4613 28.6913 60.7273 28.5419 61.054C28.4019 61.3807 28.3273 61.7307 28.3179 62.104V64.82H26.9039V61.012C26.8946 60.7133 26.8199 60.466 26.6799 60.27C26.5493 60.074 26.3206 59.9667 25.9939 59.948C25.6673 59.948 25.3733 60.0507 25.1119 60.256C24.8599 60.4613 24.6639 60.732 24.5239 61.068C24.3839 61.3947 24.3139 61.7447 24.3139 62.118V64.82H22.8999V58.968H24.1739ZM38.0347 64.96C37.6054 64.96 37.19 64.8667 36.7887 64.68C36.3967 64.484 36.0887 64.218 35.8647 63.882L35.9487 63.448V67.634H34.5347V58.87H35.7527L35.9487 60.312L35.8087 59.906C36.0887 59.5607 36.4387 59.2807 36.8587 59.066C37.288 58.842 37.7687 58.73 38.3007 58.73C38.8514 58.73 39.346 58.8607 39.7847 59.122C40.2234 59.3833 40.5687 59.752 40.8207 60.228C41.0727 60.6947 41.1987 61.2453 41.1987 61.88C41.1987 62.5147 41.0587 63.0653 40.7787 63.532C40.508 63.9893 40.1347 64.344 39.6587 64.596C39.1827 64.8387 38.6414 64.96 38.0347 64.96ZM37.7547 63.84C38.1187 63.84 38.45 63.756 38.7487 63.588C39.0567 63.42 39.2994 63.1913 39.4767 62.902C39.6634 62.6033 39.7567 62.2673 39.7567 61.894C39.7567 61.5113 39.6727 61.1707 39.5047 60.872C39.3367 60.5733 39.108 60.34 38.8187 60.172C38.5294 60.004 38.2074 59.92 37.8527 59.92C37.3674 59.92 36.9567 60.0507 36.6207 60.312C36.294 60.5733 36.07 60.9187 35.9487 61.348V62.398C36.0234 62.818 36.2287 63.1633 36.5647 63.434C36.9007 63.7047 37.2974 63.84 37.7547 63.84ZM42.9019 53.942H44.3159V64.82H42.9019V53.942ZM49.2689 64.96C48.5969 64.96 48.0183 64.8293 47.5329 64.568C47.0476 64.2973 46.6743 63.9287 46.4129 63.462C46.1516 62.986 46.0209 62.4493 46.0209 61.852C46.0209 61.2733 46.1656 60.7507 46.4549 60.284C46.7536 59.808 47.1503 59.43 47.6449 59.15C48.1396 58.87 48.6903 58.73 49.2969 58.73C50.0809 58.73 50.7296 58.9587 51.2429 59.416C51.7656 59.864 52.1156 60.4987 52.2929 61.32L47.5189 62.972L47.1829 62.16L51.0189 60.76L50.7249 60.956C50.6129 60.6573 50.4356 60.4007 50.1929 60.186C49.9503 59.962 49.6189 59.85 49.1989 59.85C48.6763 59.85 48.2469 60.032 47.9109 60.396C47.5843 60.7507 47.4209 61.208 47.4209 61.768C47.4209 62.3653 47.5983 62.846 47.9529 63.21C48.3076 63.574 48.7556 63.756 49.2969 63.756C49.5489 63.756 49.7916 63.714 50.0249 63.63C50.2583 63.5367 50.4776 63.4153 50.6829 63.266L51.3269 64.316C51.0283 64.512 50.6969 64.6707 50.3329 64.792C49.9783 64.904 49.6236 64.96 49.2689 64.96ZM54.4404 56.406H55.8684V58.982H57.4364V60.088H55.8684V64.82H54.4404V60.088H53.4044V58.982H54.4404V56.406ZM61.7377 64.96C61.0657 64.96 60.487 64.8293 60.0017 64.568C59.5164 64.2973 59.143 63.9287 58.8817 63.462C58.6204 62.986 58.4897 62.4493 58.4897 61.852C58.4897 61.2733 58.6344 60.7507 58.9237 60.284C59.2224 59.808 59.619 59.43 60.1137 59.15C60.6084 58.87 61.159 58.73 61.7657 58.73C62.5497 58.73 63.1984 58.9587 63.7117 59.416C64.2344 59.864 64.5844 60.4987 64.7617 61.32L59.9877 62.972L59.6517 62.16L63.4877 60.76L63.1937 60.956C63.0817 60.6573 62.9044 60.4007 62.6617 60.186C62.419 59.962 62.0877 59.85 61.6677 59.85C61.145 59.85 60.7157 60.032 60.3797 60.396C60.053 60.7507 59.8897 61.208 59.8897 61.768C59.8897 62.3653 60.067 62.846 60.4217 63.21C60.7764 63.574 61.2244 63.756 61.7657 63.756C62.0177 63.756 62.2604 63.714 62.4937 63.63C62.727 63.5367 62.9464 63.4153 63.1517 63.266L63.7957 64.316C63.497 64.512 63.1657 64.6707 62.8017 64.792C62.447 64.904 62.0924 64.96 61.7377 64.96ZM68.7432 64.96C68.1925 64.96 67.6978 64.834 67.2592 64.582C66.8205 64.3207 66.4752 63.952 66.2232 63.476C65.9712 63 65.8452 62.4447 65.8452 61.81C65.8452 61.1567 65.9805 60.6013 66.2512 60.144C66.5218 59.6867 66.8858 59.3367 67.3432 59.094C67.8098 58.8513 68.3325 58.73 68.9112 58.73C69.3592 58.73 69.7838 58.8233 70.1852 59.01C70.5958 59.1873 70.9178 59.4393 71.1512 59.766L71.0952 60.256V53.942H72.5092V64.82H71.0812V63.42L71.2352 63.798C70.9552 64.134 70.6005 64.414 70.1712 64.638C69.7512 64.8527 69.2752 64.96 68.7432 64.96ZM69.1772 63.77C69.6718 63.77 70.0825 63.644 70.4092 63.392C70.7452 63.1307 70.9692 62.7853 71.0812 62.356V61.194C70.9785 60.802 70.7498 60.48 70.3952 60.228C70.0498 59.976 69.6438 59.85 69.1772 59.85C68.8412 59.85 68.5285 59.934 68.2392 60.102C67.9498 60.2607 67.7165 60.4893 67.5392 60.788C67.3712 61.0773 67.2872 61.4133 67.2872 61.796C67.2872 62.16 67.3712 62.4913 67.5392 62.79C67.7165 63.0887 67.9498 63.3267 68.2392 63.504C68.5285 63.6813 68.8412 63.77 69.1772 63.77Z" fill="white"/>
</g>
<g filter="url(#filter2_ddd_1758_3069)">
<path d="M91.42 45L90 43.58L96.58 37L90 30.42L91.42 29L99.42 37L91.42 45Z" fill="white"/>
</g>
<mask id="mask1_1758_3069" style="mask-type:alpha" maskUnits="userSpaceOnUse" x="142" y="2" width="25" height="24">
<rect x="142.42" y="2" width="24" height="24" fill="#D9D9D9"/>
</mask>
<g mask="url(#mask1_1758_3069)">
<g filter="url(#filter3_ddd_1758_3069)">
<path d="M154.443 18.533L153.03 15.3895L149.887 13.9772L153.03 12.5421L154.443 9.42141L155.878 12.5421L158.999 13.9772L155.878 15.3895L154.443 18.533ZM154.443 24C152.803 24 151.265 23.6241 149.83 22.8724C148.395 22.1207 147.199 21.0691 146.242 19.7175V22.1777H144.42V16.7107H149.887V18.533H147.655C148.429 19.672 149.412 20.5642 150.604 21.2096C151.797 21.855 153.076 22.1777 154.443 22.1777C156.189 22.1777 157.772 21.6765 159.192 20.6743C160.612 19.672 161.611 18.3432 162.188 16.6879L163.964 17.0979C163.281 19.1632 162.066 20.8299 160.32 22.0979C158.573 23.366 156.614 24 154.443 24ZM144.465 13.0661C144.572 12.0486 144.815 11.0729 145.194 10.139C145.574 9.20501 146.098 8.3432 146.766 7.55353L148.065 8.85194C147.579 9.47456 147.184 10.139 146.88 10.8451C146.576 11.5513 146.387 12.2916 146.311 13.0661H144.465ZM149.34 7.57631L148.042 6.2779C148.847 5.60972 149.712 5.082 150.639 4.69476C151.565 4.30752 152.529 4.07593 153.532 4V5.82232C152.757 5.89825 152.021 6.08808 151.322 6.3918C150.623 6.69552 149.963 7.09036 149.34 7.57631ZM159.568 7.57631C158.945 7.09036 158.281 6.69552 157.575 6.3918C156.869 6.08808 156.128 5.89825 155.354 5.82232V4C156.371 4.09112 157.347 4.3265 158.281 4.70615C159.215 5.0858 160.077 5.60972 160.866 6.2779L159.568 7.57631ZM162.598 13.0661C162.522 12.2916 162.332 11.5513 162.028 10.8451C161.724 10.139 161.33 9.47456 160.844 8.85194L162.142 7.55353C162.81 8.3432 163.334 9.20501 163.714 10.139C164.093 11.0729 164.329 12.0486 164.42 13.0661H162.598Z" fill="#48FF5B"/>
</g>
</g>
<g filter="url(#filter4_ddd_1758_3069)">
<path d="M120.045 34.85C120.754 34.85 121.384 34.976 121.935 35.228C122.485 35.4707 122.915 35.83 123.223 36.306C123.54 36.7727 123.699 37.3513 123.699 38.042C123.699 38.4433 123.638 38.84 123.517 39.232C123.395 39.624 123.199 39.9787 122.929 40.296C122.667 40.6133 122.313 40.87 121.865 41.066C121.426 41.2527 120.885 41.346 120.241 41.346H118.743V45H117.287V34.85H120.045ZM120.213 39.932C120.735 39.932 121.137 39.834 121.417 39.638C121.706 39.4327 121.907 39.19 122.019 38.91C122.131 38.6207 122.187 38.35 122.187 38.098C122.187 37.9113 122.154 37.7153 122.089 37.51C122.023 37.2953 121.916 37.0947 121.767 36.908C121.627 36.712 121.435 36.558 121.193 36.446C120.95 36.3247 120.651 36.264 120.297 36.264H118.743V39.932H120.213ZM121.921 40.8L124.553 45H122.845L120.171 40.828L121.921 40.8ZM128.8 45.14C128.128 45.14 127.55 45.0093 127.064 44.748C126.579 44.4773 126.206 44.1087 125.944 43.642C125.683 43.166 125.552 42.6293 125.552 42.032C125.552 41.4533 125.697 40.9307 125.986 40.464C126.285 39.988 126.682 39.61 127.176 39.33C127.671 39.05 128.222 38.91 128.828 38.91C129.612 38.91 130.261 39.1387 130.774 39.596C131.297 40.044 131.647 40.6787 131.824 41.5L127.05 43.152L126.714 42.34L130.55 40.94L130.256 41.136C130.144 40.8373 129.967 40.5807 129.724 40.366C129.482 40.142 129.15 40.03 128.73 40.03C128.208 40.03 127.778 40.212 127.442 40.576C127.116 40.9307 126.952 41.388 126.952 41.948C126.952 42.5453 127.13 43.026 127.484 43.39C127.839 43.754 128.287 43.936 128.828 43.936C129.08 43.936 129.323 43.894 129.556 43.81C129.79 43.7167 130.009 43.5953 130.214 43.446L130.858 44.496C130.56 44.692 130.228 44.8507 129.864 44.972C129.51 45.084 129.155 45.14 128.8 45.14ZM136.268 47.912C135.82 47.912 135.428 47.856 135.092 47.744C134.756 47.6413 134.452 47.5013 134.182 47.324C133.92 47.1467 133.668 46.9507 133.426 46.736L134.266 45.77C134.555 46.05 134.854 46.2693 135.162 46.428C135.479 46.5867 135.838 46.666 136.24 46.666C136.874 46.666 137.364 46.5167 137.71 46.218C138.055 45.9193 138.232 45.518 138.242 45.014V43.488L138.34 43.754C138.172 44.146 137.873 44.4773 137.444 44.748C137.024 45.0093 136.501 45.14 135.876 45.14C135.334 45.14 134.84 45.0047 134.392 44.734C133.944 44.4633 133.584 44.0947 133.314 43.628C133.043 43.1613 132.908 42.634 132.908 42.046C132.908 41.4393 133.048 40.9027 133.328 40.436C133.617 39.96 133.995 39.5867 134.462 39.316C134.928 39.0453 135.428 38.91 135.96 38.91C136.482 38.91 136.949 39.008 137.36 39.204C137.78 39.4 138.088 39.652 138.284 39.96L138.214 40.198L138.354 39.148H139.656V45.042C139.656 45.574 139.516 46.0547 139.236 46.484C138.956 46.9227 138.564 47.268 138.06 47.52C137.556 47.7813 136.958 47.912 136.268 47.912ZM134.336 42.004C134.336 42.3773 134.42 42.7133 134.588 43.012C134.765 43.3107 134.998 43.5487 135.288 43.726C135.586 43.894 135.918 43.978 136.282 43.978C136.776 43.978 137.196 43.852 137.542 43.6C137.887 43.3387 138.12 43.0073 138.242 42.606V41.402C138.12 41.0007 137.882 40.6787 137.528 40.436C137.173 40.184 136.758 40.058 136.282 40.058C135.918 40.058 135.586 40.142 135.288 40.31C134.998 40.478 134.765 40.7067 134.588 40.996C134.42 41.2853 134.336 41.6213 134.336 42.004ZM141.861 39.148H143.275V45H141.861V39.148ZM141.791 37.048C141.791 36.8333 141.875 36.6513 142.043 36.502C142.22 36.3527 142.412 36.278 142.617 36.278C142.822 36.278 143.009 36.3527 143.177 36.502C143.345 36.6513 143.429 36.8333 143.429 37.048C143.429 37.2813 143.345 37.468 143.177 37.608C143.009 37.748 142.822 37.818 142.617 37.818C142.412 37.818 142.22 37.748 142.043 37.608C141.875 37.468 141.791 37.2813 141.791 37.048ZM147.178 45.126C146.749 45.126 146.338 45.0513 145.946 44.902C145.554 44.7433 145.223 44.5193 144.952 44.23L145.554 43.418C145.797 43.6513 146.049 43.8287 146.31 43.95C146.581 44.0713 146.833 44.132 147.066 44.132C147.337 44.132 147.575 44.0807 147.78 43.978C147.985 43.866 148.088 43.684 148.088 43.432C148.088 43.2267 148.018 43.068 147.878 42.956C147.747 42.844 147.579 42.7507 147.374 42.676C147.169 42.6013 146.949 42.5313 146.716 42.466C146.231 42.3073 145.857 42.0833 145.596 41.794C145.344 41.4953 145.218 41.1453 145.218 40.744C145.218 40.436 145.293 40.1467 145.442 39.876C145.601 39.596 145.839 39.372 146.156 39.204C146.473 39.0267 146.865 38.938 147.332 38.938C147.743 38.938 148.111 38.9893 148.438 39.092C148.765 39.1853 149.068 39.3487 149.348 39.582L148.802 40.436C148.634 40.268 148.433 40.142 148.2 40.058C147.976 39.9647 147.771 39.9133 147.584 39.904C147.332 39.904 147.113 39.9647 146.926 40.086C146.739 40.198 146.646 40.352 146.646 40.548C146.646 40.744 146.711 40.9027 146.842 41.024C146.973 41.136 147.141 41.2293 147.346 41.304C147.561 41.3693 147.775 41.4393 147.99 41.514C148.419 41.654 148.774 41.8453 149.054 42.088C149.343 42.3307 149.488 42.6853 149.488 43.152C149.488 43.5067 149.404 43.8333 149.236 44.132C149.068 44.4307 148.811 44.6733 148.466 44.86C148.13 45.0373 147.701 45.126 147.178 45.126ZM151.841 36.586H153.269V39.162H154.837V40.268H153.269V45H151.841V40.268H150.805V39.162H151.841V36.586ZM157.654 39.148L157.794 40.828L157.738 40.604C157.897 40.2493 158.116 39.946 158.396 39.694C158.685 39.442 158.984 39.2507 159.292 39.12C159.609 38.98 159.875 38.91 160.09 38.91L160.02 40.31C159.581 40.282 159.194 40.366 158.858 40.562C158.531 40.758 158.275 41.0193 158.088 41.346C157.901 41.6727 157.808 42.0227 157.808 42.396V45H156.394V39.148H157.654ZM164.026 45.14C163.475 45.14 162.976 45.0233 162.528 44.79C162.08 44.5567 161.725 44.216 161.464 43.768C161.202 43.3107 161.072 42.746 161.072 42.074C161.072 41.4207 161.207 40.8607 161.478 40.394C161.758 39.918 162.122 39.554 162.57 39.302C163.027 39.0407 163.522 38.91 164.054 38.91C164.614 38.91 165.076 39.0267 165.44 39.26C165.804 39.4933 166.084 39.7733 166.28 40.1L166.196 40.324L166.336 39.148H167.638V45H166.224V43.516L166.364 43.866C166.326 43.9407 166.247 44.048 166.126 44.188C166.004 44.328 165.846 44.4727 165.65 44.622C165.454 44.762 165.216 44.8833 164.936 44.986C164.665 45.0887 164.362 45.14 164.026 45.14ZM164.404 43.978C164.87 43.978 165.262 43.8567 165.58 43.614C165.906 43.362 166.121 43.0213 166.224 42.592V41.388C166.112 41.0053 165.883 40.688 165.538 40.436C165.202 40.184 164.81 40.058 164.362 40.058C164.026 40.058 163.718 40.142 163.438 40.31C163.158 40.4687 162.934 40.6973 162.766 40.996C162.598 41.2853 162.514 41.6213 162.514 42.004C162.514 42.3773 162.598 42.7133 162.766 43.012C162.943 43.3107 163.176 43.5487 163.466 43.726C163.755 43.894 164.068 43.978 164.404 43.978ZM170.407 36.586H171.835V39.162H173.403V40.268H171.835V45H170.407V40.268H169.371V39.162H170.407V36.586ZM174.96 39.148H176.374V45H174.96V39.148ZM174.89 37.048C174.89 36.8333 174.974 36.6513 175.142 36.502C175.32 36.3527 175.511 36.278 175.716 36.278C175.922 36.278 176.108 36.3527 176.276 36.502C176.444 36.6513 176.528 36.8333 176.528 37.048C176.528 37.2813 176.444 37.468 176.276 37.608C176.108 37.748 175.922 37.818 175.716 37.818C175.511 37.818 175.32 37.748 175.142 37.608C174.974 37.468 174.89 37.2813 174.89 37.048ZM178.08 42.018C178.08 41.43 178.22 40.9027 178.5 40.436C178.78 39.96 179.167 39.5867 179.662 39.316C180.156 39.0453 180.721 38.91 181.356 38.91C182 38.91 182.56 39.0453 183.036 39.316C183.521 39.5867 183.894 39.96 184.156 40.436C184.426 40.9027 184.562 41.43 184.562 42.018C184.562 42.606 184.426 43.138 184.156 43.614C183.885 44.0807 183.507 44.454 183.022 44.734C182.546 45.0047 181.981 45.14 181.328 45.14C180.712 45.14 180.156 45.014 179.662 44.762C179.176 44.51 178.789 44.1507 178.5 43.684C178.22 43.208 178.08 42.6527 178.08 42.018ZM179.508 42.032C179.508 42.396 179.587 42.7273 179.746 43.026C179.904 43.3153 180.119 43.5487 180.39 43.726C180.67 43.894 180.978 43.978 181.314 43.978C181.846 43.978 182.28 43.7913 182.616 43.418C182.961 43.0447 183.134 42.5827 183.134 42.032C183.134 41.4813 182.961 41.0193 182.616 40.646C182.28 40.2633 181.846 40.072 181.314 40.072C180.968 40.072 180.66 40.1607 180.39 40.338C180.119 40.5153 179.904 40.7533 179.746 41.052C179.587 41.3507 179.508 41.6773 179.508 42.032ZM187.541 39.148L187.667 40.506L187.611 40.31C187.798 39.89 188.096 39.554 188.507 39.302C188.927 39.05 189.417 38.924 189.977 38.924C190.528 38.924 190.98 39.0873 191.335 39.414C191.69 39.7313 191.872 40.1513 191.881 40.674V45H190.467V41.164C190.458 40.8653 190.369 40.6227 190.201 40.436C190.033 40.24 189.772 40.1373 189.417 40.128C188.922 40.128 188.507 40.3333 188.171 40.744C187.844 41.1547 187.681 41.682 187.681 42.326V45H186.267V39.148H187.541ZM122.031 55.85H123.487V66H122.031V55.85ZM127.303 60.148L127.429 61.506L127.373 61.31C127.56 60.89 127.858 60.554 128.269 60.302C128.689 60.05 129.179 59.924 129.739 59.924C130.29 59.924 130.742 60.0873 131.097 60.414C131.452 60.7313 131.634 61.1513 131.643 61.674V66H130.229V62.164C130.22 61.8653 130.131 61.6227 129.963 61.436C129.795 61.24 129.534 61.1373 129.179 61.128C128.684 61.128 128.269 61.3333 127.933 61.744C127.606 62.1547 127.443 62.682 127.443 63.326V66H126.029V60.148H127.303ZM138.789 55.85C139.909 55.85 140.787 56.13 141.421 56.69C142.056 57.25 142.373 58.034 142.373 59.042C142.373 59.4433 142.313 59.84 142.191 60.232C142.07 60.624 141.874 60.9833 141.603 61.31C141.342 61.6273 140.992 61.884 140.553 62.08C140.124 62.2667 139.597 62.36 138.971 62.36H137.473V66H136.017V55.85H138.789ZM138.957 60.932C139.34 60.932 139.657 60.8713 139.909 60.75C140.171 60.6193 140.371 60.456 140.511 60.26C140.661 60.064 140.763 59.8587 140.819 59.644C140.885 59.4293 140.917 59.238 140.917 59.07C140.917 58.8833 140.885 58.6873 140.819 58.482C140.763 58.2673 140.661 58.0713 140.511 57.894C140.371 57.7073 140.18 57.558 139.937 57.446C139.695 57.3247 139.391 57.264 139.027 57.264H137.473V60.932H138.957ZM145.363 60.148L145.503 61.828L145.447 61.604C145.606 61.2493 145.825 60.946 146.105 60.694C146.394 60.442 146.693 60.2507 147.001 60.12C147.318 59.98 147.584 59.91 147.799 59.91L147.729 61.31C147.29 61.282 146.903 61.366 146.567 61.562C146.24 61.758 145.984 62.0193 145.797 62.346C145.61 62.6727 145.517 63.0227 145.517 63.396V66H144.103V60.148H145.363ZM148.685 63.018C148.685 62.43 148.825 61.9027 149.105 61.436C149.385 60.96 149.772 60.5867 150.267 60.316C150.762 60.0453 151.326 59.91 151.961 59.91C152.605 59.91 153.165 60.0453 153.641 60.316C154.126 60.5867 154.5 60.96 154.761 61.436C155.032 61.9027 155.167 62.43 155.167 63.018C155.167 63.606 155.032 64.138 154.761 64.614C154.49 65.0807 154.112 65.454 153.627 65.734C153.151 66.0047 152.586 66.14 151.933 66.14C151.317 66.14 150.762 66.014 150.267 65.762C149.782 65.51 149.394 65.1507 149.105 64.684C148.825 64.208 148.685 63.6527 148.685 63.018ZM150.113 63.032C150.113 63.396 150.192 63.7273 150.351 64.026C150.51 64.3153 150.724 64.5487 150.995 64.726C151.275 64.894 151.583 64.978 151.919 64.978C152.451 64.978 152.885 64.7913 153.221 64.418C153.566 64.0447 153.739 63.5827 153.739 63.032C153.739 62.4813 153.566 62.0193 153.221 61.646C152.885 61.2633 152.451 61.072 151.919 61.072C151.574 61.072 151.266 61.1607 150.995 61.338C150.724 61.5153 150.51 61.7533 150.351 62.052C150.192 62.3507 150.113 62.6773 150.113 63.032ZM159.729 68.912C159.281 68.912 158.889 68.856 158.553 68.744C158.217 68.6413 157.913 68.5013 157.643 68.324C157.381 68.1467 157.129 67.9507 156.887 67.736L157.727 66.77C158.016 67.05 158.315 67.2693 158.623 67.428C158.94 67.5867 159.299 67.666 159.701 67.666C160.335 67.666 160.825 67.5167 161.171 67.218C161.516 66.9193 161.693 66.518 161.703 66.014V64.488L161.801 64.754C161.633 65.146 161.334 65.4773 160.905 65.748C160.485 66.0093 159.962 66.14 159.337 66.14C158.795 66.14 158.301 66.0047 157.853 65.734C157.405 65.4633 157.045 65.0947 156.775 64.628C156.504 64.1613 156.369 63.634 156.369 63.046C156.369 62.4393 156.509 61.9027 156.789 61.436C157.078 60.96 157.456 60.5867 157.923 60.316C158.389 60.0453 158.889 59.91 159.421 59.91C159.943 59.91 160.41 60.008 160.821 60.204C161.241 60.4 161.549 60.652 161.745 60.96L161.675 61.198L161.815 60.148H163.117V66.042C163.117 66.574 162.977 67.0547 162.697 67.484C162.417 67.9227 162.025 68.268 161.521 68.52C161.017 68.7813 160.419 68.912 159.729 68.912ZM157.797 63.004C157.797 63.3773 157.881 63.7133 158.049 64.012C158.226 64.3107 158.459 64.5487 158.749 64.726C159.047 64.894 159.379 64.978 159.743 64.978C160.237 64.978 160.657 64.852 161.003 64.6C161.348 64.3387 161.581 64.0073 161.703 63.606V62.402C161.581 62.0007 161.343 61.6787 160.989 61.436C160.634 61.184 160.219 61.058 159.743 61.058C159.379 61.058 159.047 61.142 158.749 61.31C158.459 61.478 158.226 61.7067 158.049 61.996C157.881 62.2853 157.797 62.6213 157.797 63.004ZM166.582 60.148L166.722 61.828L166.666 61.604C166.824 61.2493 167.044 60.946 167.324 60.694C167.613 60.442 167.912 60.2507 168.22 60.12C168.537 59.98 168.803 59.91 169.018 59.91L168.948 61.31C168.509 61.282 168.122 61.366 167.786 61.562C167.459 61.758 167.202 62.0193 167.016 62.346C166.829 62.6727 166.736 63.0227 166.736 63.396V66H165.322V60.148H166.582ZM173.152 66.14C172.48 66.14 171.901 66.0093 171.416 65.748C170.93 65.4773 170.557 65.1087 170.296 64.642C170.034 64.166 169.904 63.6293 169.904 63.032C169.904 62.4533 170.048 61.9307 170.338 61.464C170.636 60.988 171.033 60.61 171.528 60.33C172.022 60.05 172.573 59.91 173.18 59.91C173.964 59.91 174.612 60.1387 175.126 60.596C175.648 61.044 175.998 61.6787 176.176 62.5L171.402 64.152L171.066 63.34L174.902 61.94L174.608 62.136C174.496 61.8373 174.318 61.5807 174.076 61.366C173.833 61.142 173.502 61.03 173.082 61.03C172.559 61.03 172.13 61.212 171.794 61.576C171.467 61.9307 171.304 62.388 171.304 62.948C171.304 63.5453 171.481 64.026 171.836 64.39C172.19 64.754 172.638 64.936 173.18 64.936C173.432 64.936 173.674 64.894 173.908 64.81C174.141 64.7167 174.36 64.5953 174.566 64.446L175.21 65.496C174.911 65.692 174.58 65.8507 174.216 65.972C173.861 66.084 173.506 66.14 173.152 66.14ZM179.457 66.126C179.028 66.126 178.617 66.0513 178.225 65.902C177.833 65.7433 177.502 65.5193 177.231 65.23L177.833 64.418C178.076 64.6513 178.328 64.8287 178.589 64.95C178.86 65.0713 179.112 65.132 179.345 65.132C179.616 65.132 179.854 65.0807 180.059 64.978C180.265 64.866 180.367 64.684 180.367 64.432C180.367 64.2267 180.297 64.068 180.157 63.956C180.027 63.844 179.859 63.7507 179.653 63.676C179.448 63.6013 179.229 63.5313 178.995 63.466C178.51 63.3073 178.137 63.0833 177.875 62.794C177.623 62.4953 177.497 62.1453 177.497 61.744C177.497 61.436 177.572 61.1467 177.721 60.876C177.88 60.596 178.118 60.372 178.435 60.204C178.753 60.0267 179.145 59.938 179.611 59.938C180.022 59.938 180.391 59.9893 180.717 60.092C181.044 60.1853 181.347 60.3487 181.627 60.582L181.081 61.436C180.913 61.268 180.713 61.142 180.479 61.058C180.255 60.9647 180.05 60.9133 179.863 60.904C179.611 60.904 179.392 60.9647 179.205 61.086C179.019 61.198 178.925 61.352 178.925 61.548C178.925 61.744 178.991 61.9027 179.121 62.024C179.252 62.136 179.42 62.2293 179.625 62.304C179.84 62.3693 180.055 62.4393 180.269 62.514C180.699 62.654 181.053 62.8453 181.333 63.088C181.623 63.3307 181.767 63.6853 181.767 64.152C181.767 64.5067 181.683 64.8333 181.515 65.132C181.347 65.4307 181.091 65.6733 180.745 65.86C180.409 66.0373 179.98 66.126 179.457 66.126ZM185.254 66.126C184.825 66.126 184.414 66.0513 184.022 65.902C183.63 65.7433 183.299 65.5193 183.028 65.23L183.63 64.418C183.873 64.6513 184.125 64.8287 184.386 64.95C184.657 65.0713 184.909 65.132 185.142 65.132C185.413 65.132 185.651 65.0807 185.856 64.978C186.061 64.866 186.164 64.684 186.164 64.432C186.164 64.2267 186.094 64.068 185.954 63.956C185.823 63.844 185.655 63.7507 185.45 63.676C185.245 63.6013 185.025 63.5313 184.792 63.466C184.307 63.3073 183.933 63.0833 183.672 62.794C183.42 62.4953 183.294 62.1453 183.294 61.744C183.294 61.436 183.369 61.1467 183.518 60.876C183.677 60.596 183.915 60.372 184.232 60.204C184.549 60.0267 184.941 59.938 185.408 59.938C185.819 59.938 186.187 59.9893 186.514 60.092C186.841 60.1853 187.144 60.3487 187.424 60.582L186.878 61.436C186.71 61.268 186.509 61.142 186.276 61.058C186.052 60.9647 185.847 60.9133 185.66 60.904C185.408 60.904 185.189 60.9647 185.002 61.086C184.815 61.198 184.722 61.352 184.722 61.548C184.722 61.744 184.787 61.9027 184.918 62.024C185.049 62.136 185.217 62.2293 185.422 62.304C185.637 62.3693 185.851 62.4393 186.066 62.514C186.495 62.654 186.85 62.8453 187.13 63.088C187.419 63.3307 187.564 63.6853 187.564 64.152C187.564 64.5067 187.48 64.8333 187.312 65.132C187.144 65.4307 186.887 65.6733 186.542 65.86C186.206 66.0373 185.777 66.126 185.254 66.126Z" fill="white"/>
</g>
<g filter="url(#filter5_ddd_1758_3069)">
<path d="M210.84 45L209.42 43.58L216 37L209.42 30.42L210.84 29L218.84 37L210.84 45Z" fill="white"/>
</g>
<g filter="url(#filter6_ddd_1758_3069)">
<mask id="mask2_1758_3069" style="mask-type:alpha" maskUnits="userSpaceOnUse" x="261" y="2" width="25" height="24">
<rect x="261.84" y="2" width="24" height="24" fill="#D9D9D9"/>
</mask>
<g mask="url(#mask2_1758_3069)">
<path d="M273.84 24C272.457 24 271.157 23.7375 269.94 23.2125C268.723 22.6875 267.665 21.975 266.765 21.075C265.865 20.175 265.152 19.1167 264.627 17.9C264.102 16.6833 263.84 15.3833 263.84 14C263.84 12.6167 264.102 11.3167 264.627 10.1C265.152 8.88333 265.865 7.825 266.765 6.925C267.665 6.025 268.723 5.3125 269.94 4.7875C271.157 4.2625 272.457 4 273.84 4C274.923 4 275.948 4.15833 276.915 4.475C277.882 4.79167 278.773 5.23333 279.59 5.8L278.14 7.275C277.507 6.875 276.832 6.5625 276.115 6.3375C275.398 6.1125 274.64 6 273.84 6C271.623 6 269.736 6.77917 268.177 8.3375C266.619 9.89583 265.84 11.7833 265.84 14C265.84 16.2167 266.619 18.1042 268.177 19.6625C269.736 21.2208 271.623 22 273.84 22C274.373 22 274.89 21.95 275.39 21.85C275.89 21.75 276.373 21.6083 276.84 21.425L278.34 22.95C277.657 23.2833 276.94 23.5417 276.19 23.725C275.44 23.9083 274.657 24 273.84 24ZM280.84 22V19H277.84V17H280.84V14H282.84V17H285.84V19H282.84V22H280.84ZM272.44 18.6L268.19 14.35L269.59 12.95L272.44 15.8L282.44 5.775L283.84 7.175L272.44 18.6Z" fill="#48FF5B"/>
</g>
</g>
<g filter="url(#filter7_ddd_1758_3069)">
<path d="M239.465 34.85C240.174 34.85 240.804 34.976 241.355 35.228C241.905 35.4707 242.335 35.83 242.643 36.306C242.96 36.7727 243.119 37.3513 243.119 38.042C243.119 38.4433 243.058 38.84 242.937 39.232C242.815 39.624 242.619 39.9787 242.349 40.296C242.087 40.6133 241.733 40.87 241.285 41.066C240.846 41.2527 240.305 41.346 239.661 41.346H238.163V45H236.707V34.85H239.465ZM239.633 39.932C240.155 39.932 240.557 39.834 240.837 39.638C241.126 39.4327 241.327 39.19 241.439 38.91C241.551 38.6207 241.607 38.35 241.607 38.098C241.607 37.9113 241.574 37.7153 241.509 37.51C241.443 37.2953 241.336 37.0947 241.187 36.908C241.047 36.712 240.855 36.558 240.613 36.446C240.37 36.3247 240.071 36.264 239.717 36.264H238.163V39.932H239.633ZM241.341 40.8L243.973 45H242.265L239.591 40.828L241.341 40.8ZM248.22 45.14C247.548 45.14 246.97 45.0093 246.484 44.748C245.999 44.4773 245.626 44.1087 245.364 43.642C245.103 43.166 244.972 42.6293 244.972 42.032C244.972 41.4533 245.117 40.9307 245.406 40.464C245.705 39.988 246.102 39.61 246.596 39.33C247.091 39.05 247.642 38.91 248.248 38.91C249.032 38.91 249.681 39.1387 250.194 39.596C250.717 40.044 251.067 40.6787 251.244 41.5L246.47 43.152L246.134 42.34L249.97 40.94L249.676 41.136C249.564 40.8373 249.387 40.5807 249.144 40.366C248.902 40.142 248.57 40.03 248.15 40.03C247.628 40.03 247.198 40.212 246.862 40.576C246.536 40.9307 246.372 41.388 246.372 41.948C246.372 42.5453 246.55 43.026 246.904 43.39C247.259 43.754 247.707 43.936 248.248 43.936C248.5 43.936 248.743 43.894 248.976 43.81C249.21 43.7167 249.429 43.5953 249.634 43.446L250.278 44.496C249.98 44.692 249.648 44.8507 249.284 44.972C248.93 45.084 248.575 45.14 248.22 45.14ZM255.688 47.912C255.24 47.912 254.848 47.856 254.512 47.744C254.176 47.6413 253.872 47.5013 253.602 47.324C253.34 47.1467 253.088 46.9507 252.846 46.736L253.686 45.77C253.975 46.05 254.274 46.2693 254.582 46.428C254.899 46.5867 255.258 46.666 255.66 46.666C256.294 46.666 256.784 46.5167 257.13 46.218C257.475 45.9193 257.652 45.518 257.662 45.014V43.488L257.76 43.754C257.592 44.146 257.293 44.4773 256.864 44.748C256.444 45.0093 255.921 45.14 255.296 45.14C254.754 45.14 254.26 45.0047 253.812 44.734C253.364 44.4633 253.004 44.0947 252.734 43.628C252.463 43.1613 252.328 42.634 252.328 42.046C252.328 41.4393 252.468 40.9027 252.748 40.436C253.037 39.96 253.415 39.5867 253.882 39.316C254.348 39.0453 254.848 38.91 255.38 38.91C255.902 38.91 256.369 39.008 256.78 39.204C257.2 39.4 257.508 39.652 257.704 39.96L257.634 40.198L257.774 39.148H259.076V45.042C259.076 45.574 258.936 46.0547 258.656 46.484C258.376 46.9227 257.984 47.268 257.48 47.52C256.976 47.7813 256.378 47.912 255.688 47.912ZM253.756 42.004C253.756 42.3773 253.84 42.7133 254.008 43.012C254.185 43.3107 254.418 43.5487 254.708 43.726C255.006 43.894 255.338 43.978 255.702 43.978C256.196 43.978 256.616 43.852 256.962 43.6C257.307 43.3387 257.54 43.0073 257.662 42.606V41.402C257.54 41.0007 257.302 40.6787 256.948 40.436C256.593 40.184 256.178 40.058 255.702 40.058C255.338 40.058 255.006 40.142 254.708 40.31C254.418 40.478 254.185 40.7067 254.008 40.996C253.84 41.2853 253.756 41.6213 253.756 42.004ZM261.281 39.148H262.695V45H261.281V39.148ZM261.211 37.048C261.211 36.8333 261.295 36.6513 261.463 36.502C261.64 36.3527 261.832 36.278 262.037 36.278C262.242 36.278 262.429 36.3527 262.597 36.502C262.765 36.6513 262.849 36.8333 262.849 37.048C262.849 37.2813 262.765 37.468 262.597 37.608C262.429 37.748 262.242 37.818 262.037 37.818C261.832 37.818 261.64 37.748 261.463 37.608C261.295 37.468 261.211 37.2813 261.211 37.048ZM266.598 45.126C266.169 45.126 265.758 45.0513 265.366 44.902C264.974 44.7433 264.643 44.5193 264.372 44.23L264.974 43.418C265.217 43.6513 265.469 43.8287 265.73 43.95C266.001 44.0713 266.253 44.132 266.486 44.132C266.757 44.132 266.995 44.0807 267.2 43.978C267.405 43.866 267.508 43.684 267.508 43.432C267.508 43.2267 267.438 43.068 267.298 42.956C267.167 42.844 266.999 42.7507 266.794 42.676C266.589 42.6013 266.369 42.5313 266.136 42.466C265.651 42.3073 265.277 42.0833 265.016 41.794C264.764 41.4953 264.638 41.1453 264.638 40.744C264.638 40.436 264.713 40.1467 264.862 39.876C265.021 39.596 265.259 39.372 265.576 39.204C265.893 39.0267 266.285 38.938 266.752 38.938C267.163 38.938 267.531 38.9893 267.858 39.092C268.185 39.1853 268.488 39.3487 268.768 39.582L268.222 40.436C268.054 40.268 267.853 40.142 267.62 40.058C267.396 39.9647 267.191 39.9133 267.004 39.904C266.752 39.904 266.533 39.9647 266.346 40.086C266.159 40.198 266.066 40.352 266.066 40.548C266.066 40.744 266.131 40.9027 266.262 41.024C266.393 41.136 266.561 41.2293 266.766 41.304C266.981 41.3693 267.195 41.4393 267.41 41.514C267.839 41.654 268.194 41.8453 268.474 42.088C268.763 42.3307 268.908 42.6853 268.908 43.152C268.908 43.5067 268.824 43.8333 268.656 44.132C268.488 44.4307 268.231 44.6733 267.886 44.86C267.55 45.0373 267.121 45.126 266.598 45.126ZM271.261 36.586H272.689V39.162H274.257V40.268H272.689V45H271.261V40.268H270.225V39.162H271.261V36.586ZM277.074 39.148L277.214 40.828L277.158 40.604C277.317 40.2493 277.536 39.946 277.816 39.694C278.105 39.442 278.404 39.2507 278.712 39.12C279.029 38.98 279.295 38.91 279.51 38.91L279.44 40.31C279.001 40.282 278.614 40.366 278.278 40.562C277.951 40.758 277.695 41.0193 277.508 41.346C277.321 41.6727 277.228 42.0227 277.228 42.396V45H275.814V39.148H277.074ZM283.446 45.14C282.895 45.14 282.396 45.0233 281.948 44.79C281.5 44.5567 281.145 44.216 280.884 43.768C280.622 43.3107 280.492 42.746 280.492 42.074C280.492 41.4207 280.627 40.8607 280.898 40.394C281.178 39.918 281.542 39.554 281.99 39.302C282.447 39.0407 282.942 38.91 283.474 38.91C284.034 38.91 284.496 39.0267 284.86 39.26C285.224 39.4933 285.504 39.7733 285.7 40.1L285.616 40.324L285.756 39.148H287.058V45H285.644V43.516L285.784 43.866C285.746 43.9407 285.667 44.048 285.546 44.188C285.424 44.328 285.266 44.4727 285.07 44.622C284.874 44.762 284.636 44.8833 284.356 44.986C284.085 45.0887 283.782 45.14 283.446 45.14ZM283.824 43.978C284.29 43.978 284.682 43.8567 285 43.614C285.326 43.362 285.541 43.0213 285.644 42.592V41.388C285.532 41.0053 285.303 40.688 284.958 40.436C284.622 40.184 284.23 40.058 283.782 40.058C283.446 40.058 283.138 40.142 282.858 40.31C282.578 40.4687 282.354 40.6973 282.186 40.996C282.018 41.2853 281.934 41.6213 281.934 42.004C281.934 42.3773 282.018 42.7133 282.186 43.012C282.363 43.3107 282.596 43.5487 282.886 43.726C283.175 43.894 283.488 43.978 283.824 43.978ZM289.827 36.586H291.255V39.162H292.823V40.268H291.255V45H289.827V40.268H288.791V39.162H289.827V36.586ZM294.381 39.148H295.795V45H294.381V39.148ZM294.311 37.048C294.311 36.8333 294.395 36.6513 294.563 36.502C294.74 36.3527 294.931 36.278 295.137 36.278C295.342 36.278 295.529 36.3527 295.697 36.502C295.865 36.6513 295.949 36.8333 295.949 37.048C295.949 37.2813 295.865 37.468 295.697 37.608C295.529 37.748 295.342 37.818 295.137 37.818C294.931 37.818 294.74 37.748 294.563 37.608C294.395 37.468 294.311 37.2813 294.311 37.048ZM297.5 42.018C297.5 41.43 297.64 40.9027 297.92 40.436C298.2 39.96 298.587 39.5867 299.082 39.316C299.576 39.0453 300.141 38.91 300.776 38.91C301.42 38.91 301.98 39.0453 302.456 39.316C302.941 39.5867 303.314 39.96 303.576 40.436C303.846 40.9027 303.982 41.43 303.982 42.018C303.982 42.606 303.846 43.138 303.576 43.614C303.305 44.0807 302.927 44.454 302.442 44.734C301.966 45.0047 301.401 45.14 300.748 45.14C300.132 45.14 299.576 45.014 299.082 44.762C298.596 44.51 298.209 44.1507 297.92 43.684C297.64 43.208 297.5 42.6527 297.5 42.018ZM298.928 42.032C298.928 42.396 299.007 42.7273 299.166 43.026C299.324 43.3153 299.539 43.5487 299.81 43.726C300.09 43.894 300.398 43.978 300.734 43.978C301.266 43.978 301.7 43.7913 302.036 43.418C302.381 43.0447 302.554 42.5827 302.554 42.032C302.554 41.4813 302.381 41.0193 302.036 40.646C301.7 40.2633 301.266 40.072 300.734 40.072C300.388 40.072 300.08 40.1607 299.81 40.338C299.539 40.5153 299.324 40.7533 299.166 41.052C299.007 41.3507 298.928 41.6773 298.928 42.032ZM306.961 39.148L307.087 40.506L307.031 40.31C307.218 39.89 307.517 39.554 307.927 39.302C308.347 39.05 308.837 38.924 309.397 38.924C309.948 38.924 310.401 39.0873 310.755 39.414C311.11 39.7313 311.292 40.1513 311.301 40.674V45H309.887V41.164C309.878 40.8653 309.789 40.6227 309.621 40.436C309.453 40.24 309.192 40.1373 308.837 40.128C308.343 40.128 307.927 40.3333 307.591 40.744C307.265 41.1547 307.101 41.682 307.101 42.326V45H305.687V39.148H306.961ZM248.148 65.23C247.989 65.3327 247.76 65.4587 247.462 65.608C247.172 65.748 246.827 65.8693 246.426 65.972C246.034 66.0747 245.604 66.1213 245.138 66.112C244.344 66.1027 243.635 65.9627 243.01 65.692C242.384 65.4213 241.848 65.0527 241.4 64.586C240.961 64.11 240.625 63.5687 240.392 62.962C240.158 62.346 240.042 61.6927 240.042 61.002C240.042 60.2367 240.163 59.5367 240.406 58.902C240.658 58.258 241.008 57.7027 241.456 57.236C241.904 56.76 242.431 56.3913 243.038 56.13C243.654 55.8687 244.326 55.738 245.054 55.738C245.67 55.738 246.23 55.822 246.734 55.99C247.238 56.158 247.662 56.3493 248.008 56.564L247.42 57.936C247.149 57.7493 246.813 57.572 246.412 57.404C246.02 57.236 245.581 57.152 245.096 57.152C244.461 57.152 243.873 57.32 243.332 57.656C242.8 57.992 242.37 58.4447 242.044 59.014C241.726 59.5833 241.568 60.2227 241.568 60.932C241.568 61.6507 241.712 62.2947 242.002 62.864C242.3 63.4333 242.72 63.8813 243.262 64.208C243.803 64.5347 244.438 64.698 245.166 64.698C245.688 64.698 246.146 64.6187 246.538 64.46C246.939 64.3013 247.266 64.1193 247.518 63.914L248.148 65.23ZM249.552 63.018C249.552 62.43 249.692 61.9027 249.972 61.436C250.252 60.96 250.64 60.5867 251.134 60.316C251.629 60.0453 252.194 59.91 252.828 59.91C253.472 59.91 254.032 60.0453 254.508 60.316C254.994 60.5867 255.367 60.96 255.628 61.436C255.899 61.9027 256.034 62.43 256.034 63.018C256.034 63.606 255.899 64.138 255.628 64.614C255.358 65.0807 254.98 65.454 254.494 65.734C254.018 66.0047 253.454 66.14 252.8 66.14C252.184 66.14 251.629 66.014 251.134 65.762C250.649 65.51 250.262 65.1507 249.972 64.684C249.692 64.208 249.552 63.6527 249.552 63.018ZM250.98 63.032C250.98 63.396 251.06 63.7273 251.218 64.026C251.377 64.3153 251.592 64.5487 251.862 64.726C252.142 64.894 252.45 64.978 252.786 64.978C253.318 64.978 253.752 64.7913 254.088 64.418C254.434 64.0447 254.606 63.5827 254.606 63.032C254.606 62.4813 254.434 62.0193 254.088 61.646C253.752 61.2633 253.318 61.072 252.786 61.072C252.441 61.072 252.133 61.1607 251.862 61.338C251.592 61.5153 251.377 61.7533 251.218 62.052C251.06 62.3507 250.98 62.6773 250.98 63.032ZM259.014 60.148L259.14 61.422L259.07 61.31C259.285 60.8713 259.588 60.5307 259.98 60.288C260.381 60.036 260.839 59.91 261.352 59.91C261.837 59.91 262.243 60.022 262.57 60.246C262.897 60.47 263.097 60.7873 263.172 61.198L263.102 61.254C263.335 60.834 263.648 60.5073 264.04 60.274C264.432 60.0313 264.843 59.91 265.272 59.91C265.851 59.91 266.308 60.0733 266.644 60.4C266.98 60.7173 267.153 61.1373 267.162 61.66V66H265.762V62.192C265.753 61.8933 265.683 61.646 265.552 61.45C265.431 61.254 265.207 61.1467 264.88 61.128C264.544 61.128 264.245 61.2307 263.984 61.436C263.732 61.6413 263.531 61.9073 263.382 62.234C263.242 62.5607 263.167 62.9107 263.158 63.284V66H261.744V62.192C261.735 61.8933 261.66 61.646 261.52 61.45C261.389 61.254 261.161 61.1467 260.834 61.128C260.507 61.128 260.213 61.2307 259.952 61.436C259.7 61.6413 259.504 61.912 259.364 62.248C259.224 62.5747 259.154 62.9247 259.154 63.298V66H257.74V60.148H259.014ZM272.875 66.14C272.445 66.14 272.03 66.0467 271.629 65.86C271.237 65.664 270.929 65.398 270.705 65.062L270.789 64.628V68.814H269.375V60.05H270.593L270.789 61.492L270.649 61.086C270.929 60.7407 271.279 60.4607 271.699 60.246C272.128 60.022 272.609 59.91 273.141 59.91C273.691 59.91 274.186 60.0407 274.625 60.302C275.063 60.5633 275.409 60.932 275.661 61.408C275.913 61.8747 276.039 62.4253 276.039 63.06C276.039 63.6947 275.899 64.2453 275.619 64.712C275.348 65.1693 274.975 65.524 274.499 65.776C274.023 66.0187 273.481 66.14 272.875 66.14ZM272.595 65.02C272.959 65.02 273.29 64.936 273.589 64.768C273.897 64.6 274.139 64.3713 274.317 64.082C274.503 63.7833 274.597 63.4473 274.597 63.074C274.597 62.6913 274.513 62.3507 274.345 62.052C274.177 61.7533 273.948 61.52 273.659 61.352C273.369 61.184 273.047 61.1 272.693 61.1C272.207 61.1 271.797 61.2307 271.461 61.492C271.134 61.7533 270.91 62.0987 270.789 62.528V63.578C270.863 63.998 271.069 64.3433 271.405 64.614C271.741 64.8847 272.137 65.02 272.595 65.02ZM277.742 55.122H279.156V66H277.742V55.122ZM284.109 66.14C283.437 66.14 282.858 66.0093 282.373 65.748C281.888 65.4773 281.514 65.1087 281.253 64.642C280.992 64.166 280.861 63.6293 280.861 63.032C280.861 62.4533 281.006 61.9307 281.295 61.464C281.594 60.988 281.99 60.61 282.485 60.33C282.98 60.05 283.53 59.91 284.137 59.91C284.921 59.91 285.57 60.1387 286.083 60.596C286.606 61.044 286.956 61.6787 287.133 62.5L282.359 64.152L282.023 63.34L285.859 61.94L285.565 62.136C285.453 61.8373 285.276 61.5807 285.033 61.366C284.79 61.142 284.459 61.03 284.039 61.03C283.516 61.03 283.087 61.212 282.751 61.576C282.424 61.9307 282.261 62.388 282.261 62.948C282.261 63.5453 282.438 64.026 282.793 64.39C283.148 64.754 283.596 64.936 284.137 64.936C284.389 64.936 284.632 64.894 284.865 64.81C285.098 64.7167 285.318 64.5953 285.523 64.446L286.167 65.496C285.868 65.692 285.537 65.8507 285.173 65.972C284.818 66.084 284.464 66.14 284.109 66.14ZM289.28 57.586H290.708V60.162H292.276V61.268H290.708V66H289.28V61.268H288.244V60.162H289.28V57.586ZM296.578 66.14C295.906 66.14 295.327 66.0093 294.842 65.748C294.356 65.4773 293.983 65.1087 293.722 64.642C293.46 64.166 293.33 63.6293 293.33 63.032C293.33 62.4533 293.474 61.9307 293.764 61.464C294.062 60.988 294.459 60.61 294.954 60.33C295.448 60.05 295.999 59.91 296.606 59.91C297.39 59.91 298.038 60.1387 298.552 60.596C299.074 61.044 299.424 61.6787 299.602 62.5L294.828 64.152L294.492 63.34L298.328 61.94L298.034 62.136C297.922 61.8373 297.744 61.5807 297.502 61.366C297.259 61.142 296.928 61.03 296.508 61.03C295.985 61.03 295.556 61.212 295.22 61.576C294.893 61.9307 294.73 62.388 294.73 62.948C294.73 63.5453 294.907 64.026 295.262 64.39C295.616 64.754 296.064 64.936 296.606 64.936C296.858 64.936 297.1 64.894 297.334 64.81C297.567 64.7167 297.786 64.5953 297.992 64.446L298.636 65.496C298.337 65.692 298.006 65.8507 297.642 65.972C297.287 66.084 296.932 66.14 296.578 66.14ZM303.583 66.14C303.032 66.14 302.538 66.014 302.099 65.762C301.66 65.5007 301.315 65.132 301.063 64.656C300.811 64.18 300.685 63.6247 300.685 62.99C300.685 62.3367 300.82 61.7813 301.091 61.324C301.362 60.8667 301.726 60.5167 302.183 60.274C302.65 60.0313 303.172 59.91 303.751 59.91C304.199 59.91 304.624 60.0033 305.025 60.19C305.436 60.3673 305.758 60.6193 305.991 60.946L305.935 61.436V55.122H307.349V66H305.921V64.6L306.075 64.978C305.795 65.314 305.44 65.594 305.011 65.818C304.591 66.0327 304.115 66.14 303.583 66.14ZM304.017 64.95C304.512 64.95 304.922 64.824 305.249 64.572C305.585 64.3107 305.809 63.9653 305.921 63.536V62.374C305.818 61.982 305.59 61.66 305.235 61.408C304.89 61.156 304.484 61.03 304.017 61.03C303.681 61.03 303.368 61.114 303.079 61.282C302.79 61.4407 302.556 61.6693 302.379 61.968C302.211 62.2573 302.127 62.5933 302.127 62.976C302.127 63.34 302.211 63.6713 302.379 63.97C302.556 64.2687 302.79 64.5067 303.079 64.684C303.368 64.8613 303.681 64.95 304.017 64.95Z" fill="white"/>
</g>
<g filter="url(#filter8_ddd_1758_3069)">
<path d="M330.26 45L328.84 43.58L335.42 37L328.84 30.42L330.26 29L338.26 37L330.26 45Z" fill="#A8A8A8"/>
</g>
<g filter="url(#filter9_ddd_1758_3069)">
<mask id="mask3_1758_3069" style="mask-type:alpha" maskUnits="userSpaceOnUse" x="361" y="2" width="25" height="24">
<rect x="361.26" y="2" width="24" height="24" fill="#D9D9D9"/>
</mask>
<g mask="url(#mask3_1758_3069)">
<path d="M366.26 23V6H375.26L375.66 8H381.26V18H374.26L373.86 16H368.26V23H366.26ZM375.91 16H379.26V10H374.01L373.61 8H368.26V14H375.51L375.91 16Z" fill="#A8A8A8"/>
</g>
</g>
<g filter="url(#filter10_ddd_1758_3069)">
<path d="M363.795 44.104C363.655 44.2253 363.459 44.3467 363.207 44.468C362.955 44.5893 362.67 44.7013 362.353 44.804C362.045 44.8973 361.727 44.972 361.401 45.028C361.074 45.084 360.766 45.112 360.477 45.112C359.394 45.112 358.456 44.8973 357.663 44.468C356.869 44.0293 356.253 43.4367 355.815 42.69C355.385 41.9433 355.171 41.094 355.171 40.142C355.171 39.274 355.306 38.504 355.577 37.832C355.857 37.16 356.239 36.5953 356.725 36.138C357.21 35.6807 357.761 35.3353 358.377 35.102C359.002 34.8593 359.665 34.738 360.365 34.738C360.971 34.738 361.531 34.808 362.045 34.948C362.558 35.088 363.006 35.2653 363.389 35.48L362.899 36.838C362.712 36.726 362.479 36.6233 362.199 36.53C361.928 36.4273 361.643 36.348 361.345 36.292C361.055 36.236 360.789 36.208 360.547 36.208C359.763 36.208 359.081 36.362 358.503 36.67C357.924 36.978 357.476 37.4167 357.159 37.986C356.841 38.5553 356.683 39.232 356.683 40.016C356.683 40.7347 356.841 41.3693 357.159 41.92C357.485 42.4613 357.933 42.886 358.503 43.194C359.081 43.502 359.749 43.656 360.505 43.656C360.841 43.656 361.167 43.6233 361.485 43.558C361.811 43.4927 362.087 43.3947 362.311 43.264V41.388H360.337V39.974H363.795V44.104ZM368.456 45.14C367.905 45.14 367.406 45.0233 366.958 44.79C366.51 44.5567 366.155 44.216 365.894 43.768C365.632 43.3107 365.502 42.746 365.502 42.074C365.502 41.4207 365.637 40.8607 365.908 40.394C366.188 39.918 366.552 39.554 367 39.302C367.457 39.0407 367.952 38.91 368.484 38.91C369.044 38.91 369.506 39.0267 369.87 39.26C370.234 39.4933 370.514 39.7733 370.71 40.1L370.626 40.324L370.766 39.148H372.068V45H370.654V43.516L370.794 43.866C370.756 43.9407 370.677 44.048 370.556 44.188C370.434 44.328 370.276 44.4727 370.08 44.622C369.884 44.762 369.646 44.8833 369.366 44.986C369.095 45.0887 368.792 45.14 368.456 45.14ZM368.834 43.978C369.3 43.978 369.692 43.8567 370.01 43.614C370.336 43.362 370.551 43.0213 370.654 42.592V41.388C370.542 41.0053 370.313 40.688 369.968 40.436C369.632 40.184 369.24 40.058 368.792 40.058C368.456 40.058 368.148 40.142 367.868 40.31C367.588 40.4687 367.364 40.6973 367.196 40.996C367.028 41.2853 366.944 41.6213 366.944 42.004C366.944 42.3773 367.028 42.7133 367.196 43.012C367.373 43.3107 367.606 43.5487 367.896 43.726C368.185 43.894 368.498 43.978 368.834 43.978ZM375.551 39.148L375.677 40.422L375.607 40.31C375.822 39.8713 376.125 39.5307 376.517 39.288C376.918 39.036 377.376 38.91 377.889 38.91C378.374 38.91 378.78 39.022 379.107 39.246C379.434 39.47 379.634 39.7873 379.709 40.198L379.639 40.254C379.872 39.834 380.185 39.5073 380.577 39.274C380.969 39.0313 381.38 38.91 381.809 38.91C382.388 38.91 382.845 39.0733 383.181 39.4C383.517 39.7173 383.69 40.1373 383.699 40.66V45H382.299V41.192C382.29 40.8933 382.22 40.646 382.089 40.45C381.968 40.254 381.744 40.1467 381.417 40.128C381.081 40.128 380.782 40.2307 380.521 40.436C380.269 40.6413 380.068 40.9073 379.919 41.234C379.779 41.5607 379.704 41.9107 379.695 42.284V45H378.281V41.192C378.272 40.8933 378.197 40.646 378.057 40.45C377.926 40.254 377.698 40.1467 377.371 40.128C377.044 40.128 376.75 40.2307 376.489 40.436C376.237 40.6413 376.041 40.912 375.901 41.248C375.761 41.5747 375.691 41.9247 375.691 42.298V45H374.277V39.148H375.551ZM388.656 45.14C387.984 45.14 387.405 45.0093 386.92 44.748C386.435 44.4773 386.061 44.1087 385.8 43.642C385.539 43.166 385.408 42.6293 385.408 42.032C385.408 41.4533 385.553 40.9307 385.842 40.464C386.141 39.988 386.537 39.61 387.032 39.33C387.527 39.05 388.077 38.91 388.684 38.91C389.468 38.91 390.117 39.1387 390.63 39.596C391.153 40.044 391.503 40.6787 391.68 41.5L386.906 43.152L386.57 42.34L390.406 40.94L390.112 41.136C390 40.8373 389.823 40.5807 389.58 40.366C389.337 40.142 389.006 40.03 388.586 40.03C388.063 40.03 387.634 40.212 387.298 40.576C386.971 40.9307 386.808 41.388 386.808 41.948C386.808 42.5453 386.985 43.026 387.34 43.39C387.695 43.754 388.143 43.936 388.684 43.936C388.936 43.936 389.179 43.894 389.412 43.81C389.645 43.7167 389.865 43.5953 390.07 43.446L390.714 44.496C390.415 44.692 390.084 44.8507 389.72 44.972C389.365 45.084 389.011 45.14 388.656 45.14ZM363.991 57.768C363.636 57.5813 363.253 57.4227 362.843 57.292C362.432 57.1613 362.035 57.096 361.653 57.096C361.121 57.096 360.701 57.2173 360.393 57.46C360.085 57.6933 359.931 58.02 359.931 58.44C359.931 58.7293 360.033 58.9813 360.239 59.196C360.444 59.4107 360.71 59.5973 361.037 59.756C361.363 59.9147 361.709 60.064 362.073 60.204C362.493 60.3533 362.899 60.5447 363.291 60.778C363.683 61.002 364.005 61.3053 364.257 61.688C364.509 62.0707 364.635 62.584 364.635 63.228C364.635 63.76 364.499 64.2453 364.229 64.684C363.958 65.1227 363.571 65.4727 363.067 65.734C362.572 65.986 361.975 66.112 361.275 66.112C360.621 66.112 360.001 66.0093 359.413 65.804C358.834 65.5893 358.335 65.3373 357.915 65.048L358.573 63.886C358.899 64.138 359.301 64.3573 359.777 64.544C360.253 64.7307 360.705 64.824 361.135 64.824C361.452 64.824 361.76 64.7727 362.059 64.67C362.357 64.558 362.605 64.3853 362.801 64.152C363.006 63.9187 363.109 63.6107 363.109 63.228C363.109 62.9107 363.02 62.64 362.843 62.416C362.665 62.192 362.432 62.0007 362.143 61.842C361.863 61.6833 361.559 61.5433 361.233 61.422C360.915 61.3007 360.589 61.17 360.253 61.03C359.926 60.8807 359.623 60.6987 359.343 60.484C359.072 60.2693 358.848 60.008 358.671 59.7C358.503 59.3827 358.419 59 358.419 58.552C358.419 58.0013 358.545 57.5253 358.797 57.124C359.058 56.7227 359.417 56.4053 359.875 56.172C360.332 55.9387 360.855 55.8127 361.443 55.794C362.115 55.794 362.703 55.878 363.207 56.046C363.711 56.2047 364.154 56.4007 364.537 56.634L363.991 57.768ZM367.085 57.586H368.513V60.162H370.081V61.268H368.513V66H367.085V61.268H366.049V60.162H367.085V57.586ZM374.088 66.14C373.538 66.14 373.038 66.0233 372.59 65.79C372.142 65.5567 371.788 65.216 371.526 64.768C371.265 64.3107 371.134 63.746 371.134 63.074C371.134 62.4207 371.27 61.8607 371.54 61.394C371.82 60.918 372.184 60.554 372.632 60.302C373.09 60.0407 373.584 59.91 374.116 59.91C374.676 59.91 375.138 60.0267 375.502 60.26C375.866 60.4933 376.146 60.7733 376.342 61.1L376.258 61.324L376.398 60.148H377.7V66H376.286V64.516L376.426 64.866C376.389 64.9407 376.31 65.048 376.188 65.188C376.067 65.328 375.908 65.4727 375.712 65.622C375.516 65.762 375.278 65.8833 374.998 65.986C374.728 66.0887 374.424 66.14 374.088 66.14ZM374.466 64.978C374.933 64.978 375.325 64.8567 375.642 64.614C375.969 64.362 376.184 64.0213 376.286 63.592V62.388C376.174 62.0053 375.946 61.688 375.6 61.436C375.264 61.184 374.872 61.058 374.424 61.058C374.088 61.058 373.78 61.142 373.5 61.31C373.22 61.4687 372.996 61.6973 372.828 61.996C372.66 62.2853 372.576 62.6213 372.576 63.004C372.576 63.3773 372.66 63.7133 372.828 64.012C373.006 64.3107 373.239 64.5487 373.528 64.726C373.818 64.894 374.13 64.978 374.466 64.978ZM381.17 60.148L381.31 61.828L381.254 61.604C381.413 61.2493 381.632 60.946 381.912 60.694C382.201 60.442 382.5 60.2507 382.808 60.12C383.125 59.98 383.391 59.91 383.606 59.91L383.536 61.31C383.097 61.282 382.71 61.366 382.374 61.562C382.047 61.758 381.791 62.0193 381.604 62.346C381.417 62.6727 381.324 63.0227 381.324 63.396V66H379.91V60.148H381.17ZM385.802 57.586H387.23V60.162H388.798V61.268H387.23V66H385.802V61.268H384.766V60.162H385.802V57.586Z" fill="#A8A8A8"/>
</g>
<g filter="url(#filter11_ddd_1758_3069)">
<path d="M409.68 45L408.26 43.58L414.84 37L408.26 30.42L409.68 29L417.68 37L409.68 45Z" fill="#A8A8A8"/>
</g>
<g filter="url(#filter12_ddd_1758_3069)">
<mask id="mask4_1758_3069" style="mask-type:alpha" maskUnits="userSpaceOnUse" x="440" y="2" width="25" height="24">
<rect x="440.68" y="2" width="24" height="24" fill="#D9D9D9"/>
</mask>
<g mask="url(#mask4_1758_3069)">
<path d="M446.68 21.75C444.947 21.3 443.513 20.3667 442.38 18.95C441.247 17.5333 440.68 15.8833 440.68 14C440.68 12.1167 441.247 10.4667 442.38 9.05C443.513 7.63333 444.947 6.7 446.68 6.25V8.35C445.497 8.75 444.534 9.46667 443.793 10.5C443.051 11.5333 442.68 12.7 442.68 14C442.68 15.3 443.051 16.4667 443.793 17.5C444.534 18.5333 445.497 19.25 446.68 19.65V21.75ZM454.68 22C452.463 22 450.576 21.2208 449.018 19.6625C447.459 18.1042 446.68 16.2167 446.68 14C446.68 11.7833 447.459 9.89583 449.018 8.3375C450.576 6.77917 452.463 6 454.68 6C455.78 6 456.813 6.20833 457.78 6.625C458.747 7.04167 459.597 7.61667 460.33 8.35L458.93 9.75C458.38 9.2 457.743 8.77083 457.018 8.4625C456.293 8.15417 455.513 8 454.68 8C453.013 8 451.597 8.58333 450.43 9.75C449.263 10.9167 448.68 12.3333 448.68 14C448.68 15.6667 449.263 17.0833 450.43 18.25C451.597 19.4167 453.013 20 454.68 20C455.513 20 456.293 19.8458 457.018 19.5375C457.743 19.2292 458.38 18.8 458.93 18.25L460.33 19.65C459.597 20.3833 458.747 20.9583 457.78 21.375C456.813 21.7917 455.78 22 454.68 22ZM460.68 18L459.28 16.6L460.88 15H453.68V13H460.88L459.28 11.4L460.68 10L464.68 14L460.68 18Z" fill="#A8A8A8"/>
</g>
</g>
<g filter="url(#filter13_ddd_1758_3069)">
<path d="M443.215 44.104C443.075 44.2253 442.879 44.3467 442.627 44.468C442.375 44.5893 442.09 44.7013 441.773 44.804C441.465 44.8973 441.147 44.972 440.821 45.028C440.494 45.084 440.186 45.112 439.897 45.112C438.814 45.112 437.876 44.8973 437.083 44.468C436.289 44.0293 435.673 43.4367 435.235 42.69C434.805 41.9433 434.591 41.094 434.591 40.142C434.591 39.274 434.726 38.504 434.997 37.832C435.277 37.16 435.659 36.5953 436.145 36.138C436.63 35.6807 437.181 35.3353 437.797 35.102C438.422 34.8593 439.085 34.738 439.785 34.738C440.391 34.738 440.951 34.808 441.465 34.948C441.978 35.088 442.426 35.2653 442.809 35.48L442.319 36.838C442.132 36.726 441.899 36.6233 441.619 36.53C441.348 36.4273 441.063 36.348 440.765 36.292C440.475 36.236 440.209 36.208 439.967 36.208C439.183 36.208 438.501 36.362 437.923 36.67C437.344 36.978 436.896 37.4167 436.579 37.986C436.261 38.5553 436.103 39.232 436.103 40.016C436.103 40.7347 436.261 41.3693 436.579 41.92C436.905 42.4613 437.353 42.886 437.923 43.194C438.501 43.502 439.169 43.656 439.925 43.656C440.261 43.656 440.587 43.6233 440.905 43.558C441.231 43.4927 441.507 43.3947 441.731 43.264V41.388H439.757V39.974H443.215V44.104ZM447.876 45.14C447.325 45.14 446.826 45.0233 446.378 44.79C445.93 44.5567 445.575 44.216 445.314 43.768C445.052 43.3107 444.922 42.746 444.922 42.074C444.922 41.4207 445.057 40.8607 445.328 40.394C445.608 39.918 445.972 39.554 446.42 39.302C446.877 39.0407 447.372 38.91 447.904 38.91C448.464 38.91 448.926 39.0267 449.29 39.26C449.654 39.4933 449.934 39.7733 450.13 40.1L450.046 40.324L450.186 39.148H451.488V45H450.074V43.516L450.214 43.866C450.176 43.9407 450.097 44.048 449.976 44.188C449.854 44.328 449.696 44.4727 449.5 44.622C449.304 44.762 449.066 44.8833 448.786 44.986C448.515 45.0887 448.212 45.14 447.876 45.14ZM448.254 43.978C448.72 43.978 449.112 43.8567 449.43 43.614C449.756 43.362 449.971 43.0213 450.074 42.592V41.388C449.962 41.0053 449.733 40.688 449.388 40.436C449.052 40.184 448.66 40.058 448.212 40.058C447.876 40.058 447.568 40.142 447.288 40.31C447.008 40.4687 446.784 40.6973 446.616 40.996C446.448 41.2853 446.364 41.6213 446.364 42.004C446.364 42.3773 446.448 42.7133 446.616 43.012C446.793 43.3107 447.026 43.5487 447.316 43.726C447.605 43.894 447.918 43.978 448.254 43.978ZM454.971 39.148L455.097 40.422L455.027 40.31C455.242 39.8713 455.545 39.5307 455.937 39.288C456.339 39.036 456.796 38.91 457.309 38.91C457.795 38.91 458.201 39.022 458.527 39.246C458.854 39.47 459.055 39.7873 459.129 40.198L459.059 40.254C459.293 39.834 459.605 39.5073 459.997 39.274C460.389 39.0313 460.8 38.91 461.229 38.91C461.808 38.91 462.265 39.0733 462.601 39.4C462.937 39.7173 463.11 40.1373 463.119 40.66V45H461.719V41.192C461.71 40.8933 461.64 40.646 461.509 40.45C461.388 40.254 461.164 40.1467 460.837 40.128C460.501 40.128 460.203 40.2307 459.941 40.436C459.689 40.6413 459.489 40.9073 459.339 41.234C459.199 41.5607 459.125 41.9107 459.115 42.284V45H457.701V41.192C457.692 40.8933 457.617 40.646 457.477 40.45C457.347 40.254 457.118 40.1467 456.791 40.128C456.465 40.128 456.171 40.2307 455.909 40.436C455.657 40.6413 455.461 40.912 455.321 41.248C455.181 41.5747 455.111 41.9247 455.111 42.298V45H453.697V39.148H454.971ZM468.076 45.14C467.404 45.14 466.825 45.0093 466.34 44.748C465.855 44.4773 465.481 44.1087 465.22 43.642C464.959 43.166 464.828 42.6293 464.828 42.032C464.828 41.4533 464.973 40.9307 465.262 40.464C465.561 39.988 465.957 39.61 466.452 39.33C466.947 39.05 467.497 38.91 468.104 38.91C468.888 38.91 469.537 39.1387 470.05 39.596C470.573 40.044 470.923 40.6787 471.1 41.5L466.326 43.152L465.99 42.34L469.826 40.94L469.532 41.136C469.42 40.8373 469.243 40.5807 469 40.366C468.757 40.142 468.426 40.03 468.006 40.03C467.483 40.03 467.054 40.212 466.718 40.576C466.391 40.9307 466.228 41.388 466.228 41.948C466.228 42.5453 466.405 43.026 466.76 43.39C467.115 43.754 467.563 43.936 468.104 43.936C468.356 43.936 468.599 43.894 468.832 43.81C469.065 43.7167 469.285 43.5953 469.49 43.446L470.134 44.496C469.835 44.692 469.504 44.8507 469.14 44.972C468.785 45.084 468.431 45.14 468.076 45.14ZM441.435 55.85H448.085V57.264H442.891V60.19H447.525V61.604H442.891V64.586H448.281V66H441.435V55.85ZM451.546 60.148L451.672 61.506L451.616 61.31C451.803 60.89 452.102 60.554 452.512 60.302C452.932 60.05 453.422 59.924 453.982 59.924C454.533 59.924 454.986 60.0873 455.34 60.414C455.695 60.7313 455.877 61.1513 455.886 61.674V66H454.472V62.164C454.463 61.8653 454.374 61.6227 454.206 61.436C454.038 61.24 453.777 61.1373 453.422 61.128C452.928 61.128 452.512 61.3333 452.176 61.744C451.85 62.1547 451.686 62.682 451.686 63.326V66H450.272V60.148H451.546ZM460.5 66.14C459.95 66.14 459.455 66.014 459.016 65.762C458.578 65.5007 458.232 65.132 457.98 64.656C457.728 64.18 457.602 63.6247 457.602 62.99C457.602 62.3367 457.738 61.7813 458.008 61.324C458.279 60.8667 458.643 60.5167 459.1 60.274C459.567 60.0313 460.09 59.91 460.668 59.91C461.116 59.91 461.541 60.0033 461.942 60.19C462.353 60.3673 462.675 60.6193 462.908 60.946L462.852 61.436V55.122H464.266V66H462.838V64.6L462.992 64.978C462.712 65.314 462.358 65.594 461.928 65.818C461.508 66.0327 461.032 66.14 460.5 66.14ZM460.934 64.95C461.429 64.95 461.84 64.824 462.166 64.572C462.502 64.3107 462.726 63.9653 462.838 63.536V62.374C462.736 61.982 462.507 61.66 462.152 61.408C461.807 61.156 461.401 61.03 460.934 61.03C460.598 61.03 460.286 61.114 459.996 61.282C459.707 61.4407 459.474 61.6693 459.296 61.968C459.128 62.2573 459.044 62.5933 459.044 62.976C459.044 63.34 459.128 63.6713 459.296 63.97C459.474 64.2687 459.707 64.5067 459.996 64.684C460.286 64.8613 460.598 64.95 460.934 64.95Z" fill="#A8A8A8"/>
</g>
<defs>
<filter id="filter0_ddd_1758_3069" x="24" y="3.82" width="30" height="27" filterUnits="userSpaceOnUse" color-interpolation-filters="sRGB">
<feFlood flood-opacity="0" result="BackgroundImageFix"/>
<feColorMatrix in="SourceAlpha" type="matrix" values="0 0 0 0 0 0 0 0 0 0 0 0 0 0 0 0 0 0 127 0" result="hardAlpha"/>
<feOffset dy="1"/>
<feGaussianBlur stdDeviation="2.5"/>
<feColorMatrix type="matrix" values="0 0 0 0 0.532764 0 0 0 0 0.0516202 0 0 0 0 0.0516202 0 0 0 0.2 0"/>
<feBlend mode="normal" in2="BackgroundImageFix" result="effect1_dropShadow_1758_3069"/>
<feColorMatrix in="SourceAlpha" type="matrix" values="0 0 0 0 0 0 0 0 0 0 0 0 0 0 0 0 0 0 127 0" result="hardAlpha"/>
<feOffset dy="3"/>
<feGaussianBlur stdDeviation="2"/>
<feColorMatrix type="matrix" values="0 0 0 0 0.482764 0 0 0 0 0.0467756 0 0 0 0 0.0467756 0 0 0 0.12 0"/>
<feBlend mode="normal" in2="effect1_dropShadow_1758_3069" result="effect2_dropShadow_1758_3069"/>
<feColorMatrix in="SourceAlpha" type="matrix" values="0 0 0 0 0 0 0 0 0 0 0 0 0 0 0 0 0 0 127 0" result="hardAlpha"/>
<feOffset dy="2"/>
<feGaussianBlur stdDeviation="2"/>
<feColorMatrix type="matrix" values="0 0 0 0 0.357764 0 0 0 0 0.100254 0 0 0 0 0.100254 0 0 0 0.14 0"/>
<feBlend mode="normal" in2="effect2_dropShadow_1758_3069" result="effect3_dropShadow_1758_3069"/>
<feBlend mode="normal" in="SourceGraphic" in2="effect3_dropShadow_1758_3069" result="shape"/>
</filter>
<filter id="filter1_ddd_1758_3069" x="0.20166" y="32.558" width="77.3076" height="42.076" filterUnits="userSpaceOnUse" color-interpolation-filters="sRGB">
<feFlood flood-opacity="0" result="BackgroundImageFix"/>
<feColorMatrix in="SourceAlpha" type="matrix" values="0 0 0 0 0 0 0 0 0 0 0 0 0 0 0 0 0 0 127 0" result="hardAlpha"/>
<feOffset dy="1"/>
<feGaussianBlur stdDeviation="2.5"/>
<feColorMatrix type="matrix" values="0 0 0 0 0.532764 0 0 0 0 0.0516202 0 0 0 0 0.0516202 0 0 0 0.2 0"/>
<feBlend mode="normal" in2="BackgroundImageFix" result="effect1_dropShadow_1758_3069"/>
<feColorMatrix in="SourceAlpha" type="matrix" values="0 0 0 0 0 0 0 0 0 0 0 0 0 0 0 0 0 0 127 0" result="hardAlpha"/>
<feOffset dy="3"/>
<feGaussianBlur stdDeviation="2"/>
<feColorMatrix type="matrix" values="0 0 0 0 0.482764 0 0 0 0 0.0467756 0 0 0 0 0.0467756 0 0 0 0.12 0"/>
<feBlend mode="normal" in2="effect1_dropShadow_1758_3069" result="effect2_dropShadow_1758_3069"/>
<feColorMatrix in="SourceAlpha" type="matrix" values="0 0 0 0 0 0 0 0 0 0 0 0 0 0 0 0 0 0 127 0" result="hardAlpha"/>
<feOffset dy="2"/>
<feGaussianBlur stdDeviation="2"/>
<feColorMatrix type="matrix" values="0 0 0 0 0.357764 0 0 0 0 0.100254 0 0 0 0 0.100254 0 0 0 0.14 0"/>
<feBlend mode="normal" in2="effect2_dropShadow_1758_3069" result="effect3_dropShadow_1758_3069"/>
<feBlend mode="normal" in="SourceGraphic" in2="effect3_dropShadow_1758_3069" result="shape"/>
</filter>
<filter id="filter2_ddd_1758_3069" x="85" y="25" width="19.4199" height="27" filterUnits="userSpaceOnUse" color-interpolation-filters="sRGB">
<feFlood flood-opacity="0" result="BackgroundImageFix"/>
<feColorMatrix in="SourceAlpha" type="matrix" values="0 0 0 0 0 0 0 0 0 0 0 0 0 0 0 0 0 0 127 0" result="hardAlpha"/>
<feOffset dy="1"/>
<feGaussianBlur stdDeviation="2.5"/>
<feColorMatrix type="matrix" values="0 0 0 0 0.532764 0 0 0 0 0.0516202 0 0 0 0 0.0516202 0 0 0 0.2 0"/>
<feBlend mode="normal" in2="BackgroundImageFix" result="effect1_dropShadow_1758_3069"/>
<feColorMatrix in="SourceAlpha" type="matrix" values="0 0 0 0 0 0 0 0 0 0 0 0 0 0 0 0 0 0 127 0" result="hardAlpha"/>
<feOffset dy="3"/>
<feGaussianBlur stdDeviation="2"/>
<feColorMatrix type="matrix" values="0 0 0 0 0.482764 0 0 0 0 0.0467756 0 0 0 0 0.0467756 0 0 0 0.12 0"/>
<feBlend mode="normal" in2="effect1_dropShadow_1758_3069" result="effect2_dropShadow_1758_3069"/>
<feColorMatrix in="SourceAlpha" type="matrix" values="0 0 0 0 0 0 0 0 0 0 0 0 0 0 0 0 0 0 127 0" result="hardAlpha"/>
<feOffset dy="2"/>
<feGaussianBlur stdDeviation="2"/>
<feColorMatrix type="matrix" values="0 0 0 0 0.357764 0 0 0 0 0.100254 0 0 0 0 0.100254 0 0 0 0.14 0"/>
<feBlend mode="normal" in2="effect2_dropShadow_1758_3069" result="effect3_dropShadow_1758_3069"/>
<feBlend mode="normal" in="SourceGraphic" in2="effect3_dropShadow_1758_3069" result="shape"/>
</filter>
<filter id="filter3_ddd_1758_3069" x="139.42" y="-3.57628e-07" width="30" height="31" filterUnits="userSpaceOnUse" color-interpolation-filters="sRGB">
<feFlood flood-opacity="0" result="BackgroundImageFix"/>
<feColorMatrix in="SourceAlpha" type="matrix" values="0 0 0 0 0 0 0 0 0 0 0 0 0 0 0 0 0 0 127 0" result="hardAlpha"/>
<feOffset dy="1"/>
<feGaussianBlur stdDeviation="2.5"/>
<feColorMatrix type="matrix" values="0 0 0 0 0.532764 0 0 0 0 0.0516202 0 0 0 0 0.0516202 0 0 0 0.2 0"/>
<feBlend mode="normal" in2="BackgroundImageFix" result="effect1_dropShadow_1758_3069"/>
<feColorMatrix in="SourceAlpha" type="matrix" values="0 0 0 0 0 0 0 0 0 0 0 0 0 0 0 0 0 0 127 0" result="hardAlpha"/>
<feOffset dy="3"/>
<feGaussianBlur stdDeviation="2"/>
<feColorMatrix type="matrix" values="0 0 0 0 0.482764 0 0 0 0 0.0467756 0 0 0 0 0.0467756 0 0 0 0.12 0"/>
<feBlend mode="normal" in2="effect1_dropShadow_1758_3069" result="effect2_dropShadow_1758_3069"/>
<feColorMatrix in="SourceAlpha" type="matrix" values="0 0 0 0 0 0 0 0 0 0 0 0 0 0 0 0 0 0 127 0" result="hardAlpha"/>
<feOffset dy="2"/>
<feGaussianBlur stdDeviation="2"/>
<feColorMatrix type="matrix" values="0 0 0 0 0.357764 0 0 0 0 0.100254 0 0 0 0 0.100254 0 0 0 0.14 0"/>
<feBlend mode="normal" in2="effect2_dropShadow_1758_3069" result="effect3_dropShadow_1758_3069"/>
<feBlend mode="normal" in="SourceGraphic" in2="effect3_dropShadow_1758_3069" result="shape"/>
</filter>
<filter id="filter4_ddd_1758_3069" x="112.287" y="30.85" width="84.5945" height="45.062" filterUnits="userSpaceOnUse" color-interpolation-filters="sRGB">
<feFlood flood-opacity="0" result="BackgroundImageFix"/>
<feColorMatrix in="SourceAlpha" type="matrix" values="0 0 0 0 0 0 0 0 0 0 0 0 0 0 0 0 0 0 127 0" result="hardAlpha"/>
<feOffset dy="1"/>
<feGaussianBlur stdDeviation="2.5"/>
<feColorMatrix type="matrix" values="0 0 0 0 0.532764 0 0 0 0 0.0516202 0 0 0 0 0.0516202 0 0 0 0.2 0"/>
<feBlend mode="normal" in2="BackgroundImageFix" result="effect1_dropShadow_1758_3069"/>
<feColorMatrix in="SourceAlpha" type="matrix" values="0 0 0 0 0 0 0 0 0 0 0 0 0 0 0 0 0 0 127 0" result="hardAlpha"/>
<feOffset dy="3"/>
<feGaussianBlur stdDeviation="2"/>
<feColorMatrix type="matrix" values="0 0 0 0 0.482764 0 0 0 0 0.0467756 0 0 0 0 0.0467756 0 0 0 0.12 0"/>
<feBlend mode="normal" in2="effect1_dropShadow_1758_3069" result="effect2_dropShadow_1758_3069"/>
<feColorMatrix in="SourceAlpha" type="matrix" values="0 0 0 0 0 0 0 0 0 0 0 0 0 0 0 0 0 0 127 0" result="hardAlpha"/>
<feOffset dy="2"/>
<feGaussianBlur stdDeviation="2"/>
<feColorMatrix type="matrix" values="0 0 0 0 0.357764 0 0 0 0 0.100254 0 0 0 0 0.100254 0 0 0 0.14 0"/>
<feBlend mode="normal" in2="effect2_dropShadow_1758_3069" result="effect3_dropShadow_1758_3069"/>
<feBlend mode="normal" in="SourceGraphic" in2="effect3_dropShadow_1758_3069" result="shape"/>
</filter>
<filter id="filter5_ddd_1758_3069" x="204.42" y="25" width="19.42" height="27" filterUnits="userSpaceOnUse" color-interpolation-filters="sRGB">
<feFlood flood-opacity="0" result="BackgroundImageFix"/>
<feColorMatrix in="SourceAlpha" type="matrix" values="0 0 0 0 0 0 0 0 0 0 0 0 0 0 0 0 0 0 127 0" result="hardAlpha"/>
<feOffset dy="1"/>
<feGaussianBlur stdDeviation="2.5"/>
<feColorMatrix type="matrix" values="0 0 0 0 0.532764 0 0 0 0 0.0516202 0 0 0 0 0.0516202 0 0 0 0.2 0"/>
<feBlend mode="normal" in2="BackgroundImageFix" result="effect1_dropShadow_1758_3069"/>
<feColorMatrix in="SourceAlpha" type="matrix" values="0 0 0 0 0 0 0 0 0 0 0 0 0 0 0 0 0 0 127 0" result="hardAlpha"/>
<feOffset dy="3"/>
<feGaussianBlur stdDeviation="2"/>
<feColorMatrix type="matrix" values="0 0 0 0 0.482764 0 0 0 0 0.0467756 0 0 0 0 0.0467756 0 0 0 0.12 0"/>
<feBlend mode="normal" in2="effect1_dropShadow_1758_3069" result="effect2_dropShadow_1758_3069"/>
<feColorMatrix in="SourceAlpha" type="matrix" values="0 0 0 0 0 0 0 0 0 0 0 0 0 0 0 0 0 0 127 0" result="hardAlpha"/>
<feOffset dy="2"/>
<feGaussianBlur stdDeviation="2"/>
<feColorMatrix type="matrix" values="0 0 0 0 0.357764 0 0 0 0 0.100254 0 0 0 0 0.100254 0 0 0 0.14 0"/>
<feBlend mode="normal" in2="effect2_dropShadow_1758_3069" result="effect3_dropShadow_1758_3069"/>
<feBlend mode="normal" in="SourceGraphic" in2="effect3_dropShadow_1758_3069" result="shape"/>
</filter>
<filter id="filter6_ddd_1758_3069" x="258.84" y="-1.19209e-07" width="32" height="31" filterUnits="userSpaceOnUse" color-interpolation-filters="sRGB">
<feFlood flood-opacity="0" result="BackgroundImageFix"/>
<feColorMatrix in="SourceAlpha" type="matrix" values="0 0 0 0 0 0 0 0 0 0 0 0 0 0 0 0 0 0 127 0" result="hardAlpha"/>
<feOffset dy="1"/>
<feGaussianBlur stdDeviation="2.5"/>
<feColorMatrix type="matrix" values="0 0 0 0 0.532764 0 0 0 0 0.0516202 0 0 0 0 0.0516202 0 0 0 0.2 0"/>
<feBlend mode="normal" in2="BackgroundImageFix" result="effect1_dropShadow_1758_3069"/>
<feColorMatrix in="SourceAlpha" type="matrix" values="0 0 0 0 0 0 0 0 0 0 0 0 0 0 0 0 0 0 127 0" result="hardAlpha"/>
<feOffset dy="3"/>
<feGaussianBlur stdDeviation="2"/>
<feColorMatrix type="matrix" values="0 0 0 0 0.482764 0 0 0 0 0.0467756 0 0 0 0 0.0467756 0 0 0 0.12 0"/>
<feBlend mode="normal" in2="effect1_dropShadow_1758_3069" result="effect2_dropShadow_1758_3069"/>
<feColorMatrix in="SourceAlpha" type="matrix" values="0 0 0 0 0 0 0 0 0 0 0 0 0 0 0 0 0 0 127 0" result="hardAlpha"/>
<feOffset dy="2"/>
<feGaussianBlur stdDeviation="2"/>
<feColorMatrix type="matrix" values="0 0 0 0 0.357764 0 0 0 0 0.100254 0 0 0 0 0.100254 0 0 0 0.14 0"/>
<feBlend mode="normal" in2="effect2_dropShadow_1758_3069" result="effect3_dropShadow_1758_3069"/>
<feBlend mode="normal" in="SourceGraphic" in2="effect3_dropShadow_1758_3069" result="shape"/>
</filter>
<filter id="filter7_ddd_1758_3069" x="231.707" y="30.85" width="84.5944" height="44.964" filterUnits="userSpaceOnUse" color-interpolation-filters="sRGB">
<feFlood flood-opacity="0" result="BackgroundImageFix"/>
<feColorMatrix in="SourceAlpha" type="matrix" values="0 0 0 0 0 0 0 0 0 0 0 0 0 0 0 0 0 0 127 0" result="hardAlpha"/>
<feOffset dy="1"/>
<feGaussianBlur stdDeviation="2.5"/>
<feColorMatrix type="matrix" values="0 0 0 0 0.532764 0 0 0 0 0.0516202 0 0 0 0 0.0516202 0 0 0 0.2 0"/>
<feBlend mode="normal" in2="BackgroundImageFix" result="effect1_dropShadow_1758_3069"/>
<feColorMatrix in="SourceAlpha" type="matrix" values="0 0 0 0 0 0 0 0 0 0 0 0 0 0 0 0 0 0 127 0" result="hardAlpha"/>
<feOffset dy="3"/>
<feGaussianBlur stdDeviation="2"/>
<feColorMatrix type="matrix" values="0 0 0 0 0.482764 0 0 0 0 0.0467756 0 0 0 0 0.0467756 0 0 0 0.12 0"/>
<feBlend mode="normal" in2="effect1_dropShadow_1758_3069" result="effect2_dropShadow_1758_3069"/>
<feColorMatrix in="SourceAlpha" type="matrix" values="0 0 0 0 0 0 0 0 0 0 0 0 0 0 0 0 0 0 127 0" result="hardAlpha"/>
<feOffset dy="2"/>
<feGaussianBlur stdDeviation="2"/>
<feColorMatrix type="matrix" values="0 0 0 0 0.357764 0 0 0 0 0.100254 0 0 0 0 0.100254 0 0 0 0.14 0"/>
<feBlend mode="normal" in2="effect2_dropShadow_1758_3069" result="effect3_dropShadow_1758_3069"/>
<feBlend mode="normal" in="SourceGraphic" in2="effect3_dropShadow_1758_3069" result="shape"/>
</filter>
<filter id="filter8_ddd_1758_3069" x="323.84" y="25" width="19.42" height="27" filterUnits="userSpaceOnUse" color-interpolation-filters="sRGB">
<feFlood flood-opacity="0" result="BackgroundImageFix"/>
<feColorMatrix in="SourceAlpha" type="matrix" values="0 0 0 0 0 0 0 0 0 0 0 0 0 0 0 0 0 0 127 0" result="hardAlpha"/>
<feOffset dy="1"/>
<feGaussianBlur stdDeviation="2.5"/>
<feColorMatrix type="matrix" values="0 0 0 0 0.532764 0 0 0 0 0.0516202 0 0 0 0 0.0516202 0 0 0 0.2 0"/>
<feBlend mode="normal" in2="BackgroundImageFix" result="effect1_dropShadow_1758_3069"/>
<feColorMatrix in="SourceAlpha" type="matrix" values="0 0 0 0 0 0 0 0 0 0 0 0 0 0 0 0 0 0 127 0" result="hardAlpha"/>
<feOffset dy="3"/>
<feGaussianBlur stdDeviation="2"/>
<feColorMatrix type="matrix" values="0 0 0 0 0.482764 0 0 0 0 0.0467756 0 0 0 0 0.0467756 0 0 0 0.12 0"/>
<feBlend mode="normal" in2="effect1_dropShadow_1758_3069" result="effect2_dropShadow_1758_3069"/>
<feColorMatrix in="SourceAlpha" type="matrix" values="0 0 0 0 0 0 0 0 0 0 0 0 0 0 0 0 0 0 127 0" result="hardAlpha"/>
<feOffset dy="2"/>
<feGaussianBlur stdDeviation="2"/>
<feColorMatrix type="matrix" values="0 0 0 0 0.357764 0 0 0 0 0.100254 0 0 0 0 0.100254 0 0 0 0.14 0"/>
<feBlend mode="normal" in2="effect2_dropShadow_1758_3069" result="effect3_dropShadow_1758_3069"/>
<feBlend mode="normal" in="SourceGraphic" in2="effect3_dropShadow_1758_3069" result="shape"/>
</filter>
<filter id="filter9_ddd_1758_3069" x="361.26" y="2" width="25" height="28" filterUnits="userSpaceOnUse" color-interpolation-filters="sRGB">
<feFlood flood-opacity="0" result="BackgroundImageFix"/>
<feColorMatrix in="SourceAlpha" type="matrix" values="0 0 0 0 0 0 0 0 0 0 0 0 0 0 0 0 0 0 127 0" result="hardAlpha"/>
<feOffset dy="1"/>
<feGaussianBlur stdDeviation="2.5"/>
<feColorMatrix type="matrix" values="0 0 0 0 0.532764 0 0 0 0 0.0516202 0 0 0 0 0.0516202 0 0 0 0.2 0"/>
<feBlend mode="normal" in2="BackgroundImageFix" result="effect1_dropShadow_1758_3069"/>
<feColorMatrix in="SourceAlpha" type="matrix" values="0 0 0 0 0 0 0 0 0 0 0 0 0 0 0 0 0 0 127 0" result="hardAlpha"/>
<feOffset dy="3"/>
<feGaussianBlur stdDeviation="2"/>
<feColorMatrix type="matrix" values="0 0 0 0 0.482764 0 0 0 0 0.0467756 0 0 0 0 0.0467756 0 0 0 0.12 0"/>
<feBlend mode="normal" in2="effect1_dropShadow_1758_3069" result="effect2_dropShadow_1758_3069"/>
<feColorMatrix in="SourceAlpha" type="matrix" values="0 0 0 0 0 0 0 0 0 0 0 0 0 0 0 0 0 0 127 0" result="hardAlpha"/>
<feOffset dy="2"/>
<feGaussianBlur stdDeviation="2"/>
<feColorMatrix type="matrix" values="0 0 0 0 0.357764 0 0 0 0 0.100254 0 0 0 0 0.100254 0 0 0 0.14 0"/>
<feBlend mode="normal" in2="effect2_dropShadow_1758_3069" result="effect3_dropShadow_1758_3069"/>
<feBlend mode="normal" in="SourceGraphic" in2="effect3_dropShadow_1758_3069" result="shape"/>
</filter>
<filter id="filter10_ddd_1758_3069" x="350.171" y="30.738" width="46.5093" height="42.402" filterUnits="userSpaceOnUse" color-interpolation-filters="sRGB">
<feFlood flood-opacity="0" result="BackgroundImageFix"/>
<feColorMatrix in="SourceAlpha" type="matrix" values="0 0 0 0 0 0 0 0 0 0 0 0 0 0 0 0 0 0 127 0" result="hardAlpha"/>
<feOffset dy="1"/>
<feGaussianBlur stdDeviation="2.5"/>
<feColorMatrix type="matrix" values="0 0 0 0 0.532764 0 0 0 0 0.0516202 0 0 0 0 0.0516202 0 0 0 0.2 0"/>
<feBlend mode="normal" in2="BackgroundImageFix" result="effect1_dropShadow_1758_3069"/>
<feColorMatrix in="SourceAlpha" type="matrix" values="0 0 0 0 0 0 0 0 0 0 0 0 0 0 0 0 0 0 127 0" result="hardAlpha"/>
<feOffset dy="3"/>
<feGaussianBlur stdDeviation="2"/>
<feColorMatrix type="matrix" values="0 0 0 0 0.482764 0 0 0 0 0.0467756 0 0 0 0 0.0467756 0 0 0 0.12 0"/>
<feBlend mode="normal" in2="effect1_dropShadow_1758_3069" result="effect2_dropShadow_1758_3069"/>
<feColorMatrix in="SourceAlpha" type="matrix" values="0 0 0 0 0 0 0 0 0 0 0 0 0 0 0 0 0 0 127 0" result="hardAlpha"/>
<feOffset dy="2"/>
<feGaussianBlur stdDeviation="2"/>
<feColorMatrix type="matrix" values="0 0 0 0 0.357764 0 0 0 0 0.100254 0 0 0 0 0.100254 0 0 0 0.14 0"/>
<feBlend mode="normal" in2="effect2_dropShadow_1758_3069" result="effect3_dropShadow_1758_3069"/>
<feBlend mode="normal" in="SourceGraphic" in2="effect3_dropShadow_1758_3069" result="shape"/>
</filter>
<filter id="filter11_ddd_1758_3069" x="403.26" y="25" width="19.42" height="27" filterUnits="userSpaceOnUse" color-interpolation-filters="sRGB">
<feFlood flood-opacity="0" result="BackgroundImageFix"/>
<feColorMatrix in="SourceAlpha" type="matrix" values="0 0 0 0 0 0 0 0 0 0 0 0 0 0 0 0 0 0 127 0" result="hardAlpha"/>
<feOffset dy="1"/>
<feGaussianBlur stdDeviation="2.5"/>
<feColorMatrix type="matrix" values="0 0 0 0 0.532764 0 0 0 0 0.0516202 0 0 0 0 0.0516202 0 0 0 0.2 0"/>
<feBlend mode="normal" in2="BackgroundImageFix" result="effect1_dropShadow_1758_3069"/>
<feColorMatrix in="SourceAlpha" type="matrix" values="0 0 0 0 0 0 0 0 0 0 0 0 0 0 0 0 0 0 127 0" result="hardAlpha"/>
<feOffset dy="3"/>
<feGaussianBlur stdDeviation="2"/>
<feColorMatrix type="matrix" values="0 0 0 0 0.482764 0 0 0 0 0.0467756 0 0 0 0 0.0467756 0 0 0 0.12 0"/>
<feBlend mode="normal" in2="effect1_dropShadow_1758_3069" result="effect2_dropShadow_1758_3069"/>
<feColorMatrix in="SourceAlpha" type="matrix" values="0 0 0 0 0 0 0 0 0 0 0 0 0 0 0 0 0 0 127 0" result="hardAlpha"/>
<feOffset dy="2"/>
<feGaussianBlur stdDeviation="2"/>
<feColorMatrix type="matrix" values="0 0 0 0 0.357764 0 0 0 0 0.100254 0 0 0 0 0.100254 0 0 0 0.14 0"/>
<feBlend mode="normal" in2="effect2_dropShadow_1758_3069" result="effect3_dropShadow_1758_3069"/>
<feBlend mode="normal" in="SourceGraphic" in2="effect3_dropShadow_1758_3069" result="shape"/>
</filter>
<filter id="filter12_ddd_1758_3069" x="435.68" y="2" width="34" height="27" filterUnits="userSpaceOnUse" color-interpolation-filters="sRGB">
<feFlood flood-opacity="0" result="BackgroundImageFix"/>
<feColorMatrix in="SourceAlpha" type="matrix" values="0 0 0 0 0 0 0 0 0 0 0 0 0 0 0 0 0 0 127 0" result="hardAlpha"/>
<feOffset dy="1"/>
<feGaussianBlur stdDeviation="2.5"/>
<feColorMatrix type="matrix" values="0 0 0 0 0.532764 0 0 0 0 0.0516202 0 0 0 0 0.0516202 0 0 0 0.2 0"/>
<feBlend mode="normal" in2="BackgroundImageFix" result="effect1_dropShadow_1758_3069"/>
<feColorMatrix in="SourceAlpha" type="matrix" values="0 0 0 0 0 0 0 0 0 0 0 0 0 0 0 0 0 0 127 0" result="hardAlpha"/>
<feOffset dy="3"/>
<feGaussianBlur stdDeviation="2"/>
<feColorMatrix type="matrix" values="0 0 0 0 0.482764 0 0 0 0 0.0467756 0 0 0 0 0.0467756 0 0 0 0.12 0"/>
<feBlend mode="normal" in2="effect1_dropShadow_1758_3069" result="effect2_dropShadow_1758_3069"/>
<feColorMatrix in="SourceAlpha" type="matrix" values="0 0 0 0 0 0 0 0 0 0 0 0 0 0 0 0 0 0 127 0" result="hardAlpha"/>
<feOffset dy="2"/>
<feGaussianBlur stdDeviation="2"/>
<feColorMatrix type="matrix" values="0 0 0 0 0.357764 0 0 0 0 0.100254 0 0 0 0 0.100254 0 0 0 0.14 0"/>
<feBlend mode="normal" in2="effect2_dropShadow_1758_3069" result="effect3_dropShadow_1758_3069"/>
<feBlend mode="normal" in="SourceGraphic" in2="effect3_dropShadow_1758_3069" result="shape"/>
</filter>
<filter id="filter13_ddd_1758_3069" x="429.591" y="30.738" width="46.5093" height="42.402" filterUnits="userSpaceOnUse" color-interpolation-filters="sRGB">
<feFlood flood-opacity="0" result="BackgroundImageFix"/>
<feColorMatrix in="SourceAlpha" type="matrix" values="0 0 0 0 0 0 0 0 0 0 0 0 0 0 0 0 0 0 127 0" result="hardAlpha"/>
<feOffset dy="1"/>
<feGaussianBlur stdDeviation="2.5"/>
<feColorMatrix type="matrix" values="0 0 0 0 0.532764 0 0 0 0 0.0516202 0 0 0 0 0.0516202 0 0 0 0.2 0"/>
<feBlend mode="normal" in2="BackgroundImageFix" result="effect1_dropShadow_1758_3069"/>
<feColorMatrix in="SourceAlpha" type="matrix" values="0 0 0 0 0 0 0 0 0 0 0 0 0 0 0 0 0 0 127 0" result="hardAlpha"/>
<feOffset dy="3"/>
<feGaussianBlur stdDeviation="2"/>
<feColorMatrix type="matrix" values="0 0 0 0 0.482764 0 0 0 0 0.0467756 0 0 0 0 0.0467756 0 0 0 0.12 0"/>
<feBlend mode="normal" in2="effect1_dropShadow_1758_3069" result="effect2_dropShadow_1758_3069"/>
<feColorMatrix in="SourceAlpha" type="matrix" values="0 0 0 0 0 0 0 0 0 0 0 0 0 0 0 0 0 0 127 0" result="hardAlpha"/>
<feOffset dy="2"/>
<feGaussianBlur stdDeviation="2"/>
<feColorMatrix type="matrix" values="0 0 0 0 0.357764 0 0 0 0 0.100254 0 0 0 0 0.100254 0 0 0 0.14 0"/>
<feBlend mode="normal" in2="effect2_dropShadow_1758_3069" result="effect3_dropShadow_1758_3069"/>
<feBlend mode="normal" in="SourceGraphic" in2="effect3_dropShadow_1758_3069" result="shape"/>
</filter>
</defs>
</svg>
