<svg width="477" height="77" viewBox="0 0 477 77" fill="none" xmlns="http://www.w3.org/2000/svg">
<mask id="mask0_1758_5357" style="mask-type:alpha" maskUnits="userSpaceOnUse" x="27" y="4" width="24" height="25">
<rect x="27" y="4.31995" width="24" height="24" fill="#D9D9D9"/>
</mask>
<g mask="url(#mask0_1758_5357)">
<g filter="url(#filter0_ddd_1758_5357)">
<path d="M36.5 15.3199L35.55 17.3699L33.5 18.3199L35.55 19.2699L36.5 21.3199L37.45 19.2699L39.5 18.3199L37.45 17.3699L36.5 15.3199ZM42.5 15.3199L41.85 16.6699L40.5 17.3199L41.85 17.9699L42.5 19.3199L43.15 17.9699L44.5 17.3199L43.15 16.6699L42.5 15.3199ZM31 8.31995L33 12.3199H36L34 8.31995H36L38 12.3199H41L39 8.31995H41L43 12.3199H46L44 8.31995H47C47.55 8.31995 48.0208 8.51578 48.4125 8.90745C48.8042 9.29911 49 9.76995 49 10.3199V22.3199C49 22.8699 48.8042 23.3408 48.4125 23.7324C48.0208 24.1241 47.55 24.3199 47 24.3199H31C30.45 24.3199 29.9792 24.1241 29.5875 23.7324C29.1958 23.3408 29 22.8699 29 22.3199V10.3199C29 9.76995 29.1958 9.29911 29.5875 8.90745C29.9792 8.51578 30.45 8.31995 31 8.31995ZM31 14.3199V22.3199H47V14.3199H31Z" fill="#48FF5B"/>
</g>
</g>
<g filter="url(#filter1_ddd_1758_5357)">
<path d="M20.5743 46.5499C20.4156 46.6526 20.1869 46.7786 19.8882 46.9279C19.5989 47.0679 19.2536 47.1893 18.8522 47.2919C18.4603 47.3946 18.0309 47.4413 17.5643 47.4319C16.7709 47.4226 16.0616 47.2826 15.4363 47.0119C14.8109 46.7413 14.2743 46.3726 13.8263 45.9059C13.3876 45.4299 13.0516 44.8886 12.8183 44.2819C12.5849 43.6659 12.4683 43.0126 12.4683 42.3219C12.4683 41.5566 12.5896 40.8566 12.8323 40.2219C13.0843 39.5779 13.4343 39.0226 13.8823 38.5559C14.3303 38.0799 14.8576 37.7113 15.4643 37.4499C16.0803 37.1886 16.7523 37.0579 17.4803 37.0579C18.0963 37.0579 18.6563 37.1419 19.1603 37.3099C19.6643 37.4779 20.0889 37.6693 20.4343 37.8839L19.8463 39.2559C19.5756 39.0693 19.2396 38.8919 18.8383 38.7239C18.4463 38.5559 18.0076 38.4719 17.5223 38.4719C16.8876 38.4719 16.2996 38.6399 15.7583 38.9759C15.2263 39.3119 14.7969 39.7646 14.4703 40.3339C14.1529 40.9033 13.9943 41.5426 13.9943 42.2519C13.9943 42.9706 14.1389 43.6146 14.4283 44.1839C14.7269 44.7533 15.1469 45.2013 15.6883 45.5279C16.2296 45.8546 16.8643 46.0179 17.5923 46.0179C18.1149 46.0179 18.5723 45.9386 18.9643 45.7799C19.3656 45.6213 19.6923 45.4393 19.9443 45.2339L20.5743 46.5499ZM23.743 41.4679L23.883 43.1479L23.827 42.9239C23.9856 42.5693 24.205 42.2659 24.485 42.0139C24.7743 41.7619 25.073 41.5706 25.381 41.4399C25.6983 41.2999 25.9643 41.2299 26.179 41.2299L26.109 42.6299C25.6703 42.6019 25.283 42.6859 24.947 42.8819C24.6203 43.0779 24.3636 43.3393 24.177 43.6659C23.9903 43.9926 23.897 44.3426 23.897 44.7159V47.3199H22.483V41.4679H23.743ZM30.3129 47.4599C29.6409 47.4599 29.0622 47.3293 28.5769 47.0679C28.0916 46.7973 27.7182 46.4286 27.4569 45.9619C27.1956 45.4859 27.0649 44.9493 27.0649 44.3519C27.0649 43.7733 27.2096 43.2506 27.4989 42.7839C27.7976 42.3079 28.1942 41.9299 28.6889 41.6499C29.1836 41.3699 29.7342 41.2299 30.3409 41.2299C31.1249 41.2299 31.7736 41.4586 32.2869 41.9159C32.8096 42.3639 33.1596 42.9986 33.3369 43.8199L28.5629 45.4719L28.2269 44.6599L32.0629 43.2599L31.7689 43.4559C31.6569 43.1573 31.4796 42.9006 31.2369 42.6859C30.9942 42.4619 30.6629 42.3499 30.2429 42.3499C29.7202 42.3499 29.2909 42.5319 28.9549 42.8959C28.6282 43.2506 28.4649 43.7079 28.4649 44.2679C28.4649 44.8653 28.6422 45.3459 28.9969 45.7099C29.3516 46.0739 29.7996 46.2559 30.3409 46.2559C30.5929 46.2559 30.8356 46.2139 31.0689 46.1299C31.3022 46.0366 31.5216 45.9153 31.7269 45.7659L32.3709 46.8159C32.0722 47.0119 31.7409 47.1706 31.3769 47.2919C31.0222 47.4039 30.6676 47.4599 30.3129 47.4599ZM37.3744 47.4599C36.8237 47.4599 36.3244 47.3433 35.8764 47.1099C35.4284 46.8766 35.0737 46.5359 34.8124 46.0879C34.551 45.6306 34.4204 45.0659 34.4204 44.3939C34.4204 43.7406 34.5557 43.1806 34.8264 42.7139C35.1064 42.2379 35.4704 41.8739 35.9184 41.6219C36.3757 41.3606 36.8704 41.2299 37.4024 41.2299C37.9624 41.2299 38.4244 41.3466 38.7884 41.5799C39.1524 41.8133 39.4324 42.0933 39.6284 42.4199L39.5444 42.6439L39.6844 41.4679H40.9864V47.3199H39.5724V45.8359L39.7124 46.1859C39.675 46.2606 39.5957 46.3679 39.4744 46.5079C39.353 46.6479 39.1944 46.7926 38.9984 46.9419C38.8024 47.0819 38.5644 47.2033 38.2844 47.3059C38.0137 47.4086 37.7104 47.4599 37.3744 47.4599ZM37.7524 46.2979C38.219 46.2979 38.611 46.1766 38.9284 45.9339C39.255 45.6819 39.4697 45.3413 39.5724 44.9119V43.7079C39.4604 43.3253 39.2317 43.0079 38.8864 42.7559C38.5504 42.5039 38.1584 42.3779 37.7104 42.3779C37.3744 42.3779 37.0664 42.4619 36.7864 42.6299C36.5064 42.7886 36.2824 43.0173 36.1144 43.3159C35.9464 43.6053 35.8624 43.9413 35.8624 44.3239C35.8624 44.6973 35.9464 45.0333 36.1144 45.3319C36.2917 45.6306 36.525 45.8686 36.8144 46.0459C37.1037 46.2139 37.4164 46.2979 37.7524 46.2979ZM43.7558 38.9059H45.1838V41.4819H46.7518V42.5879H45.1838V47.3199H43.7558V42.5879H42.7198V41.4819H43.7558V38.9059ZM48.3091 41.4679H49.7231V47.3199H48.3091V41.4679ZM48.2391 39.3679C48.2391 39.1533 48.3231 38.9713 48.4911 38.8219C48.6685 38.6726 48.8598 38.5979 49.0651 38.5979C49.2705 38.5979 49.4571 38.6726 49.6251 38.8219C49.7931 38.9713 49.8771 39.1533 49.8771 39.3679C49.8771 39.6013 49.7931 39.7879 49.6251 39.9279C49.4571 40.0679 49.2705 40.1379 49.0651 40.1379C48.8598 40.1379 48.6685 40.0679 48.4911 39.9279C48.3231 39.7879 48.2391 39.6013 48.2391 39.3679ZM51.4282 44.3379C51.4282 43.7499 51.5682 43.2226 51.8482 42.7559C52.1282 42.2799 52.5155 41.9066 53.0102 41.6359C53.5048 41.3653 54.0695 41.2299 54.7042 41.2299C55.3482 41.2299 55.9082 41.3653 56.3842 41.6359C56.8695 41.9066 57.2428 42.2799 57.5042 42.7559C57.7748 43.2226 57.9102 43.7499 57.9102 44.3379C57.9102 44.9259 57.7748 45.4579 57.5042 45.9339C57.2335 46.4006 56.8555 46.7739 56.3702 47.0539C55.8942 47.3246 55.3295 47.4599 54.6762 47.4599C54.0602 47.4599 53.5048 47.3339 53.0102 47.0819C52.5248 46.8299 52.1375 46.4706 51.8482 46.0039C51.5682 45.5279 51.4282 44.9726 51.4282 44.3379ZM52.8562 44.3519C52.8562 44.7159 52.9355 45.0473 53.0942 45.3459C53.2528 45.6353 53.4675 45.8686 53.7382 46.0459C54.0182 46.2139 54.3262 46.2979 54.6622 46.2979C55.1942 46.2979 55.6282 46.1113 55.9642 45.7379C56.3095 45.3646 56.4822 44.9026 56.4822 44.3519C56.4822 43.8013 56.3095 43.3393 55.9642 42.9659C55.6282 42.5833 55.1942 42.3919 54.6622 42.3919C54.3168 42.3919 54.0088 42.4806 53.7382 42.6579C53.4675 42.8353 53.2528 43.0733 53.0942 43.3719C52.9355 43.6706 52.8562 43.9973 52.8562 44.3519ZM60.8898 41.4679L61.0158 42.8259L60.9598 42.6299C61.1464 42.2099 61.4451 41.8739 61.8558 41.6219C62.2758 41.3699 62.7658 41.2439 63.3258 41.2439C63.8764 41.2439 64.3291 41.4073 64.6838 41.7339C65.0384 42.0513 65.2204 42.4713 65.2298 42.9939V47.3199H63.8158V43.4839C63.8064 43.1853 63.7178 42.9426 63.5498 42.7559C63.3818 42.5599 63.1204 42.4573 62.7658 42.4479C62.2711 42.4479 61.8558 42.6533 61.5198 43.0639C61.1931 43.4746 61.0298 44.0019 61.0298 44.6459V47.3199H59.6158V41.4679H60.8898ZM13.3076 64.5499C13.149 64.6526 12.9203 64.7786 12.6216 64.9279C12.3323 65.0679 11.987 65.1893 11.5856 65.2919C11.1936 65.3946 10.7643 65.4413 10.2976 65.4319C9.50432 65.4226 8.79498 65.2826 8.16965 65.0119C7.54432 64.7413 7.00765 64.3726 6.55965 63.9059C6.12098 63.4299 5.78498 62.8886 5.55165 62.2819C5.31832 61.6659 5.20165 61.0126 5.20165 60.3219C5.20165 59.5566 5.32298 58.8566 5.56565 58.2219C5.81765 57.5779 6.16765 57.0226 6.61565 56.5559C7.06365 56.0799 7.59098 55.7113 8.19765 55.4499C8.81365 55.1886 9.48565 55.0579 10.2136 55.0579C10.8296 55.0579 11.3896 55.1419 11.8936 55.3099C12.3976 55.4779 12.8223 55.6693 13.1676 55.8839L12.5796 57.2559C12.309 57.0693 11.973 56.8919 11.5716 56.7239C11.1796 56.5559 10.741 56.4719 10.2556 56.4719C9.62098 56.4719 9.03298 56.6399 8.49165 56.9759C7.95965 57.3119 7.53032 57.7646 7.20365 58.3339C6.88632 58.9033 6.72765 59.5426 6.72765 60.2519C6.72765 60.9706 6.87232 61.6146 7.16165 62.1839C7.46032 62.7533 7.88032 63.2013 8.42165 63.5279C8.96298 63.8546 9.59765 64.0179 10.3256 64.0179C10.8483 64.0179 11.3056 63.9386 11.6976 63.7799C12.099 63.6213 12.4256 63.4393 12.6776 63.2339L13.3076 64.5499ZM14.7124 62.3379C14.7124 61.7499 14.8524 61.2226 15.1324 60.7559C15.4124 60.2799 15.7997 59.9066 16.2944 59.6359C16.789 59.3653 17.3537 59.2299 17.9884 59.2299C18.6324 59.2299 19.1924 59.3653 19.6684 59.6359C20.1537 59.9066 20.527 60.2799 20.7884 60.7559C21.059 61.2226 21.1944 61.7499 21.1944 62.3379C21.1944 62.9259 21.059 63.4579 20.7884 63.9339C20.5177 64.4006 20.1397 64.7739 19.6544 65.0539C19.1784 65.3246 18.6137 65.4599 17.9604 65.4599C17.3444 65.4599 16.789 65.3339 16.2944 65.0819C15.809 64.8299 15.4217 64.4706 15.1324 64.0039C14.8524 63.5279 14.7124 62.9726 14.7124 62.3379ZM16.1404 62.3519C16.1404 62.7159 16.2197 63.0473 16.3784 63.3459C16.537 63.6353 16.7517 63.8686 17.0224 64.0459C17.3024 64.2139 17.6104 64.2979 17.9464 64.2979C18.4784 64.2979 18.9124 64.1113 19.2484 63.7379C19.5937 63.3646 19.7664 62.9026 19.7664 62.3519C19.7664 61.8013 19.5937 61.3393 19.2484 60.9659C18.9124 60.5833 18.4784 60.3919 17.9464 60.3919C17.601 60.3919 17.293 60.4806 17.0224 60.6579C16.7517 60.8353 16.537 61.0733 16.3784 61.3719C16.2197 61.6706 16.1404 61.9973 16.1404 62.3519ZM24.1739 59.4679L24.2999 60.7419L24.2299 60.6299C24.4446 60.1913 24.7479 59.8506 25.1399 59.6079C25.5413 59.3559 25.9986 59.2299 26.5119 59.2299C26.9973 59.2299 27.4033 59.3419 27.7299 59.5659C28.0566 59.7899 28.2573 60.1073 28.3319 60.5179L28.2619 60.5739C28.4953 60.1539 28.8079 59.8273 29.1999 59.5939C29.5919 59.3513 30.0026 59.2299 30.4319 59.2299C31.0106 59.2299 31.4679 59.3933 31.8039 59.7199C32.1399 60.0373 32.3126 60.4573 32.3219 60.9799V65.3199H30.9219V61.5119C30.9126 61.2133 30.8426 60.9659 30.7119 60.7699C30.5906 60.5739 30.3666 60.4666 30.0399 60.4479C29.7039 60.4479 29.4053 60.5506 29.1439 60.7559C28.8919 60.9613 28.6913 61.2273 28.5419 61.5539C28.4019 61.8806 28.3273 62.2306 28.3179 62.6039V65.3199H26.9039V61.5119C26.8946 61.2133 26.8199 60.9659 26.6799 60.7699C26.5493 60.5739 26.3206 60.4666 25.9939 60.4479C25.6673 60.4479 25.3733 60.5506 25.1119 60.7559C24.8599 60.9613 24.6639 61.2319 24.5239 61.5679C24.3839 61.8946 24.3139 62.2446 24.3139 62.6179V65.3199H22.8999V59.4679H24.1739ZM38.0347 65.4599C37.6054 65.4599 37.19 65.3666 36.7887 65.1799C36.3967 64.9839 36.0887 64.7179 35.8647 64.3819L35.9487 63.9479V68.1339H34.5347V59.3699H35.7527L35.9487 60.8119L35.8087 60.4059C36.0887 60.0606 36.4387 59.7806 36.8587 59.5659C37.288 59.3419 37.7687 59.2299 38.3007 59.2299C38.8514 59.2299 39.346 59.3606 39.7847 59.6219C40.2234 59.8833 40.5687 60.2519 40.8207 60.7279C41.0727 61.1946 41.1987 61.7453 41.1987 62.3799C41.1987 63.0146 41.0587 63.5653 40.7787 64.0319C40.508 64.4893 40.1347 64.8439 39.6587 65.0959C39.1827 65.3386 38.6414 65.4599 38.0347 65.4599ZM37.7547 64.3399C38.1187 64.3399 38.45 64.2559 38.7487 64.0879C39.0567 63.9199 39.2994 63.6913 39.4767 63.4019C39.6634 63.1033 39.7567 62.7673 39.7567 62.3939C39.7567 62.0113 39.6727 61.6706 39.5047 61.3719C39.3367 61.0733 39.108 60.8399 38.8187 60.6719C38.5294 60.5039 38.2074 60.4199 37.8527 60.4199C37.3674 60.4199 36.9567 60.5506 36.6207 60.8119C36.294 61.0733 36.07 61.4186 35.9487 61.8479V62.8979C36.0234 63.3179 36.2287 63.6633 36.5647 63.9339C36.9007 64.2046 37.2974 64.3399 37.7547 64.3399ZM42.9019 54.4419H44.3159V65.3199H42.9019V54.4419ZM49.2689 65.4599C48.5969 65.4599 48.0183 65.3293 47.5329 65.0679C47.0476 64.7973 46.6743 64.4286 46.4129 63.9619C46.1516 63.4859 46.0209 62.9493 46.0209 62.3519C46.0209 61.7733 46.1656 61.2506 46.4549 60.7839C46.7536 60.3079 47.1503 59.9299 47.6449 59.6499C48.1396 59.3699 48.6903 59.2299 49.2969 59.2299C50.0809 59.2299 50.7296 59.4586 51.2429 59.9159C51.7656 60.3639 52.1156 60.9986 52.2929 61.8199L47.5189 63.4719L47.1829 62.6599L51.0189 61.2599L50.7249 61.4559C50.6129 61.1573 50.4356 60.9006 50.1929 60.6859C49.9503 60.4619 49.6189 60.3499 49.1989 60.3499C48.6763 60.3499 48.2469 60.5319 47.9109 60.8959C47.5843 61.2506 47.4209 61.7079 47.4209 62.2679C47.4209 62.8653 47.5983 63.3459 47.9529 63.7099C48.3076 64.0739 48.7556 64.2559 49.2969 64.2559C49.5489 64.2559 49.7916 64.2139 50.0249 64.1299C50.2583 64.0366 50.4776 63.9153 50.6829 63.7659L51.3269 64.8159C51.0283 65.0119 50.6969 65.1706 50.3329 65.2919C49.9783 65.4039 49.6236 65.4599 49.2689 65.4599ZM54.4404 56.9059H55.8684V59.4819H57.4364V60.5879H55.8684V65.3199H54.4404V60.5879H53.4044V59.4819H54.4404V56.9059ZM61.7377 65.4599C61.0657 65.4599 60.487 65.3293 60.0017 65.0679C59.5164 64.7973 59.143 64.4286 58.8817 63.9619C58.6204 63.4859 58.4897 62.9493 58.4897 62.3519C58.4897 61.7733 58.6344 61.2506 58.9237 60.7839C59.2224 60.3079 59.619 59.9299 60.1137 59.6499C60.6084 59.3699 61.159 59.2299 61.7657 59.2299C62.5497 59.2299 63.1984 59.4586 63.7117 59.9159C64.2344 60.3639 64.5844 60.9986 64.7617 61.8199L59.9877 63.4719L59.6517 62.6599L63.4877 61.2599L63.1937 61.4559C63.0817 61.1573 62.9044 60.9006 62.6617 60.6859C62.419 60.4619 62.0877 60.3499 61.6677 60.3499C61.145 60.3499 60.7157 60.5319 60.3797 60.8959C60.053 61.2506 59.8897 61.7079 59.8897 62.2679C59.8897 62.8653 60.067 63.3459 60.4217 63.7099C60.7764 64.0739 61.2244 64.2559 61.7657 64.2559C62.0177 64.2559 62.2604 64.2139 62.4937 64.1299C62.727 64.0366 62.9464 63.9153 63.1517 63.7659L63.7957 64.8159C63.497 65.0119 63.1657 65.1706 62.8017 65.2919C62.447 65.4039 62.0924 65.4599 61.7377 65.4599ZM68.7432 65.4599C68.1925 65.4599 67.6978 65.3339 67.2592 65.0819C66.8205 64.8206 66.4752 64.4519 66.2232 63.9759C65.9712 63.4999 65.8452 62.9446 65.8452 62.3099C65.8452 61.6566 65.9805 61.1013 66.2512 60.6439C66.5218 60.1866 66.8858 59.8366 67.3432 59.5939C67.8098 59.3513 68.3325 59.2299 68.9112 59.2299C69.3592 59.2299 69.7838 59.3233 70.1852 59.5099C70.5958 59.6873 70.9178 59.9393 71.1512 60.2659L71.0952 60.7559V54.4419H72.5092V65.3199H71.0812V63.9199L71.2352 64.2979C70.9552 64.6339 70.6005 64.9139 70.1712 65.1379C69.7512 65.3526 69.2752 65.4599 68.7432 65.4599ZM69.1772 64.2699C69.6718 64.2699 70.0825 64.1439 70.4092 63.8919C70.7452 63.6306 70.9692 63.2853 71.0812 62.8559V61.6939C70.9785 61.3019 70.7498 60.9799 70.3952 60.7279C70.0498 60.4759 69.6438 60.3499 69.1772 60.3499C68.8412 60.3499 68.5285 60.4339 68.2392 60.6019C67.9498 60.7606 67.7165 60.9893 67.5392 61.2879C67.3712 61.5773 67.2872 61.9133 67.2872 62.2959C67.2872 62.6599 67.3712 62.9913 67.5392 63.2899C67.7165 63.5886 67.9498 63.8266 68.2392 64.0039C68.5285 64.1813 68.8412 64.2699 69.1772 64.2699Z" fill="white"/>
</g>
<g filter="url(#filter2_ddd_1758_5357)">
<path d="M91.42 45.5L90 44.08L96.58 37.5L90 30.92L91.42 29.5L99.42 37.5L91.42 45.5Z" fill="white"/>
</g>
<mask id="mask1_1758_5357" style="mask-type:alpha" maskUnits="userSpaceOnUse" x="142" y="2" width="25" height="25">
<rect x="142.42" y="2.5" width="24" height="24" fill="#D9D9D9"/>
</mask>
<g mask="url(#mask1_1758_5357)">
<g filter="url(#filter3_ddd_1758_5357)">
<path d="M154.443 19.033L153.03 15.8895L149.887 14.4772L153.03 13.0421L154.443 9.92141L155.878 13.0421L158.999 14.4772L155.878 15.8895L154.443 19.033ZM154.443 24.5C152.803 24.5 151.265 24.1241 149.83 23.3724C148.395 22.6207 147.199 21.5691 146.242 20.2175V22.6777H144.42V17.2107H149.887V19.033H147.655C148.429 20.172 149.412 21.0642 150.604 21.7096C151.797 22.355 153.076 22.6777 154.443 22.6777C156.189 22.6777 157.772 22.1765 159.192 21.1743C160.612 20.172 161.611 18.8432 162.188 17.1879L163.964 17.5979C163.281 19.6632 162.066 21.3299 160.32 22.5979C158.573 23.866 156.614 24.5 154.443 24.5ZM144.465 13.5661C144.572 12.5486 144.815 11.5729 145.194 10.639C145.574 9.70501 146.098 8.8432 146.766 8.05353L148.065 9.35194C147.579 9.97456 147.184 10.639 146.88 11.3451C146.576 12.0513 146.387 12.7916 146.311 13.5661H144.465ZM149.34 8.07631L148.042 6.7779C148.847 6.10972 149.712 5.582 150.639 5.19476C151.565 4.80752 152.529 4.57593 153.532 4.5V6.32232C152.757 6.39825 152.021 6.58808 151.322 6.8918C150.623 7.19552 149.963 7.59036 149.34 8.07631ZM159.568 8.07631C158.945 7.59036 158.281 7.19552 157.575 6.8918C156.869 6.58808 156.128 6.39825 155.354 6.32232V4.5C156.371 4.59112 157.347 4.8265 158.281 5.20615C159.215 5.5858 160.077 6.10972 160.866 6.7779L159.568 8.07631ZM162.598 13.5661C162.522 12.7916 162.332 12.0513 162.028 11.3451C161.724 10.639 161.33 9.97456 160.844 9.35194L162.142 8.05353C162.81 8.8432 163.334 9.70501 163.714 10.639C164.093 11.5729 164.329 12.5486 164.42 13.5661H162.598Z" fill="#48FF5B"/>
</g>
</g>
<g filter="url(#filter4_ddd_1758_5357)">
<path d="M120.045 35.35C120.754 35.35 121.384 35.476 121.935 35.728C122.485 35.9707 122.915 36.33 123.223 36.806C123.54 37.2727 123.699 37.8513 123.699 38.542C123.699 38.9433 123.638 39.34 123.517 39.732C123.395 40.124 123.199 40.4787 122.929 40.796C122.667 41.1133 122.313 41.37 121.865 41.566C121.426 41.7527 120.885 41.846 120.241 41.846H118.743V45.5H117.287V35.35H120.045ZM120.213 40.432C120.735 40.432 121.137 40.334 121.417 40.138C121.706 39.9327 121.907 39.69 122.019 39.41C122.131 39.1207 122.187 38.85 122.187 38.598C122.187 38.4113 122.154 38.2153 122.089 38.01C122.023 37.7953 121.916 37.5947 121.767 37.408C121.627 37.212 121.435 37.058 121.193 36.946C120.95 36.8247 120.651 36.764 120.297 36.764H118.743V40.432H120.213ZM121.921 41.3L124.553 45.5H122.845L120.171 41.328L121.921 41.3ZM128.8 45.64C128.128 45.64 127.55 45.5093 127.064 45.248C126.579 44.9773 126.206 44.6087 125.944 44.142C125.683 43.666 125.552 43.1293 125.552 42.532C125.552 41.9533 125.697 41.4307 125.986 40.964C126.285 40.488 126.682 40.11 127.176 39.83C127.671 39.55 128.222 39.41 128.828 39.41C129.612 39.41 130.261 39.6387 130.774 40.096C131.297 40.544 131.647 41.1787 131.824 42L127.05 43.652L126.714 42.84L130.55 41.44L130.256 41.636C130.144 41.3373 129.967 41.0807 129.724 40.866C129.482 40.642 129.15 40.53 128.73 40.53C128.208 40.53 127.778 40.712 127.442 41.076C127.116 41.4307 126.952 41.888 126.952 42.448C126.952 43.0453 127.13 43.526 127.484 43.89C127.839 44.254 128.287 44.436 128.828 44.436C129.08 44.436 129.323 44.394 129.556 44.31C129.79 44.2167 130.009 44.0953 130.214 43.946L130.858 44.996C130.56 45.192 130.228 45.3507 129.864 45.472C129.51 45.584 129.155 45.64 128.8 45.64ZM136.268 48.412C135.82 48.412 135.428 48.356 135.092 48.244C134.756 48.1413 134.452 48.0013 134.182 47.824C133.92 47.6467 133.668 47.4507 133.426 47.236L134.266 46.27C134.555 46.55 134.854 46.7693 135.162 46.928C135.479 47.0867 135.838 47.166 136.24 47.166C136.874 47.166 137.364 47.0167 137.71 46.718C138.055 46.4193 138.232 46.018 138.242 45.514V43.988L138.34 44.254C138.172 44.646 137.873 44.9773 137.444 45.248C137.024 45.5093 136.501 45.64 135.876 45.64C135.334 45.64 134.84 45.5047 134.392 45.234C133.944 44.9633 133.584 44.5947 133.314 44.128C133.043 43.6613 132.908 43.134 132.908 42.546C132.908 41.9393 133.048 41.4027 133.328 40.936C133.617 40.46 133.995 40.0867 134.462 39.816C134.928 39.5453 135.428 39.41 135.96 39.41C136.482 39.41 136.949 39.508 137.36 39.704C137.78 39.9 138.088 40.152 138.284 40.46L138.214 40.698L138.354 39.648H139.656V45.542C139.656 46.074 139.516 46.5547 139.236 46.984C138.956 47.4227 138.564 47.768 138.06 48.02C137.556 48.2813 136.958 48.412 136.268 48.412ZM134.336 42.504C134.336 42.8773 134.42 43.2133 134.588 43.512C134.765 43.8107 134.998 44.0487 135.288 44.226C135.586 44.394 135.918 44.478 136.282 44.478C136.776 44.478 137.196 44.352 137.542 44.1C137.887 43.8387 138.12 43.5073 138.242 43.106V41.902C138.12 41.5007 137.882 41.1787 137.528 40.936C137.173 40.684 136.758 40.558 136.282 40.558C135.918 40.558 135.586 40.642 135.288 40.81C134.998 40.978 134.765 41.2067 134.588 41.496C134.42 41.7853 134.336 42.1213 134.336 42.504ZM141.861 39.648H143.275V45.5H141.861V39.648ZM141.791 37.548C141.791 37.3333 141.875 37.1513 142.043 37.002C142.22 36.8527 142.412 36.778 142.617 36.778C142.822 36.778 143.009 36.8527 143.177 37.002C143.345 37.1513 143.429 37.3333 143.429 37.548C143.429 37.7813 143.345 37.968 143.177 38.108C143.009 38.248 142.822 38.318 142.617 38.318C142.412 38.318 142.22 38.248 142.043 38.108C141.875 37.968 141.791 37.7813 141.791 37.548ZM147.178 45.626C146.749 45.626 146.338 45.5513 145.946 45.402C145.554 45.2433 145.223 45.0193 144.952 44.73L145.554 43.918C145.797 44.1513 146.049 44.3287 146.31 44.45C146.581 44.5713 146.833 44.632 147.066 44.632C147.337 44.632 147.575 44.5807 147.78 44.478C147.985 44.366 148.088 44.184 148.088 43.932C148.088 43.7267 148.018 43.568 147.878 43.456C147.747 43.344 147.579 43.2507 147.374 43.176C147.169 43.1013 146.949 43.0313 146.716 42.966C146.231 42.8073 145.857 42.5833 145.596 42.294C145.344 41.9953 145.218 41.6453 145.218 41.244C145.218 40.936 145.293 40.6467 145.442 40.376C145.601 40.096 145.839 39.872 146.156 39.704C146.473 39.5267 146.865 39.438 147.332 39.438C147.743 39.438 148.111 39.4893 148.438 39.592C148.765 39.6853 149.068 39.8487 149.348 40.082L148.802 40.936C148.634 40.768 148.433 40.642 148.2 40.558C147.976 40.4647 147.771 40.4133 147.584 40.404C147.332 40.404 147.113 40.4647 146.926 40.586C146.739 40.698 146.646 40.852 146.646 41.048C146.646 41.244 146.711 41.4027 146.842 41.524C146.973 41.636 147.141 41.7293 147.346 41.804C147.561 41.8693 147.775 41.9393 147.99 42.014C148.419 42.154 148.774 42.3453 149.054 42.588C149.343 42.8307 149.488 43.1853 149.488 43.652C149.488 44.0067 149.404 44.3333 149.236 44.632C149.068 44.9307 148.811 45.1733 148.466 45.36C148.13 45.5373 147.701 45.626 147.178 45.626ZM151.841 37.086H153.269V39.662H154.837V40.768H153.269V45.5H151.841V40.768H150.805V39.662H151.841V37.086ZM157.654 39.648L157.794 41.328L157.738 41.104C157.897 40.7493 158.116 40.446 158.396 40.194C158.685 39.942 158.984 39.7507 159.292 39.62C159.609 39.48 159.875 39.41 160.09 39.41L160.02 40.81C159.581 40.782 159.194 40.866 158.858 41.062C158.531 41.258 158.275 41.5193 158.088 41.846C157.901 42.1727 157.808 42.5227 157.808 42.896V45.5H156.394V39.648H157.654ZM164.026 45.64C163.475 45.64 162.976 45.5233 162.528 45.29C162.08 45.0567 161.725 44.716 161.464 44.268C161.202 43.8107 161.072 43.246 161.072 42.574C161.072 41.9207 161.207 41.3607 161.478 40.894C161.758 40.418 162.122 40.054 162.57 39.802C163.027 39.5407 163.522 39.41 164.054 39.41C164.614 39.41 165.076 39.5267 165.44 39.76C165.804 39.9933 166.084 40.2733 166.28 40.6L166.196 40.824L166.336 39.648H167.638V45.5H166.224V44.016L166.364 44.366C166.326 44.4407 166.247 44.548 166.126 44.688C166.004 44.828 165.846 44.9727 165.65 45.122C165.454 45.262 165.216 45.3833 164.936 45.486C164.665 45.5887 164.362 45.64 164.026 45.64ZM164.404 44.478C164.87 44.478 165.262 44.3567 165.58 44.114C165.906 43.862 166.121 43.5213 166.224 43.092V41.888C166.112 41.5053 165.883 41.188 165.538 40.936C165.202 40.684 164.81 40.558 164.362 40.558C164.026 40.558 163.718 40.642 163.438 40.81C163.158 40.9687 162.934 41.1973 162.766 41.496C162.598 41.7853 162.514 42.1213 162.514 42.504C162.514 42.8773 162.598 43.2133 162.766 43.512C162.943 43.8107 163.176 44.0487 163.466 44.226C163.755 44.394 164.068 44.478 164.404 44.478ZM170.407 37.086H171.835V39.662H173.403V40.768H171.835V45.5H170.407V40.768H169.371V39.662H170.407V37.086ZM174.96 39.648H176.374V45.5H174.96V39.648ZM174.89 37.548C174.89 37.3333 174.974 37.1513 175.142 37.002C175.32 36.8527 175.511 36.778 175.716 36.778C175.922 36.778 176.108 36.8527 176.276 37.002C176.444 37.1513 176.528 37.3333 176.528 37.548C176.528 37.7813 176.444 37.968 176.276 38.108C176.108 38.248 175.922 38.318 175.716 38.318C175.511 38.318 175.32 38.248 175.142 38.108C174.974 37.968 174.89 37.7813 174.89 37.548ZM178.08 42.518C178.08 41.93 178.22 41.4027 178.5 40.936C178.78 40.46 179.167 40.0867 179.662 39.816C180.156 39.5453 180.721 39.41 181.356 39.41C182 39.41 182.56 39.5453 183.036 39.816C183.521 40.0867 183.894 40.46 184.156 40.936C184.426 41.4027 184.562 41.93 184.562 42.518C184.562 43.106 184.426 43.638 184.156 44.114C183.885 44.5807 183.507 44.954 183.022 45.234C182.546 45.5047 181.981 45.64 181.328 45.64C180.712 45.64 180.156 45.514 179.662 45.262C179.176 45.01 178.789 44.6507 178.5 44.184C178.22 43.708 178.08 43.1527 178.08 42.518ZM179.508 42.532C179.508 42.896 179.587 43.2273 179.746 43.526C179.904 43.8153 180.119 44.0487 180.39 44.226C180.67 44.394 180.978 44.478 181.314 44.478C181.846 44.478 182.28 44.2913 182.616 43.918C182.961 43.5447 183.134 43.0827 183.134 42.532C183.134 41.9813 182.961 41.5193 182.616 41.146C182.28 40.7633 181.846 40.572 181.314 40.572C180.968 40.572 180.66 40.6607 180.39 40.838C180.119 41.0153 179.904 41.2533 179.746 41.552C179.587 41.8507 179.508 42.1773 179.508 42.532ZM187.541 39.648L187.667 41.006L187.611 40.81C187.798 40.39 188.096 40.054 188.507 39.802C188.927 39.55 189.417 39.424 189.977 39.424C190.528 39.424 190.98 39.5873 191.335 39.914C191.69 40.2313 191.872 40.6513 191.881 41.174V45.5H190.467V41.664C190.458 41.3653 190.369 41.1227 190.201 40.936C190.033 40.74 189.772 40.6373 189.417 40.628C188.922 40.628 188.507 40.8333 188.171 41.244C187.844 41.6547 187.681 42.182 187.681 42.826V45.5H186.267V39.648H187.541ZM122.031 56.35H123.487V66.5H122.031V56.35ZM127.303 60.648L127.429 62.006L127.373 61.81C127.56 61.39 127.858 61.054 128.269 60.802C128.689 60.55 129.179 60.424 129.739 60.424C130.29 60.424 130.742 60.5873 131.097 60.914C131.452 61.2313 131.634 61.6513 131.643 62.174V66.5H130.229V62.664C130.22 62.3653 130.131 62.1227 129.963 61.936C129.795 61.74 129.534 61.6373 129.179 61.628C128.684 61.628 128.269 61.8333 127.933 62.244C127.606 62.6547 127.443 63.182 127.443 63.826V66.5H126.029V60.648H127.303ZM138.789 56.35C139.909 56.35 140.787 56.63 141.421 57.19C142.056 57.75 142.373 58.534 142.373 59.542C142.373 59.9433 142.313 60.34 142.191 60.732C142.07 61.124 141.874 61.4833 141.603 61.81C141.342 62.1273 140.992 62.384 140.553 62.58C140.124 62.7667 139.597 62.86 138.971 62.86H137.473V66.5H136.017V56.35H138.789ZM138.957 61.432C139.34 61.432 139.657 61.3713 139.909 61.25C140.171 61.1193 140.371 60.956 140.511 60.76C140.661 60.564 140.763 60.3587 140.819 60.144C140.885 59.9293 140.917 59.738 140.917 59.57C140.917 59.3833 140.885 59.1873 140.819 58.982C140.763 58.7673 140.661 58.5713 140.511 58.394C140.371 58.2073 140.18 58.058 139.937 57.946C139.695 57.8247 139.391 57.764 139.027 57.764H137.473V61.432H138.957ZM145.363 60.648L145.503 62.328L145.447 62.104C145.606 61.7493 145.825 61.446 146.105 61.194C146.394 60.942 146.693 60.7507 147.001 60.62C147.318 60.48 147.584 60.41 147.799 60.41L147.729 61.81C147.29 61.782 146.903 61.866 146.567 62.062C146.24 62.258 145.984 62.5193 145.797 62.846C145.61 63.1727 145.517 63.5227 145.517 63.896V66.5H144.103V60.648H145.363ZM148.685 63.518C148.685 62.93 148.825 62.4027 149.105 61.936C149.385 61.46 149.772 61.0867 150.267 60.816C150.762 60.5453 151.326 60.41 151.961 60.41C152.605 60.41 153.165 60.5453 153.641 60.816C154.126 61.0867 154.5 61.46 154.761 61.936C155.032 62.4027 155.167 62.93 155.167 63.518C155.167 64.106 155.032 64.638 154.761 65.114C154.49 65.5807 154.112 65.954 153.627 66.234C153.151 66.5047 152.586 66.64 151.933 66.64C151.317 66.64 150.762 66.514 150.267 66.262C149.782 66.01 149.394 65.6507 149.105 65.184C148.825 64.708 148.685 64.1527 148.685 63.518ZM150.113 63.532C150.113 63.896 150.192 64.2273 150.351 64.526C150.51 64.8153 150.724 65.0487 150.995 65.226C151.275 65.394 151.583 65.478 151.919 65.478C152.451 65.478 152.885 65.2913 153.221 64.918C153.566 64.5447 153.739 64.0827 153.739 63.532C153.739 62.9813 153.566 62.5193 153.221 62.146C152.885 61.7633 152.451 61.572 151.919 61.572C151.574 61.572 151.266 61.6607 150.995 61.838C150.724 62.0153 150.51 62.2533 150.351 62.552C150.192 62.8507 150.113 63.1773 150.113 63.532ZM159.729 69.412C159.281 69.412 158.889 69.356 158.553 69.244C158.217 69.1413 157.913 69.0013 157.643 68.824C157.381 68.6467 157.129 68.4507 156.887 68.236L157.727 67.27C158.016 67.55 158.315 67.7693 158.623 67.928C158.94 68.0867 159.299 68.166 159.701 68.166C160.335 68.166 160.825 68.0167 161.171 67.718C161.516 67.4193 161.693 67.018 161.703 66.514V64.988L161.801 65.254C161.633 65.646 161.334 65.9773 160.905 66.248C160.485 66.5093 159.962 66.64 159.337 66.64C158.795 66.64 158.301 66.5047 157.853 66.234C157.405 65.9633 157.045 65.5947 156.775 65.128C156.504 64.6613 156.369 64.134 156.369 63.546C156.369 62.9393 156.509 62.4027 156.789 61.936C157.078 61.46 157.456 61.0867 157.923 60.816C158.389 60.5453 158.889 60.41 159.421 60.41C159.943 60.41 160.41 60.508 160.821 60.704C161.241 60.9 161.549 61.152 161.745 61.46L161.675 61.698L161.815 60.648H163.117V66.542C163.117 67.074 162.977 67.5547 162.697 67.984C162.417 68.4227 162.025 68.768 161.521 69.02C161.017 69.2813 160.419 69.412 159.729 69.412ZM157.797 63.504C157.797 63.8773 157.881 64.2133 158.049 64.512C158.226 64.8107 158.459 65.0487 158.749 65.226C159.047 65.394 159.379 65.478 159.743 65.478C160.237 65.478 160.657 65.352 161.003 65.1C161.348 64.8387 161.581 64.5073 161.703 64.106V62.902C161.581 62.5007 161.343 62.1787 160.989 61.936C160.634 61.684 160.219 61.558 159.743 61.558C159.379 61.558 159.047 61.642 158.749 61.81C158.459 61.978 158.226 62.2067 158.049 62.496C157.881 62.7853 157.797 63.1213 157.797 63.504ZM166.582 60.648L166.722 62.328L166.666 62.104C166.824 61.7493 167.044 61.446 167.324 61.194C167.613 60.942 167.912 60.7507 168.22 60.62C168.537 60.48 168.803 60.41 169.018 60.41L168.948 61.81C168.509 61.782 168.122 61.866 167.786 62.062C167.459 62.258 167.202 62.5193 167.016 62.846C166.829 63.1727 166.736 63.5227 166.736 63.896V66.5H165.322V60.648H166.582ZM173.152 66.64C172.48 66.64 171.901 66.5093 171.416 66.248C170.93 65.9773 170.557 65.6087 170.296 65.142C170.034 64.666 169.904 64.1293 169.904 63.532C169.904 62.9533 170.048 62.4307 170.338 61.964C170.636 61.488 171.033 61.11 171.528 60.83C172.022 60.55 172.573 60.41 173.18 60.41C173.964 60.41 174.612 60.6387 175.126 61.096C175.648 61.544 175.998 62.1787 176.176 63L171.402 64.652L171.066 63.84L174.902 62.44L174.608 62.636C174.496 62.3373 174.318 62.0807 174.076 61.866C173.833 61.642 173.502 61.53 173.082 61.53C172.559 61.53 172.13 61.712 171.794 62.076C171.467 62.4307 171.304 62.888 171.304 63.448C171.304 64.0453 171.481 64.526 171.836 64.89C172.19 65.254 172.638 65.436 173.18 65.436C173.432 65.436 173.674 65.394 173.908 65.31C174.141 65.2167 174.36 65.0953 174.566 64.946L175.21 65.996C174.911 66.192 174.58 66.3507 174.216 66.472C173.861 66.584 173.506 66.64 173.152 66.64ZM179.457 66.626C179.028 66.626 178.617 66.5513 178.225 66.402C177.833 66.2433 177.502 66.0193 177.231 65.73L177.833 64.918C178.076 65.1513 178.328 65.3287 178.589 65.45C178.86 65.5713 179.112 65.632 179.345 65.632C179.616 65.632 179.854 65.5807 180.059 65.478C180.265 65.366 180.367 65.184 180.367 64.932C180.367 64.7267 180.297 64.568 180.157 64.456C180.027 64.344 179.859 64.2507 179.653 64.176C179.448 64.1013 179.229 64.0313 178.995 63.966C178.51 63.8073 178.137 63.5833 177.875 63.294C177.623 62.9953 177.497 62.6453 177.497 62.244C177.497 61.936 177.572 61.6467 177.721 61.376C177.88 61.096 178.118 60.872 178.435 60.704C178.753 60.5267 179.145 60.438 179.611 60.438C180.022 60.438 180.391 60.4893 180.717 60.592C181.044 60.6853 181.347 60.8487 181.627 61.082L181.081 61.936C180.913 61.768 180.713 61.642 180.479 61.558C180.255 61.4647 180.05 61.4133 179.863 61.404C179.611 61.404 179.392 61.4647 179.205 61.586C179.019 61.698 178.925 61.852 178.925 62.048C178.925 62.244 178.991 62.4027 179.121 62.524C179.252 62.636 179.42 62.7293 179.625 62.804C179.84 62.8693 180.055 62.9393 180.269 63.014C180.699 63.154 181.053 63.3453 181.333 63.588C181.623 63.8307 181.767 64.1853 181.767 64.652C181.767 65.0067 181.683 65.3333 181.515 65.632C181.347 65.9307 181.091 66.1733 180.745 66.36C180.409 66.5373 179.98 66.626 179.457 66.626ZM185.254 66.626C184.825 66.626 184.414 66.5513 184.022 66.402C183.63 66.2433 183.299 66.0193 183.028 65.73L183.63 64.918C183.873 65.1513 184.125 65.3287 184.386 65.45C184.657 65.5713 184.909 65.632 185.142 65.632C185.413 65.632 185.651 65.5807 185.856 65.478C186.061 65.366 186.164 65.184 186.164 64.932C186.164 64.7267 186.094 64.568 185.954 64.456C185.823 64.344 185.655 64.2507 185.45 64.176C185.245 64.1013 185.025 64.0313 184.792 63.966C184.307 63.8073 183.933 63.5833 183.672 63.294C183.42 62.9953 183.294 62.6453 183.294 62.244C183.294 61.936 183.369 61.6467 183.518 61.376C183.677 61.096 183.915 60.872 184.232 60.704C184.549 60.5267 184.941 60.438 185.408 60.438C185.819 60.438 186.187 60.4893 186.514 60.592C186.841 60.6853 187.144 60.8487 187.424 61.082L186.878 61.936C186.71 61.768 186.509 61.642 186.276 61.558C186.052 61.4647 185.847 61.4133 185.66 61.404C185.408 61.404 185.189 61.4647 185.002 61.586C184.815 61.698 184.722 61.852 184.722 62.048C184.722 62.244 184.787 62.4027 184.918 62.524C185.049 62.636 185.217 62.7293 185.422 62.804C185.637 62.8693 185.851 62.9393 186.066 63.014C186.495 63.154 186.85 63.3453 187.13 63.588C187.419 63.8307 187.564 64.1853 187.564 64.652C187.564 65.0067 187.48 65.3333 187.312 65.632C187.144 65.9307 186.887 66.1733 186.542 66.36C186.206 66.5373 185.777 66.626 185.254 66.626Z" fill="white"/>
</g>
<g filter="url(#filter5_ddd_1758_5357)">
<path d="M210.84 45.5L209.42 44.08L216 37.5L209.42 30.92L210.84 29.5L218.84 37.5L210.84 45.5Z" fill="white"/>
</g>
<g filter="url(#filter6_ddd_1758_5357)">
<mask id="mask2_1758_5357" style="mask-type:alpha" maskUnits="userSpaceOnUse" x="261" y="2" width="25" height="25">
<rect x="261.84" y="2.5" width="24" height="24" fill="#D9D9D9"/>
</mask>
<g mask="url(#mask2_1758_5357)">
<path d="M273.84 24.5C272.457 24.5 271.157 24.2375 269.94 23.7125C268.723 23.1875 267.665 22.475 266.765 21.575C265.865 20.675 265.152 19.6167 264.627 18.4C264.102 17.1833 263.84 15.8833 263.84 14.5C263.84 13.1167 264.102 11.8167 264.627 10.6C265.152 9.38333 265.865 8.325 266.765 7.425C267.665 6.525 268.723 5.8125 269.94 5.2875C271.157 4.7625 272.457 4.5 273.84 4.5C274.923 4.5 275.948 4.65833 276.915 4.975C277.882 5.29167 278.773 5.73333 279.59 6.3L278.14 7.775C277.507 7.375 276.832 7.0625 276.115 6.8375C275.398 6.6125 274.64 6.5 273.84 6.5C271.623 6.5 269.736 7.27917 268.177 8.8375C266.619 10.3958 265.84 12.2833 265.84 14.5C265.84 16.7167 266.619 18.6042 268.177 20.1625C269.736 21.7208 271.623 22.5 273.84 22.5C274.373 22.5 274.89 22.45 275.39 22.35C275.89 22.25 276.373 22.1083 276.84 21.925L278.34 23.45C277.657 23.7833 276.94 24.0417 276.19 24.225C275.44 24.4083 274.657 24.5 273.84 24.5ZM280.84 22.5V19.5H277.84V17.5H280.84V14.5H282.84V17.5H285.84V19.5H282.84V22.5H280.84ZM272.44 19.1L268.19 14.85L269.59 13.45L272.44 16.3L282.44 6.275L283.84 7.675L272.44 19.1Z" fill="#48FF5B"/>
</g>
</g>
<g filter="url(#filter7_ddd_1758_5357)">
<path d="M239.465 35.35C240.174 35.35 240.804 35.476 241.355 35.728C241.905 35.9707 242.335 36.33 242.643 36.806C242.96 37.2727 243.119 37.8513 243.119 38.542C243.119 38.9433 243.058 39.34 242.937 39.732C242.815 40.124 242.619 40.4787 242.349 40.796C242.087 41.1133 241.733 41.37 241.285 41.566C240.846 41.7527 240.305 41.846 239.661 41.846H238.163V45.5H236.707V35.35H239.465ZM239.633 40.432C240.155 40.432 240.557 40.334 240.837 40.138C241.126 39.9327 241.327 39.69 241.439 39.41C241.551 39.1207 241.607 38.85 241.607 38.598C241.607 38.4113 241.574 38.2153 241.509 38.01C241.443 37.7953 241.336 37.5947 241.187 37.408C241.047 37.212 240.855 37.058 240.613 36.946C240.37 36.8247 240.071 36.764 239.717 36.764H238.163V40.432H239.633ZM241.341 41.3L243.973 45.5H242.265L239.591 41.328L241.341 41.3ZM248.22 45.64C247.548 45.64 246.969 45.5093 246.484 45.248C245.999 44.9773 245.625 44.6087 245.364 44.142C245.103 43.666 244.972 43.1293 244.972 42.532C244.972 41.9533 245.117 41.4307 245.406 40.964C245.705 40.488 246.101 40.11 246.596 39.83C247.091 39.55 247.641 39.41 248.248 39.41C249.032 39.41 249.681 39.6387 250.194 40.096C250.717 40.544 251.067 41.1787 251.244 42L246.47 43.652L246.134 42.84L249.97 41.44L249.676 41.636C249.564 41.3373 249.387 41.0807 249.144 40.866C248.901 40.642 248.57 40.53 248.15 40.53C247.627 40.53 247.198 40.712 246.862 41.076C246.535 41.4307 246.372 41.888 246.372 42.448C246.372 43.0453 246.549 43.526 246.904 43.89C247.259 44.254 247.707 44.436 248.248 44.436C248.5 44.436 248.743 44.394 248.976 44.31C249.209 44.2167 249.429 44.0953 249.634 43.946L250.278 44.996C249.979 45.192 249.648 45.3507 249.284 45.472C248.929 45.584 248.575 45.64 248.22 45.64ZM255.688 48.412C255.24 48.412 254.848 48.356 254.512 48.244C254.176 48.1413 253.872 48.0013 253.602 47.824C253.34 47.6467 253.088 47.4507 252.846 47.236L253.686 46.27C253.975 46.55 254.274 46.7693 254.582 46.928C254.899 47.0867 255.258 47.166 255.66 47.166C256.294 47.166 256.784 47.0167 257.13 46.718C257.475 46.4193 257.652 46.018 257.662 45.514V43.988L257.76 44.254C257.592 44.646 257.293 44.9773 256.864 45.248C256.444 45.5093 255.921 45.64 255.296 45.64C254.754 45.64 254.26 45.5047 253.812 45.234C253.364 44.9633 253.004 44.5947 252.734 44.128C252.463 43.6613 252.328 43.134 252.328 42.546C252.328 41.9393 252.468 41.4027 252.748 40.936C253.037 40.46 253.415 40.0867 253.882 39.816C254.348 39.5453 254.848 39.41 255.38 39.41C255.902 39.41 256.369 39.508 256.78 39.704C257.2 39.9 257.508 40.152 257.704 40.46L257.634 40.698L257.774 39.648H259.076V45.542C259.076 46.074 258.936 46.5547 258.656 46.984C258.376 47.4227 257.984 47.768 257.48 48.02C256.976 48.2813 256.378 48.412 255.688 48.412ZM253.756 42.504C253.756 42.8773 253.84 43.2133 254.008 43.512C254.185 43.8107 254.418 44.0487 254.708 44.226C255.006 44.394 255.338 44.478 255.702 44.478C256.196 44.478 256.616 44.352 256.962 44.1C257.307 43.8387 257.54 43.5073 257.662 43.106V41.902C257.54 41.5007 257.302 41.1787 256.948 40.936C256.593 40.684 256.178 40.558 255.702 40.558C255.338 40.558 255.006 40.642 254.708 40.81C254.418 40.978 254.185 41.2067 254.008 41.496C253.84 41.7853 253.756 42.1213 253.756 42.504ZM261.281 39.648H262.695V45.5H261.281V39.648ZM261.211 37.548C261.211 37.3333 261.295 37.1513 261.463 37.002C261.64 36.8527 261.831 36.778 262.037 36.778C262.242 36.778 262.429 36.8527 262.597 37.002C262.765 37.1513 262.849 37.3333 262.849 37.548C262.849 37.7813 262.765 37.968 262.597 38.108C262.429 38.248 262.242 38.318 262.037 38.318C261.831 38.318 261.64 38.248 261.463 38.108C261.295 37.968 261.211 37.7813 261.211 37.548ZM266.598 45.626C266.169 45.626 265.758 45.5513 265.366 45.402C264.974 45.2433 264.643 45.0193 264.372 44.73L264.974 43.918C265.217 44.1513 265.469 44.3287 265.73 44.45C266.001 44.5713 266.253 44.632 266.486 44.632C266.757 44.632 266.995 44.5807 267.2 44.478C267.405 44.366 267.508 44.184 267.508 43.932C267.508 43.7267 267.438 43.568 267.298 43.456C267.167 43.344 266.999 43.2507 266.794 43.176C266.589 43.1013 266.369 43.0313 266.136 42.966C265.651 42.8073 265.277 42.5833 265.016 42.294C264.764 41.9953 264.638 41.6453 264.638 41.244C264.638 40.936 264.713 40.6467 264.862 40.376C265.021 40.096 265.259 39.872 265.576 39.704C265.893 39.5267 266.285 39.438 266.752 39.438C267.163 39.438 267.531 39.4893 267.858 39.592C268.185 39.6853 268.488 39.8487 268.768 40.082L268.222 40.936C268.054 40.768 267.853 40.642 267.62 40.558C267.396 40.4647 267.191 40.4133 267.004 40.404C266.752 40.404 266.533 40.4647 266.346 40.586C266.159 40.698 266.066 40.852 266.066 41.048C266.066 41.244 266.131 41.4027 266.262 41.524C266.393 41.636 266.561 41.7293 266.766 41.804C266.981 41.8693 267.195 41.9393 267.41 42.014C267.839 42.154 268.194 42.3453 268.474 42.588C268.763 42.8307 268.908 43.1853 268.908 43.652C268.908 44.0067 268.824 44.3333 268.656 44.632C268.488 44.9307 268.231 45.1733 267.886 45.36C267.55 45.5373 267.121 45.626 266.598 45.626ZM271.261 37.086H272.689V39.662H274.257V40.768H272.689V45.5H271.261V40.768H270.225V39.662H271.261V37.086ZM277.074 39.648L277.214 41.328L277.158 41.104C277.317 40.7493 277.536 40.446 277.816 40.194C278.105 39.942 278.404 39.7507 278.712 39.62C279.029 39.48 279.295 39.41 279.51 39.41L279.44 40.81C279.001 40.782 278.614 40.866 278.278 41.062C277.951 41.258 277.695 41.5193 277.508 41.846C277.321 42.1727 277.228 42.5227 277.228 42.896V45.5H275.814V39.648H277.074ZM283.446 45.64C282.895 45.64 282.396 45.5233 281.948 45.29C281.5 45.0567 281.145 44.716 280.884 44.268C280.622 43.8107 280.492 43.246 280.492 42.574C280.492 41.9207 280.627 41.3607 280.898 40.894C281.178 40.418 281.542 40.054 281.99 39.802C282.447 39.5407 282.942 39.41 283.474 39.41C284.034 39.41 284.496 39.5267 284.86 39.76C285.224 39.9933 285.504 40.2733 285.7 40.6L285.616 40.824L285.756 39.648H287.058V45.5H285.644V44.016L285.784 44.366C285.746 44.4407 285.667 44.548 285.546 44.688C285.424 44.828 285.266 44.9727 285.07 45.122C284.874 45.262 284.636 45.3833 284.356 45.486C284.085 45.5887 283.782 45.64 283.446 45.64ZM283.824 44.478C284.29 44.478 284.682 44.3567 285 44.114C285.326 43.862 285.541 43.5213 285.644 43.092V41.888C285.532 41.5053 285.303 41.188 284.958 40.936C284.622 40.684 284.23 40.558 283.782 40.558C283.446 40.558 283.138 40.642 282.858 40.81C282.578 40.9687 282.354 41.1973 282.186 41.496C282.018 41.7853 281.934 42.1213 281.934 42.504C281.934 42.8773 282.018 43.2133 282.186 43.512C282.363 43.8107 282.596 44.0487 282.886 44.226C283.175 44.394 283.488 44.478 283.824 44.478ZM289.827 37.086H291.255V39.662H292.823V40.768H291.255V45.5H289.827V40.768H288.791V39.662H289.827V37.086ZM294.38 39.648H295.794V45.5H294.38V39.648ZM294.31 37.548C294.31 37.3333 294.394 37.1513 294.562 37.002C294.74 36.8527 294.931 36.778 295.136 36.778C295.342 36.778 295.528 36.8527 295.696 37.002C295.864 37.1513 295.948 37.3333 295.948 37.548C295.948 37.7813 295.864 37.968 295.696 38.108C295.528 38.248 295.342 38.318 295.136 38.318C294.931 38.318 294.74 38.248 294.562 38.108C294.394 37.968 294.31 37.7813 294.31 37.548ZM297.499 42.518C297.499 41.93 297.639 41.4027 297.919 40.936C298.199 40.46 298.587 40.0867 299.081 39.816C299.576 39.5453 300.141 39.41 300.775 39.41C301.419 39.41 301.979 39.5453 302.455 39.816C302.941 40.0867 303.314 40.46 303.575 40.936C303.846 41.4027 303.981 41.93 303.981 42.518C303.981 43.106 303.846 43.638 303.575 44.114C303.305 44.5807 302.927 44.954 302.441 45.234C301.965 45.5047 301.401 45.64 300.747 45.64C300.131 45.64 299.576 45.514 299.081 45.262C298.596 45.01 298.209 44.6507 297.919 44.184C297.639 43.708 297.499 43.1527 297.499 42.518ZM298.927 42.532C298.927 42.896 299.007 43.2273 299.165 43.526C299.324 43.8153 299.539 44.0487 299.809 44.226C300.089 44.394 300.397 44.478 300.733 44.478C301.265 44.478 301.699 44.2913 302.035 43.918C302.381 43.5447 302.553 43.0827 302.553 42.532C302.553 41.9813 302.381 41.5193 302.035 41.146C301.699 40.7633 301.265 40.572 300.733 40.572C300.388 40.572 300.08 40.6607 299.809 40.838C299.539 41.0153 299.324 41.2533 299.165 41.552C299.007 41.8507 298.927 42.1773 298.927 42.532ZM306.961 39.648L307.087 41.006L307.031 40.81C307.218 40.39 307.516 40.054 307.927 39.802C308.347 39.55 308.837 39.424 309.397 39.424C309.948 39.424 310.4 39.5873 310.755 39.914C311.11 40.2313 311.292 40.6513 311.301 41.174V45.5H309.887V41.664C309.878 41.3653 309.789 41.1227 309.621 40.936C309.453 40.74 309.192 40.6373 308.837 40.628C308.342 40.628 307.927 40.8333 307.591 41.244C307.264 41.6547 307.101 42.182 307.101 42.826V45.5H305.687V39.648H306.961ZM248.147 65.73C247.989 65.8327 247.76 65.9587 247.461 66.108C247.172 66.248 246.827 66.3693 246.425 66.472C246.033 66.5747 245.604 66.6213 245.137 66.612C244.344 66.6027 243.635 66.4627 243.009 66.192C242.384 65.9213 241.847 65.5527 241.399 65.086C240.961 64.61 240.625 64.0687 240.391 63.462C240.158 62.846 240.041 62.1927 240.041 61.502C240.041 60.7367 240.163 60.0367 240.405 59.402C240.657 58.758 241.007 58.2027 241.455 57.736C241.903 57.26 242.431 56.8913 243.037 56.63C243.653 56.3687 244.325 56.238 245.053 56.238C245.669 56.238 246.229 56.322 246.733 56.49C247.237 56.658 247.662 56.8493 248.007 57.064L247.419 58.436C247.149 58.2493 246.813 58.072 246.411 57.904C246.019 57.736 245.581 57.652 245.095 57.652C244.461 57.652 243.873 57.82 243.331 58.156C242.799 58.492 242.37 58.9447 242.043 59.514C241.726 60.0833 241.567 60.7227 241.567 61.432C241.567 62.1507 241.712 62.7947 242.001 63.364C242.3 63.9333 242.72 64.3813 243.261 64.708C243.803 65.0347 244.437 65.198 245.165 65.198C245.688 65.198 246.145 65.1187 246.537 64.96C246.939 64.8013 247.265 64.6193 247.517 64.414L248.147 65.73ZM249.552 63.518C249.552 62.93 249.692 62.4027 249.972 61.936C250.252 61.46 250.64 61.0867 251.134 60.816C251.629 60.5453 252.194 60.41 252.828 60.41C253.472 60.41 254.032 60.5453 254.508 60.816C254.994 61.0867 255.367 61.46 255.628 61.936C255.899 62.4027 256.034 62.93 256.034 63.518C256.034 64.106 255.899 64.638 255.628 65.114C255.358 65.5807 254.98 65.954 254.494 66.234C254.018 66.5047 253.454 66.64 252.8 66.64C252.184 66.64 251.629 66.514 251.134 66.262C250.649 66.01 250.262 65.6507 249.972 65.184C249.692 64.708 249.552 64.1527 249.552 63.518ZM250.98 63.532C250.98 63.896 251.06 64.2273 251.218 64.526C251.377 64.8153 251.592 65.0487 251.862 65.226C252.142 65.394 252.45 65.478 252.786 65.478C253.318 65.478 253.752 65.2913 254.088 64.918C254.434 64.5447 254.606 64.0827 254.606 63.532C254.606 62.9813 254.434 62.5193 254.088 62.146C253.752 61.7633 253.318 61.572 252.786 61.572C252.441 61.572 252.133 61.6607 251.862 61.838C251.592 62.0153 251.377 62.2533 251.218 62.552C251.06 62.8507 250.98 63.1773 250.98 63.532ZM259.014 60.648L259.14 61.922L259.07 61.81C259.284 61.3713 259.588 61.0307 259.98 60.788C260.381 60.536 260.838 60.41 261.352 60.41C261.837 60.41 262.243 60.522 262.57 60.746C262.896 60.97 263.097 61.2873 263.172 61.698L263.102 61.754C263.335 61.334 263.648 61.0073 264.04 60.774C264.432 60.5313 264.842 60.41 265.272 60.41C265.85 60.41 266.308 60.5733 266.644 60.9C266.98 61.2173 267.152 61.6373 267.162 62.16V66.5H265.762V62.692C265.752 62.3933 265.682 62.146 265.552 61.95C265.43 61.754 265.206 61.6467 264.88 61.628C264.544 61.628 264.245 61.7307 263.984 61.936C263.732 62.1413 263.531 62.4073 263.382 62.734C263.242 63.0607 263.167 63.4107 263.158 63.784V66.5H261.744V62.692C261.734 62.3933 261.66 62.146 261.52 61.95C261.389 61.754 261.16 61.6467 260.834 61.628C260.507 61.628 260.213 61.7307 259.952 61.936C259.7 62.1413 259.504 62.412 259.364 62.748C259.224 63.0747 259.154 63.4247 259.154 63.798V66.5H257.74V60.648H259.014ZM272.875 66.64C272.445 66.64 272.03 66.5467 271.629 66.36C271.237 66.164 270.929 65.898 270.705 65.562L270.789 65.128V69.314H269.375V60.55H270.593L270.789 61.992L270.649 61.586C270.929 61.2407 271.279 60.9607 271.699 60.746C272.128 60.522 272.609 60.41 273.141 60.41C273.691 60.41 274.186 60.5407 274.625 60.802C275.063 61.0633 275.409 61.432 275.661 61.908C275.913 62.3747 276.039 62.9253 276.039 63.56C276.039 64.1947 275.899 64.7453 275.619 65.212C275.348 65.6693 274.975 66.024 274.499 66.276C274.023 66.5187 273.481 66.64 272.875 66.64ZM272.595 65.52C272.959 65.52 273.29 65.436 273.589 65.268C273.897 65.1 274.139 64.8713 274.317 64.582C274.503 64.2833 274.597 63.9473 274.597 63.574C274.597 63.1913 274.513 62.8507 274.345 62.552C274.177 62.2533 273.948 62.02 273.659 61.852C273.369 61.684 273.047 61.6 272.693 61.6C272.207 61.6 271.797 61.7307 271.461 61.992C271.134 62.2533 270.91 62.5987 270.789 63.028V64.078C270.863 64.498 271.069 64.8433 271.405 65.114C271.741 65.3847 272.137 65.52 272.595 65.52ZM277.742 55.622H279.156V66.5H277.742V55.622ZM284.109 66.64C283.437 66.64 282.858 66.5093 282.373 66.248C281.887 65.9773 281.514 65.6087 281.253 65.142C280.991 64.666 280.861 64.1293 280.861 63.532C280.861 62.9533 281.005 62.4307 281.295 61.964C281.593 61.488 281.99 61.11 282.485 60.83C282.979 60.55 283.53 60.41 284.137 60.41C284.921 60.41 285.569 60.6387 286.083 61.096C286.605 61.544 286.955 62.1787 287.133 63L282.359 64.652L282.023 63.84L285.859 62.44L285.565 62.636C285.453 62.3373 285.275 62.0807 285.033 61.866C284.79 61.642 284.459 61.53 284.039 61.53C283.516 61.53 283.087 61.712 282.751 62.076C282.424 62.4307 282.261 62.888 282.261 63.448C282.261 64.0453 282.438 64.526 282.793 64.89C283.147 65.254 283.595 65.436 284.137 65.436C284.389 65.436 284.631 65.394 284.865 65.31C285.098 65.2167 285.317 65.0953 285.523 64.946L286.167 65.996C285.868 66.192 285.537 66.3507 285.173 66.472C284.818 66.584 284.463 66.64 284.109 66.64ZM289.28 58.086H290.708V60.662H292.276V61.768H290.708V66.5H289.28V61.768H288.244V60.662H289.28V58.086ZM296.578 66.64C295.906 66.64 295.327 66.5093 294.842 66.248C294.356 65.9773 293.983 65.6087 293.722 65.142C293.46 64.666 293.33 64.1293 293.33 63.532C293.33 62.9533 293.474 62.4307 293.764 61.964C294.062 61.488 294.459 61.11 294.954 60.83C295.448 60.55 295.999 60.41 296.606 60.41C297.39 60.41 298.038 60.6387 298.552 61.096C299.074 61.544 299.424 62.1787 299.602 63L294.828 64.652L294.492 63.84L298.328 62.44L298.034 62.636C297.922 62.3373 297.744 62.0807 297.502 61.866C297.259 61.642 296.928 61.53 296.508 61.53C295.985 61.53 295.556 61.712 295.22 62.076C294.893 62.4307 294.73 62.888 294.73 63.448C294.73 64.0453 294.907 64.526 295.262 64.89C295.616 65.254 296.064 65.436 296.606 65.436C296.858 65.436 297.1 65.394 297.334 65.31C297.567 65.2167 297.786 65.0953 297.992 64.946L298.636 65.996C298.337 66.192 298.006 66.3507 297.642 66.472C297.287 66.584 296.932 66.64 296.578 66.64ZM303.583 66.64C303.032 66.64 302.538 66.514 302.099 66.262C301.66 66.0007 301.315 65.632 301.063 65.156C300.811 64.68 300.685 64.1247 300.685 63.49C300.685 62.8367 300.82 62.2813 301.091 61.824C301.362 61.3667 301.726 61.0167 302.183 60.774C302.65 60.5313 303.172 60.41 303.751 60.41C304.199 60.41 304.624 60.5033 305.025 60.69C305.436 60.8673 305.758 61.1193 305.991 61.446L305.935 61.936V55.622H307.349V66.5H305.921V65.1L306.075 65.478C305.795 65.814 305.44 66.094 305.011 66.318C304.591 66.5327 304.115 66.64 303.583 66.64ZM304.017 65.45C304.512 65.45 304.922 65.324 305.249 65.072C305.585 64.8107 305.809 64.4653 305.921 64.036V62.874C305.818 62.482 305.59 62.16 305.235 61.908C304.89 61.656 304.484 61.53 304.017 61.53C303.681 61.53 303.368 61.614 303.079 61.782C302.79 61.9407 302.556 62.1693 302.379 62.468C302.211 62.7573 302.127 63.0933 302.127 63.476C302.127 63.84 302.211 64.1713 302.379 64.47C302.556 64.7687 302.79 65.0067 303.079 65.184C303.368 65.3613 303.681 65.45 304.017 65.45Z" fill="white"/>
</g>
<g filter="url(#filter8_ddd_1758_5357)">
<path d="M330.26 45.5L328.84 44.08L335.42 37.5L328.84 30.92L330.26 29.5L338.26 37.5L330.26 45.5Z" fill="white"/>
</g>
<g filter="url(#filter9_ddd_1758_5357)">
<mask id="mask3_1758_5357" style="mask-type:alpha" maskUnits="userSpaceOnUse" x="361" y="2" width="25" height="25">
<rect x="361.26" y="2.5" width="24" height="24" fill="#D9D9D9"/>
</mask>
<g mask="url(#mask3_1758_5357)">
<path d="M366.26 23.5V6.5H375.26L375.66 8.5H381.26V18.5H374.26L373.86 16.5H368.26V23.5H366.26ZM375.91 16.5H379.26V10.5H374.01L373.61 8.5H368.26V14.5H375.51L375.91 16.5Z" fill="#48FF5B"/>
</g>
</g>
<g filter="url(#filter10_ddd_1758_5357)">
<path d="M363.794 44.604C363.654 44.7253 363.458 44.8467 363.206 44.968C362.954 45.0893 362.67 45.2013 362.352 45.304C362.044 45.3973 361.727 45.472 361.4 45.528C361.074 45.584 360.766 45.612 360.476 45.612C359.394 45.612 358.456 45.3973 357.662 44.968C356.869 44.5293 356.253 43.9367 355.814 43.19C355.385 42.4433 355.17 41.594 355.17 40.642C355.17 39.774 355.306 39.004 355.576 38.332C355.856 37.66 356.239 37.0953 356.724 36.638C357.21 36.1807 357.76 35.8353 358.376 35.602C359.002 35.3593 359.664 35.238 360.364 35.238C360.971 35.238 361.531 35.308 362.044 35.448C362.558 35.588 363.006 35.7653 363.388 35.98L362.898 37.338C362.712 37.226 362.478 37.1233 362.198 37.03C361.928 36.9273 361.643 36.848 361.344 36.792C361.055 36.736 360.789 36.708 360.546 36.708C359.762 36.708 359.081 36.862 358.502 37.17C357.924 37.478 357.476 37.9167 357.158 38.486C356.841 39.0553 356.682 39.732 356.682 40.516C356.682 41.2347 356.841 41.8693 357.158 42.42C357.485 42.9613 357.933 43.386 358.502 43.694C359.081 44.002 359.748 44.156 360.504 44.156C360.84 44.156 361.167 44.1233 361.484 44.058C361.811 43.9927 362.086 43.8947 362.31 43.764V41.888H360.336V40.474H363.794V44.604ZM368.455 45.64C367.905 45.64 367.405 45.5233 366.957 45.29C366.509 45.0567 366.155 44.716 365.893 44.268C365.632 43.8107 365.501 43.246 365.501 42.574C365.501 41.9207 365.637 41.3607 365.907 40.894C366.187 40.418 366.551 40.054 366.999 39.802C367.457 39.5407 367.951 39.41 368.483 39.41C369.043 39.41 369.505 39.5267 369.869 39.76C370.233 39.9933 370.513 40.2733 370.709 40.6L370.625 40.824L370.765 39.648H372.067V45.5H370.653V44.016L370.793 44.366C370.756 44.4407 370.677 44.548 370.555 44.688C370.434 44.828 370.275 44.9727 370.079 45.122C369.883 45.262 369.645 45.3833 369.365 45.486C369.095 45.5887 368.791 45.64 368.455 45.64ZM368.833 44.478C369.3 44.478 369.692 44.3567 370.009 44.114C370.336 43.862 370.551 43.5213 370.653 43.092V41.888C370.541 41.5053 370.313 41.188 369.967 40.936C369.631 40.684 369.239 40.558 368.791 40.558C368.455 40.558 368.147 40.642 367.867 40.81C367.587 40.9687 367.363 41.1973 367.195 41.496C367.027 41.7853 366.943 42.1213 366.943 42.504C366.943 42.8773 367.027 43.2133 367.195 43.512C367.373 43.8107 367.606 44.0487 367.895 44.226C368.185 44.394 368.497 44.478 368.833 44.478ZM375.551 39.648L375.677 40.922L375.607 40.81C375.822 40.3713 376.125 40.0307 376.517 39.788C376.918 39.536 377.376 39.41 377.889 39.41C378.374 39.41 378.78 39.522 379.107 39.746C379.434 39.97 379.634 40.2873 379.709 40.698L379.639 40.754C379.872 40.334 380.185 40.0073 380.577 39.774C380.969 39.5313 381.38 39.41 381.809 39.41C382.388 39.41 382.845 39.5733 383.181 39.9C383.517 40.2173 383.69 40.6373 383.699 41.16V45.5H382.299V41.692C382.29 41.3933 382.22 41.146 382.089 40.95C381.968 40.754 381.744 40.6467 381.417 40.628C381.081 40.628 380.782 40.7307 380.521 40.936C380.269 41.1413 380.068 41.4073 379.919 41.734C379.779 42.0607 379.704 42.4107 379.695 42.784V45.5H378.281V41.692C378.272 41.3933 378.197 41.146 378.057 40.95C377.926 40.754 377.698 40.6467 377.371 40.628C377.044 40.628 376.75 40.7307 376.489 40.936C376.237 41.1413 376.041 41.412 375.901 41.748C375.761 42.0747 375.691 42.4247 375.691 42.798V45.5H374.277V39.648H375.551ZM388.656 45.64C387.984 45.64 387.405 45.5093 386.92 45.248C386.434 44.9773 386.061 44.6087 385.8 44.142C385.538 43.666 385.408 43.1293 385.408 42.532C385.408 41.9533 385.552 41.4307 385.842 40.964C386.14 40.488 386.537 40.11 387.032 39.83C387.526 39.55 388.077 39.41 388.684 39.41C389.468 39.41 390.116 39.6387 390.63 40.096C391.152 40.544 391.502 41.1787 391.68 42L386.906 43.652L386.57 42.84L390.406 41.44L390.112 41.636C390 41.3373 389.822 41.0807 389.58 40.866C389.337 40.642 389.006 40.53 388.586 40.53C388.063 40.53 387.634 40.712 387.298 41.076C386.971 41.4307 386.808 41.888 386.808 42.448C386.808 43.0453 386.985 43.526 387.34 43.89C387.694 44.254 388.142 44.436 388.684 44.436C388.936 44.436 389.178 44.394 389.412 44.31C389.645 44.2167 389.864 44.0953 390.07 43.946L390.714 44.996C390.415 45.192 390.084 45.3507 389.72 45.472C389.365 45.584 389.01 45.64 388.656 45.64ZM363.991 58.268C363.636 58.0813 363.253 57.9227 362.843 57.792C362.432 57.6613 362.035 57.596 361.653 57.596C361.121 57.596 360.701 57.7173 360.393 57.96C360.085 58.1933 359.931 58.52 359.931 58.94C359.931 59.2293 360.033 59.4813 360.239 59.696C360.444 59.9107 360.71 60.0973 361.037 60.256C361.363 60.4147 361.709 60.564 362.073 60.704C362.493 60.8533 362.899 61.0447 363.291 61.278C363.683 61.502 364.005 61.8053 364.257 62.188C364.509 62.5707 364.635 63.084 364.635 63.728C364.635 64.26 364.499 64.7453 364.229 65.184C363.958 65.6227 363.571 65.9727 363.067 66.234C362.572 66.486 361.975 66.612 361.275 66.612C360.621 66.612 360.001 66.5093 359.413 66.304C358.834 66.0893 358.335 65.8373 357.915 65.548L358.573 64.386C358.899 64.638 359.301 64.8573 359.777 65.044C360.253 65.2307 360.705 65.324 361.135 65.324C361.452 65.324 361.76 65.2727 362.059 65.17C362.357 65.058 362.605 64.8853 362.801 64.652C363.006 64.4187 363.109 64.1107 363.109 63.728C363.109 63.4107 363.02 63.14 362.843 62.916C362.665 62.692 362.432 62.5007 362.143 62.342C361.863 62.1833 361.559 62.0433 361.233 61.922C360.915 61.8007 360.589 61.67 360.253 61.53C359.926 61.3807 359.623 61.1987 359.343 60.984C359.072 60.7693 358.848 60.508 358.671 60.2C358.503 59.8827 358.419 59.5 358.419 59.052C358.419 58.5013 358.545 58.0253 358.797 57.624C359.058 57.2227 359.417 56.9053 359.875 56.672C360.332 56.4387 360.855 56.3127 361.443 56.294C362.115 56.294 362.703 56.378 363.207 56.546C363.711 56.7047 364.154 56.9007 364.537 57.134L363.991 58.268ZM367.085 58.086H368.513V60.662H370.081V61.768H368.513V66.5H367.085V61.768H366.049V60.662H367.085V58.086ZM374.088 66.64C373.538 66.64 373.038 66.5233 372.59 66.29C372.142 66.0567 371.788 65.716 371.526 65.268C371.265 64.8107 371.134 64.246 371.134 63.574C371.134 62.9207 371.27 62.3607 371.54 61.894C371.82 61.418 372.184 61.054 372.632 60.802C373.09 60.5407 373.584 60.41 374.116 60.41C374.676 60.41 375.138 60.5267 375.502 60.76C375.866 60.9933 376.146 61.2733 376.342 61.6L376.258 61.824L376.398 60.648H377.7V66.5H376.286V65.016L376.426 65.366C376.389 65.4407 376.31 65.548 376.188 65.688C376.067 65.828 375.908 65.9727 375.712 66.122C375.516 66.262 375.278 66.3833 374.998 66.486C374.728 66.5887 374.424 66.64 374.088 66.64ZM374.466 65.478C374.933 65.478 375.325 65.3567 375.642 65.114C375.969 64.862 376.184 64.5213 376.286 64.092V62.888C376.174 62.5053 375.946 62.188 375.6 61.936C375.264 61.684 374.872 61.558 374.424 61.558C374.088 61.558 373.78 61.642 373.5 61.81C373.22 61.9687 372.996 62.1973 372.828 62.496C372.66 62.7853 372.576 63.1213 372.576 63.504C372.576 63.8773 372.66 64.2133 372.828 64.512C373.006 64.8107 373.239 65.0487 373.528 65.226C373.818 65.394 374.13 65.478 374.466 65.478ZM381.17 60.648L381.31 62.328L381.254 62.104C381.412 61.7493 381.632 61.446 381.912 61.194C382.201 60.942 382.5 60.7507 382.808 60.62C383.125 60.48 383.391 60.41 383.606 60.41L383.536 61.81C383.097 61.782 382.71 61.866 382.374 62.062C382.047 62.258 381.79 62.5193 381.604 62.846C381.417 63.1727 381.324 63.5227 381.324 63.896V66.5H379.91V60.648H381.17ZM385.802 58.086H387.23V60.662H388.798V61.768H387.23V66.5H385.802V61.768H384.766V60.662H385.802V58.086Z" fill="white"/>
</g>
<g filter="url(#filter11_ddd_1758_5357)">
<path d="M409.68 45.5L408.26 44.08L414.84 37.5L408.26 30.92L409.68 29.5L417.68 37.5L409.68 45.5Z" fill="white"/>
</g>
<g filter="url(#filter12_ddd_1758_5357)">
<mask id="mask4_1758_5357" style="mask-type:alpha" maskUnits="userSpaceOnUse" x="440" y="2" width="25" height="25">
<rect x="440.68" y="2.5" width="24" height="24" fill="#D9D9D9"/>
</mask>
<g mask="url(#mask4_1758_5357)">
<path d="M446.68 22.25C444.947 21.8 443.514 20.8667 442.38 19.45C441.247 18.0333 440.68 16.3833 440.68 14.5C440.68 12.6167 441.247 10.9667 442.38 9.55C443.514 8.13333 444.947 7.2 446.68 6.75V8.85C445.497 9.25 444.534 9.96667 443.793 11C443.051 12.0333 442.68 13.2 442.68 14.5C442.68 15.8 443.051 16.9667 443.793 18C444.534 19.0333 445.497 19.75 446.68 20.15V22.25ZM454.68 22.5C452.464 22.5 450.576 21.7208 449.018 20.1625C447.459 18.6042 446.68 16.7167 446.68 14.5C446.68 12.2833 447.459 10.3958 449.018 8.8375C450.576 7.27917 452.464 6.5 454.68 6.5C455.78 6.5 456.814 6.70833 457.78 7.125C458.747 7.54167 459.597 8.11667 460.33 8.85L458.93 10.25C458.38 9.7 457.743 9.27083 457.018 8.9625C456.293 8.65417 455.514 8.5 454.68 8.5C453.014 8.5 451.597 9.08333 450.43 10.25C449.264 11.4167 448.68 12.8333 448.68 14.5C448.68 16.1667 449.264 17.5833 450.43 18.75C451.597 19.9167 453.014 20.5 454.68 20.5C455.514 20.5 456.293 20.3458 457.018 20.0375C457.743 19.7292 458.38 19.3 458.93 18.75L460.33 20.15C459.597 20.8833 458.747 21.4583 457.78 21.875C456.814 22.2917 455.78 22.5 454.68 22.5ZM460.68 18.5L459.28 17.1L460.88 15.5H453.68V13.5H460.88L459.28 11.9L460.68 10.5L464.68 14.5L460.68 18.5Z" fill="#48FF5B"/>
</g>
</g>
<g filter="url(#filter13_ddd_1758_5357)">
<path d="M443.215 44.604C443.075 44.7253 442.879 44.8467 442.627 44.968C442.375 45.0893 442.09 45.2013 441.773 45.304C441.465 45.3973 441.147 45.472 440.821 45.528C440.494 45.584 440.186 45.612 439.897 45.612C438.814 45.612 437.876 45.3973 437.083 44.968C436.289 44.5293 435.673 43.9367 435.235 43.19C434.805 42.4433 434.591 41.594 434.591 40.642C434.591 39.774 434.726 39.004 434.997 38.332C435.277 37.66 435.659 37.0953 436.145 36.638C436.63 36.1807 437.181 35.8353 437.797 35.602C438.422 35.3593 439.085 35.238 439.785 35.238C440.391 35.238 440.951 35.308 441.465 35.448C441.978 35.588 442.426 35.7653 442.809 35.98L442.319 37.338C442.132 37.226 441.899 37.1233 441.619 37.03C441.348 36.9273 441.063 36.848 440.765 36.792C440.475 36.736 440.209 36.708 439.967 36.708C439.183 36.708 438.501 36.862 437.923 37.17C437.344 37.478 436.896 37.9167 436.579 38.486C436.261 39.0553 436.103 39.732 436.103 40.516C436.103 41.2347 436.261 41.8693 436.579 42.42C436.905 42.9613 437.353 43.386 437.923 43.694C438.501 44.002 439.169 44.156 439.925 44.156C440.261 44.156 440.587 44.1233 440.905 44.058C441.231 43.9927 441.507 43.8947 441.731 43.764V41.888H439.757V40.474H443.215V44.604ZM447.876 45.64C447.325 45.64 446.826 45.5233 446.378 45.29C445.93 45.0567 445.575 44.716 445.314 44.268C445.052 43.8107 444.922 43.246 444.922 42.574C444.922 41.9207 445.057 41.3607 445.328 40.894C445.608 40.418 445.972 40.054 446.42 39.802C446.877 39.5407 447.372 39.41 447.904 39.41C448.464 39.41 448.926 39.5267 449.29 39.76C449.654 39.9933 449.934 40.2733 450.13 40.6L450.046 40.824L450.186 39.648H451.488V45.5H450.074V44.016L450.214 44.366C450.176 44.4407 450.097 44.548 449.976 44.688C449.854 44.828 449.696 44.9727 449.5 45.122C449.304 45.262 449.066 45.3833 448.786 45.486C448.515 45.5887 448.212 45.64 447.876 45.64ZM448.254 44.478C448.72 44.478 449.112 44.3567 449.43 44.114C449.756 43.862 449.971 43.5213 450.074 43.092V41.888C449.962 41.5053 449.733 41.188 449.388 40.936C449.052 40.684 448.66 40.558 448.212 40.558C447.876 40.558 447.568 40.642 447.288 40.81C447.008 40.9687 446.784 41.1973 446.616 41.496C446.448 41.7853 446.364 42.1213 446.364 42.504C446.364 42.8773 446.448 43.2133 446.616 43.512C446.793 43.8107 447.026 44.0487 447.316 44.226C447.605 44.394 447.918 44.478 448.254 44.478ZM454.971 39.648L455.097 40.922L455.027 40.81C455.242 40.3713 455.545 40.0307 455.937 39.788C456.339 39.536 456.796 39.41 457.309 39.41C457.795 39.41 458.201 39.522 458.527 39.746C458.854 39.97 459.055 40.2873 459.129 40.698L459.059 40.754C459.293 40.334 459.605 40.0073 459.997 39.774C460.389 39.5313 460.8 39.41 461.229 39.41C461.808 39.41 462.265 39.5733 462.601 39.9C462.937 40.2173 463.11 40.6373 463.119 41.16V45.5H461.719V41.692C461.71 41.3933 461.64 41.146 461.509 40.95C461.388 40.754 461.164 40.6467 460.837 40.628C460.501 40.628 460.203 40.7307 459.941 40.936C459.689 41.1413 459.489 41.4073 459.339 41.734C459.199 42.0607 459.125 42.4107 459.115 42.784V45.5H457.701V41.692C457.692 41.3933 457.617 41.146 457.477 40.95C457.347 40.754 457.118 40.6467 456.791 40.628C456.465 40.628 456.171 40.7307 455.909 40.936C455.657 41.1413 455.461 41.412 455.321 41.748C455.181 42.0747 455.111 42.4247 455.111 42.798V45.5H453.697V39.648H454.971ZM468.076 45.64C467.404 45.64 466.825 45.5093 466.34 45.248C465.855 44.9773 465.481 44.6087 465.22 44.142C464.959 43.666 464.828 43.1293 464.828 42.532C464.828 41.9533 464.973 41.4307 465.262 40.964C465.561 40.488 465.957 40.11 466.452 39.83C466.947 39.55 467.497 39.41 468.104 39.41C468.888 39.41 469.537 39.6387 470.05 40.096C470.573 40.544 470.923 41.1787 471.1 42L466.326 43.652L465.99 42.84L469.826 41.44L469.532 41.636C469.42 41.3373 469.243 41.0807 469 40.866C468.757 40.642 468.426 40.53 468.006 40.53C467.483 40.53 467.054 40.712 466.718 41.076C466.391 41.4307 466.228 41.888 466.228 42.448C466.228 43.0453 466.405 43.526 466.76 43.89C467.115 44.254 467.563 44.436 468.104 44.436C468.356 44.436 468.599 44.394 468.832 44.31C469.065 44.2167 469.285 44.0953 469.49 43.946L470.134 44.996C469.835 45.192 469.504 45.3507 469.14 45.472C468.785 45.584 468.431 45.64 468.076 45.64ZM441.435 56.35H448.085V57.764H442.891V60.69H447.525V62.104H442.891V65.086H448.281V66.5H441.435V56.35ZM451.547 60.648L451.673 62.006L451.617 61.81C451.803 61.39 452.102 61.054 452.513 60.802C452.933 60.55 453.423 60.424 453.983 60.424C454.533 60.424 454.986 60.5873 455.341 60.914C455.695 61.2313 455.877 61.6513 455.887 62.174V66.5H454.473V62.664C454.463 62.3653 454.375 62.1227 454.207 61.936C454.039 61.74 453.777 61.6373 453.423 61.628C452.928 61.628 452.513 61.8333 452.177 62.244C451.85 62.6547 451.687 63.182 451.687 63.826V66.5H450.273V60.648H451.547ZM460.5 66.64C459.95 66.64 459.455 66.514 459.016 66.262C458.578 66.0007 458.232 65.632 457.98 65.156C457.728 64.68 457.602 64.1247 457.602 63.49C457.602 62.8367 457.738 62.2813 458.008 61.824C458.279 61.3667 458.643 61.0167 459.1 60.774C459.567 60.5313 460.09 60.41 460.668 60.41C461.116 60.41 461.541 60.5033 461.942 60.69C462.353 60.8673 462.675 61.1193 462.908 61.446L462.852 61.936V55.622H464.266V66.5H462.838V65.1L462.992 65.478C462.712 65.814 462.358 66.094 461.928 66.318C461.508 66.5327 461.032 66.64 460.5 66.64ZM460.934 65.45C461.429 65.45 461.84 65.324 462.166 65.072C462.502 64.8107 462.726 64.4653 462.838 64.036V62.874C462.736 62.482 462.507 62.16 462.152 61.908C461.807 61.656 461.401 61.53 460.934 61.53C460.598 61.53 460.286 61.614 459.996 61.782C459.707 61.9407 459.474 62.1693 459.296 62.468C459.128 62.7573 459.044 63.0933 459.044 63.476C459.044 63.84 459.128 64.1713 459.296 64.47C459.474 64.7687 459.707 65.0067 459.996 65.184C460.286 65.3613 460.598 65.45 460.934 65.45Z" fill="white"/>
</g>
<defs>
<filter id="filter0_ddd_1758_5357" x="24" y="4.31995" width="30" height="27" filterUnits="userSpaceOnUse" color-interpolation-filters="sRGB">
<feFlood flood-opacity="0" result="BackgroundImageFix"/>
<feColorMatrix in="SourceAlpha" type="matrix" values="0 0 0 0 0 0 0 0 0 0 0 0 0 0 0 0 0 0 127 0" result="hardAlpha"/>
<feOffset dy="1"/>
<feGaussianBlur stdDeviation="2.5"/>
<feColorMatrix type="matrix" values="0 0 0 0 0.532764 0 0 0 0 0.0516202 0 0 0 0 0.0516202 0 0 0 0.2 0"/>
<feBlend mode="normal" in2="BackgroundImageFix" result="effect1_dropShadow_1758_5357"/>
<feColorMatrix in="SourceAlpha" type="matrix" values="0 0 0 0 0 0 0 0 0 0 0 0 0 0 0 0 0 0 127 0" result="hardAlpha"/>
<feOffset dy="3"/>
<feGaussianBlur stdDeviation="2"/>
<feColorMatrix type="matrix" values="0 0 0 0 0.482764 0 0 0 0 0.0467756 0 0 0 0 0.0467756 0 0 0 0.12 0"/>
<feBlend mode="normal" in2="effect1_dropShadow_1758_5357" result="effect2_dropShadow_1758_5357"/>
<feColorMatrix in="SourceAlpha" type="matrix" values="0 0 0 0 0 0 0 0 0 0 0 0 0 0 0 0 0 0 127 0" result="hardAlpha"/>
<feOffset dy="2"/>
<feGaussianBlur stdDeviation="2"/>
<feColorMatrix type="matrix" values="0 0 0 0 0.357764 0 0 0 0 0.100254 0 0 0 0 0.100254 0 0 0 0.14 0"/>
<feBlend mode="normal" in2="effect2_dropShadow_1758_5357" result="effect3_dropShadow_1758_5357"/>
<feBlend mode="normal" in="SourceGraphic" in2="effect3_dropShadow_1758_5357" result="shape"/>
</filter>
<filter id="filter1_ddd_1758_5357" x="0.20166" y="33.058" width="77.3076" height="42.0759" filterUnits="userSpaceOnUse" color-interpolation-filters="sRGB">
<feFlood flood-opacity="0" result="BackgroundImageFix"/>
<feColorMatrix in="SourceAlpha" type="matrix" values="0 0 0 0 0 0 0 0 0 0 0 0 0 0 0 0 0 0 127 0" result="hardAlpha"/>
<feOffset dy="1"/>
<feGaussianBlur stdDeviation="2.5"/>
<feColorMatrix type="matrix" values="0 0 0 0 0.532764 0 0 0 0 0.0516202 0 0 0 0 0.0516202 0 0 0 0.2 0"/>
<feBlend mode="normal" in2="BackgroundImageFix" result="effect1_dropShadow_1758_5357"/>
<feColorMatrix in="SourceAlpha" type="matrix" values="0 0 0 0 0 0 0 0 0 0 0 0 0 0 0 0 0 0 127 0" result="hardAlpha"/>
<feOffset dy="3"/>
<feGaussianBlur stdDeviation="2"/>
<feColorMatrix type="matrix" values="0 0 0 0 0.482764 0 0 0 0 0.0467756 0 0 0 0 0.0467756 0 0 0 0.12 0"/>
<feBlend mode="normal" in2="effect1_dropShadow_1758_5357" result="effect2_dropShadow_1758_5357"/>
<feColorMatrix in="SourceAlpha" type="matrix" values="0 0 0 0 0 0 0 0 0 0 0 0 0 0 0 0 0 0 127 0" result="hardAlpha"/>
<feOffset dy="2"/>
<feGaussianBlur stdDeviation="2"/>
<feColorMatrix type="matrix" values="0 0 0 0 0.357764 0 0 0 0 0.100254 0 0 0 0 0.100254 0 0 0 0.14 0"/>
<feBlend mode="normal" in2="effect2_dropShadow_1758_5357" result="effect3_dropShadow_1758_5357"/>
<feBlend mode="normal" in="SourceGraphic" in2="effect3_dropShadow_1758_5357" result="shape"/>
</filter>
<filter id="filter2_ddd_1758_5357" x="85" y="25.5" width="19.4199" height="27" filterUnits="userSpaceOnUse" color-interpolation-filters="sRGB">
<feFlood flood-opacity="0" result="BackgroundImageFix"/>
<feColorMatrix in="SourceAlpha" type="matrix" values="0 0 0 0 0 0 0 0 0 0 0 0 0 0 0 0 0 0 127 0" result="hardAlpha"/>
<feOffset dy="1"/>
<feGaussianBlur stdDeviation="2.5"/>
<feColorMatrix type="matrix" values="0 0 0 0 0.532764 0 0 0 0 0.0516202 0 0 0 0 0.0516202 0 0 0 0.2 0"/>
<feBlend mode="normal" in2="BackgroundImageFix" result="effect1_dropShadow_1758_5357"/>
<feColorMatrix in="SourceAlpha" type="matrix" values="0 0 0 0 0 0 0 0 0 0 0 0 0 0 0 0 0 0 127 0" result="hardAlpha"/>
<feOffset dy="3"/>
<feGaussianBlur stdDeviation="2"/>
<feColorMatrix type="matrix" values="0 0 0 0 0.482764 0 0 0 0 0.0467756 0 0 0 0 0.0467756 0 0 0 0.12 0"/>
<feBlend mode="normal" in2="effect1_dropShadow_1758_5357" result="effect2_dropShadow_1758_5357"/>
<feColorMatrix in="SourceAlpha" type="matrix" values="0 0 0 0 0 0 0 0 0 0 0 0 0 0 0 0 0 0 127 0" result="hardAlpha"/>
<feOffset dy="2"/>
<feGaussianBlur stdDeviation="2"/>
<feColorMatrix type="matrix" values="0 0 0 0 0.357764 0 0 0 0 0.100254 0 0 0 0 0.100254 0 0 0 0.14 0"/>
<feBlend mode="normal" in2="effect2_dropShadow_1758_5357" result="effect3_dropShadow_1758_5357"/>
<feBlend mode="normal" in="SourceGraphic" in2="effect3_dropShadow_1758_5357" result="shape"/>
</filter>
<filter id="filter3_ddd_1758_5357" x="139.42" y="0.5" width="30" height="31" filterUnits="userSpaceOnUse" color-interpolation-filters="sRGB">
<feFlood flood-opacity="0" result="BackgroundImageFix"/>
<feColorMatrix in="SourceAlpha" type="matrix" values="0 0 0 0 0 0 0 0 0 0 0 0 0 0 0 0 0 0 127 0" result="hardAlpha"/>
<feOffset dy="1"/>
<feGaussianBlur stdDeviation="2.5"/>
<feColorMatrix type="matrix" values="0 0 0 0 0.532764 0 0 0 0 0.0516202 0 0 0 0 0.0516202 0 0 0 0.2 0"/>
<feBlend mode="normal" in2="BackgroundImageFix" result="effect1_dropShadow_1758_5357"/>
<feColorMatrix in="SourceAlpha" type="matrix" values="0 0 0 0 0 0 0 0 0 0 0 0 0 0 0 0 0 0 127 0" result="hardAlpha"/>
<feOffset dy="3"/>
<feGaussianBlur stdDeviation="2"/>
<feColorMatrix type="matrix" values="0 0 0 0 0.482764 0 0 0 0 0.0467756 0 0 0 0 0.0467756 0 0 0 0.12 0"/>
<feBlend mode="normal" in2="effect1_dropShadow_1758_5357" result="effect2_dropShadow_1758_5357"/>
<feColorMatrix in="SourceAlpha" type="matrix" values="0 0 0 0 0 0 0 0 0 0 0 0 0 0 0 0 0 0 127 0" result="hardAlpha"/>
<feOffset dy="2"/>
<feGaussianBlur stdDeviation="2"/>
<feColorMatrix type="matrix" values="0 0 0 0 0.357764 0 0 0 0 0.100254 0 0 0 0 0.100254 0 0 0 0.14 0"/>
<feBlend mode="normal" in2="effect2_dropShadow_1758_5357" result="effect3_dropShadow_1758_5357"/>
<feBlend mode="normal" in="SourceGraphic" in2="effect3_dropShadow_1758_5357" result="shape"/>
</filter>
<filter id="filter4_ddd_1758_5357" x="112.287" y="31.35" width="84.5947" height="45.062" filterUnits="userSpaceOnUse" color-interpolation-filters="sRGB">
<feFlood flood-opacity="0" result="BackgroundImageFix"/>
<feColorMatrix in="SourceAlpha" type="matrix" values="0 0 0 0 0 0 0 0 0 0 0 0 0 0 0 0 0 0 127 0" result="hardAlpha"/>
<feOffset dy="1"/>
<feGaussianBlur stdDeviation="2.5"/>
<feColorMatrix type="matrix" values="0 0 0 0 0.532764 0 0 0 0 0.0516202 0 0 0 0 0.0516202 0 0 0 0.2 0"/>
<feBlend mode="normal" in2="BackgroundImageFix" result="effect1_dropShadow_1758_5357"/>
<feColorMatrix in="SourceAlpha" type="matrix" values="0 0 0 0 0 0 0 0 0 0 0 0 0 0 0 0 0 0 127 0" result="hardAlpha"/>
<feOffset dy="3"/>
<feGaussianBlur stdDeviation="2"/>
<feColorMatrix type="matrix" values="0 0 0 0 0.482764 0 0 0 0 0.0467756 0 0 0 0 0.0467756 0 0 0 0.12 0"/>
<feBlend mode="normal" in2="effect1_dropShadow_1758_5357" result="effect2_dropShadow_1758_5357"/>
<feColorMatrix in="SourceAlpha" type="matrix" values="0 0 0 0 0 0 0 0 0 0 0 0 0 0 0 0 0 0 127 0" result="hardAlpha"/>
<feOffset dy="2"/>
<feGaussianBlur stdDeviation="2"/>
<feColorMatrix type="matrix" values="0 0 0 0 0.357764 0 0 0 0 0.100254 0 0 0 0 0.100254 0 0 0 0.14 0"/>
<feBlend mode="normal" in2="effect2_dropShadow_1758_5357" result="effect3_dropShadow_1758_5357"/>
<feBlend mode="normal" in="SourceGraphic" in2="effect3_dropShadow_1758_5357" result="shape"/>
</filter>
<filter id="filter5_ddd_1758_5357" x="204.42" y="25.5" width="19.4199" height="27" filterUnits="userSpaceOnUse" color-interpolation-filters="sRGB">
<feFlood flood-opacity="0" result="BackgroundImageFix"/>
<feColorMatrix in="SourceAlpha" type="matrix" values="0 0 0 0 0 0 0 0 0 0 0 0 0 0 0 0 0 0 127 0" result="hardAlpha"/>
<feOffset dy="1"/>
<feGaussianBlur stdDeviation="2.5"/>
<feColorMatrix type="matrix" values="0 0 0 0 0.532764 0 0 0 0 0.0516202 0 0 0 0 0.0516202 0 0 0 0.2 0"/>
<feBlend mode="normal" in2="BackgroundImageFix" result="effect1_dropShadow_1758_5357"/>
<feColorMatrix in="SourceAlpha" type="matrix" values="0 0 0 0 0 0 0 0 0 0 0 0 0 0 0 0 0 0 127 0" result="hardAlpha"/>
<feOffset dy="3"/>
<feGaussianBlur stdDeviation="2"/>
<feColorMatrix type="matrix" values="0 0 0 0 0.482764 0 0 0 0 0.0467756 0 0 0 0 0.0467756 0 0 0 0.12 0"/>
<feBlend mode="normal" in2="effect1_dropShadow_1758_5357" result="effect2_dropShadow_1758_5357"/>
<feColorMatrix in="SourceAlpha" type="matrix" values="0 0 0 0 0 0 0 0 0 0 0 0 0 0 0 0 0 0 127 0" result="hardAlpha"/>
<feOffset dy="2"/>
<feGaussianBlur stdDeviation="2"/>
<feColorMatrix type="matrix" values="0 0 0 0 0.357764 0 0 0 0 0.100254 0 0 0 0 0.100254 0 0 0 0.14 0"/>
<feBlend mode="normal" in2="effect2_dropShadow_1758_5357" result="effect3_dropShadow_1758_5357"/>
<feBlend mode="normal" in="SourceGraphic" in2="effect3_dropShadow_1758_5357" result="shape"/>
</filter>
<filter id="filter6_ddd_1758_5357" x="258.84" y="0.5" width="32" height="31" filterUnits="userSpaceOnUse" color-interpolation-filters="sRGB">
<feFlood flood-opacity="0" result="BackgroundImageFix"/>
<feColorMatrix in="SourceAlpha" type="matrix" values="0 0 0 0 0 0 0 0 0 0 0 0 0 0 0 0 0 0 127 0" result="hardAlpha"/>
<feOffset dy="1"/>
<feGaussianBlur stdDeviation="2.5"/>
<feColorMatrix type="matrix" values="0 0 0 0 0.532764 0 0 0 0 0.0516202 0 0 0 0 0.0516202 0 0 0 0.2 0"/>
<feBlend mode="normal" in2="BackgroundImageFix" result="effect1_dropShadow_1758_5357"/>
<feColorMatrix in="SourceAlpha" type="matrix" values="0 0 0 0 0 0 0 0 0 0 0 0 0 0 0 0 0 0 127 0" result="hardAlpha"/>
<feOffset dy="3"/>
<feGaussianBlur stdDeviation="2"/>
<feColorMatrix type="matrix" values="0 0 0 0 0.482764 0 0 0 0 0.0467756 0 0 0 0 0.0467756 0 0 0 0.12 0"/>
<feBlend mode="normal" in2="effect1_dropShadow_1758_5357" result="effect2_dropShadow_1758_5357"/>
<feColorMatrix in="SourceAlpha" type="matrix" values="0 0 0 0 0 0 0 0 0 0 0 0 0 0 0 0 0 0 127 0" result="hardAlpha"/>
<feOffset dy="2"/>
<feGaussianBlur stdDeviation="2"/>
<feColorMatrix type="matrix" values="0 0 0 0 0.357764 0 0 0 0 0.100254 0 0 0 0 0.100254 0 0 0 0.14 0"/>
<feBlend mode="normal" in2="effect2_dropShadow_1758_5357" result="effect3_dropShadow_1758_5357"/>
<feBlend mode="normal" in="SourceGraphic" in2="effect3_dropShadow_1758_5357" result="shape"/>
</filter>
<filter id="filter7_ddd_1758_5357" x="231.707" y="31.35" width="84.5947" height="44.964" filterUnits="userSpaceOnUse" color-interpolation-filters="sRGB">
<feFlood flood-opacity="0" result="BackgroundImageFix"/>
<feColorMatrix in="SourceAlpha" type="matrix" values="0 0 0 0 0 0 0 0 0 0 0 0 0 0 0 0 0 0 127 0" result="hardAlpha"/>
<feOffset dy="1"/>
<feGaussianBlur stdDeviation="2.5"/>
<feColorMatrix type="matrix" values="0 0 0 0 0.532764 0 0 0 0 0.0516202 0 0 0 0 0.0516202 0 0 0 0.2 0"/>
<feBlend mode="normal" in2="BackgroundImageFix" result="effect1_dropShadow_1758_5357"/>
<feColorMatrix in="SourceAlpha" type="matrix" values="0 0 0 0 0 0 0 0 0 0 0 0 0 0 0 0 0 0 127 0" result="hardAlpha"/>
<feOffset dy="3"/>
<feGaussianBlur stdDeviation="2"/>
<feColorMatrix type="matrix" values="0 0 0 0 0.482764 0 0 0 0 0.0467756 0 0 0 0 0.0467756 0 0 0 0.12 0"/>
<feBlend mode="normal" in2="effect1_dropShadow_1758_5357" result="effect2_dropShadow_1758_5357"/>
<feColorMatrix in="SourceAlpha" type="matrix" values="0 0 0 0 0 0 0 0 0 0 0 0 0 0 0 0 0 0 127 0" result="hardAlpha"/>
<feOffset dy="2"/>
<feGaussianBlur stdDeviation="2"/>
<feColorMatrix type="matrix" values="0 0 0 0 0.357764 0 0 0 0 0.100254 0 0 0 0 0.100254 0 0 0 0.14 0"/>
<feBlend mode="normal" in2="effect2_dropShadow_1758_5357" result="effect3_dropShadow_1758_5357"/>
<feBlend mode="normal" in="SourceGraphic" in2="effect3_dropShadow_1758_5357" result="shape"/>
</filter>
<filter id="filter8_ddd_1758_5357" x="323.84" y="25.5" width="19.4199" height="27" filterUnits="userSpaceOnUse" color-interpolation-filters="sRGB">
<feFlood flood-opacity="0" result="BackgroundImageFix"/>
<feColorMatrix in="SourceAlpha" type="matrix" values="0 0 0 0 0 0 0 0 0 0 0 0 0 0 0 0 0 0 127 0" result="hardAlpha"/>
<feOffset dy="1"/>
<feGaussianBlur stdDeviation="2.5"/>
<feColorMatrix type="matrix" values="0 0 0 0 0.532764 0 0 0 0 0.0516202 0 0 0 0 0.0516202 0 0 0 0.2 0"/>
<feBlend mode="normal" in2="BackgroundImageFix" result="effect1_dropShadow_1758_5357"/>
<feColorMatrix in="SourceAlpha" type="matrix" values="0 0 0 0 0 0 0 0 0 0 0 0 0 0 0 0 0 0 127 0" result="hardAlpha"/>
<feOffset dy="3"/>
<feGaussianBlur stdDeviation="2"/>
<feColorMatrix type="matrix" values="0 0 0 0 0.482764 0 0 0 0 0.0467756 0 0 0 0 0.0467756 0 0 0 0.12 0"/>
<feBlend mode="normal" in2="effect1_dropShadow_1758_5357" result="effect2_dropShadow_1758_5357"/>
<feColorMatrix in="SourceAlpha" type="matrix" values="0 0 0 0 0 0 0 0 0 0 0 0 0 0 0 0 0 0 127 0" result="hardAlpha"/>
<feOffset dy="2"/>
<feGaussianBlur stdDeviation="2"/>
<feColorMatrix type="matrix" values="0 0 0 0 0.357764 0 0 0 0 0.100254 0 0 0 0 0.100254 0 0 0 0.14 0"/>
<feBlend mode="normal" in2="effect2_dropShadow_1758_5357" result="effect3_dropShadow_1758_5357"/>
<feBlend mode="normal" in="SourceGraphic" in2="effect3_dropShadow_1758_5357" result="shape"/>
</filter>
<filter id="filter9_ddd_1758_5357" x="361.26" y="2.5" width="25" height="28" filterUnits="userSpaceOnUse" color-interpolation-filters="sRGB">
<feFlood flood-opacity="0" result="BackgroundImageFix"/>
<feColorMatrix in="SourceAlpha" type="matrix" values="0 0 0 0 0 0 0 0 0 0 0 0 0 0 0 0 0 0 127 0" result="hardAlpha"/>
<feOffset dy="1"/>
<feGaussianBlur stdDeviation="2.5"/>
<feColorMatrix type="matrix" values="0 0 0 0 0.532764 0 0 0 0 0.0516202 0 0 0 0 0.0516202 0 0 0 0.2 0"/>
<feBlend mode="normal" in2="BackgroundImageFix" result="effect1_dropShadow_1758_5357"/>
<feColorMatrix in="SourceAlpha" type="matrix" values="0 0 0 0 0 0 0 0 0 0 0 0 0 0 0 0 0 0 127 0" result="hardAlpha"/>
<feOffset dy="3"/>
<feGaussianBlur stdDeviation="2"/>
<feColorMatrix type="matrix" values="0 0 0 0 0.482764 0 0 0 0 0.0467756 0 0 0 0 0.0467756 0 0 0 0.12 0"/>
<feBlend mode="normal" in2="effect1_dropShadow_1758_5357" result="effect2_dropShadow_1758_5357"/>
<feColorMatrix in="SourceAlpha" type="matrix" values="0 0 0 0 0 0 0 0 0 0 0 0 0 0 0 0 0 0 127 0" result="hardAlpha"/>
<feOffset dy="2"/>
<feGaussianBlur stdDeviation="2"/>
<feColorMatrix type="matrix" values="0 0 0 0 0.357764 0 0 0 0 0.100254 0 0 0 0 0.100254 0 0 0 0.14 0"/>
<feBlend mode="normal" in2="effect2_dropShadow_1758_5357" result="effect3_dropShadow_1758_5357"/>
<feBlend mode="normal" in="SourceGraphic" in2="effect3_dropShadow_1758_5357" result="shape"/>
</filter>
<filter id="filter10_ddd_1758_5357" x="350.17" y="31.238" width="46.5093" height="42.402" filterUnits="userSpaceOnUse" color-interpolation-filters="sRGB">
<feFlood flood-opacity="0" result="BackgroundImageFix"/>
<feColorMatrix in="SourceAlpha" type="matrix" values="0 0 0 0 0 0 0 0 0 0 0 0 0 0 0 0 0 0 127 0" result="hardAlpha"/>
<feOffset dy="1"/>
<feGaussianBlur stdDeviation="2.5"/>
<feColorMatrix type="matrix" values="0 0 0 0 0.532764 0 0 0 0 0.0516202 0 0 0 0 0.0516202 0 0 0 0.2 0"/>
<feBlend mode="normal" in2="BackgroundImageFix" result="effect1_dropShadow_1758_5357"/>
<feColorMatrix in="SourceAlpha" type="matrix" values="0 0 0 0 0 0 0 0 0 0 0 0 0 0 0 0 0 0 127 0" result="hardAlpha"/>
<feOffset dy="3"/>
<feGaussianBlur stdDeviation="2"/>
<feColorMatrix type="matrix" values="0 0 0 0 0.482764 0 0 0 0 0.0467756 0 0 0 0 0.0467756 0 0 0 0.12 0"/>
<feBlend mode="normal" in2="effect1_dropShadow_1758_5357" result="effect2_dropShadow_1758_5357"/>
<feColorMatrix in="SourceAlpha" type="matrix" values="0 0 0 0 0 0 0 0 0 0 0 0 0 0 0 0 0 0 127 0" result="hardAlpha"/>
<feOffset dy="2"/>
<feGaussianBlur stdDeviation="2"/>
<feColorMatrix type="matrix" values="0 0 0 0 0.357764 0 0 0 0 0.100254 0 0 0 0 0.100254 0 0 0 0.14 0"/>
<feBlend mode="normal" in2="effect2_dropShadow_1758_5357" result="effect3_dropShadow_1758_5357"/>
<feBlend mode="normal" in="SourceGraphic" in2="effect3_dropShadow_1758_5357" result="shape"/>
</filter>
<filter id="filter11_ddd_1758_5357" x="403.26" y="25.5" width="19.4199" height="27" filterUnits="userSpaceOnUse" color-interpolation-filters="sRGB">
<feFlood flood-opacity="0" result="BackgroundImageFix"/>
<feColorMatrix in="SourceAlpha" type="matrix" values="0 0 0 0 0 0 0 0 0 0 0 0 0 0 0 0 0 0 127 0" result="hardAlpha"/>
<feOffset dy="1"/>
<feGaussianBlur stdDeviation="2.5"/>
<feColorMatrix type="matrix" values="0 0 0 0 0.532764 0 0 0 0 0.0516202 0 0 0 0 0.0516202 0 0 0 0.2 0"/>
<feBlend mode="normal" in2="BackgroundImageFix" result="effect1_dropShadow_1758_5357"/>
<feColorMatrix in="SourceAlpha" type="matrix" values="0 0 0 0 0 0 0 0 0 0 0 0 0 0 0 0 0 0 127 0" result="hardAlpha"/>
<feOffset dy="3"/>
<feGaussianBlur stdDeviation="2"/>
<feColorMatrix type="matrix" values="0 0 0 0 0.482764 0 0 0 0 0.0467756 0 0 0 0 0.0467756 0 0 0 0.12 0"/>
<feBlend mode="normal" in2="effect1_dropShadow_1758_5357" result="effect2_dropShadow_1758_5357"/>
<feColorMatrix in="SourceAlpha" type="matrix" values="0 0 0 0 0 0 0 0 0 0 0 0 0 0 0 0 0 0 127 0" result="hardAlpha"/>
<feOffset dy="2"/>
<feGaussianBlur stdDeviation="2"/>
<feColorMatrix type="matrix" values="0 0 0 0 0.357764 0 0 0 0 0.100254 0 0 0 0 0.100254 0 0 0 0.14 0"/>
<feBlend mode="normal" in2="effect2_dropShadow_1758_5357" result="effect3_dropShadow_1758_5357"/>
<feBlend mode="normal" in="SourceGraphic" in2="effect3_dropShadow_1758_5357" result="shape"/>
</filter>
<filter id="filter12_ddd_1758_5357" x="435.68" y="2.5" width="34" height="27" filterUnits="userSpaceOnUse" color-interpolation-filters="sRGB">
<feFlood flood-opacity="0" result="BackgroundImageFix"/>
<feColorMatrix in="SourceAlpha" type="matrix" values="0 0 0 0 0 0 0 0 0 0 0 0 0 0 0 0 0 0 127 0" result="hardAlpha"/>
<feOffset dy="1"/>
<feGaussianBlur stdDeviation="2.5"/>
<feColorMatrix type="matrix" values="0 0 0 0 0.532764 0 0 0 0 0.0516202 0 0 0 0 0.0516202 0 0 0 0.2 0"/>
<feBlend mode="normal" in2="BackgroundImageFix" result="effect1_dropShadow_1758_5357"/>
<feColorMatrix in="SourceAlpha" type="matrix" values="0 0 0 0 0 0 0 0 0 0 0 0 0 0 0 0 0 0 127 0" result="hardAlpha"/>
<feOffset dy="3"/>
<feGaussianBlur stdDeviation="2"/>
<feColorMatrix type="matrix" values="0 0 0 0 0.482764 0 0 0 0 0.0467756 0 0 0 0 0.0467756 0 0 0 0.12 0"/>
<feBlend mode="normal" in2="effect1_dropShadow_1758_5357" result="effect2_dropShadow_1758_5357"/>
<feColorMatrix in="SourceAlpha" type="matrix" values="0 0 0 0 0 0 0 0 0 0 0 0 0 0 0 0 0 0 127 0" result="hardAlpha"/>
<feOffset dy="2"/>
<feGaussianBlur stdDeviation="2"/>
<feColorMatrix type="matrix" values="0 0 0 0 0.357764 0 0 0 0 0.100254 0 0 0 0 0.100254 0 0 0 0.14 0"/>
<feBlend mode="normal" in2="effect2_dropShadow_1758_5357" result="effect3_dropShadow_1758_5357"/>
<feBlend mode="normal" in="SourceGraphic" in2="effect3_dropShadow_1758_5357" result="shape"/>
</filter>
<filter id="filter13_ddd_1758_5357" x="429.591" y="31.238" width="46.5093" height="42.402" filterUnits="userSpaceOnUse" color-interpolation-filters="sRGB">
<feFlood flood-opacity="0" result="BackgroundImageFix"/>
<feColorMatrix in="SourceAlpha" type="matrix" values="0 0 0 0 0 0 0 0 0 0 0 0 0 0 0 0 0 0 127 0" result="hardAlpha"/>
<feOffset dy="1"/>
<feGaussianBlur stdDeviation="2.5"/>
<feColorMatrix type="matrix" values="0 0 0 0 0.532764 0 0 0 0 0.0516202 0 0 0 0 0.0516202 0 0 0 0.2 0"/>
<feBlend mode="normal" in2="BackgroundImageFix" result="effect1_dropShadow_1758_5357"/>
<feColorMatrix in="SourceAlpha" type="matrix" values="0 0 0 0 0 0 0 0 0 0 0 0 0 0 0 0 0 0 127 0" result="hardAlpha"/>
<feOffset dy="3"/>
<feGaussianBlur stdDeviation="2"/>
<feColorMatrix type="matrix" values="0 0 0 0 0.482764 0 0 0 0 0.0467756 0 0 0 0 0.0467756 0 0 0 0.12 0"/>
<feBlend mode="normal" in2="effect1_dropShadow_1758_5357" result="effect2_dropShadow_1758_5357"/>
<feColorMatrix in="SourceAlpha" type="matrix" values="0 0 0 0 0 0 0 0 0 0 0 0 0 0 0 0 0 0 127 0" result="hardAlpha"/>
<feOffset dy="2"/>
<feGaussianBlur stdDeviation="2"/>
<feColorMatrix type="matrix" values="0 0 0 0 0.357764 0 0 0 0 0.100254 0 0 0 0 0.100254 0 0 0 0.14 0"/>
<feBlend mode="normal" in2="effect2_dropShadow_1758_5357" result="effect3_dropShadow_1758_5357"/>
<feBlend mode="normal" in="SourceGraphic" in2="effect3_dropShadow_1758_5357" result="shape"/>
</filter>
</defs>
</svg>
