<svg xmlns="http://www.w3.org/2000/svg" width="20" height="20" viewBox="0 0 20 20" fill="none">
<path d="M9.99996 18.3333C5.39746 18.3333 1.66663 14.6025 1.66663 9.99996C1.66663 5.39746 5.39746 1.66663 9.99996 1.66663C14.6025 1.66663 18.3333 5.39746 18.3333 9.99996C18.3333 14.6025 14.6025 18.3333 9.99996 18.3333ZM5.83329 9.99996C5.83329 11.105 6.27228 12.1648 7.05368 12.9462C7.83508 13.7276 8.89489 14.1666 9.99996 14.1666C11.105 14.1666 12.1648 13.7276 12.9462 12.9462C13.7276 12.1648 14.1666 11.105 14.1666 9.99996H12.5C12.5 10.663 12.2366 11.2989 11.7677 11.7677C11.2989 12.2366 10.663 12.5 9.99996 12.5C9.33692 12.5 8.70103 12.2366 8.23219 11.7677C7.76335 11.2989 7.49996 10.663 7.49996 9.99996H5.83329Z" fill="white"/>
</svg>