<svg width="34" height="34" viewBox="0 0 34 34" fill="none" xmlns="http://www.w3.org/2000/svg">
<rect width="34" height="34" rx="8" fill="#8527CF"/>
<mask id="mask0_333_14281" style="mask-type:alpha" maskUnits="userSpaceOnUse" x="7" y="7" width="20" height="20">
<rect x="7" y="7" width="20" height="20" fill="#D9D9D9"/>
</mask>
<g mask="url(#mask0_333_14281)">
<path d="M12.8334 26.1667C12.375 26.1667 11.9827 26.0035 11.6563 25.6771C11.3299 25.3507 11.1667 24.9584 11.1667 24.5V9.50004C11.1667 9.04171 11.3299 8.64935 11.6563 8.32296C11.9827 7.99657 12.375 7.83337 12.8334 7.83337H21.1667C21.625 7.83337 22.0174 7.99657 22.3438 8.32296C22.6702 8.64935 22.8334 9.04171 22.8334 9.50004V24.5C22.8334 24.9584 22.6702 25.3507 22.3438 25.6771C22.0174 26.0035 21.625 26.1667 21.1667 26.1667H12.8334ZM12.8334 22V24.5H21.1667V22H12.8334ZM17 24.0834C17.2361 24.0834 17.434 24.0035 17.5938 23.8438C17.7535 23.6841 17.8334 23.4862 17.8334 23.25C17.8334 23.0139 17.7535 22.816 17.5938 22.6563C17.434 22.4966 17.2361 22.4167 17 22.4167C16.7639 22.4167 16.566 22.4966 16.4063 22.6563C16.2465 22.816 16.1667 23.0139 16.1667 23.25C16.1667 23.4862 16.2465 23.6841 16.4063 23.8438C16.566 24.0035 16.7639 24.0834 17 24.0834ZM12.8334 20.3334H21.1667V12H12.8334V20.3334ZM12.8334 10.3334H21.1667V9.50004H12.8334V10.3334Z" fill="white"/>
</g>
</svg>
