<svg width="34" height="34" viewBox="0 0 34 34" fill="none" xmlns="http://www.w3.org/2000/svg">
<rect width="34" height="34" rx="8" fill="#FF5C00"/>
<path d="M13 26V24H15V22H9C8.45 22 7.979 21.804 7.587 21.412C7.195 21.02 6.99934 20.5493 7 20V10C7 9.45 7.196 8.979 7.588 8.587C7.98 8.195 8.45067 7.99934 9 8H25C25.55 8 26.021 8.196 26.413 8.588C26.805 8.98 27.0007 9.45067 27 10V20C27 20.55 26.804 21.021 26.412 21.413C26.02 21.805 25.5493 22.0007 25 22H19V24H21V26H13ZM9 20H25V10H9V20Z" fill="black"/>
</svg>
