<svg width="34" height="34" viewBox="0 0 34 34" fill="none" xmlns="http://www.w3.org/2000/svg">
<rect width="34" height="34" rx="8" fill="#023791"/>
<path d="M14.4858 9.28357C15.8634 9.54311 17.8798 10.152 18.9779 10.5114C21.723 11.4597 22.6614 12.6377 22.6614 15.293C22.6614 17.8884 21.0642 18.8667 19.0278 17.8884V13.0569C19.0278 12.5079 18.928 11.9788 18.3889 11.8291C17.9796 11.6993 17.74 12.0786 17.74 12.6377V24.7164L14.4858 23.6782V9.28357ZM18.349 22.6101L23.5897 20.7434C24.1887 20.5337 24.2785 20.2343 23.7994 20.0746C23.3102 19.9148 22.4418 19.9648 21.8428 20.1744L18.349 21.4022V19.4457L18.5586 19.3758C18.5586 19.3758 19.5668 18.9965 20.9743 18.8667C22.4018 18.707 24.1388 18.8867 25.4964 19.3958C27.0337 19.8849 27.2134 20.6036 26.824 21.0928C26.4247 21.5919 25.4664 21.9413 25.4664 21.9413L18.349 24.4868V22.6101ZM8.49633 22.4104C6.92909 21.9912 6.65957 21.0429 7.3783 20.4938C8.04712 19.9947 9.17513 19.6453 9.17513 19.6453L13.8469 17.9982V19.8749L10.4928 21.0828C9.89387 21.2924 9.80403 21.5919 10.2832 21.7516C10.7623 21.9113 11.6408 21.8714 12.2298 21.6518L13.8469 21.0728V22.7598L13.5275 22.8197C11.9103 23.0793 10.1933 22.9894 8.49633 22.4104Z" fill="white"/>
</svg>
