<svg width="34" height="34" viewBox="0 0 34 34" fill="none" xmlns="http://www.w3.org/2000/svg">
<rect width="34" height="34" rx="8" fill="#0E7A0D"/>
<path d="M12.3583 10.1C12.4167 10.05 12.475 9.99996 12.5167 9.96663C13.8167 9.12496 15.3333 8.66663 17 8.66663C18.5667 8.66663 20.0333 9.08329 21.2833 9.84996C21.375 9.91663 21.6167 10.075 21.75 10.2333C20.5417 8.89996 17 11.75 17 11.75C15.75 10.8083 14.6417 10.1666 13.8 9.91663C13.0917 9.74163 12.6083 9.91663 12.3833 10.0833M23.1167 11.3416C23.075 11.3 23.0333 11.2583 23 11.2166C22.7 10.8833 22.3167 10.8 22 10.825C21.675 10.925 20.25 11.4333 18.5 13.0916C18.5 13.0916 20.475 15.0083 21.6833 16.9666C22.8917 18.925 23.6083 20.4666 23.1667 22.6083C24.5 21.125 25.3333 19.1583 25.3333 17C25.3333 14.8166 24.5 12.8333 23.1167 11.3416ZM20.1083 17.8C19.5667 17.2 18.775 16.3416 17.7167 15.2916C17.4917 15.0666 17.25 14.8333 17 14.5833C17 14.5833 16.6083 14.9666 16.1083 15.475C15.4667 16.1166 14.6417 16.9583 14.175 17.45C13.3583 18.325 11.0083 21.075 10.875 22.6166C10.875 22.6166 10.3333 21.4 11.5 18.575C12.25 16.7333 14.5 13.9666 15.4583 13.0666C15.4583 13.0666 14.6 12.1166 13.5167 11.4583L13.475 11.4333C12.95 11.125 12.3833 10.8833 11.8333 10.85C11.275 10.8916 10.925 11.3 10.925 11.3C9.47191 12.8418 8.66388 14.8813 8.66667 17C8.66667 19.2101 9.54464 21.3297 11.1074 22.8925C11.8813 23.6663 12.7999 24.2802 13.811 24.699C14.822 25.1177 15.9057 25.3333 17 25.3333C19.4417 25.3333 21.6417 24.2833 23.1667 22.6083C23.1667 22.6083 22.9917 21.5 21.8667 19.9166C21.6083 19.5583 20.6417 18.4083 20.1083 17.8Z" fill="white"/>
</svg>
