<svg width="17" height="16" viewBox="0 0 17 16" fill="none" xmlns="http://www.w3.org/2000/svg">
<g clip-path="url(#clip0_234_3296)">
<path d="M13.7813 2.74463H3.90234V11.7234H13.7813V2.74463Z" fill="white"/>
<path fill-rule="evenodd" clip-rule="evenodd" d="M16.8419 8.0001C16.8419 12.4126 13.2626 15.9895 8.84722 15.9895C4.43188 15.9895 0.852539 12.4126 0.852539 8.0001C0.852539 3.5877 4.43188 0.0107422 8.84722 0.0107422C13.2626 0.0107422 16.8419 3.5877 16.8419 8.0001ZM6.58175 11.1795H5.03021C4.70419 11.1795 4.54314 11.1795 4.44495 11.1167C4.33889 11.048 4.27408 10.9341 4.26622 10.8085C4.26033 10.6928 4.34086 10.5514 4.5019 10.2688L8.33285 3.52069C8.49587 3.23414 8.57835 3.09086 8.68244 3.03787C8.79438 2.98095 8.92794 2.98095 9.03989 3.03787C9.14398 3.09086 9.22647 3.23414 9.38947 3.52069L10.177 4.89456L10.1811 4.90157C10.3571 5.20899 10.4464 5.36488 10.4854 5.5285C10.5286 5.7071 10.5286 5.89552 10.4854 6.07413C10.4461 6.23899 10.3577 6.39601 10.179 6.70807L8.16669 10.2629L8.16148 10.272C7.98426 10.5819 7.89445 10.739 7.76997 10.8576C7.63445 10.9871 7.47144 11.0813 7.29272 11.1344C7.1297 11.1795 6.94706 11.1795 6.58175 11.1795ZM10.4999 11.1795H12.7231C13.0511 11.1795 13.2161 11.1795 13.3143 11.1148C13.4204 11.0461 13.4871 10.9302 13.4931 10.8047C13.4987 10.6927 13.4199 10.5568 13.2656 10.2906C13.2603 10.2815 13.2549 10.2723 13.2495 10.2629L12.1359 8.35915L12.1232 8.33771C11.9667 8.07326 11.8877 7.93972 11.7863 7.8881C11.6744 7.83118 11.5427 7.83118 11.4308 7.8881C11.3287 7.94109 11.2462 8.08044 11.0832 8.3611L9.97356 10.2649L9.96976 10.2715C9.80732 10.5517 9.72614 10.6917 9.732 10.8066C9.73985 10.9322 9.80466 11.048 9.91071 11.1167C10.007 11.1795 10.1719 11.1795 10.4999 11.1795Z" fill="#E84142"/>
</g>
<defs>
<clipPath id="clip0_234_3296">
<rect width="16" height="16" fill="white" transform="translate(0.847168)"/>
</clipPath>
</defs>
</svg>
