<svg xmlns="http://www.w3.org/2000/svg" width="16" height="24" viewBox="0 0 16 24" fill="none">
  <g clip-path="url(#clip0_1312_3597)">
    <path fill-rule="evenodd" clip-rule="evenodd" d="M1.7818 23.9613C1.98729 24.0179 2.20515 24.0124 2.40749 23.9456C2.60984 23.8787 2.78746 23.7536 2.91763 23.5861C3.0478 23.4186 3.1246 23.2165 3.1382 23.0055C3.15179 22.7945 3.10157 22.5843 2.99396 22.4018C2.88634 22.2193 2.72623 22.0728 2.53412 21.9809C2.342 21.8891 2.12661 21.8562 1.91553 21.8865C1.70444 21.9167 1.50725 22.0087 1.34919 22.1506C1.19114 22.2925 1.0794 22.478 1.02829 22.6832C0.954838 22.9547 0.99289 23.2439 1.13412 23.4876C1.27535 23.7313 1.50824 23.9095 1.7818 23.9834V23.9613Z" fill="url(#paint0_radial_1312_3597)"/>
    <path style="mix-blend-mode:screen" fill-rule="evenodd" clip-rule="evenodd" d="M1.70359 23.7898C1.85983 23.8356 2.0263 23.8343 2.18178 23.786C2.33727 23.7377 2.47472 23.6446 2.57664 23.5186C2.67855 23.3926 2.7403 23.2394 2.75402 23.0784C2.76774 22.9175 2.73281 22.7562 2.65368 22.615C2.57456 22.4738 2.45481 22.3592 2.30971 22.2857C2.16461 22.2122 2.00072 22.1832 1.83894 22.2024C1.67716 22.2216 1.5248 22.2881 1.40129 22.3935C1.27779 22.4988 1.18872 22.6382 1.14544 22.7939C1.08836 22.9993 1.11485 23.2187 1.21922 23.4049C1.32359 23.5911 1.49751 23.7293 1.70359 23.7898Z" fill="url(#paint1_radial_1312_3597)"/>
    <path style="mix-blend-mode:screen" fill-rule="evenodd" clip-rule="evenodd" d="M1.30174 23.3914C1.35856 23.5233 1.4648 23.6281 1.59807 23.6839C1.73135 23.7396 1.88124 23.7419 2.01617 23.6902C2.12797 23.5992 2.19976 23.4688 2.21641 23.3263C2.23307 23.1839 2.1933 23.0406 2.10548 22.9267C2.04763 22.7959 1.94095 22.6923 1.80779 22.6376C1.67462 22.583 1.52528 22.5815 1.39104 22.6335C1.27911 22.7227 1.20621 22.8513 1.1875 22.9925C1.16878 23.1337 1.2057 23.2766 1.29057 23.3914H1.30174Z" fill="url(#paint2_radial_1312_3597)"/>
    <path style="mix-blend-mode:screen" opacity="0.5" fill-rule="evenodd" clip-rule="evenodd" d="M2.30641 23.8894C2.51185 23.828 2.69139 23.7017 2.81759 23.5297C2.94379 23.3578 3.00971 23.1495 3.00528 22.9369C3.00085 22.7243 2.92632 22.5189 2.79306 22.3523C2.6598 22.1856 2.47516 22.0667 2.26734 22.0139C2.12759 21.9836 1.98289 21.9836 1.84314 22.0139C1.9243 22.014 2.00505 22.0252 2.08315 22.047C2.34424 22.117 2.56667 22.2868 2.70165 22.5191C2.83663 22.7515 2.87314 23.0274 2.80316 23.2863C2.76667 23.4181 2.70391 23.5414 2.61859 23.6487C2.53327 23.7561 2.42712 23.8455 2.30641 23.9115V23.8894Z" fill="url(#paint3_radial_1312_3597)"/>
    <path d="M2.76969 21.7206C2.94532 21.815 3.11002 21.9282 3.26087 22.0581C3.45064 22.2241 3.51762 22.4177 3.41715 22.6113C3.31668 22.805 3.11575 22.8216 2.859 22.7441C2.66473 22.6806 2.47767 22.5971 2.30084 22.4952C2.13686 22.3882 1.98359 22.2659 1.84316 22.13C1.65339 21.9585 1.58641 21.7704 1.68688 21.5768C1.78734 21.3831 1.98828 21.3665 2.24503 21.444C2.43932 21.5098 2.62634 21.5951 2.80318 21.6985L2.76969 21.7206Z" fill="url(#paint4_linear_1312_3597)"/>
    <path style="mix-blend-mode:multiply" fill-rule="evenodd" clip-rule="evenodd" d="M3.26087 22.0581C3.11002 21.9282 2.94532 21.8151 2.7697 21.7206C2.59286 21.6172 2.40584 21.5319 2.21154 21.4661C2.12861 21.4401 2.04168 21.4289 1.95479 21.4329C1.93148 21.4342 1.90891 21.4416 1.88933 21.4542C1.86974 21.4668 1.85383 21.4843 1.84316 21.5049C1.8324 21.5254 1.82678 21.5481 1.82678 21.5712C1.82678 21.5944 1.8324 21.6171 1.84316 21.6376C1.88453 21.7148 1.93932 21.7841 2.00503 21.8423C2.15762 21.9674 2.32 22.0802 2.49062 22.1798C2.66878 22.2792 2.85558 22.3625 3.04877 22.4288C3.13137 22.4567 3.2183 22.4698 3.30552 22.4675C3.32882 22.4638 3.35097 22.4549 3.3703 22.4415C3.38964 22.4281 3.40565 22.4105 3.41715 22.3901C3.42671 22.3692 3.43166 22.3466 3.43166 22.3237C3.43166 22.3008 3.42671 22.2781 3.41715 22.2573C3.37697 22.181 3.32196 22.1133 3.25529 22.0581H3.26087Z" fill="url(#paint5_linear_1312_3597)"/>
    <path style="mix-blend-mode:screen" fill-rule="evenodd" clip-rule="evenodd" d="M1.79853 21.6985C1.78394 21.7002 1.77007 21.7057 1.75831 21.7145C1.74655 21.7232 1.73733 21.7349 1.73155 21.7483C1.5976 22.0857 2.66367 22.6833 2.97065 22.4786C2.5642 22.3422 2.19801 22.1084 1.90458 21.7981C1.87109 21.7538 1.82644 21.6929 1.79853 21.6985Z" fill="url(#paint6_radial_1312_3597)"/>
    <path fill-rule="evenodd" clip-rule="evenodd" d="M3.77991 18.0249C3.77991 18.1909 4.09805 18.473 4.50551 18.7054C4.7818 18.9048 5.11862 19.0043 5.45995 18.9876C5.52692 18.9876 5.52692 18.9156 5.54925 18.8769C5.68255 18.5923 5.84728 18.3233 6.04043 18.0747C5.68725 18.0968 5.33751 17.9949 5.0525 17.787C4.6283 17.5436 4.3269 17.2338 4.29899 17.0789H4.33806C4.21636 17.3683 4.06486 17.6446 3.88596 17.9032C3.88596 17.9364 3.81898 17.9585 3.83014 18.0304L3.77991 18.0249Z" fill="url(#paint7_linear_1312_3597)"/>
    <path fill-rule="evenodd" clip-rule="evenodd" d="M3.29996 18.9377C3.32787 19.1037 3.61253 19.3748 4.00323 19.6016C4.27448 19.7931 4.60277 19.8885 4.93535 19.8727C5.00233 19.8451 5.00233 19.8008 5.01907 19.7621C5.14978 19.4883 5.30878 19.2288 5.4935 18.9875C5.15051 19.0038 4.81208 18.9043 4.53348 18.7054C4.12045 18.473 3.83021 18.1909 3.8023 18.0193H3.77997C3.66714 18.2972 3.52494 18.5624 3.35578 18.8105C3.35578 18.8492 3.2888 18.8714 3.29996 18.9377Z" fill="url(#paint8_linear_1312_3597)"/>
    <path fill-rule="evenodd" clip-rule="evenodd" d="M2.81995 19.823C2.81995 19.9834 3.11577 20.249 3.50089 20.4647C3.76329 20.6521 4.08206 20.7458 4.4051 20.7303C4.4665 20.7303 4.4665 20.6639 4.48324 20.6252C4.61142 20.3577 4.76664 20.1037 4.94651 19.8672C4.61189 19.8856 4.28099 19.7899 4.00881 19.5961C3.61252 19.3693 3.32787 19.0927 3.30554 18.9267C3.19032 19.1992 3.04626 19.4589 2.87576 19.7012C2.87576 19.7344 2.81436 19.7566 2.82553 19.823H2.81995Z" fill="url(#paint9_linear_1312_3597)"/>
    <path fill-rule="evenodd" clip-rule="evenodd" d="M2.35109 20.6805C2.35109 20.8354 2.64133 21.0954 3.00971 21.3056C3.2626 21.4914 3.57142 21.5869 3.88601 21.5767C3.9474 21.5767 3.9474 21.5159 3.96415 21.4772C4.08631 21.2186 4.236 20.9738 4.41067 20.7469C4.08408 20.7632 3.76208 20.6653 3.50088 20.4702C3.11576 20.2489 2.84226 19.9834 2.81435 19.8229C2.70331 20.0872 2.56489 20.3394 2.40132 20.5754C2.40132 20.6086 2.33993 20.6307 2.35109 20.6915V20.6805Z" fill="url(#paint10_linear_1312_3597)"/>
    <path fill-rule="evenodd" clip-rule="evenodd" d="M1.89893 21.5159C1.89893 21.6653 2.178 21.9142 2.5408 22.1189C2.78487 22.2948 3.08225 22.3826 3.38361 22.3679C3.44501 22.3679 3.44501 22.307 3.46175 22.2683C3.5814 22.023 3.72737 21.7911 3.89711 21.5768C3.58203 21.5981 3.26953 21.5079 3.01523 21.3223C2.64685 21.1065 2.37894 20.852 2.35661 20.6971C2.24601 20.9507 2.11145 21.1934 1.95474 21.4218C1.92683 21.455 1.89334 21.4772 1.90451 21.538L1.89893 21.5159Z" fill="url(#paint11_linear_1312_3597)"/>
    <path style="mix-blend-mode:multiply" opacity="0.25" fill-rule="evenodd" clip-rule="evenodd" d="M3.49531 18.8935C3.64449 18.673 3.77695 18.4418 3.8916 18.2019C3.84206 18.1494 3.80404 18.0872 3.77997 18.0193C3.66714 18.2972 3.52494 18.5624 3.35578 18.8105C3.35578 18.8492 3.2888 18.8714 3.29996 18.9377C3.32787 19.1037 3.61253 19.3748 4.00323 19.6016H4.0423C3.70183 19.4025 3.48415 19.1535 3.4395 18.9986C3.4395 18.9322 3.46741 18.9101 3.49531 18.8769V18.8935Z" fill="url(#paint12_linear_1312_3597)"/>
    <path style="mix-blend-mode:multiply" opacity="0.25" fill-rule="evenodd" clip-rule="evenodd" d="M2.90924 19.9945C2.86596 19.9424 2.83369 19.8822 2.81435 19.8174C2.70331 20.0817 2.56489 20.3339 2.40132 20.5699C2.40132 20.6031 2.33993 20.6252 2.35109 20.686C2.35109 20.841 2.64133 21.101 3.00971 21.3112H3.04878C2.72505 21.1176 2.49063 20.8907 2.49063 20.758C2.49063 20.6971 2.49063 20.675 2.54086 20.6418C2.68275 20.4363 2.8078 20.2198 2.91482 19.9945H2.90924Z" fill="url(#paint13_linear_1312_3597)"/>
    <path style="mix-blend-mode:multiply" opacity="0.25" fill-rule="evenodd" clip-rule="evenodd" d="M4.33815 17.0733C4.21646 17.3628 4.06495 17.639 3.88605 17.8976C3.88605 17.9308 3.81907 17.953 3.83023 18.0249C3.83023 18.1909 4.14838 18.473 4.55583 18.7054H4.58932C4.23769 18.4952 3.98652 18.2407 3.96977 18.0802C3.96977 18.0138 3.96977 17.9917 4.02559 17.953C4.18096 17.7285 4.31725 17.4916 4.43304 17.2448C4.39195 17.1953 4.35985 17.1392 4.33815 17.0788V17.0733Z" fill="url(#paint14_linear_1312_3597)"/>
    <path style="mix-blend-mode:multiply" opacity="0.25" fill-rule="evenodd" clip-rule="evenodd" d="M3.38928 19.1093C3.34515 19.0585 3.31446 18.9977 3.29997 18.9323C3.18475 19.2048 3.04069 19.4644 2.87019 19.7068C2.87019 19.74 2.8088 19.7621 2.81996 19.8285C2.81996 19.989 3.11578 20.2545 3.50091 20.4703H3.53998C3.20509 20.2711 2.98182 20.0332 2.95392 19.8838C2.95392 19.8175 2.95392 19.8009 3.00973 19.7621C3.15557 19.5503 3.28257 19.3263 3.38928 19.0927V19.1093Z" fill="url(#paint15_linear_1312_3597)"/>
    <path style="mix-blend-mode:multiply" opacity="0.25" fill-rule="evenodd" clip-rule="evenodd" d="M2.44034 20.852C2.39664 20.8031 2.36595 20.7441 2.35104 20.6805C2.24043 20.9341 2.10587 21.1768 1.94917 21.4052C1.92126 21.4384 1.88777 21.4606 1.89893 21.5214C1.89893 21.6708 2.17801 21.9198 2.54081 22.1245H2.5743C2.26173 21.9364 2.04405 21.7151 2.01614 21.5712C1.98824 21.4274 2.01614 21.4882 2.06638 21.455C2.20343 21.2562 2.32472 21.0472 2.42918 20.8299L2.44034 20.852Z" fill="url(#paint16_linear_1312_3597)"/>
    <path style="mix-blend-mode:multiply" opacity="0.35" fill-rule="evenodd" clip-rule="evenodd" d="M5.17536 18.8105C4.91879 18.8561 4.6544 18.8005 4.4386 18.6556L4.5279 18.7054C4.80419 18.9048 5.14102 19.0043 5.48234 18.9876C5.54932 18.9876 5.54932 18.9156 5.57165 18.8769C5.70495 18.5923 5.86968 18.3233 6.06282 18.0747C5.92493 18.1054 5.7809 18.0938 5.64979 18.0415C5.51115 18.2539 5.38444 18.4737 5.27025 18.6999C5.27025 18.7386 5.27025 18.7829 5.18652 18.8105H5.17536Z" fill="url(#paint17_linear_1312_3597)"/>
    <path style="mix-blend-mode:multiply" opacity="0.35" fill-rule="evenodd" clip-rule="evenodd" d="M5.08597 18.9543C4.94643 19.1575 4.82147 19.3701 4.71201 19.5906C4.70174 19.6363 4.67364 19.676 4.63387 19.7012C4.38446 19.7438 4.12812 19.6883 3.91943 19.5463L4.00316 19.6016C4.2744 19.7931 4.60269 19.8885 4.93527 19.8727C5.00225 19.8451 5.00225 19.8008 5.01899 19.7621C5.14971 19.4884 5.3087 19.2288 5.49342 18.9875C5.35907 19.0156 5.21937 19.0041 5.09155 18.9543H5.08597Z" fill="url(#paint18_linear_1312_3597)"/>
    <path style="mix-blend-mode:multiply" opacity="0.35" fill-rule="evenodd" clip-rule="evenodd" d="M4.48319 20.6252C4.61137 20.3577 4.76658 20.1037 4.94645 19.8672C4.81208 19.895 4.67247 19.8834 4.54458 19.834C4.41196 20.0394 4.29084 20.2518 4.18178 20.4703C4.18178 20.509 4.18178 20.5477 4.10364 20.5754C3.86464 20.6173 3.61855 20.5658 3.41711 20.4316L3.50084 20.4703C3.76323 20.6577 4.08201 20.7513 4.40504 20.7358C4.46644 20.7358 4.46644 20.6695 4.48319 20.6307V20.6252Z" fill="url(#paint19_linear_1312_3597)"/>
    <path style="mix-blend-mode:multiply" opacity="0.35" fill-rule="evenodd" clip-rule="evenodd" d="M4.01442 20.6971C3.88491 20.8859 3.76926 21.0838 3.66837 21.2891C3.66837 21.3278 3.66837 21.3665 3.59581 21.3942C3.3629 21.4362 3.12263 21.3866 2.92603 21.2559L3.00975 21.3057C3.26264 21.4914 3.57146 21.5869 3.88605 21.5768C3.94744 21.5768 3.94744 21.5159 3.96419 21.4772C4.08635 21.2187 4.23604 20.9738 4.41071 20.7469C4.28005 20.7747 4.14398 20.7631 4.02 20.7137L4.01442 20.6971Z" fill="url(#paint20_linear_1312_3597)"/>
    <path style="mix-blend-mode:multiply" opacity="0.35" fill-rule="evenodd" clip-rule="evenodd" d="M3.46183 22.2683C3.58148 22.023 3.72744 21.7911 3.89719 21.5768C3.76837 21.6045 3.63411 21.5929 3.51206 21.5436C3.38646 21.7204 3.27273 21.9052 3.17159 22.0968C3.17159 22.13 3.17159 22.1688 3.10461 22.1964C2.87961 22.2353 2.64811 22.1878 2.45715 22.0636L2.54646 22.1134C2.79053 22.2893 3.08791 22.3771 3.38927 22.3624C3.45066 22.3624 3.45066 22.3015 3.46741 22.2628L3.46183 22.2683Z" fill="url(#paint21_linear_1312_3597)"/>
    <path fill-rule="evenodd" clip-rule="evenodd" d="M5.38187 17.2393C5.87863 17.5214 6.20794 17.8755 6.11863 18.0249C6.02933 18.1743 5.56048 18.0692 5.06372 17.787C4.56697 17.5049 4.23766 17.1508 4.33813 17.0014C4.43859 16.852 4.89628 16.9571 5.39303 17.2393H5.38187Z" fill="#808080"/>
    <path style="mix-blend-mode:screen" opacity="0.5" fill-rule="evenodd" clip-rule="evenodd" d="M4.56133 18.5173C4.63962 18.2638 4.78861 18.0375 4.99111 17.8644C5.03512 17.8439 5.08228 17.8308 5.13065 17.8257L5.06367 17.787C4.84157 17.6681 4.63997 17.515 4.46645 17.3333C4.48546 17.3772 4.49678 17.424 4.49994 17.4716C4.44393 17.7683 4.30015 18.0418 4.08691 18.2572C4.06758 18.2658 4.04666 18.2702 4.02551 18.2702C4.00435 18.2702 3.98343 18.2658 3.96411 18.2572C4.12897 18.4231 4.31693 18.5647 4.52226 18.6777H4.56692C4.53868 18.6085 4.53868 18.5311 4.56692 18.4619L4.56133 18.5173Z" fill="url(#paint22_linear_1312_3597)"/>
    <path style="mix-blend-mode:screen" opacity="0.5" fill-rule="evenodd" clip-rule="evenodd" d="M4.52786 18.7054C4.32166 18.5869 4.1337 18.4397 3.96971 18.2683C3.98676 18.309 3.99803 18.3518 4.0032 18.3956C3.94704 18.6818 3.8073 18.9453 3.60133 19.1535C3.57979 19.1647 3.55586 19.1705 3.53156 19.1705C3.50726 19.1705 3.48333 19.1647 3.46179 19.1535C3.626 19.3231 3.81398 19.4685 4.01994 19.585H4.07576C4.05979 19.5484 4.05155 19.5088 4.05155 19.4689C4.05155 19.4289 4.05979 19.3894 4.07576 19.3527C4.1505 19.1095 4.29381 18.8926 4.48879 18.7275C4.52863 18.7064 4.57224 18.6933 4.61717 18.6888H4.57252L4.52786 18.7054Z" fill="url(#paint23_linear_1312_3597)"/>
    <path style="mix-blend-mode:screen" opacity="0.5" fill-rule="evenodd" clip-rule="evenodd" d="M4.00323 19.6016C3.79621 19.4799 3.60819 19.329 3.44508 19.1535C3.46724 19.2024 3.48047 19.2549 3.48415 19.3084C3.43261 19.5846 3.29842 19.8391 3.09902 20.0387C3.08141 20.0495 3.06112 20.0552 3.04042 20.0552C3.01972 20.0552 2.99943 20.0495 2.98181 20.0387C3.14671 20.1999 3.33481 20.336 3.53996 20.4426H3.57903C3.55282 20.3749 3.55282 20.3 3.57903 20.2323C3.65362 19.9981 3.79283 19.7892 3.9809 19.6293C4.02661 19.608 4.07573 19.5949 4.12602 19.5906H4.07021L4.00323 19.6016Z" fill="url(#paint24_linear_1312_3597)"/>
    <path style="mix-blend-mode:screen" opacity="0.5" fill-rule="evenodd" clip-rule="evenodd" d="M3.50084 20.4703C3.29387 20.3574 3.10562 20.2138 2.94269 20.0443C2.95036 20.0826 2.95036 20.1221 2.94269 20.1604C2.89214 20.4374 2.76009 20.6934 2.56315 20.8963C2.54821 20.9028 2.53205 20.9062 2.5157 20.9062C2.49936 20.9062 2.4832 20.9028 2.46826 20.8963C2.61964 21.0508 2.79256 21.1831 2.98176 21.2891C2.95861 21.2285 2.95861 21.1616 2.98176 21.101C3.05623 20.8651 3.19536 20.6544 3.38363 20.4924C3.41912 20.4763 3.45669 20.4651 3.49526 20.4592L3.50084 20.4703Z" fill="url(#paint25_linear_1312_3597)"/>
    <path style="mix-blend-mode:screen" opacity="0.5" fill-rule="evenodd" clip-rule="evenodd" d="M3.00971 21.3056C2.82051 21.1997 2.64759 21.0674 2.49621 20.9128V21.0014C2.44365 21.2684 2.3137 21.5145 2.12225 21.7095C2.10484 21.7179 2.08576 21.7222 2.06644 21.7222C2.04711 21.7222 2.02803 21.7179 2.01062 21.7095C2.1612 21.8634 2.33431 21.994 2.52412 22.0968H2.56319C2.53712 22.0329 2.53712 21.9615 2.56319 21.8976C2.6339 21.669 2.76954 21.4654 2.9539 21.3112C2.98162 21.2953 3.01179 21.2841 3.0432 21.278L3.00971 21.3056Z" fill="url(#paint26_linear_1312_3597)"/>
    <path fill-rule="evenodd" clip-rule="evenodd" d="M5.01903 17.8645C5.28618 18.0766 5.6147 18.1988 5.95673 18.213C5.98893 18.1646 6.02436 18.1184 6.06278 18.0747C5.7058 18.0999 5.35148 17.9979 5.06369 17.787C4.63391 17.5436 4.33251 17.2337 4.31018 17.0733V17.1065C4.31018 17.2891 4.62275 17.5989 5.0302 17.8645H5.01903Z" fill="#666666"/>
    <g style="mix-blend-mode:multiply" opacity="0.35">
      <path fill-rule="evenodd" clip-rule="evenodd" d="M5.48785 18.9875C5.14486 19.0038 4.80644 18.9043 4.52783 18.7054C4.1148 18.473 3.82456 18.1909 3.79665 18.0193H3.77991C3.77991 18.1909 4.08131 18.4951 4.4776 18.7496C4.7368 18.9554 5.05558 19.0737 5.38739 19.0871C5.41816 19.0409 5.45171 18.9966 5.48785 18.9543V18.9875Z" fill="#4A2121"/>
    </g>
    <g style="mix-blend-mode:multiply" opacity="0.35">
      <path fill-rule="evenodd" clip-rule="evenodd" d="M4.9409 19.8728C4.60627 19.8912 4.27538 19.7955 4.0032 19.6017C3.60691 19.3749 3.32225 19.0982 3.29993 18.9323V18.9654C3.29993 19.137 3.59575 19.4246 3.97529 19.6736C4.23192 19.8734 4.54762 19.9842 4.87392 19.989L4.95764 19.8728H4.9409Z" fill="#4A2121"/>
    </g>
    <g style="mix-blend-mode:multiply" opacity="0.35">
      <path fill-rule="evenodd" clip-rule="evenodd" d="M4.40507 20.7303C4.08237 20.75 3.76277 20.6581 3.50086 20.4702C3.11573 20.2489 2.84224 19.9834 2.81433 19.8229V19.8561C2.81433 20.0166 3.09899 20.2987 3.47295 20.5422C3.72 20.7353 4.02352 20.844 4.33809 20.852C4.36516 20.8095 4.39499 20.7689 4.42739 20.7303H4.40507Z" fill="#4A2121"/>
    </g>
    <g style="mix-blend-mode:multiply" opacity="0.35">
      <path fill-rule="evenodd" clip-rule="evenodd" d="M3.00969 21.3057C2.64131 21.0899 2.3734 20.8354 2.35107 20.6805V20.7137C2.35107 20.8741 2.63015 21.1507 2.98737 21.3831C3.21395 21.5625 3.49057 21.6687 3.77994 21.6874C3.81626 21.6478 3.85544 21.6108 3.89716 21.5767C3.58207 21.5981 3.26958 21.5079 3.01528 21.3223L3.00969 21.3057Z" fill="#4A2121"/>
    </g>
    <path fill-rule="evenodd" clip-rule="evenodd" d="M5.09716 17.7317C4.80059 17.3134 4.4035 16.9749 3.94179 16.7469C3.49431 16.5012 3.14555 16.1105 2.95386 15.6404L3.33898 14.8991C3.52329 14.8634 3.71282 14.8634 3.89714 14.8991C4.26075 15.7092 4.86671 16.389 5.63299 16.8465C6.41524 17.2752 7.31166 17.4548 8.20049 17.361C8.31935 17.4941 8.41211 17.6479 8.47399 17.8147L8.02188 18.5173C7.50974 18.6052 6.98269 18.5133 6.53162 18.2573C6.10389 17.9732 5.61022 17.8019 5.09716 17.7594V17.7317Z" fill="url(#paint27_linear_1312_3597)"/>
    <path fill-rule="evenodd" clip-rule="evenodd" d="M4.89631 18.036C4.54323 17.5684 4.08442 17.1894 3.55674 16.9295C3.04334 16.6449 2.63767 16.202 2.40137 15.668C2.66852 15.3666 2.9788 15.1057 3.32232 14.8935C3.55142 15.3147 3.83887 15.702 4.17629 16.0443C4.58385 16.412 5.02907 16.7365 5.5047 17.0124C5.98082 17.2954 6.48601 17.5272 7.01171 17.704C7.48274 17.8169 7.96778 17.8616 8.45174 17.8368C8.44074 18.2302 8.37115 18.6198 8.24522 18.9931C7.66195 19.0536 7.07456 18.9255 6.57077 18.6279C6.06748 18.3026 5.49373 18.0997 4.89631 18.036Z" fill="url(#paint28_linear_1312_3597)"/>
    <path fill-rule="evenodd" clip-rule="evenodd" d="M4.89624 18.036C5.49366 18.0997 6.06741 18.3026 6.5707 18.6279C7.0745 18.9255 7.66188 19.0536 8.24516 18.9931C8.37517 18.6131 8.44667 18.2158 8.45725 17.8147C7.97252 17.8473 7.48558 17.81 7.01164 17.704C6.48731 17.5378 5.98217 17.3171 5.50463 17.0457C5.32044 17.3444 5.09718 17.704 4.89624 18.036Z" fill="url(#paint29_linear_1312_3597)"/>
    <path style="mix-blend-mode:screen" fill-rule="evenodd" clip-rule="evenodd" d="M2.7251 15.3527C2.78269 15.3062 2.84906 15.2715 2.92033 15.2508C2.99161 15.23 3.06634 15.2236 3.14016 15.2318C3.21397 15.2401 3.28539 15.2628 3.35021 15.2988C3.41504 15.3347 3.47197 15.3832 3.51767 15.4412C3.86931 15.8174 4.07583 16.3209 4.50002 16.6473C4.66189 16.769 4.85166 16.852 5.0191 16.9682C5.07096 16.9989 5.11616 17.0395 5.15212 17.0876C5.18807 17.1357 5.21406 17.1904 5.22859 17.2485C5.24312 17.3066 5.2459 17.367 5.23677 17.4262C5.22764 17.4854 5.20678 17.5422 5.17539 17.5934L5.5047 17.0401C5.02777 16.7554 4.5825 16.4216 4.17629 16.0443C3.84351 15.6959 3.56168 15.3029 3.33907 14.8769C3.1188 15.0104 2.91305 15.1661 2.7251 15.3416V15.3527Z" fill="url(#paint30_radial_1312_3597)"/>
    <path style="mix-blend-mode:multiply" opacity="0.3" fill-rule="evenodd" clip-rule="evenodd" d="M5.70556 17.9973C5.59393 17.953 5.48788 17.9032 5.47672 17.8092C5.47672 17.8092 5.47672 17.8092 5.47672 17.776C5.47672 17.3444 6.12418 17.4329 6.3586 17.4883L6.68791 17.5713C6.28237 17.4153 5.88877 17.2304 5.51021 17.018L5.1809 17.5713L5.10276 17.7096L4.89624 18.036C5.49366 18.0997 6.06741 18.3026 6.5707 18.628C6.7486 18.7293 6.93542 18.8145 7.12885 18.8825C6.5707 18.5948 6.17441 18.1909 5.6944 17.9973H5.70556Z" fill="url(#paint31_linear_1312_3597)"/>
    <path style="mix-blend-mode:multiply" opacity="0.5" fill-rule="evenodd" clip-rule="evenodd" d="M3.65154 15.1646C3.65154 15.0318 3.88038 15.0816 3.95294 15.1646C3.98738 15.195 4.01912 15.2284 4.04783 15.2642C3.98643 15.1535 3.92504 15.0373 3.8748 14.9212C3.69049 14.8855 3.50096 14.8855 3.31665 14.9212C3.54965 15.333 3.8389 15.7109 4.17621 16.0443C4.32565 16.1869 4.48412 16.3199 4.65063 16.4426C4.28225 16.1438 3.64038 15.491 3.65154 15.1646Z" fill="url(#paint32_linear_1312_3597)"/>
    <path style="mix-blend-mode:screen" fill-rule="evenodd" clip-rule="evenodd" d="M8.05539 17.704C8.16702 17.6321 8.01632 17.4661 7.92701 17.4329C7.88384 17.4167 7.83887 17.4055 7.79306 17.3997C7.92143 17.3997 8.04981 17.3997 8.17818 17.3997C8.29704 17.5327 8.3898 17.6866 8.45168 17.8534C7.96691 17.8728 7.48186 17.8225 7.01164 17.704C6.8214 17.6454 6.635 17.5752 6.45349 17.4938C6.90559 17.6597 7.79306 17.8866 8.07772 17.7095L8.05539 17.704Z" fill="url(#paint33_radial_1312_3597)"/>
    <path fill-rule="evenodd" clip-rule="evenodd" d="M4.33813 15.9834L6.74935 11.917L7.0061 11.9502L6.95029 11.5795L10.8071 5.0899L11.2202 5.37206L11.036 4.75242L11.1085 4.63624C12.8555 1.65975 14.0891 0.337483 15.423 0C15.7914 1.31674 15.2723 3.02628 13.5477 6.04703L11.0974 10.3292L10.8574 10.2185L10.969 10.545L6.99494 17.4993C6.50835 17.3371 6.03757 17.1316 5.5884 16.8852C5.14552 16.6219 4.72712 16.3201 4.33813 15.9834Z" fill="url(#paint34_linear_1312_3597)"/>
    <path fill-rule="evenodd" clip-rule="evenodd" d="M15.423 0L14.4295 1.70401V2.01383L14.2565 1.98617L5.58838 16.8852C6.03756 17.1316 6.50833 17.3371 6.99492 17.4993L10.969 10.545L10.8573 10.2185L11.0973 10.3292L13.5476 6.04703C15.2723 3.02628 15.7802 1.31674 15.423 0Z" fill="url(#paint35_linear_1312_3597)"/>
    <path style="mix-blend-mode:screen" opacity="0.5" fill-rule="evenodd" clip-rule="evenodd" d="M4.59488 16.1936L7.88798 10.6611L11.075 5.28907L10.8071 5.1065L6.95587 11.5961L7.01169 11.9668L6.75494 11.9336L4.33813 15.9834C4.41069 16.0498 4.49442 16.1217 4.5893 16.1936H4.59488ZM11.1476 5.12863L11.3541 4.77455C11.7448 4.12172 12.1467 3.47441 12.582 2.85477C12.9064 2.38533 13.2646 1.93973 13.6537 1.52144C14.0733 1.04353 14.596 0.665347 15.183 0.414938L15.423 0C14.0891 0.337483 12.8555 1.65975 11.0806 4.63624L11.036 4.75242L11.1755 5.15076L11.1476 5.12863Z" fill="url(#paint36_radial_1312_3597)"/>
    <path style="mix-blend-mode:screen" opacity="0.3" fill-rule="evenodd" clip-rule="evenodd" d="M6.68787 17.3942L9.91957 11.7898L13.2685 5.88658C13.648 5.22822 14.0108 4.55878 14.329 3.87829C14.5717 3.36426 14.7769 2.83362 14.9429 2.29046C15.1526 1.68849 15.2288 1.04875 15.1662 0.414938L15.423 0C15.7913 1.31674 15.2723 3.02628 13.5476 6.04703L11.0973 10.3292L10.8573 10.2185L10.9689 10.545L6.99485 17.4993L6.68787 17.3942Z" fill="url(#paint37_linear_1312_3597)"/>
    <path fill-rule="evenodd" clip-rule="evenodd" d="M13.9774 3.07605C14.0189 3.00709 14.031 2.92463 14.0111 2.84681C13.9912 2.769 13.941 2.7022 13.8714 2.66112C13.8018 2.62003 13.7186 2.60803 13.6401 2.62774C13.5616 2.64745 13.4942 2.69727 13.4528 2.76623L10.9299 7.09818L10.8685 7.51865L10.6453 7.59058L5.33167 16.7247L5.58841 16.8852L5.85633 17.0235L13.9774 3.07605Z" fill="url(#paint38_linear_1312_3597)"/>
    <path style="mix-blend-mode:screen" opacity="0.5" fill-rule="evenodd" clip-rule="evenodd" d="M13.7709 2.83815L5.58838 16.8852L5.85629 17.0235L9.00427 11.6182H9.24986L9.28335 11.159L13.9774 3.07604C13.9974 3.04194 14.0103 3.00425 14.0155 2.96516C14.0206 2.92608 14.018 2.88636 14.0076 2.8483C13.9972 2.81025 13.9793 2.7746 13.955 2.74342C13.9307 2.71224 13.9003 2.68615 13.8658 2.66664L13.8267 2.63898C13.8379 2.70721 13.8261 2.77719 13.7932 2.83815H13.7709Z" fill="url(#paint39_linear_1312_3597)"/>
  </g>
  <defs>
    <radialGradient id="paint0_radial_1312_3597" cx="0" cy="0" r="1" gradientUnits="userSpaceOnUse" gradientTransform="translate(1.58053 23.6742) rotate(14.879) scale(1.4677 1.45652)">
      <stop stop-color="#A15F00"/>
      <stop offset="0.33" stop-color="#8F4A04"/>
      <stop offset="0.58" stop-color="#853F06"/>
      <stop offset="0.69" stop-color="#7F3C05"/>
      <stop offset="0.84" stop-color="#6E3403"/>
      <stop offset="1" stop-color="#522800"/>
    </radialGradient>
    <radialGradient id="paint1_radial_1312_3597" cx="0" cy="0" r="1" gradientUnits="userSpaceOnUse" gradientTransform="translate(1.13517 24.0334) rotate(14.879) scale(1.78701 1.77339)">
      <stop stop-color="#B18654"/>
      <stop offset="1" stop-color="#000505"/>
    </radialGradient>
    <radialGradient id="paint2_radial_1312_3597" cx="0" cy="0" r="1" gradientUnits="userSpaceOnUse" gradientTransform="translate(0.671249 24.2898) rotate(14.879) scale(1.7646 1.75116)">
      <stop stop-color="#B18654"/>
      <stop offset="1" stop-color="#000505"/>
    </radialGradient>
    <radialGradient id="paint3_radial_1312_3597" cx="0" cy="0" r="1" gradientUnits="userSpaceOnUse" gradientTransform="translate(1.99786 23.6759) rotate(14.879) scale(1.69178 1.67889)">
      <stop stop-color="#B18654"/>
      <stop offset="1" stop-color="#000505"/>
    </radialGradient>
    <linearGradient id="paint4_linear_1312_3597" x1="1.68688" y1="21.5989" x2="3.40948" y2="22.6024" gradientUnits="userSpaceOnUse">
      <stop stop-color="#855226"/>
      <stop offset="0.31" stop-color="#BA7A1E"/>
      <stop offset="1" stop-color="#3B2008"/>
    </linearGradient>
    <linearGradient id="paint5_linear_1312_3597" x1="0.866397" y1="20.935" x2="3.82262" y2="22.6561" gradientUnits="userSpaceOnUse">
      <stop stop-color="white"/>
      <stop offset="0.4" stop-color="#C3C7E6"/>
      <stop offset="1" stop-color="#616DBE"/>
    </linearGradient>
    <radialGradient id="paint6_radial_1312_3597" cx="0" cy="0" r="1" gradientUnits="userSpaceOnUse" gradientTransform="translate(1.79853 21.5712) scale(2.18238 2.16321)">
      <stop stop-color="#B18654"/>
      <stop offset="1" stop-color="#000505"/>
    </radialGradient>
    <linearGradient id="paint7_linear_1312_3597" x1="3.98084" y1="17.6376" x2="5.7201" y2="18.6523" gradientUnits="userSpaceOnUse">
      <stop stop-color="#611412"/>
      <stop offset="0.31" stop-color="#8A4835"/>
      <stop offset="1" stop-color="#450E0E"/>
    </linearGradient>
    <linearGradient id="paint8_linear_1312_3597" x1="3.47857" y1="18.5615" x2="5.1678" y2="19.5482" gradientUnits="userSpaceOnUse">
      <stop stop-color="#611412"/>
      <stop offset="0.31" stop-color="#8A4835"/>
      <stop offset="1" stop-color="#450E0E"/>
    </linearGradient>
    <linearGradient id="paint9_linear_1312_3597" x1="2.98739" y1="19.4633" x2="4.62667" y2="20.4164" gradientUnits="userSpaceOnUse">
      <stop stop-color="#611412"/>
      <stop offset="0.31" stop-color="#8A4835"/>
      <stop offset="1" stop-color="#450E0E"/>
    </linearGradient>
    <linearGradient id="paint10_linear_1312_3597" x1="2.51295" y1="20.3319" x2="4.1022" y2="21.2569" gradientUnits="userSpaceOnUse">
      <stop stop-color="#611412"/>
      <stop offset="0.31" stop-color="#8A4835"/>
      <stop offset="1" stop-color="#450E0E"/>
    </linearGradient>
    <linearGradient id="paint11_linear_1312_3597" x1="2.05521" y1="21.1729" x2="3.59444" y2="22.0698" gradientUnits="userSpaceOnUse">
      <stop stop-color="#611412"/>
      <stop offset="0.31" stop-color="#8A4835"/>
      <stop offset="1" stop-color="#450E0E"/>
    </linearGradient>
    <linearGradient id="paint12_linear_1312_3597" x1="3.47857" y1="18.5615" x2="4.36209" y2="19.0773" gradientUnits="userSpaceOnUse">
      <stop stop-color="#616DBE"/>
      <stop offset="0.6" stop-color="#C3C7E6"/>
      <stop offset="1" stop-color="white"/>
    </linearGradient>
    <linearGradient id="paint13_linear_1312_3597" x1="2.51295" y1="20.332" x2="3.34651" y2="20.8141" gradientUnits="userSpaceOnUse">
      <stop stop-color="#616DBE"/>
      <stop offset="0.6" stop-color="#C3C7E6"/>
      <stop offset="1" stop-color="white"/>
    </linearGradient>
    <linearGradient id="paint14_linear_1312_3597" x1="3.98094" y1="17.6376" x2="4.88664" y2="18.1702" gradientUnits="userSpaceOnUse">
      <stop stop-color="#616DBE"/>
      <stop offset="0.6" stop-color="#C3C7E6"/>
      <stop offset="1" stop-color="white"/>
    </linearGradient>
    <linearGradient id="paint15_linear_1312_3597" x1="2.98741" y1="19.4634" x2="3.84315" y2="19.9623" gradientUnits="userSpaceOnUse">
      <stop stop-color="#616DBE"/>
      <stop offset="0.6" stop-color="#C3C7E6"/>
      <stop offset="1" stop-color="white"/>
    </linearGradient>
    <linearGradient id="paint16_linear_1312_3597" x1="2.05521" y1="21.1729" x2="2.86093" y2="21.6438" gradientUnits="userSpaceOnUse">
      <stop stop-color="#616DBE"/>
      <stop offset="0.6" stop-color="#C3C7E6"/>
      <stop offset="1" stop-color="white"/>
    </linearGradient>
    <linearGradient id="paint17_linear_1312_3597" x1="4.76791" y1="18.0913" x2="5.7237" y2="18.6463" gradientUnits="userSpaceOnUse">
      <stop stop-color="white"/>
      <stop offset="0.4" stop-color="#C3C7E6"/>
      <stop offset="1" stop-color="#616DBE"/>
    </linearGradient>
    <linearGradient id="paint18_linear_1312_3597" x1="4.23758" y1="18.9986" x2="5.17112" y2="19.5424" gradientUnits="userSpaceOnUse">
      <stop stop-color="white"/>
      <stop offset="0.4" stop-color="#C3C7E6"/>
      <stop offset="1" stop-color="#616DBE"/>
    </linearGradient>
    <linearGradient id="paint19_linear_1312_3597" x1="3.7241" y1="19.8838" x2="4.62986" y2="20.4108" gradientUnits="userSpaceOnUse">
      <stop stop-color="white"/>
      <stop offset="0.4" stop-color="#C3C7E6"/>
      <stop offset="1" stop-color="#616DBE"/>
    </linearGradient>
    <linearGradient id="paint20_linear_1312_3597" x1="3.22743" y1="20.7413" x2="4.10542" y2="21.2515" gradientUnits="userSpaceOnUse">
      <stop stop-color="white"/>
      <stop offset="0.4" stop-color="#C3C7E6"/>
      <stop offset="1" stop-color="#616DBE"/>
    </linearGradient>
    <linearGradient id="paint21_linear_1312_3597" x1="2.74181" y1="21.5712" x2="3.59762" y2="22.0646" gradientUnits="userSpaceOnUse">
      <stop stop-color="white"/>
      <stop offset="0.4" stop-color="#C3C7E6"/>
      <stop offset="1" stop-color="#616DBE"/>
    </linearGradient>
    <linearGradient id="paint22_linear_1312_3597" x1="4.17621" y1="17.8368" x2="4.88747" y2="18.2516" gradientUnits="userSpaceOnUse">
      <stop stop-color="#AB665D"/>
      <stop offset="1" stop-color="#2B2321"/>
    </linearGradient>
    <linearGradient id="paint23_linear_1312_3597" x1="3.66273" y1="18.7552" x2="4.34068" y2="19.1476" gradientUnits="userSpaceOnUse">
      <stop stop-color="#AB665D"/>
      <stop offset="1" stop-color="#2B2321"/>
    </linearGradient>
    <linearGradient id="paint24_linear_1312_3597" x1="3.14926" y1="19.6293" x2="3.83834" y2="20.0273" gradientUnits="userSpaceOnUse">
      <stop stop-color="#AB665D"/>
      <stop offset="1" stop-color="#2B2321"/>
    </linearGradient>
    <linearGradient id="paint25_linear_1312_3597" x1="2.67478" y1="20.4979" x2="3.31936" y2="20.8735" gradientUnits="userSpaceOnUse">
      <stop stop-color="#AB665D"/>
      <stop offset="1" stop-color="#2B2321"/>
    </linearGradient>
    <linearGradient id="paint26_linear_1312_3597" x1="2.23388" y1="21.3554" x2="2.83404" y2="21.703" gradientUnits="userSpaceOnUse">
      <stop stop-color="#AB665D"/>
      <stop offset="1" stop-color="#2B2321"/>
    </linearGradient>
    <linearGradient id="paint27_linear_1312_3597" x1="3.00409" y1="15.4689" x2="8.09411" y2="18.4345" gradientUnits="userSpaceOnUse">
      <stop stop-color="#6E3B0F"/>
      <stop offset="1" stop-color="#BA7A1E"/>
    </linearGradient>
    <linearGradient id="paint28_linear_1312_3597" x1="2.49625" y1="15.5297" x2="5.53028" y2="17.2956" gradientUnits="userSpaceOnUse">
      <stop stop-color="#A14D03"/>
      <stop offset="1" stop-color="#E8A849"/>
    </linearGradient>
    <linearGradient id="paint29_linear_1312_3597" x1="5.40416" y1="17.195" x2="8.30483" y2="18.8825" gradientUnits="userSpaceOnUse">
      <stop stop-color="#6E3B0F"/>
      <stop offset="1" stop-color="#BA7A1E"/>
    </linearGradient>
    <radialGradient id="paint30_radial_1312_3597" cx="0" cy="0" r="1" gradientUnits="userSpaceOnUse" gradientTransform="translate(5.48795 17.4108) scale(3.58334 3.55187)">
      <stop stop-color="#B18654"/>
      <stop offset="1" stop-color="#000505"/>
    </radialGradient>
    <linearGradient id="paint31_linear_1312_3597" x1="5.23671" y1="17.4827" x2="7.26493" y2="18.6656" gradientUnits="userSpaceOnUse">
      <stop stop-color="#616DBE"/>
      <stop offset="0.6" stop-color="#C3C7E6"/>
      <stop offset="1" stop-color="white"/>
    </linearGradient>
    <linearGradient id="paint32_linear_1312_3597" x1="3.22735" y1="15.0871" x2="4.88887" y2="16.0514" gradientUnits="userSpaceOnUse">
      <stop stop-color="#616DBE"/>
      <stop offset="0.6" stop-color="#C3C7E6"/>
      <stop offset="1" stop-color="white"/>
    </linearGradient>
    <radialGradient id="paint33_radial_1312_3597" cx="0" cy="0" r="1" gradientUnits="userSpaceOnUse" gradientTransform="translate(8.65819 18.2241) scale(2.60099 2.57815)">
      <stop stop-color="#B18654"/>
      <stop offset="1" stop-color="#000505"/>
    </radialGradient>
    <linearGradient id="paint34_linear_1312_3597" x1="9.17732" y1="7.68465" x2="10.5444" y2="8.47514" gradientUnits="userSpaceOnUse">
      <stop stop-color="#7388AB"/>
      <stop offset="1" stop-color="#DCFBFF"/>
    </linearGradient>
    <linearGradient id="paint35_linear_1312_3597" x1="10.5057" y1="8.4426" x2="11.8282" y2="9.21064" gradientUnits="userSpaceOnUse">
      <stop stop-color="#89A5C4"/>
      <stop offset="1" stop-color="#575E91"/>
    </linearGradient>
    <radialGradient id="paint36_radial_1312_3597" cx="0" cy="0" r="1" gradientUnits="userSpaceOnUse" gradientTransform="translate(3.47858 2.56155) scale(17.872 17.7151)">
      <stop stop-color="#F0FFFF"/>
      <stop offset="0.11" stop-color="#ECFAFB"/>
      <stop offset="0.24" stop-color="#DFEDEF"/>
      <stop offset="0.37" stop-color="#C9D6DB"/>
      <stop offset="0.51" stop-color="#ABB7BE"/>
      <stop offset="0.65" stop-color="#848E9A"/>
      <stop offset="0.79" stop-color="#545C6D"/>
      <stop offset="0.93" stop-color="#1D233A"/>
      <stop offset="1" stop-color="#00051F"/>
    </radialGradient>
    <linearGradient id="paint37_linear_1312_3597" x1="10.5335" y1="8.39834" x2="11.8505" y2="9.16636" gradientUnits="userSpaceOnUse">
      <stop offset="0.45" stop-color="#F0FFFF"/>
      <stop offset="0.51" stop-color="#ECFAFB"/>
      <stop offset="0.58" stop-color="#DFEDEF"/>
      <stop offset="0.66" stop-color="#C9D6DB"/>
      <stop offset="0.73" stop-color="#ABB7BE"/>
      <stop offset="0.81" stop-color="#848E9A"/>
      <stop offset="0.88" stop-color="#545C6D"/>
      <stop offset="0.96" stop-color="#1D233A"/>
      <stop offset="1" stop-color="#00051F"/>
    </linearGradient>
    <linearGradient id="paint38_linear_1312_3597" x1="9.46758" y1="9.62654" x2="9.98993" y2="9.92927" gradientUnits="userSpaceOnUse">
      <stop stop-color="#545F85"/>
      <stop offset="1" stop-color="#ADCAEB"/>
    </linearGradient>
    <linearGradient id="paint39_linear_1312_3597" x1="9.66847" y1="9.74271" x2="10.1631" y2="10.0286" gradientUnits="userSpaceOnUse">
      <stop/>
      <stop offset="1" stop-color="#F0FFFF"/>
    </linearGradient>
    <clipPath id="clip0_1312_3597">
      <rect width="14.5455" height="24" fill="white" transform="translate(0.989136)"/>
    </clipPath>
  </defs>
</svg>