<svg width="22" height="16" viewBox="0 0 22 16" fill="none" xmlns="http://www.w3.org/2000/svg">
<g id="Discord svg" clip-path="url(#clip0_1770_11698)">
<g id="Clip path group">
<mask id="mask0_1770_11698" style="mask-type:luminance" maskUnits="userSpaceOnUse" x="0" y="0" width="22" height="17">
<g id="clip0">
<path id="Vector" d="M21.1052 0.00195312H0.894714V16.002H21.1052V0.00195312Z" fill="white"/>
</g>
</mask>
<g mask="url(#mask0_1770_11698)">
<g id="Group">
<path id="Vector_2" d="M18.0038 1.4271C16.7156 0.823061 15.3343 0.378028 13.89 0.12314C13.8637 0.11822 13.8374 0.130514 13.8239 0.155101C13.6462 0.478014 13.4494 0.899279 13.3116 1.23039C11.7582 0.992719 10.2128 0.992719 8.6912 1.23039C8.55337 0.891919 8.34944 0.478014 8.17099 0.155101C8.15744 0.131334 8.13116 0.119041 8.10486 0.12314C6.66138 0.377214 5.28003 0.822246 3.99108 1.4271C3.97992 1.43202 3.97036 1.44022 3.96401 1.45087C1.34389 5.45128 0.626125 9.35336 0.978234 13.2071C0.979828 13.2259 0.990184 13.2439 1.00452 13.2554C2.73321 14.5528 4.40773 15.3404 6.05116 15.8625C6.07746 15.8707 6.10533 15.8609 6.12207 15.8387C6.51082 15.2962 6.85736 14.7241 7.15448 14.1225C7.17202 14.0873 7.15528 14.0455 7.11944 14.0316C6.56977 13.8185 6.04638 13.5587 5.54291 13.2636C5.50308 13.2398 5.4999 13.1816 5.53653 13.1538C5.64248 13.0726 5.74846 12.9882 5.84962 12.903C5.86793 12.8874 5.89343 12.8841 5.91495 12.894C9.22253 14.4373 12.8034 14.4373 16.0719 12.894C16.0935 12.8833 16.119 12.8866 16.1381 12.9022C16.2393 12.9874 16.3452 13.0726 16.452 13.1538C16.4886 13.1816 16.4862 13.2398 16.4464 13.2636C15.9429 13.5644 15.4195 13.8185 14.869 14.0307C14.8332 14.0447 14.8173 14.0873 14.8348 14.1225C15.1383 14.7233 15.4848 15.2954 15.8664 15.8379C15.8824 15.8609 15.911 15.8707 15.9373 15.8625C17.5887 15.3404 19.2632 14.5528 20.9919 13.2554C21.0071 13.2439 21.0166 13.2267 21.0182 13.2079C21.4396 8.75257 20.3124 4.88249 18.0301 1.45169C18.0245 1.44022 18.0149 1.43202 18.0038 1.4271ZM7.64842 10.8606C6.65261 10.8606 5.83209 9.92625 5.83209 8.77881C5.83209 7.63138 6.6367 6.69707 7.64842 6.69707C8.66808 6.69707 9.48066 7.63959 9.46472 8.77881C9.46472 9.92625 8.66011 10.8606 7.64842 10.8606ZM14.364 10.8606C13.3682 10.8606 12.5477 9.92625 12.5477 8.77881C12.5477 7.63138 13.3523 6.69707 14.364 6.69707C15.3837 6.69707 16.1962 7.63959 16.1803 8.77881C16.1803 9.92625 15.3837 10.8606 14.364 10.8606Z" fill="#5865F2"/>
</g>
</g>
</g>
</g>
<defs>
<clipPath id="clip0_1770_11698">
<rect width="20.2105" height="16" fill="white" transform="translate(0.894714 0.00195312)"/>
</clipPath>
</defs>
</svg>
