<svg xmlns="http://www.w3.org/2000/svg" width="28" height="28" viewBox="0 0 28 28" fill="none">
<path d="M14.0001 0.355225C10.4647 0.355225 7.07091 1.76085 4.573 4.26043C2.0725 6.76101 0.667441 10.1523 0.666748 13.6886C0.666748 17.2233 2.073 20.6171 4.573 23.1167C7.07091 25.6163 10.4647 27.0219 14.0001 27.0219C17.5355 27.0219 20.9292 25.6163 23.4272 23.1167C25.9272 20.6171 27.3334 17.2233 27.3334 13.6886C27.3334 10.1538 25.9272 6.76002 23.4272 4.26043C20.9292 1.76085 17.5355 0.355225 14.0001 0.355225Z" fill="url(#paint0_linear_2269_163)"/>
<path d="M6.70227 13.5479C10.5898 11.8545 13.1814 10.7381 14.4773 10.1987C18.1814 8.65848 18.9502 8.39098 19.4523 8.38191C19.5627 8.38014 19.8085 8.40744 19.9689 8.53712C20.1023 8.6465 20.1398 8.79442 20.1585 8.89827C20.1752 9.00202 20.1981 9.23848 20.1793 9.42306C19.9793 11.5314 19.1106 16.6476 18.6689 19.0091C18.4835 20.0083 18.1148 20.3433 17.7585 20.376C16.9835 20.4472 16.396 19.8643 15.646 19.3729C14.4731 18.6035 13.8106 18.1247 12.671 17.3741C11.3543 16.5066 12.2085 16.0297 12.9585 15.2506C13.1543 15.0466 16.5668 11.9435 16.6314 11.662C16.6398 11.6268 16.6481 11.4956 16.5689 11.4264C16.4918 11.357 16.3773 11.3808 16.2939 11.3995C16.1752 11.4262 14.3023 12.6654 10.6689 15.1168C10.1377 15.4822 9.65643 15.6604 9.2231 15.651C8.7481 15.6408 7.83143 15.3818 7.15018 15.1606C6.31685 14.8891 5.65227 14.7456 5.7106 14.2845C5.73977 14.0445 6.07102 13.7989 6.70227 13.5479Z" fill="white"/>
<defs>
<linearGradient id="paint0_linear_2269_163" x1="1334" y1="0.355225" x2="1334" y2="2667.02" gradientUnits="userSpaceOnUse">
<stop stop-color="#2AABEE"/>
<stop offset="1" stop-color="#229ED9"/>
</linearGradient>
</defs>
</svg>