<svg xmlns="http://www.w3.org/2000/svg" width="38" height="28" viewBox="0 0 38 28" fill="none">
<g clip-path="url(#clip0_2269_150)">
<path d="M36.8864 4.51939C36.4571 2.88025 35.1922 1.5895 33.5858 1.15144C30.6744 0.355306 18.9999 0.355306 18.9999 0.355306C18.9999 0.355306 7.32547 0.355306 4.41402 1.15144C2.80777 1.5895 1.54267 2.88025 1.11338 4.51939C0.333252 7.49021 0.333252 13.6886 0.333252 13.6886C0.333252 13.6886 0.333252 19.887 1.11338 22.8581C1.54267 24.497 2.80777 25.7878 4.41402 26.226C7.32547 27.022 18.9999 27.022 18.9999 27.022C18.9999 27.022 30.6744 27.022 33.5858 26.226C35.1922 25.7878 36.4571 24.497 36.8864 22.8581C37.6666 19.887 37.6666 13.6886 37.6666 13.6886C37.6666 13.6886 37.6666 7.49021 36.8864 4.51939Z" fill="#ED1D24"/>
<path d="M15.1816 19.3164L24.9392 13.689L15.1816 8.06103V19.3164Z" fill="white"/>
</g>
<defs>
<clipPath id="clip0_2269_150">
<rect width="37.3333" height="26.6667" fill="white" transform="translate(0.333252 0.355225)"/>
</clipPath>
</defs>
</svg>